<svg xmlns="http://www.w3.org/2000/svg" width="129.506" height="118.351" viewBox="0 0 129.506 118.351">
  <g id="Grupo_12784" data-name="Grupo 12784" transform="translate(-1343.693 -34.914)">
    <path id="Trazado_18114" data-name="Trazado 18114" d="M1350.391,46.077h104.933a4.465,4.465,0,0,1,4.465,4.465v75.909a4.466,4.466,0,0,1-4.465,4.466H1350.391a4.466,4.466,0,0,1-4.465-4.466V50.542A4.465,4.465,0,0,1,1350.391,46.077Z" fill="#4799cf"/>
    <path id="Trazado_18115" data-name="Trazado 18115" d="M1455.324,130.917H1350.391a4.466,4.466,0,0,1-4.465-4.466V63.938h113.863v62.513A4.466,4.466,0,0,1,1455.324,130.917Z" fill="#c0f5f9"/>
    <path id="Trazado_18116" data-name="Trazado 18116" d="M1345.926,63.938h13.4v66.979h-8.93a4.466,4.466,0,0,1-4.465-4.466Z" fill="#6cbae5"/>
    <path id="Trazado_18117" data-name="Trazado 18117" d="M1345.926,63.938h13.4v13.4h-13.4Z" fill="#6cbae5"/>
    <path id="Trazado_18118" data-name="Trazado 18118" d="M1345.926,77.334h13.4V90.729h-13.4Z" fill="#4799cf"/>
    <path id="Trazado_18119" data-name="Trazado 18119" d="M1345.926,104.125h13.4v13.4h-13.4Z" fill="#4799cf"/>
    <path id="Trazado_18120" data-name="Trazado 18120" d="M1352.624,52.775h4.465V57.24h-4.465Z" fill="#3775a4"/>
    <path id="Trazado_18121" data-name="Trazado 18121" d="M1361.554,52.775h11.163V57.24h-11.163Z" fill="#3775a4"/>
    <path id="Trazado_18122" data-name="Trazado 18122" d="M1377.182,52.775h4.466V57.24h-4.466Z" fill="#3775a4"/>
    <path id="Trazado_18123" data-name="Trazado 18123" d="M1374.95,119.753h8.93v4.466h-8.93Z" fill="#8aced8"/>
    <path id="Trazado_18124" data-name="Trazado 18124" d="M1388.345,119.753h8.931v4.466h-8.931Z" fill="#8aced8"/>
    <g id="Grupo_12783" data-name="Grupo 12783">
      <path id="Trazado_18125" data-name="Trazado 18125" d="M1370.485,34.914h4.465v4.465h-4.465Z" fill="#c0f5f9"/>
      <path id="Trazado_18126" data-name="Trazado 18126" d="M1361.554,34.914h4.465v4.465h-4.465Z" fill="#c0f5f9"/>
      <path id="Trazado_18127" data-name="Trazado 18127" d="M1348.158,34.914h8.931v4.465h-8.931Z" fill="#c0f5f9"/>
    </g>
    <path id="Trazado_18128" data-name="Trazado 18128" d="M1466.487,95.195h4.465V99.66h-4.465Z" fill="#fbedbf"/>
    <path id="Trazado_18129" data-name="Trazado 18129" d="M1466.487,86.264h4.465v4.465h-4.465Z" fill="#fbedbf"/>
    <path id="Trazado_18130" data-name="Trazado 18130" d="M1466.487,72.869h4.465V81.8h-4.465Z" fill="#fbedbf"/>
    <path id="Trazado_18131" data-name="Trazado 18131" d="M1418.9,115.288a26.51,26.51,0,0,0-.648,15.629h37.077a4.466,4.466,0,0,0,4.465-4.466V102.489a26.714,26.714,0,0,0-11.163-4.689l-2.233,17.488Z" fill="#b9edf0"/>
    <path id="Trazado_18132" data-name="Trazado 18132" d="M1446.393,75.1H1374.95a2.233,2.233,0,0,0-2.233,2.233v35.722a2.232,2.232,0,0,0,2.233,2.232h71.443a2.232,2.232,0,0,0,2.233-2.232V77.334A2.233,2.233,0,0,0,1446.393,75.1Zm-2.232,26.792H1433V97.427h11.163Zm-58.048,0V97.427h42.419v4.466Zm42.419,4.465v4.465h-42.419v-4.465Zm0-17.861v4.465h-42.419V88.5Zm15.629,4.465H1433V88.5h11.163Zm-62.513,0h-4.466V88.5h4.466Zm-4.466,4.465h4.466v4.466h-4.466Zm66.979-17.861v4.466H1433V79.566Zm-66.979,0h51.35v4.466h-51.35Zm0,31.257v-4.465h4.466v4.465Zm55.816,0v-4.465h11.163v4.465Z" fill="#8aced8"/>
    <path id="Trazado_18133" data-name="Trazado 18133" d="M1444.161,97.427v4.466H1433v-2.01a26.767,26.767,0,0,0-8.765,6.475h4.3v4.465h-7.55a26.765,26.765,0,0,0-2.057,4.465h27.468a2.232,2.232,0,0,0,2.233-2.232V97.809A26.51,26.51,0,0,0,1444.161,97.427Zm0,13.4H1433v-4.465h11.163Z" fill="#82c2cb"/>
    <path id="Trazado_18134" data-name="Trazado 18134" d="M1470.952,126.451a24.559,24.559,0,1,1-24.559-24.558A24.558,24.558,0,0,1,1470.952,126.451Z" fill="#f3f3f3"/>
    <path id="Trazado_18135" data-name="Trazado 18135" d="M1446.393,121.986h-2.232v-6.7a2.232,2.232,0,0,1,3.349-1.934,2.233,2.233,0,1,0,2.232-3.869,6.7,6.7,0,0,0-10.046,5.8v6.7h-2.233a2.232,2.232,0,1,0,0,4.465h2.233v6.7a2.233,2.233,0,0,1-3.349,1.933,2.234,2.234,0,1,0-2.233,3.869,6.7,6.7,0,0,0,10.047-5.8v-6.7h2.232a2.232,2.232,0,1,0,0-4.465Z" fill="#fd9226"/>
    <path id="Trazado_18136" data-name="Trazado 18136" d="M1457.365,134.265l1.77-1.77a2.233,2.233,0,0,0-3.157-3.157l-1.77,1.77-1.771-1.77a2.233,2.233,0,0,0-3.157,3.157l1.771,1.77-1.771,1.771a2.233,2.233,0,1,0,3.157,3.157l1.771-1.771,1.77,1.771a2.233,2.233,0,0,0,3.157-3.157Z" fill="#fd9226"/>
    <path id="Trazado_18137" data-name="Trazado 18137" d="M1446.393,121.986h-2.232v-6.7a2.232,2.232,0,0,1,3.349-1.934,2.233,2.233,0,1,0,2.232-3.869,6.7,6.7,0,0,0-10.046,5.8v6.7h-2.233a2.232,2.232,0,1,0,0,4.465h2.233v6.7a2.233,2.233,0,0,1-3.349,1.933,2.234,2.234,0,1,0-2.233,3.869,6.7,6.7,0,0,0,10.047-5.8v-6.7h2.232a2.232,2.232,0,1,0,0-4.465Z"/>
    <path id="Trazado_18138" data-name="Trazado 18138" d="M1459.135,129.338a2.232,2.232,0,0,0-3.157,0l-1.77,1.77-1.771-1.77a2.233,2.233,0,0,0-3.157,3.157l1.771,1.77-1.771,1.771a2.233,2.233,0,1,0,3.157,3.157l1.771-1.771,1.77,1.771a2.233,2.233,0,0,0,3.157-3.157l-1.77-1.771,1.77-1.77A2.234,2.234,0,0,0,1459.135,129.338Z"/>
    <path id="Trazado_18139" data-name="Trazado 18139" d="M1462.022,104.735V50.542a6.7,6.7,0,0,0-6.7-6.7H1350.391a6.7,6.7,0,0,0-6.7,6.7v75.909a6.7,6.7,0,0,0,6.7,6.7h70.1a26.771,26.771,0,1,0,41.527-28.414ZM1350.391,48.31h104.933a2.232,2.232,0,0,1,2.232,2.232V61.705h-109.4V50.542A2.232,2.232,0,0,1,1350.391,48.31Zm-2.233,44.652h8.931v8.931h-8.931Zm8.931-4.465h-8.931V79.566h8.931Zm-8.931,17.861h8.931v8.93h-8.931Zm8.931-31.257h-8.931v-8.93h8.931Zm-6.7,53.583a2.233,2.233,0,0,1-2.233-2.233v-6.7h8.931v8.931Zm11.163,0V66.171h96v35.945a26.529,26.529,0,0,0-8.93-2.354V77.334a2.233,2.233,0,0,0-2.233-2.233H1374.95a2.233,2.233,0,0,0-2.233,2.233v35.722a2.232,2.232,0,0,0,2.233,2.232h47.108a26.6,26.6,0,0,0-2.456,11.163c0,.755.051,1.494.113,2.233Zm74.163-26.791H1433V97.427h11.163v2.346A26.532,26.532,0,0,0,1435.717,101.893Zm-11.04,8.93h-38.564v-4.465h42.419v.181A26.9,26.9,0,0,0,1424.677,110.823Zm-43.029-17.861h-4.466V88.5h4.466Zm-4.466,4.465h4.466v4.466h-4.466Zm8.931,0h42.419v4.466h-42.419Zm0-4.465V88.5h42.419v4.465ZM1433,88.5h11.163v4.465H1433Zm11.163-4.465H1433V79.566h11.163Zm-15.629,0h-51.35V79.566h51.35Zm-51.35,22.326h4.466v4.465h-4.466Zm69.211,42.419a22.326,22.326,0,1,1,22.327-22.326A22.326,22.326,0,0,1,1446.393,148.777Z"/>
    <path id="Trazado_18140" data-name="Trazado 18140" d="M1352.624,52.775h4.465V57.24h-4.465Z"/>
    <path id="Trazado_18141" data-name="Trazado 18141" d="M1361.554,52.775h11.163V57.24h-11.163Z"/>
    <path id="Trazado_18142" data-name="Trazado 18142" d="M1377.182,52.775h4.466V57.24h-4.466Z"/>
    <path id="Trazado_18143" data-name="Trazado 18143" d="M1374.95,119.753h8.93v4.466h-8.93Z"/>
    <path id="Trazado_18144" data-name="Trazado 18144" d="M1388.345,119.753h8.931v4.466h-8.931Z"/>
    <path id="Trazado_18145" data-name="Trazado 18145" d="M1370.485,34.914h4.465v4.465h-4.465Z"/>
    <path id="Trazado_18146" data-name="Trazado 18146" d="M1361.554,34.914h4.465v4.465h-4.465Z"/>
    <path id="Trazado_18147" data-name="Trazado 18147" d="M1348.158,34.914h8.931v4.465h-8.931Z"/>
    <path id="Trazado_18148" data-name="Trazado 18148" d="M1466.487,95.195h4.465V99.66h-4.465Z"/>
    <path id="Trazado_18149" data-name="Trazado 18149" d="M1466.487,86.264h4.465v4.465h-4.465Z"/>
    <path id="Trazado_18150" data-name="Trazado 18150" d="M1466.487,72.869h4.465V81.8h-4.465Z"/>
  </g>
</svg>
