<svg xmlns="http://www.w3.org/2000/svg" width="265.232" height="259.321" viewBox="0 0 265.232 259.321">
  <g id="Grupo_12984" data-name="Grupo 12984" transform="translate(-267.121 -246.344)">
    <g id="Grupo_12973" data-name="Grupo 12973" transform="translate(278.672 481.978)">
      <ellipse id="Elipse_686" data-name="Elipse 686" cx="26.25" cy="7.684" rx="26.25" ry="7.684" transform="translate(43.15 3.328)" fill="#d1dbe5"/>
      <path id="Trazado_18652" data-name="Trazado 18652" d="M274.311,401.414c0,4.244,11.753,7.684,26.251,7.684s26.251-3.439,26.251-7.684-11.753-7.685-26.251-7.685S274.311,397.17,274.311,401.414Z" transform="translate(-274.311 -392.598)" fill="#d1dbe5"/>
      <path id="Trazado_18653" data-name="Trazado 18653" d="M363.77,405.184c0,4.243,11.753,7.684,26.251,7.684s26.251-3.441,26.251-7.684-11.753-7.685-26.251-7.685S363.77,400.94,363.77,405.184Z" transform="translate(-220.06 -390.312)" fill="#d1dbe5"/>
      <ellipse id="Elipse_687" data-name="Elipse 687" cx="34.073" cy="8.079" rx="34.073" ry="8.079" transform="translate(182.511 0.342)" fill="#d1dbe5"/>
      <ellipse id="Elipse_688" data-name="Elipse 688" cx="40.459" cy="11.843" rx="40.459" ry="11.843" transform="translate(80.927)" fill="#d1dbe5"/>
    </g>
    <g id="Grupo_12976" data-name="Grupo 12976" transform="translate(441.19 263.106)">
      <path id="Trazado_18654" data-name="Trazado 18654" d="M426.368,340.541c1.91-1.939,4.612-1.2,6.1.758l.13.172c.9,1.181.565,2.8.043,4.024a4.374,4.374,0,0,0-.275,2.777l.154.111q.4.287.808.575c.741.53,1.4,1.1,2.069,1.659a1.744,1.744,0,0,1,.291,2.056c-1.658,3.918-7.666,2.059-9.6-.541C423.836,349.111,423.613,343.336,426.368,340.541Z" transform="translate(-345.84 -206.67)" fill="#ffdea2"/>
      <path id="Trazado_18655" data-name="Trazado 18655" d="M427.909,406.861a2.516,2.516,0,0,0,1.274-1.194,5.19,5.19,0,0,0-.871-5.553,15.242,15.242,0,0,0-4.779-3.494,36.8,36.8,0,0,0-6.35-2.964,12.329,12.329,0,0,0-6.911-.377,4.573,4.573,0,0,0,.352,4.726,11.579,11.579,0,0,0,3.724,3.272,54.168,54.168,0,0,0,11.174,5.351A3.621,3.621,0,0,0,427.909,406.861Z" transform="translate(-354.686 -174.203)" fill="#b09795"/>
      <path id="Trazado_18656" data-name="Trazado 18656" d="M392.07,404.012c-.964-.5-1.057-1.279-1.089-2.721a4.315,4.315,0,0,1,.424-2.3,4.869,4.869,0,0,1,.954-1.07,18.071,18.071,0,0,1,7.235-4.26,12.329,12.329,0,0,1,6.911-.377c1.785.484-.431,6.138-1.044,6.863a9.578,9.578,0,0,1-2.546,2c-.5.272-1.031.5-1.558.721a19.887,19.887,0,0,1-3.364,1.189c-1.484.334-3.952.683-5.425.172A3.865,3.865,0,0,1,392.07,404.012Z" transform="translate(-366.079 -174.203)" fill="#b09795"/>
      <g id="Grupo_12974" data-name="Grupo 12974" transform="translate(28.147 108.948)">
        <path id="Trazado_18657" data-name="Trazado 18657" d="M395.853,326.6l42.557-2v16.586l-5.891,94.608h-13.43l-1.7-79.164-1.942,5.739-8.613,73.425H393Z" transform="translate(-392.999 -324.598)" fill="#6d4a4a"/>
      </g>
      <path id="Trazado_18658" data-name="Trazado 18658" d="M401.29,327.711l22.875-.716v6l-22.875.716Z" transform="translate(-359.824 -214.196)" fill="#b09795"/>
      <path id="Trazado_18659" data-name="Trazado 18659" d="M403.354,327.478v6l-8.578.269v-6Z" transform="translate(-363.775 -213.903)" fill="#b09795"/>
      <path id="Trazado_18660" data-name="Trazado 18660" d="M417.258,327.017l6.44-.2v6l-6.44.2Z" transform="translate(-350.141 -214.305)" fill="#b09795"/>
      <path id="Trazado_18661" data-name="Trazado 18661" d="M398.871,291.12l15.324-3.26,14.435,1.851v13.134H398.871Z" transform="translate(-361.291 -237.929)" fill="#ffdea2"/>
      <path id="Trazado_18662" data-name="Trazado 18662" d="M419.616,293.155c0,4.138-16.27,4.138-16.27,0V282.424h16.27Z" transform="translate(-358.578 -241.225)" fill="#ffdea2"/>
      <path id="Trazado_18663" data-name="Trazado 18663" d="M419.616,290.665c0,4.138-16.27,4.138-16.27,0V279.936h16.27Z" transform="translate(-358.578 -242.734)" fill="#efb67a"/>
      <rect id="Rect치ngulo_3105" data-name="Rect치ngulo 3105" width="11.326" height="7.995" rx="0.899" transform="matrix(-0.999, 0.036, -0.036, -0.999, 58.484, 120.299)" fill="#d1fecf"/>
      <rect id="Rect치ngulo_3106" data-name="Rect치ngulo 3106" width="4.453" height="7.399" transform="translate(49.064 118.866) rotate(-92.057)" fill="#b09795"/>
      <g id="Grupo_12975" data-name="Grupo 12975" transform="translate(0 47.77)">
        <path id="Trazado_18664" data-name="Trazado 18664" d="M428.381,299.107l8.385-12.592,1.847,2.069,23.411,3.379,4.616,41.351-2.77,41.079h-9.328l-1.066-31.647-4.442-16.953v22.844l-42.64,1.333.549-4.89-3.179,8.339-26.387,3.625-1.9-7.756,20.807-14.728.783-39.222,21.346-6.072,1.887-2.06Z" transform="translate(-375.478 -286.515)" fill="#d1fecf"/>
        <path id="Trazado_18665" data-name="Trazado 18665" d="M459.642,291.068l-21.322-3.077-2.439,12.664-2.151-1.692L426,309.205l-7.149-10.491-2.468,1.941-3.661-11.343-18.036,5.13-.783,39.222-14.494,10.26,2.1,10.978,19.876-2.379,3.179-8.339-.549,4.89,42.64-1.333V324.9l4.442,16.953L452,368.732h9.81l2.449-36.313Z" transform="translate(-373.095 -285.62)" fill="#a7ae61"/>
      </g>
      <path id="Trazado_18666" data-name="Trazado 18666" d="M400.917,276.206c.813,3.038.008,5.891-1.8,6.373s-3.928-1.587-4.739-4.623-.008-5.891,1.8-6.374S400.106,273.17,400.917,276.206Z" transform="translate(-364.207 -247.843)" fill="#ffdea2"/>
      <path id="Trazado_18667" data-name="Trazado 18667" d="M418.849,276.206c-.811,3.038-.006,5.891,1.8,6.373s3.928-1.587,4.741-4.623.006-5.891-1.8-6.374S419.662,273.17,418.849,276.206Z" transform="translate(-349.367 -247.843)" fill="#ffdea2"/>
      <path id="Trazado_18668" data-name="Trazado 18668" d="M426.256,307.688a44.23,44.23,0,0,1-22.132-.021,9.079,9.079,0,0,1-6.847-8.8V276.192a17.83,17.83,0,0,1,17.391-17.9l.392,0A17.876,17.876,0,0,1,433.044,276.2v22.7A9.059,9.059,0,0,1,426.256,307.688Z" transform="translate(-362.257 -255.866)" fill="#ffdea2"/>
      <path id="Trazado_18669" data-name="Trazado 18669" d="M431.164,264.461v5.886h-.7l.034,15.921a22.341,22.341,0,0,1-3.168,11.52h0l-1.2-9.847L424.15,294.8c-.954,2.214-4.191,3.81-6.6,3.81h-3.537a6.04,6.04,0,0,1-5.873-4.633l-1.113-4.652-2.183,9.051-5.239-5.9V270.347h-2.2a18.119,18.119,0,0,0-.129,2.1v22.672a9.079,9.079,0,0,0,6.847,8.8,44.229,44.229,0,0,0,22.132.021,9.059,9.059,0,0,0,6.787-8.789v-22.7A17.889,17.889,0,0,0,431.164,264.461Z" transform="translate(-362.257 -252.119)" fill="#c2c7ac"/>
      <path id="Trazado_18670" data-name="Trazado 18670" d="M425,261.324h0c6.495-2.13,10.159-.153,10.159,11.2l-.773,18.156-3.558-13.465-3.361-8.588-21.884,4.267a5.31,5.31,0,0,0-4.292,5.211h0l-2.67,12.575L395.954,277.1c-4.787-23.4,10.8-20.625,22.122-19.754A9.258,9.258,0,0,1,425,261.324Z" transform="translate(-363.599 -256.778)" fill="#d4d9cd"/>
      <path id="Trazado_18671" data-name="Trazado 18671" d="M415.515,274.123c0,1.532-.769,2.776-1.721,2.776s-1.72-1.243-1.72-2.776.77-2.776,1.72-2.776S415.515,272.589,415.515,274.123Z" transform="translate(-353.285 -247.943)" fill="#732"/>
      <path id="Trazado_18672" data-name="Trazado 18672" d="M405.543,274.123c0,1.532-.769,2.776-1.72,2.776s-1.721-1.243-1.721-2.776.77-2.776,1.721-2.776S405.543,272.589,405.543,274.123Z" transform="translate(-359.332 -247.943)" fill="#732"/>
      <path id="Trazado_18673" data-name="Trazado 18673" d="M411.412,269.668a3.979,3.979,0,0,1,3.475-1.525c1.144.124,2.463,1.017,2.252,2.288a.513.513,0,0,1-.853.241c-.639-.6-.945-1.218-1.918-1.306a4.556,4.556,0,0,0-2.493.9A.382.382,0,0,1,411.412,269.668Z" transform="translate(-353.743 -249.899)" fill="#d4a486"/>
      <path id="Trazado_18674" data-name="Trazado 18674" d="M402.268,268.291a3.471,3.471,0,0,1,5.152,1.756.42.42,0,0,1-.6.477c-1.108-.585-2.239-2.039-3.545-.946A.819.819,0,1,1,402.268,268.291Z" transform="translate(-359.458 -250.141)" fill="#d4a486"/>
      <path id="Trazado_18675" data-name="Trazado 18675" d="M412.555,274.561c1.4.013,3.224.095,4.368.983a.164.164,0,0,1-.112.279,11.2,11.2,0,0,1-1.844-.484,12.306,12.306,0,0,0-2.4-.382C412.313,274.94,412.3,274.559,412.555,274.561Z" transform="translate(-353.106 -245.994)" fill="#e6935c"/>
      <path id="Trazado_18676" data-name="Trazado 18676" d="M402.574,274.451a.221.221,0,0,1,.008.442,3.021,3.021,0,0,0-1.142.4,8.654,8.654,0,0,0-.949.835c-.079.064-.23.035-.223-.088C400.326,274.986,401.632,274.36,402.574,274.451Z" transform="translate(-360.445 -246.066)" fill="#e6935c"/>
      <path id="Trazado_18677" data-name="Trazado 18677" d="M408.41,298.031l6.107-7,3.775,7.773-4.941-3.886Z" transform="translate(-355.507 -236.003)" fill="#84cfae"/>
      <path id="Trazado_18678" data-name="Trazado 18678" d="M412.306,298.031l-6.107-7-3.775,7.773,4.941-3.886Z" transform="translate(-359.137 -236.003)" fill="#84cfae"/>
      <path id="Trazado_18679" data-name="Trazado 18679" d="M419.274,275.724a4.494,4.494,0,0,0-4.689-1.986.259.259,0,0,0,.056.508,10,10,0,0,1,2.288.3,9.08,9.08,0,0,1,2.161,1.362C419.209,275.984,419.327,275.836,419.274,275.724Z" transform="translate(-351.877 -246.562)" fill="#e6935c"/>
      <path id="Trazado_18680" data-name="Trazado 18680" d="M418.2,273.625a2.643,2.643,0,0,0-1.6-.594,1.82,1.82,0,0,0-1.619.654.142.142,0,0,0,.154.207c.413-.127.744-.392,1.181-.487a2.21,2.21,0,0,1,1.727.418C418.161,273.907,418.31,273.717,418.2,273.625Z" transform="translate(-351.53 -246.923)" fill="#e6935c"/>
      <path id="Trazado_18681" data-name="Trazado 18681" d="M403.942,273.733c-.5-.472-1.4-.22-2.016-.1a5.656,5.656,0,0,0-2.416,1.277c-.137.111.042.349.185.247a6.138,6.138,0,0,1,2.108-.92c.663-.174,1.533.072,2.106-.275A.149.149,0,0,0,403.942,273.733Z" transform="translate(-360.934 -246.663)" fill="#e6935c"/>
      <path id="Trazado_18682" data-name="Trazado 18682" d="M401.99,272.605a3.627,3.627,0,0,0-2.511.554c-.186.1-.055.339.125.318.636-.072,1.214-.361,1.859-.382.8-.024,1.2.562,1.807.932a.2.2,0,0,0,.288-.215C403.391,273.129,402.62,272.771,401.99,272.605Z" transform="translate(-360.977 -247.22)" fill="#e6935c"/>
      <path id="Trazado_18683" data-name="Trazado 18683" d="M416.222,279.189a5.655,5.655,0,0,0-1.953-1.211,16.091,16.091,0,0,0-2.736-1.108.167.167,0,0,0-.132.3,31.9,31.9,0,0,0,3.446,1.722,2.958,2.958,0,0,1,1.518,1.655,6.944,6.944,0,0,1,.043,1.984c0,.1.161.17.21.058A3.081,3.081,0,0,0,416.222,279.189Z" transform="translate(-353.739 -244.598)" fill="#e6935c"/>
      <path id="Trazado_18684" data-name="Trazado 18684" d="M401.5,282.31a3.531,3.531,0,0,1,.334-2.467.107.107,0,0,0-.185-.108c-.728,1.184-1.118,3.359.2,4.312.1.074.241-.045.21-.157C401.912,283.349,401.631,282.861,401.5,282.31Z" transform="translate(-360.013 -242.888)" fill="#e6935c"/>
      <path id="Trazado_18685" data-name="Trazado 18685" d="M411.326,282.168a4.743,4.743,0,0,1-4.578,1.43c-1.385-.328.281-5.108.479-5.937.511-2.145,2.09-5.656.122-7.478-.127-.117-.365.037-.255.193,1.5,2.174.011,5.446-.548,7.78q-.383,1.607-.77,3.215c-.092.384-.591,1.589-.315,2.016,1.393,2.158,5.11.806,6.191-.964A.209.209,0,0,0,411.326,282.168Z" transform="translate(-357.345 -248.674)" fill="#e6935c"/>
      <path id="Trazado_18686" data-name="Trazado 18686" d="M418.659,277.748c-.12-.153-.308.016-.291.162.186,1.587-1.859,2.938-2.953,3.746a10.784,10.784,0,0,1-3.81,1.907c-3.306.822-5.745-1.375-7.337-3.931a.289.289,0,0,0-.53.209c.965,3.671,5.2,5.227,8.6,4.379C414.072,283.791,420.482,280.059,418.659,277.748Z" transform="translate(-358.346 -244.098)" fill="#e6935c"/>
      <path id="Trazado_18687" data-name="Trazado 18687" d="M404.226,277.572a2,2,0,0,0-.851.787,1.016,1.016,0,0,0-.093,1.076.157.157,0,0,0,.246-.031,4.4,4.4,0,0,0,.159-.806,1.337,1.337,0,0,1,.67-.792C404.511,277.725,404.381,277.5,404.226,277.572Z" transform="translate(-358.69 -244.176)" fill="#e6935c"/>
      <path id="Trazado_18688" data-name="Trazado 18688" d="M410.246,283.695a3.962,3.962,0,0,1-2.591-.235,2.363,2.363,0,0,1-.978-.786,2.637,2.637,0,0,1-.246-.893.114.114,0,0,0-.188-.053c-.689.588.21,1.537.715,1.9a3.773,3.773,0,0,0,3.362.366A.156.156,0,0,0,410.246,283.695Z" transform="translate(-356.973 -241.666)" fill="#e6935c"/>
    </g>
    <g id="Grupo_12977" data-name="Grupo 12977" transform="translate(267.121 260.535)">
      <path id="Trazado_18689" data-name="Trazado 18689" d="M325.661,350.467l-5.406-28.238L286.04,320.9l-7.65,23.431c1.835,31.655,10.366,66.333,14.317,94.163h6.378l5.039-87.035L302.093,436.5h6.723C315.9,407.9,322.978,380.349,325.661,350.467Z" transform="translate(-260.286 -215.321)" fill="#ffdea2"/>
      <path id="Trazado_18690" data-name="Trazado 18690" d="M302.085,387.295q-1.1,4.46-2.217,8.945h-6.723l.214-8.945Z" transform="translate(-251.338 -175.057)" fill="#d4bd7c"/>
      <path id="Trazado_18691" data-name="Trazado 18691" d="M294.958,387.295l-.635,10.937h-6.378c-.5-3.541-1.081-7.194-1.7-10.937Z" transform="translate(-255.525 -175.057)" fill="#d4bd7c"/>
      <path id="Trazado_18692" data-name="Trazado 18692" d="M345.7,370.359a4.713,4.713,0,0,0-.408-.529l-10.315-28.472-4.3-39.873a7.909,7.909,0,0,0-6.068-6l-15.081-3.208L291.42,294.63a11.1,11.1,0,0,0-2.138.514,15.245,15.245,0,0,0-10.129,13.126L274.3,339.586l-5.348,26.293-1.762,11.494a5.917,5.917,0,0,0,2.832,5.984l1.25.741a2.52,2.52,0,0,0,3.8-2.125l-.541-11.4,9.849-24.08,4.047-18.021-.077,11.709,38.738-.594.141,4.872,12.28,25.621a3.643,3.643,0,0,0-.524,3.24c-2.175.386-2.88,3.521-1.892,5.287,1.192,2.13,3.891,2.578,6.063,1.976a6.038,6.038,0,0,0,4.307-4.244C348.023,374.068,346.9,372.172,345.7,370.359Z" transform="translate(-267.121 -232.677)" fill="#ffdea2"/>
      <path id="Trazado_18693" data-name="Trazado 18693" d="M268.356,365.878l5.348-26.293,4.855-31.316a15.245,15.245,0,0,1,10.129-13.126,11.1,11.1,0,0,1,2.138-.514l18.109-2.349,15.081,3.208a7.909,7.909,0,0,1,6.068,6l4.3,39.873,8.72,24.071h-6.421l-10.05-20.97-.141-4.872-38.738.594.077-11.709-4.047,18.021-8.606,21.041H268.1Z" transform="translate(-266.525 -232.677)" fill="#a7ae61"/>
      <path id="Trazado_18694" data-name="Trazado 18694" d="M290.559,299.59c0,3.976,10.792,3.976,10.792,0V289.278H290.559Z" transform="translate(-252.907 -234.499)" fill="#ffdea2"/>
      <path id="Trazado_18695" data-name="Trazado 18695" d="M290.559,297.2c0,3.976,10.792,3.976,10.792,0V286.887H290.559Z" transform="translate(-252.907 -235.949)" fill="#efb67a"/>
      <path id="Trazado_18696" data-name="Trazado 18696" d="M303.321,276.886c-.781,2.919-.006,5.661,1.729,6.125s3.773-1.526,4.554-4.445.006-5.661-1.729-6.124S304.1,273.968,303.321,276.886Z" transform="translate(-245.352 -244.749)" fill="#ffdea2"/>
      <path id="Trazado_18697" data-name="Trazado 18697" d="M286.089,276.886c.781,2.919.006,5.661-1.728,6.125s-3.774-1.526-4.554-4.445-.006-5.661,1.729-6.124S285.308,273.968,286.089,276.886Z" transform="translate(-259.612 -244.749)" fill="#ffdea2"/>
      <path id="Trazado_18698" data-name="Trazado 18698" d="M295.712,309.763c.342.088.683.169,1.02.238a16.176,16.176,0,0,0,19.178-14.868l1.274-15.64a17.134,17.134,0,0,0-16.713-17.2c-.342-.006-.683-.008-1.023-.008a16.55,16.55,0,0,0-16.607,16.943c.119,6.28.607,10.787,1.059,16.214A16.084,16.084,0,0,0,295.712,309.763Z" transform="translate(-257.589 -250.871)" fill="#ffdea2"/>
      <path id="Trazado_18699" data-name="Trazado 18699" d="M321.538,403.8l7.189-59.106-7.495-22.962-38.737.595L276.78,344.69l5.714,58.109Z" transform="translate(-261.263 -214.82)" fill="#6d4a4a"/>
      <path id="Trazado_18700" data-name="Trazado 18700" d="M294.848,264.558c-12.72-4.172-18.942,15.441-16.435,24.509,1.925,6.974,6.62,11.15,11.688,15.828-2.94-10.423-2.63-24.076,5.243-32.352,2.079-2.185,4.641-.347,7.07.835a30.574,30.574,0,0,1,6.59,4.429,32.087,32.087,0,0,1,9.184,13.34c1.02,2.864,1.624,6.01.816,8.94,4.467-5.435,9.21-11.782,8.214-18.747a22.958,22.958,0,0,0-2.174-6.37c-4.569-9.78-12.416-14.511-23.231-14.211A8.755,8.755,0,0,0,294.848,264.558Z" transform="translate(-260.604 -251.801)" fill="#d4d9cd"/>
      <path id="Trazado_18701" data-name="Trazado 18701" d="M290.484,393.48c-.466.569-.892,1.176-1.312,1.711-1.714,2.182-3.719,4.148-5.634,6.167a8.1,8.1,0,0,0-.938,1.145,2.379,2.379,0,0,0-.442,1.831,2.3,2.3,0,0,0,1.582,1.563,5.441,5.441,0,0,0,2.307.116,12.033,12.033,0,0,0,4.842-1.5c2.173-1.3,2.659-3.925,4.561-5.237.32.959,1.478,1.656,2.17.353a6.707,6.707,0,0,0-.378-6.146Z" transform="translate(-258.03 -171.306)" fill="#732"/>
      <path id="Trazado_18702" data-name="Trazado 18702" d="M312.914,402.176c-2-2.61-5.627-3.2-8.418-4.937a13.81,13.81,0,0,1-4.352-4.586h-6.866a7.594,7.594,0,0,0-.22,4.458,5.237,5.237,0,0,0,1.512,2.593c.652.593,2.148,1.2,2.9.41a1.22,1.22,0,0,0,.149-1.041,50.213,50.213,0,0,0,6.076,3.505,14.582,14.582,0,0,0,6.125,1.248,15.449,15.449,0,0,0,2.3-.193c.464-.076,1.026-.272,1.081-.737A1.051,1.051,0,0,0,312.914,402.176Z" transform="translate(-251.531 -171.808)" fill="#732"/>
      <path id="Trazado_18703" data-name="Trazado 18703" d="M303.259,397.809a.53.53,0,0,0,.246-1c-.267-.141-.529-.289-.782-.448a11.946,11.946,0,0,1-2.638-2.262h-4.334l1.9,1.63a8.613,8.613,0,0,0,5.611,2.079Z" transform="translate(-249.758 -170.93)" fill="#d4bd7c"/>
      <path id="Trazado_18704" data-name="Trazado 18704" d="M299.42,285.275c-1.3.734-2.9,2.082-4.468,1.341a6.81,6.81,0,0,1-2.832-2.549c-.191-.271-.741-.329-.808.095-.276,1.746,1.7,3.049,3.147,3.611,2.17.845,3.838-.569,5.222-2.149A.221.221,0,0,0,299.42,285.275Z" transform="translate(-252.465 -237.788)" fill="#e6935c"/>
      <path id="Trazado_18705" data-name="Trazado 18705" d="M286.467,397.894h0a4.042,4.042,0,0,0,3.79-1.791l1.028-1.558H287.12l-1.357,1.557A1.086,1.086,0,0,0,286.467,397.894Z" transform="translate(-255.978 -170.661)" fill="#d4bd7c"/>
      <path id="Trazado_18706" data-name="Trazado 18706" d="M287.94,279.458c0,1.473.741,2.668,1.653,2.668s1.655-1.2,1.655-2.668-.741-2.668-1.655-2.668S287.94,277.985,287.94,279.458Z" transform="translate(-254.495 -242.072)" fill="#732"/>
      <path id="Trazado_18707" data-name="Trazado 18707" d="M297.523,279.458c0,1.473.741,2.668,1.653,2.668s1.655-1.2,1.655-2.668-.741-2.668-1.655-2.668S297.523,277.985,297.523,279.458Z" transform="translate(-248.683 -242.072)" fill="#732"/>
      <path id="Trazado_18708" data-name="Trazado 18708" d="M294.468,284.657a5.008,5.008,0,0,0,1.8.234c1.42-.058,1.676-1.4,1.481-2.53-.188-1.088-1.745-1.589-2.23-2.521-.042-.079.026-.207.127-.17a6.091,6.091,0,0,1,2.1,1.7,2.484,2.484,0,0,1,.533,2.064c-.294,2.1-2.247,2.04-3.86,1.41C294.31,284.8,294.347,284.618,294.468,284.657Z" transform="translate(-250.605 -240.329)" fill="#e6935c"/>
      <path id="Trazado_18709" data-name="Trazado 18709" d="M294.132,277.083c.035-.14.275-.124.259.029a3.979,3.979,0,0,0,.729,2.67c.43.665,1.147,1.145,1.457,1.873.051.124-.1.2-.2.157a4.866,4.866,0,0,1-1.849-2.026A3.53,3.53,0,0,1,294.132,277.083Z" transform="translate(-250.809 -241.952)" fill="#e6935c"/>
      <path id="Trazado_18710" data-name="Trazado 18710" d="M286.148,277.1a4.95,4.95,0,0,0,2.108,1.732.285.285,0,0,1-.206.524,3.864,3.864,0,0,1-2.223-2.066A.187.187,0,0,1,286.148,277.1Z" transform="translate(-255.789 -241.94)" fill="#e6935c"/>
      <path id="Trazado_18711" data-name="Trazado 18711" d="M286.427,279.226a7.835,7.835,0,0,1,1.129.125c.146.053.225.275.053.361a1.922,1.922,0,0,1-1.292-.045A.228.228,0,0,1,286.427,279.226Z" transform="translate(-255.58 -240.598)" fill="#e6935c"/>
      <path id="Trazado_18712" data-name="Trazado 18712" d="M300.184,278.532a1.351,1.351,0,0,0,1.072-.027c.249-.111.459-.376.747-.323a.161.161,0,0,1,.119.116c.111.408-.431.651-.741.753a1.934,1.934,0,0,1-1.357-.111C299.794,278.84,299.951,278.442,300.184,278.532Z" transform="translate(-247.235 -241.232)" fill="#e6935c"/>
      <path id="Trazado_18713" data-name="Trazado 18713" d="M300.059,279.4c.336.289.747.4,1.091.663.116.087.013.26-.108.267a2.027,2.027,0,0,1-1.28-.63C299.557,279.519,299.854,279.22,300.059,279.4Z" transform="translate(-247.367 -240.524)" fill="#e6935c"/>
      <path id="Trazado_18714" data-name="Trazado 18714" d="M300.221,263.372a7.338,7.338,0,0,1-.341,2.166,7.834,7.834,0,0,1-4.235,4.728,13.06,13.06,0,0,1-4.019.925c-2.278.236-4.945.106-6.329-1.716a4.281,4.281,0,0,1-5.695-.866,6.1,6.1,0,0,1-.686-6.04,10.92,10.92,0,0,1,4.122-4.745,13.289,13.289,0,0,1,10.529-2.333C297.161,256.4,300.237,259.668,300.221,263.372Z" transform="translate(-260.263 -255.178)" fill="#d4d9cd"/>
      <path id="Trazado_18715" data-name="Trazado 18715" d="M287.666,274.453c.7-1.549,3.224-1.733,4.3-.527a.328.328,0,0,1-.389.517,3.018,3.018,0,0,0-3.264.639C287.9,275.393,287.5,274.826,287.666,274.453Z" transform="translate(-254.685 -244.286)" fill="#d4a486"/>
      <path id="Trazado_18716" data-name="Trazado 18716" d="M296.71,274.668a2.184,2.184,0,0,1,1.645-1.365,1.768,1.768,0,0,1,1.981.588.327.327,0,0,1-.273.487,12.253,12.253,0,0,0-1.418-.143,2.314,2.314,0,0,0-1.328.773A.363.363,0,0,1,296.71,274.668Z" transform="translate(-249.186 -244.231)" fill="#d4a486"/>
      <path id="Trazado_18717" data-name="Trazado 18717" d="M300.27,305.348a5.86,5.86,0,0,0,2.773.106,5.593,5.593,0,0,0,2.352-1.547,18.272,18.272,0,0,0,5.317-11.364,7.325,7.325,0,0,0-5.231-1.094,13.181,13.181,0,0,1-3.65,9.3,25.572,25.572,0,0,1-8.211-8.361l-9.272,2.326A26.558,26.558,0,0,0,300.27,305.348Z" transform="translate(-256.673 -233.245)" fill="#732"/>
      <path id="Trazado_18718" data-name="Trazado 18718" d="M298.072,301.019a11.781,11.781,0,0,1-1.028,12.317c-2.13,2.765-5.558,4.622-6.725,7.912-.373-6.606.273-13.676,4.254-18.961a6.353,6.353,0,0,1,2.848-2.355c-.058.019,2.911,5.626,3.669,6.3,2.185,1.939,4.921,2.871,6.569,5.422a17.329,17.329,0,0,0-2.251-10.863c-1.762-2.988-3.712-3.086-6.917-2.342Z" transform="translate(-253.107 -229.173)" fill="#732"/>
      <path id="Trazado_18719" data-name="Trazado 18719" d="M281.188,277.375a2.151,2.151,0,0,1,1.616.263v9.491c-1.322-.344-2.638-1.945-3.213-4.1C278.87,280.338,279.585,277.8,281.188,277.375Z" transform="translate(-259.728 -241.754)" fill="#ffdea2"/>
      <path id="Trazado_18720" data-name="Trazado 18720" d="M300.256,327.813c0,3.121-1.777,5.653-3.968,5.653s-3.966-2.532-3.966-5.653,1.777-5.653,3.966-5.653S300.256,324.692,300.256,327.813Z" transform="translate(-251.837 -214.558)" fill="#ccd651"/>
    </g>
    <g id="Grupo_12979" data-name="Grupo 12979" transform="translate(360.327 247.752)">
      <path id="Trazado_18721" data-name="Trazado 18721" d="M335.893,339.991c-2.011-2.042-4.856-1.264-6.419.8l-.138.18c-.943,1.245-.594,2.949-.045,4.238a4.608,4.608,0,0,1,.289,2.922l-.162.117q-.426.3-.851.606c-.779.559-1.476,1.155-2.177,1.748a1.832,1.832,0,0,0-.307,2.162c1.746,4.125,8.069,2.17,10.108-.569C338.558,349.013,338.792,342.934,335.893,339.991Z" transform="translate(-324.697 -191.685)" fill="#ffdea2"/>
      <path id="Trazado_18722" data-name="Trazado 18722" d="M338.463,404.983a6.584,6.584,0,0,1,.906-8.434c1.632-1.695,5.116-1.809,7.314-1.464,2.946.463,4.064,2.962,4.2,5.661a6.942,6.942,0,0,1-.21,2.382,6.742,6.742,0,0,1-4.01,3.875,6.811,6.811,0,0,1-4.016.625A6.628,6.628,0,0,1,338.463,404.983Z" transform="translate(-317.748 -157.645)" fill="#6d4a4a"/>
      <path id="Trazado_18723" data-name="Trazado 18723" d="M375.147,409.8a2.645,2.645,0,0,0,1.34-1.255c1.006-1.836.4-4.217-.914-5.847a16.071,16.071,0,0,0-5.033-3.677,38.57,38.57,0,0,0-6.683-3.12,12.971,12.971,0,0,0-7.276-.4,4.818,4.818,0,0,0,.37,4.975,12.178,12.178,0,0,0,3.92,3.446,57.089,57.089,0,0,0,11.764,5.632A3.809,3.809,0,0,0,375.147,409.8Z" transform="translate(-306.399 -157.508)" fill="#6d4a4a"/>
      <path id="Trazado_18724" data-name="Trazado 18724" d="M381.476,352.689V333.126l-44.8-2.1v17.46l2.536,87.041h11.923l6.932-83.334,3.52,5.3,5.1,78.032h10.871Z" transform="translate(-318.145 -196.4)" fill="#b09795"/>
      <path id="Trazado_18725" data-name="Trazado 18725" d="M372.079,287.967l-16.131-3.432-15.2,1.948v13.826h31.327Z" transform="translate(-315.674 -224.591)" fill="#ffdea2"/>
      <path id="Trazado_18726" data-name="Trazado 18726" d="M344.88,290.109c0,4.355,17.129,4.355,17.129,0v-11.3H344.88Z" transform="translate(-313.17 -228.061)" fill="#ffdea2"/>
      <path id="Trazado_18727" data-name="Trazado 18727" d="M344.88,287.489c0,4.357,17.129,4.357,17.129,0V276.194H344.88Z" transform="translate(-313.17 -229.649)" fill="#efb67a"/>
      <path id="Trazado_18728" data-name="Trazado 18728" d="M416.735,324.265l-18.357-33.242-21.828-4.774a26.1,26.1,0,0,1,.326,2.949,9.193,9.193,0,0,1-4.806,7.438,10.326,10.326,0,0,1-5.756,1.512,12.184,12.184,0,0,1-9.325-5.952,18.824,18.824,0,0,1-2.419-6.794l-26.325,3.978-3.1,41.62,2.916,43.244h9.819L339,340.929l2.1-15.745-1.113,51.7,51.029.175,1.051-59.621,14.983,19.5,32.307,6.175,1.435-10.8Z" transform="translate(-325.141 -224.065)" fill="#ff653e"/>
      <path id="Trazado_18729" data-name="Trazado 18729" d="M360.948,267.673c-.855,3.2-.006,6.2,1.892,6.708s4.135-1.672,4.99-4.869.008-6.2-1.892-6.709S361.8,264.474,360.948,267.673Z" transform="translate(-303.628 -237.814)" fill="#ffdea2"/>
      <path id="Trazado_18730" data-name="Trazado 18730" d="M342.072,267.673c.855,3.2.006,6.2-1.894,6.708s-4.133-1.672-4.988-4.869-.008-6.2,1.892-6.709S341.215,264.474,342.072,267.673Z" transform="translate(-319.249 -237.814)" fill="#ffdea2"/>
      <path id="Trazado_18731" data-name="Trazado 18731" d="M345.638,300.811a46.538,46.538,0,0,0,23.3-.021,9.558,9.558,0,0,0,7.208-9.266V267.657a18.769,18.769,0,0,0-18.307-18.847c-.138,0-.275,0-.413,0a18.816,18.816,0,0,0-18.93,18.858v23.9A9.535,9.535,0,0,0,345.638,300.811Z" transform="translate(-317.044 -246.26)" fill="#ffdea2"/>
      <g id="Grupo_12978" data-name="Grupo 12978" transform="translate(22.948 2.545)">
        <path id="Trazado_18732" data-name="Trazado 18732" d="M339.426,254.914l.1,1.452c.217-.495.447-.982.7-1.452Z" transform="translate(-339.426 -245.099)" fill="#a4744d"/>
        <path id="Trazado_18733" data-name="Trazado 18733" d="M368.354,272.171c-1.065-4.8-8.283-1.761-11.181-1.439a24.665,24.665,0,0,0,.519,2.482,34.247,34.247,0,0,0,4.688-.9c2.259-.6,4.276-.413,4.112,2.305a12.009,12.009,0,0,1-1.051,3.794l0,.01A5.865,5.865,0,0,1,360,282.165H358.04c-.578,0,1.748-4.275,1.717-4.71a.405.405,0,0,0-.1-.275.459.459,0,0,0-.347-.071q-2.93.2-5.862.387a.924.924,0,0,0-.386.083.636.636,0,0,0-.226.742,2.17,2.17,0,0,0,.453.7,6.4,6.4,0,0,1,1.521,3.144h-2.154a5.814,5.814,0,0,1-4.509-2.148,14.635,14.635,0,0,1-2.757-4.043c-.31-.864-1.449-3.711,1.189-3.15a41.677,41.677,0,0,0,9.174.716q-.065-1.352-.132-2.707a37.614,37.614,0,0,1-5.46-.352c-1.414-.194-2.8-.768-4.233-.6A3.433,3.433,0,0,0,342.879,273c-.416,2.2,1.152,6.345,2.244,8.05.71,1.107,2.341,8.133,5.027,8.461a46.494,46.494,0,0,0,13.5-.668c2.069-.231,3.412-9.777,4-11.261A9.3,9.3,0,0,0,368.354,272.171Z" transform="translate(-337.374 -236.26)" fill="#d4865e"/>
        <path id="Trazado_18734" data-name="Trazado 18734" d="M356.968,248.81c-.138,0-.275,0-.413,0a18.722,18.722,0,0,0-16.63,9.814h33.051A18.577,18.577,0,0,0,356.968,248.81Z" transform="translate(-339.123 -248.804)" fill="#a4744d"/>
      </g>
      <path id="Trazado_18735" data-name="Trazado 18735" d="M348.681,252.007h0c-6.837-2.243-10.694-.162-10.694,11.785L338.8,282.9l3.746-14.174,3.537-9.041,23.036,4.492a5.587,5.587,0,0,1,4.519,5.484h0L376.45,282.9l2.807-14.286c5.038-24.63-11.369-21.713-23.289-20.8A9.743,9.743,0,0,0,348.681,252.007Z" transform="translate(-317.351 -247.22)" fill="#9f6840"/>
      <path id="Trazado_18736" data-name="Trazado 18736" d="M344.1,265.48c0,1.613.811,2.922,1.812,2.922s1.812-1.309,1.812-2.922-.811-2.924-1.812-2.924S344.1,263.865,344.1,265.48Z" transform="translate(-313.644 -237.92)" fill="#732"/>
      <path id="Trazado_18737" data-name="Trazado 18737" d="M354.6,265.48c0,1.613.811,2.922,1.812,2.922s1.812-1.309,1.812-2.922-.811-2.924-1.812-2.924S354.6,263.865,354.6,265.48Z" transform="translate(-307.278 -237.92)" fill="#732"/>
      <path id="Trazado_18738" data-name="Trazado 18738" d="M349.373,260.788a4.2,4.2,0,0,0-3.658-1.6c-1.2.132-2.591,1.071-2.371,2.41a.542.542,0,0,0,.9.254c.672-.628.993-1.284,2.018-1.375a4.787,4.787,0,0,1,2.625.943A.4.4,0,0,0,349.373,260.788Z" transform="translate(-314.116 -239.979)" fill="#732"/>
      <path id="Trazado_18739" data-name="Trazado 18739" d="M358.877,259.34a3.652,3.652,0,0,0-5.423,1.847.442.442,0,0,0,.636.5c1.168-.614,2.358-2.146,3.733-1A.861.861,0,1,0,358.877,259.34Z" transform="translate(-307.979 -240.234)" fill="#732"/>
      <path id="Trazado_18740" data-name="Trazado 18740" d="M363.26,272.561a29.745,29.745,0,0,1-18.471-.922c-.353-.138-.508.426-.161.564a27.385,27.385,0,0,0,18.707.667C363.528,272.807,363.459,272.508,363.26,272.561Z" transform="translate(-313.441 -232.425)" fill="#e6935c"/>
      <path id="Trazado_18741" data-name="Trazado 18741" d="M357.334,271.886c-.283-.564-1.491-1.136-1.86-.355a.27.27,0,0,0,.157.39c.379.071.7.016.924.4s-.188,1.055-.308,1.431a.232.232,0,0,0,.276.286A1.512,1.512,0,0,0,357.334,271.886Z" transform="translate(-306.764 -232.708)" fill="#e6935c"/>
      <path id="Trazado_18742" data-name="Trazado 18742" d="M347.676,265.941c-1.47.011-3.393.1-4.6,1.033a.174.174,0,0,0,.117.3,11.923,11.923,0,0,0,1.942-.509,12.84,12.84,0,0,1,2.53-.4C347.933,266.339,347.949,265.938,347.676,265.941Z" transform="translate(-314.294 -235.867)" fill="#e6935c"/>
      <path id="Trazado_18743" data-name="Trazado 18743" d="M357.358,265.825a.233.233,0,0,0-.008.466,3.148,3.148,0,0,1,1.2.424,8.946,8.946,0,0,1,1,.879c.084.068.243.037.235-.093C359.723,266.388,358.349,265.728,357.358,265.825Z" transform="translate(-305.742 -235.944)" fill="#e6935c"/>
      <path id="Trazado_18744" data-name="Trazado 18744" d="M355.331,260.618c-1.443,1.531-1.671,3.6-1.78,5.629-.072,1.354.014,2.718.014,4.074s.466,2.745-1.818,2.958c-.715.066-1.431-.119-2.149-.1a.242.242,0,0,0-.177.408c.978,1.142,4.607,1.709,5.16-.247a8.791,8.791,0,0,0-.2-2.132c-.09-1.16-.133-2.313-.151-3.476a12.794,12.794,0,0,1,1.534-6.771C355.916,260.687,355.554,260.382,355.331,260.618Z" transform="translate(-310.455 -239.147)" fill="#e6935c"/>
    </g>
    <g id="Grupo_12981" data-name="Grupo 12981" transform="translate(321.792 246.344)">
      <path id="Trazado_18745" data-name="Trazado 18745" d="M346.166,348.529,344.959,320.5l-28.717-1.4-7.852,29.435c-.284,33.419,1.1,65.329,5.266,94.709h6.733l7.542-91.882-4.365,89.777h7.1A612.722,612.722,0,0,0,346.166,348.529Z" transform="translate(-296.786 -202.226)" fill="#ffdea2"/>
      <path id="Trazado_18746" data-name="Trazado 18746" d="M356.635,352.023a2.932,2.932,0,0,0,.7-.511c1.645-1.618,1-4.353.244-6.532-2.729-7.841-2.551-17.351-3.439-25.584q-1.12-10.4-2.244-20.8a8.349,8.349,0,0,0-6.406-6.329l-15.92-3.386-13.459,1.725a11.679,11.679,0,0,0-2.257.543A16.089,16.089,0,0,0,303.163,305l3.443,22.9,4.837-.956.416-10.291,7.533,20.765,28.717,1.4.149,5.144c.056,1.913,2.819,6.733,4.37,7.758A4.072,4.072,0,0,0,356.635,352.023Z" transform="translate(-299.935 -220.549)" fill="#ffdea2"/>
      <path id="Trazado_18747" data-name="Trazado 18747" d="M316.476,293.83c0,4.2,11.393,4.2,11.393,0V282.945H316.476Z" transform="translate(-291.862 -224.148)" fill="#ffdea2"/>
      <path id="Trazado_18748" data-name="Trazado 18748" d="M316.476,291.307c0,4.2,11.393,4.2,11.393,0V280.42H316.476Z" transform="translate(-291.862 -225.679)" fill="#efb67a"/>
      <path id="Trazado_18749" data-name="Trazado 18749" d="M329.949,272.629c-.824,3.08-.008,5.974,1.823,6.464s3.984-1.61,4.808-4.691.008-5.976-1.823-6.466S330.773,269.548,329.949,272.629Z" transform="translate(-283.886 -233.293)" fill="#ffdea2"/>
      <path id="Trazado_18750" data-name="Trazado 18750" d="M311.757,272.629c.824,3.08.006,5.974-1.825,6.464s-3.984-1.61-4.808-4.691-.006-5.976,1.825-6.466S310.933,269.548,311.757,272.629Z" transform="translate(-298.94 -233.293)" fill="#ffdea2"/>
      <path id="Trazado_18751" data-name="Trazado 18751" d="M321.918,304.572c.36.093.72.177,1.076.249a17.074,17.074,0,0,0,20.244-15.695l1.344-16.511a18.089,18.089,0,0,0-17.643-18.164q-.542-.007-1.079-.008a17.472,17.472,0,0,0-17.533,17.888c.125,6.628.641,11.388,1.118,17.117A16.98,16.98,0,0,0,321.918,304.572Z" transform="translate(-296.805 -241.433)" fill="#ffdea2"/>
      <path id="Trazado_18752" data-name="Trazado 18752" d="M351.086,392.034V333.355L347.9,320.5l-28.716-1.4-9.942,17.534-5.728,56.809Z" transform="translate(-299.724 -202.226)" fill="#b1d4e0"/>
      <path id="Trazado_18753" data-name="Trazado 18753" d="M335.323,290.694l2.8,6.495a4.094,4.094,0,0,1-3.607,5.712l-1.274.048a14.193,14.193,0,0,1-13.335-8.059l-2.58-5.394-6.7.858,2.681,11.231c1.21,5.067.116,8.88-2.663,10.9l2.093,18.243,2.124,6.312,28.717,1.4.617-13.581,3.77-6.45a14.636,14.636,0,0,0,.207-14.41l-6.548-11.971Z" transform="translate(-295.407 -220.175)" fill="#b1d4e0"/>
      <path id="Trazado_18754" data-name="Trazado 18754" d="M311.943,315.165l2.124,6.312,28.717,1.4.446-7.715Z" transform="translate(-294.611 -204.609)" fill="#6d4a4a"/>
      <g id="Grupo_12980" data-name="Grupo 12980" transform="translate(24.361 69.148)">
        <path id="Trazado_18755" data-name="Trazado 18755" d="M333.419,329.57a3.751,3.751,0,0,0-3.292-.014c-1.5.724-2.538,2.117-3.745,3.266s-2.863,2.12-4.466,1.676c.853-1.269-.276-3.2-1.794-3.39a3.448,3.448,0,0,0-3.449,2.459c-.882,2.651,1.046,5.607,3.6,6.734s5.5.85,8.241.288a20.277,20.277,0,0,1-5.875,6.121c-1.2-1.48-2.969-3.126-4.725-2.4-1.8.749-1.826,3.287-1.306,5.163s1.452,3.841,3.251,4.553a5.821,5.821,0,0,0,3.288.1,13.724,13.724,0,0,0,7.844-4.779c4.21,1.594,8.827,2.967,13.152,1.719a15.468,15.468,0,0,0,8.511-7.059,36.387,36.387,0,0,0,5.261-14.6.6.6,0,0,1,.6-.654l2.745-.559c.169-.035.366-.095.413-.26a.475.475,0,0,0-.047-.294l-1.373-3.553a15.011,15.011,0,0,0-2.5-4.7,11.941,11.941,0,0,0-3.261-2.41,13.066,13.066,0,0,1-2.439-2.1,9.748,9.748,0,0,0-6.416-2.541c-2.527,0-4.029,1.332-6.166,2.246-2.429,1.038-5.8.958-8.361.627a35.607,35.607,0,0,0-.422,8.59q1.988.13,3.978.263c.164.01-1.6,6.618-.254,6.618A2.174,2.174,0,0,0,333.419,329.57Z" transform="translate(-316.318 -275.466)" fill="#9ae19a"/>
        <path id="Trazado_18756" data-name="Trazado 18756" d="M333.913,323.182a4.058,4.058,0,0,0,.032.445,2.32,2.32,0,0,0-.527-.413,3.751,3.751,0,0,0-3.292-.014c-1.5.724-2.538,2.117-3.745,3.266s-2.863,2.12-4.466,1.676c.853-1.269-.276-3.2-1.794-3.39a3.448,3.448,0,0,0-3.449,2.459c-.882,2.651,1.046,5.607,3.6,6.734s5.5.85,8.241.288a20.278,20.278,0,0,1-5.875,6.121c-1.2-1.48-2.969-3.126-4.725-2.4-1.8.749-1.826,3.287-1.306,5.163s1.452,3.841,3.251,4.553a5.82,5.82,0,0,0,3.288.1A13.725,13.725,0,0,0,330.994,343c4.21,1.594,8.827,2.967,13.152,1.719a12.5,12.5,0,0,0,3.762-1.843C343.619,335.969,338.884,329.683,333.913,323.182Z" transform="translate(-316.318 -269.11)" fill="#6d4a4a"/>
        <path id="Trazado_18757" data-name="Trazado 18757" d="M327.606,308.213c.67,2.5.006,4.853-1.481,5.251s-3.235-1.308-3.9-3.81-.006-4.853,1.481-5.25S326.938,305.711,327.606,308.213Z" transform="translate(-312.896 -280.318)" fill="#ffdea2"/>
        <ellipse id="Elipse_689" data-name="Elipse 689" cx="4.69" cy="2.788" rx="4.69" ry="2.788" transform="translate(44.403 32.426) rotate(-75.028)" fill="#ffdea2"/>
        <ellipse id="Elipse_690" data-name="Elipse 690" cx="18.222" cy="18.926" rx="18.222" ry="18.926" transform="translate(12.266 4.501)" fill="#ffdea2"/>
        <ellipse id="Elipse_691" data-name="Elipse 691" cx="1.62" cy="2.613" rx="1.62" ry="2.613" transform="translate(23.208 23.198)" fill="#732"/>
        <ellipse id="Elipse_692" data-name="Elipse 692" cx="1.62" cy="2.613" rx="1.62" ry="2.613" transform="translate(37.132 23.198)" fill="#732"/>
        <path id="Trazado_18758" data-name="Trazado 18758" d="M333.984,310.462c2.161-.6,4.578.667,6.664-.159a4.119,4.119,0,0,1-5.735,1.34A1.9,1.9,0,0,1,333.984,310.462Z" transform="translate(-305.604 -276.712)" fill="#732"/>
        <path id="Trazado_18759" data-name="Trazado 18759" d="M338.6,307.346a3.8,3.8,0,0,0-1.423-.194,1.933,1.933,0,0,0-1.525.384.177.177,0,0,0,.119.3,6.645,6.645,0,0,0,.983-.125,6.168,6.168,0,0,1,1.033.042c.149.013.3.032.447.058.5.09.406.527.333.85a7.382,7.382,0,0,1-.331,1.023c-.085.217.252.345.366.156C339.029,309.131,339.609,307.844,338.6,307.346Z" transform="translate(-304.622 -278.621)" fill="#e6935c"/>
        <path id="Trazado_18760" data-name="Trazado 18760" d="M343.073,311.568l-.056-.225a.364.364,0,0,0-.437-.264c-2.013.45-10.66,1.083-10.236-2.344.027-.222-.341-.275-.384-.058-.331,1.661,1,2.525,2.458,2.855.72.162,8.024.6,7.944.209C342.456,312.2,343.187,312.026,343.073,311.568Z" transform="translate(-306.863 -277.774)" fill="#e6935c"/>
        <path id="Trazado_18761" data-name="Trazado 18761" d="M340.515,311.2a5.115,5.115,0,0,1-3.883.766c-1.216-.267-1.928-1.346-2.991-1.863a.223.223,0,0,0-.305.3c1.534,2.753,5.131,2.848,7.418,1.116C340.936,311.378,340.7,311.081,340.515,311.2Z" transform="translate(-306.016 -276.842)" fill="#e6935c"/>
        <path id="Trazado_18762" data-name="Trazado 18762" d="M330.465,300.955a.319.319,0,0,0,0,.321c.28.39.577-.019.81-.249.63-.617,1.362-.143,1.857.337a.222.222,0,0,0,.371-.209C333.186,299.726,331.056,299.786,330.465,300.955Z" transform="translate(-307.766 -282.905)" fill="#e6935c"/>
        <path id="Trazado_18763" data-name="Trazado 18763" d="M339.951,301.41a.245.245,0,0,0,.3.18,1.16,1.16,0,0,0,.384-.23,1.4,1.4,0,0,1,.566-.212c.406-.079.676.185,1.047.249a.3.3,0,0,0,.37-.357C342.361,299.874,339.773,300.211,339.951,301.41Z" transform="translate(-301.991 -282.76)" fill="#e6935c"/>
        <path id="Trazado_18764" data-name="Trazado 18764" d="M343.978,291.3a12.067,12.067,0,0,1,6.636-.914,18.619,18.619,0,0,1,8.074,3.772c3.436,2.53,6.657,5.944,7.136,10.185.236,2.085-.611,3.941-.612,5.953,0,.532.818,4.336,1.6,4.172a3.688,3.688,0,0,1-3.615-1.357c.36.479-2.056,4.064-2.4,4.484a.788.788,0,0,1-.3.26c-.5.194-.79-.551-.826-1.083a14.162,14.162,0,0,0-12.529-13.141,2.666,2.666,0,0,1,1.385,2.215,6.661,6.661,0,0,1-.463,2.676c-1.168.111-1.833-1.243-2.659-2.077-1.333-1.346-3.435-1.425-5.25-1.966a9.828,9.828,0,0,1-4.863-3.29c-.278.834-4.516,9.743-3.56,10.259a2.97,2.97,0,0,1-1.533-2.329,23.346,23.346,0,0,0-2.816,10.668c0,.239-.066.553-.305.581-1.055-1.87-1.5-4.5-2.92-6.082a1.592,1.592,0,0,0-1.393-.578c0-2.411.093-4.829.082-7.229a15.2,15.2,0,0,1,.911-6.325c.94-2.108,2.816-3.484,4.713-4.681a8.539,8.539,0,0,1,3-1.351c.257-.05,3.311-.016,3.189.206a9.827,9.827,0,0,1,9.679-4.856,6.5,6.5,0,0,0-2.228,2.871A11.753,11.753,0,0,1,343.978,291.3Z" transform="translate(-312.406 -289.389)" fill="#d4865e"/>
        <path id="Trazado_18765" data-name="Trazado 18765" d="M341.291,323.324a26.3,26.3,0,0,1-1.582,5.221,3.292,3.292,0,0,1-2.737,2.255,2.87,2.87,0,0,0-2.26,3.158,3,3,0,0,0,2.416,2.421c2.628.445,3-2.014,4.382-3.494a14.293,14.293,0,0,0,3.231-5.2,26.061,26.061,0,0,0,1.152-5.06A26.171,26.171,0,0,1,341.291,323.324Z" transform="translate(-305.183 -269.233)" fill="#ffdea2"/>
        <path id="Trazado_18766" data-name="Trazado 18766" d="M329.766,318.082c-.1-.031-.194-.048-.291-.08-2.031-.675-5.79-2.467-5.422-5.256a5.479,5.479,0,0,1,.124-.593,3.025,3.025,0,0,0,.128-.948,1.9,1.9,0,0,0-.935-1.425,3.678,3.678,0,0,0-3.676-.108,3.276,3.276,0,0,0-1.34,3.165,3.757,3.757,0,0,0,1.586,2.366,13.734,13.734,0,0,1,1.9,2.154,19.084,19.084,0,0,0,5.094,4.233,17.634,17.634,0,0,0,2.458,1.3Z" transform="translate(-315.104 -277.357)" fill="#ffdea2"/>
      </g>
      <path id="Trazado_18767" data-name="Trazado 18767" d="M347.714,348.551l-29.7-16.752-2.858-27.881c-1.022-2.667-5.608,8.074-6.839,5.47-1.735-3.672-3.407-7.439-4.991-11.245-.069.411-.127.826-.164,1.243l6.272,40.485,32.837,14.415,4.447,7.256c4.985,4.133,9.761,1.69,11.648-2.8Z" transform="translate(-299.935 -214.932)" fill="#ffdea2"/>
      <path id="Trazado_18768" data-name="Trazado 18768" d="M322.17,257.308c-9.26-3.038-16.728,8.392-20.6,15a2.423,2.423,0,0,0-.41,1.051,2.337,2.337,0,0,0,.374,1.214,19.081,19.081,0,0,0,8.652,8.164c1.525,8.622,3.2,17.6,8.447,24.6a38.838,38.838,0,0,1-.321-35.173,33.089,33.089,0,0,1,5.947-7.666c.141-.149,5.769,2.574,6.363,2.829a43.965,43.965,0,0,1,9.031,5.711,12.088,12.088,0,0,1,4.808,6.074,34.376,34.376,0,0,1,2.019,8.135,34.779,34.779,0,0,1,.011,8.386c-.238,1.971-.508,6.313-1.913,7.828a19.766,19.766,0,0,0,4.557-18.068c4.2-2.969,6.474-7.905,8.559-12.611a6.719,6.719,0,0,0,.792-2.909,6.212,6.212,0,0,0-1.743-3.545C349.985,258.182,340.1,253,329.522,253.3A9.236,9.236,0,0,0,322.17,257.308Z" transform="translate(-301.154 -242.134)" fill="#9f6840"/>
      <path id="Trazado_18769" data-name="Trazado 18769" d="M313.711,273.039c0,1.555.782,2.816,1.746,2.816s1.746-1.261,1.746-2.816-.782-2.816-1.746-2.816S313.711,271.484,313.711,273.039Z" transform="translate(-293.538 -231.863)" fill="#732"/>
      <path id="Trazado_18770" data-name="Trazado 18770" d="M323.828,273.039c0,1.555.781,2.816,1.746,2.816s1.745-1.261,1.745-2.816-.781-2.816-1.745-2.816S323.828,271.484,323.828,273.039Z" transform="translate(-287.403 -231.863)" fill="#732"/>
      <path id="Trazado_18771" data-name="Trazado 18771" d="M315.014,395.715c-.492.6-.94,1.24-1.385,1.806-1.809,2.3-3.926,4.379-5.949,6.511a8.671,8.671,0,0,0-.99,1.208,2.521,2.521,0,0,0-.468,1.934,2.435,2.435,0,0,0,1.672,1.651,5.775,5.775,0,0,0,2.434.12,12.687,12.687,0,0,0,5.112-1.587c2.3-1.377,2.808-4.143,4.816-5.528.337,1.011,1.56,1.748,2.291.373a7.078,7.078,0,0,0-.4-6.488Z" transform="translate(-298.108 -155.76)" fill="#732"/>
      <path id="Trazado_18772" data-name="Trazado 18772" d="M338.693,404.894c-2.106-2.755-5.941-3.38-8.887-5.21a14.579,14.579,0,0,1-4.594-4.843h-7.248a8.009,8.009,0,0,0-.231,4.707,5.525,5.525,0,0,0,1.6,2.737c.689.627,2.267,1.272,3.059.434a1.286,1.286,0,0,0,.159-1.1,53.033,53.033,0,0,0,6.415,3.7,15.379,15.379,0,0,0,6.466,1.317,16.256,16.256,0,0,0,2.424-.2c.49-.079,1.084-.286,1.142-.779A1.112,1.112,0,0,0,338.693,404.894Z" transform="translate(-291.248 -156.29)" fill="#732"/>
      <path id="Trazado_18773" data-name="Trazado 18773" d="M315.138,271.05a1.745,1.745,0,0,1-2.44.408.292.292,0,0,0-.461.345,2.242,2.242,0,0,0,1.945,1.4,2.28,2.28,0,0,0,2.2-1.182A.8.8,0,0,0,315.138,271.05Z" transform="translate(-294.451 -231.505)" fill="#732"/>
      <path id="Trazado_18774" data-name="Trazado 18774" d="M328.428,271.241a1.908,1.908,0,0,1-1.576.222c-.4-.124-.63-.606-.866-.911-.381-.49-1.259.021-1.062.594a2.223,2.223,0,0,0,1.8,1.4,2.064,2.064,0,0,0,2.13-.972C329.061,271.306,328.652,271.071,328.428,271.241Z" transform="translate(-286.755 -231.783)" fill="#732"/>
      <path id="Trazado_18775" data-name="Trazado 18775" d="M326.178,278.226c-1.377.774-3.059,2.2-4.715,1.415a7.183,7.183,0,0,1-2.99-2.691c-.2-.287-.782-.349-.853.1-.292,1.843,1.8,3.219,3.321,3.812,2.292.892,4.051-.6,5.515-2.268A.234.234,0,0,0,326.178,278.226Z" transform="translate(-291.184 -227.921)" fill="#e6935c"/>
      <path id="Trazado_18776" data-name="Trazado 18776" d="M321.427,268.616c.059-.164-.206-.278-.279-.12a11.432,11.432,0,0,0-.678,8.014c.116.431.794.262.671-.165A12.434,12.434,0,0,1,321.427,268.616Z" transform="translate(-289.699 -232.957)" fill="#e6935c"/>
      <path id="Trazado_18777" data-name="Trazado 18777" d="M333.017,253.677a2.694,2.694,0,0,0-.013-1.526,2.794,2.794,0,0,0-.974-1.108,22.657,22.657,0,0,0-16.283-4.557,13.934,13.934,0,0,1,6.259,4.018c-3.17-.933-6.548.085-9.693,1.1-1.626.522-3.481,1.274-3.942,2.919a4.393,4.393,0,0,0,.811,3.388,13.034,13.034,0,0,0,23.835-4.23Z" transform="translate(-296.838 -246.344)" fill="#9f6840"/>
      <path id="Trazado_18778" data-name="Trazado 18778" d="M323.151,274.486c-.434-.831-1.725-.882-2.487-1.208-.167-.072-.371.079-.268.262.326.585.978.728,1.565.943,1.226.451.167,1.465.341,2.284a.161.161,0,0,0,.2.117C323.4,276.592,323.533,275.214,323.151,274.486Z" transform="translate(-289.501 -230.022)" fill="#e6935c"/>
      <path id="Trazado_18779" data-name="Trazado 18779" d="M323.2,275.094a.174.174,0,0,0-.209-.125c-.384.071-.657.5-.994.694a2.378,2.378,0,0,1-1.706.214c-.172-.047-.294.21-.125.294a2.284,2.284,0,0,0,1.923.135C322.547,276.133,323.334,275.683,323.2,275.094Z" transform="translate(-289.674 -228.988)" fill="#e6935c"/>
      <path id="Trazado_18780" data-name="Trazado 18780" d="M318.29,267.563c-1.142-2.2-3.852-1.274-5.242.05a.669.669,0,0,0-.183.644.656.656,0,0,0,.474.49.678.678,0,0,0,.659-.17,3.676,3.676,0,0,1,2.032-1.086c.646-.035,1.2.458,1.777.684C318.171,268.318,318.446,267.862,318.29,267.563Z" transform="translate(-294.066 -234.277)" fill="#a4744d"/>
      <path id="Trazado_18781" data-name="Trazado 18781" d="M328.707,267.445a3.479,3.479,0,0,0-4.919-.93c-.861.578-.129,1.953.8,1.425a4.24,4.24,0,0,1,3.807-.1C328.626,267.937,328.812,267.638,328.707,267.445Z" transform="translate(-287.659 -234.488)" fill="#a4744d"/>
      <path id="Trazado_18782" data-name="Trazado 18782" d="M313.711,273.039c0,1.555.782,2.816,1.746,2.816s1.746-1.261,1.746-2.816-.782-2.816-1.746-2.816S313.711,271.484,313.711,273.039Z" transform="translate(-293.538 -231.863)" fill="#732"/>
      <path id="Trazado_18783" data-name="Trazado 18783" d="M323.828,273.039c0,1.555.781,2.816,1.746,2.816s1.745-1.261,1.745-2.816-.781-2.816-1.745-2.816S323.828,271.484,323.828,273.039Z" transform="translate(-287.403 -231.863)" fill="#732"/>
    </g>
    <g id="Grupo_12983" data-name="Grupo 12983" transform="translate(426.846 293.167)">
      <path id="Trazado_18784" data-name="Trazado 18784" d="M370.9,357.147l4.7-23.513,24.087-1.178,2.9,22.587c.239,28.031-4.856,54.863-5.118,81.544h-4.946l-6.326-77.069,3.663,75.3H383.9C381.289,407.34,373.276,383.607,370.9,357.147Z" transform="translate(-363.91 -240.946)" fill="#9ae19a"/>
      <path id="Trazado_18785" data-name="Trazado 18785" d="M374.876,334.557l-2.529.13-.3,5.835,2.833-.255Z" transform="translate(-363.217 -239.672)" fill="#732"/>
      <path id="Trazado_18786" data-name="Trazado 18786" d="M379,334.371l-4.216.217v5.649l4.216-.38Z" transform="translate(-361.554 -239.784)" fill="#732"/>
      <path id="Trazado_18787" data-name="Trazado 18787" d="M381.5,334.261v5.232l5.171-.466V334Z" transform="translate(-357.48 -240.012)" fill="#732"/>
      <path id="Trazado_18788" data-name="Trazado 18788" d="M385.843,338.958l4.35-.392-1.378-4.724-2.972.153Z" transform="translate(-354.848 -240.105)" fill="#732"/>
      <path id="Trazado_18789" data-name="Trazado 18789" d="M382.042,395.871c-1,.572-1.227,1.618-2.6,2.782a43.358,43.358,0,0,0-3.247,3.065,6.412,6.412,0,0,0-1.955,3.2,3.565,3.565,0,0,0,2.625,3.913,5.758,5.758,0,0,0,4.466-1.346c3.409-2.459,7.142-7.608,6.447-12.069-.008-.051-4.116.016-4.434.058A3.431,3.431,0,0,0,382.042,395.871Z" transform="translate(-361.908 -202.776)" fill="#732"/>
      <path id="Trazado_18790" data-name="Trazado 18790" d="M389.785,395.416h-5.9c-.443,0,1.125,5.608,1.186,5.757,1.224,3.025,2.9,5.986,5.653,7.87a5.554,5.554,0,0,0,3.737,1.15,2.832,2.832,0,0,0,2.559-2.6,4.226,4.226,0,0,0-.892-2.173c-1.667-2.516-6.439-6.248-6.365-9.464C389.771,395.774,389.781,395.6,389.785,395.416Z" transform="translate(-356.081 -202.764)" fill="#732"/>
      <path id="Trazado_18791" data-name="Trazado 18791" d="M366.551,381.334c.01-.2.347-6.993.477-7.139l1.762-25.213,3.81-31.8c.6-2.667,2.7-4.039,5.374-4.607l13.354-2.84,11.288,1.446a11.87,11.87,0,0,1,8.678,5.685l2.479,29.372,4.787,27.457-.708,11.12c-1.842,5.325-6.945,1.229-6.945,1.229l3.971-10.842-8.416-26.228-2.2-19.112-4.4,16.376-24.087,1.178-.125,4.313-3.5,22.689,1.06,11.216C372.157,387.518,366.438,384.1,366.551,381.334Z" transform="translate(-366.549 -254.726)" fill="#ffdea2"/>
      <g id="Grupo_12982" data-name="Grupo 12982" transform="translate(2.264 55.007)">
        <path id="Trazado_18792" data-name="Trazado 18792" d="M410.44,316.864a11.87,11.87,0,0,0-8.678-5.685l-11.288-1.446-13.354,2.84c-2.673.569-4.773,1.941-5.374,4.607l-3.788,20.166,7.317,2.424-1.219,27.846,29.5-4.342-.149-33.414.97,9.91h9.6Z" transform="translate(-367.958 -309.733)" fill="#6d4a4a"/>
      </g>
      <path id="Trazado_18793" data-name="Trazado 18793" d="M388.2,315.475c0,3.52-9.555,3.52-9.555,0v-13.34H388.2Z" transform="translate(-359.212 -259.333)" fill="#ffdea2"/>
      <path id="Trazado_18794" data-name="Trazado 18794" d="M388.2,310.895c0,3.52-9.555,3.52-9.555,0v-9.131H388.2Z" transform="translate(-359.212 -259.558)" fill="#efb67a"/>
      <path id="Trazado_18795" data-name="Trazado 18795" d="M375.481,295.6c.79,2.951.008,5.724-1.746,6.193s-3.817-1.542-4.606-4.495-.008-5.724,1.746-6.193S374.692,292.647,375.481,295.6Z" transform="translate(-365.171 -266.064)" fill="#ffdea2"/>
      <path id="Trazado_18796" data-name="Trazado 18796" d="M391.378,295.6c-.789,2.951-.006,5.724,1.748,6.193s3.817-1.542,4.606-4.495.007-5.724-1.748-6.193S392.168,292.647,391.378,295.6Z" transform="translate(-351.678 -266.064)" fill="#ffdea2"/>
      <path id="Trazado_18797" data-name="Trazado 18797" d="M392.891,323.9q-.518.135-1.031.241a16.357,16.357,0,0,1-19.391-15.035l-1.288-15.817a17.327,17.327,0,0,1,16.9-17.4c.345-.006.691-.008,1.033-.008a16.737,16.737,0,0,1,16.8,17.134c-.121,6.349-.615,10.908-1.07,16.4A16.264,16.264,0,0,1,392.891,323.9Z" transform="translate(-363.741 -275.252)" fill="#ffdea2"/>
      <path id="Trazado_18798" data-name="Trazado 18798" d="M397.991,278.195h0c6.31-2.069,12.289,3.717,11.141,25.587v20.243c0,7.385-7.839,7.666-15.226,7.608l.161-7.492c6.99-2.88,10.292-9.08,9.537-18.933l-9.7-15.958-18.76,8.622.381,18.392a21.188,21.188,0,0,0,8.824,7.759v7.717l-8.551,1.873.4,14.986-3.843-.62c-4.053-.437-3.435-30.673-2.114-43.019,3.341-31.252,11.645-29.628,20.705-29.375C393.774,275.664,396.387,275.865,397.991,278.195Z" transform="translate(-364.916 -275.491)" fill="#d4865e"/>
      <path id="Trazado_18799" data-name="Trazado 18799" d="M389.34,295.007c0,1.489-.749,2.7-1.672,2.7s-1.672-1.208-1.672-2.7.749-2.7,1.672-2.7S389.34,293.518,389.34,295.007Z" transform="translate(-354.756 -265.292)" fill="#732"/>
      <path id="Trazado_18800" data-name="Trazado 18800" d="M378.776,295.007c0,1.489-.749,2.7-1.672,2.7s-1.672-1.208-1.672-2.7.749-2.7,1.672-2.7S378.776,293.518,378.776,295.007Z" transform="translate(-361.163 -265.292)" fill="#732"/>
      <path id="Trazado_18801" data-name="Trazado 18801" d="M388.255,292.665a1.669,1.669,0,0,0,2.337.39.28.28,0,0,1,.44.332,2.144,2.144,0,0,1-1.862,1.337,2.184,2.184,0,0,1-2.108-1.131A.765.765,0,0,1,388.255,292.665Z" transform="translate(-354.163 -265.213)" fill="#732"/>
      <path id="Trazado_18802" data-name="Trazado 18802" d="M374.559,293.287a1.831,1.831,0,0,0,1.508.21c.381-.119.6-.58.829-.872.365-.469,1.208.021,1.018.57a2.131,2.131,0,0,1-1.727,1.343,1.973,1.973,0,0,1-2.04-.932C373.952,293.348,374.346,293.123,374.559,293.287Z" transform="translate(-361.973 -265.215)" fill="#732"/>
      <path id="Trazado_18803" data-name="Trazado 18803" d="M380.235,299.6c1.317.742,2.929,2.1,4.517,1.356a6.874,6.874,0,0,0,2.863-2.578c.193-.275.75-.332.818.1.28,1.765-1.722,3.083-3.181,3.651-2.2.855-3.883-.575-5.282-2.174A.223.223,0,0,1,380.235,299.6Z" transform="translate(-358.446 -261.744)" fill="#e6935c"/>
      <path id="Trazado_18804" data-name="Trazado 18804" d="M380.753,290.769c-.056-.156.2-.265.268-.114a10.952,10.952,0,0,1,.649,7.677c-.109.413-.76.25-.643-.159A11.9,11.9,0,0,0,380.753,290.769Z" transform="translate(-357.94 -266.339)" fill="#e6935c"/>
      <path id="Trazado_18805" data-name="Trazado 18805" d="M379.677,296.394c.418-.8,1.653-.845,2.384-1.158.159-.067.355.076.257.252-.313.561-.936.7-1.5.9-1.174.432-.161,1.4-.326,2.188a.155.155,0,0,1-.188.112C379.436,298.411,379.312,297.091,379.677,296.394Z" transform="translate(-358.704 -263.528)" fill="#e6935c"/>
      <path id="Trazado_18806" data-name="Trazado 18806" d="M382.621,291c-1.571-.484-3.1-.909-4.654-1.472a3.094,3.094,0,0,0-3.308.553c-.064.058.016.153.088.116,2.723-1.345,5.08,1.627,7.73,1.761A.49.49,0,0,0,382.621,291Z" transform="translate(-361.644 -267.124)" fill="#732"/>
      <path id="Trazado_18807" data-name="Trazado 18807" d="M392.947,290.929c-2.71-2.352-6.058-.728-9.168-.426-.58.056-.845.985-.164,1.1a6.611,6.611,0,0,0,3.457-.585c2.106-.765,3.635-1.137,5.732.093C392.917,291.18,393.052,291.019,392.947,290.929Z" transform="translate(-356.444 -266.889)" fill="#732"/>
    </g>
    <path id="Trazado_18808" data-name="Trazado 18808" d="M394.13,329.142c-1.484-1.108-1.809-3.178-1.868-5.03a35.706,35.706,0,0,1,1.327-10.847,1.173,1.173,0,0,1,.262-.54,1.131,1.131,0,0,1,.856-.214,9.069,9.069,0,0,1,5.817,2.394,7.954,7.954,0,0,1,2.514,5.72,11.064,11.064,0,0,1-.819,3.82,9.354,9.354,0,0,1-3.009,4.44A4.425,4.425,0,0,1,394.13,329.142Z" transform="translate(75.88 40.125)" fill="#ffdea2"/>
  </g>
</svg>
