<svg xmlns="http://www.w3.org/2000/svg" width="124" height="123.976" viewBox="0 0 124 123.976">
  <g id="Grupo_12811" data-name="Grupo 12811" transform="translate(-779.947 -999.542)">
    <g id="Grupo_12810" data-name="Grupo 12810" transform="translate(786.7 1005.948)">
      <path id="Trazado_18282" data-name="Trazado 18282" d="M922.451,1024.746l-6.2,4.133-10.331-2.067-6.2-2.066-8.265,2.066-6.2-2.066,4.133-8.265h8.265l8.1-4.05A59.275,59.275,0,0,1,922.451,1024.746Z" transform="translate(-823.808 -1010.489)" fill="#03aa6f"/>
      <path id="Trazado_18283" data-name="Trazado 18283" d="M841.493,1015.425l-2.066,6.2-6.2,2.067-6.2,10.331-10.332,6.2-14.464,2.067v6.2l4.133,4.133v8.265l-6.2-4.132-6.2-4.133-3.595-10.806a59.886,59.886,0,0,1,32.853-32.378l5.868,3.926Z" transform="translate(-790.374 -1009.433)" fill="#03aa6f"/>
      <path id="Trazado_18284" data-name="Trazado 18284" d="M852.078,1097.9l-2.066,10.331-8.265,8.265v6.2l-8.265,6.2v10.331l-6.2-2.066-4.133-10.331v-20.662L812.82,1104.1l-4.132-8.265v-6.2l4.132-4.132,6.2-6.2,4.132,8.265h14.464l6.2,10.332Z" transform="translate(-796.827 -1034.054)" fill="#03aa6f"/>
      <path id="Trazado_18285" data-name="Trazado 18285" d="M930.212,1047.991a59.862,59.862,0,0,1-3.306,63.785l-5.579-5.579v-8.265l-4.132-8.265-4.133-8.265v-8.265l-6.2-4.133-8.265,2.067-14.464-6.2-2.066-14.464,6.2-6.2h12.4l4.133,6.2,12.4,2.067,12.4-4.133Z" transform="translate(-822.685 -1021.687)" fill="#03aa6f"/>
    </g>
    <path id="Trazado_18286" data-name="Trazado 18286" d="M855.486,1023.4l8.265-2.067,6.2,2.067,10.331,2.066,6.2-4.132a58.987,58.987,0,0,1,8.885,12.046l-.62.351-12.4,4.133-12.4-2.067-4.132-6.2h-12.4l-6.2,6.2,2.066,14.464,14.464,6.2,8.265-2.067,6.2,4.132v8.265l4.132,8.265,4.132,8.265v8.265l5.579,5.579a59.921,59.921,0,0,1-104.222-57.71l3.6,10.806,6.2,4.133,6.2,4.132-4.133,4.133v6.2l4.133,8.266,10.331,2.066v20.663l4.133,10.331,6.2,2.067v-10.331l8.265-6.2v-6.2l8.265-8.266,2.067-10.331h-8.265l-6.2-10.331H814.162l-4.132-8.265-6.2,6.2v-8.265l-4.133-4.132v-6.2l14.464-2.067,10.332-6.2,6.2-10.332,6.2-2.066,2.066-6.2-12.4-2.067-5.868-3.925a59.926,59.926,0,0,1,49.094,1.942l-8.1,4.05H853.42l-4.132,8.265Z" transform="translate(-1.138 -1.125)" fill="#86daf1"/>
    <path id="Trazado_18287" data-name="Trazado 18287" d="M841.951,1123.518a61.988,61.988,0,1,0-56.975-86.386l-.773.256.3.9a61.953,61.953,0,0,0,57.448,85.231Zm48.646-30.73-3.188-3.186v-7.41a2.072,2.072,0,0,0-.207-.924l-8.058-16.094V1057.4a2.07,2.07,0,0,0-.92-1.719l-6.2-4.132a2.07,2.07,0,0,0-1.653-.285l-7.592,1.9-12.751-5.471-1.754-12.29,4.862-4.86h10.437l3.513,5.279a2.065,2.065,0,0,0,1.38.891l12.4,2.066a2.043,2.043,0,0,0,.992-.078l11.418-3.806a57.651,57.651,0,0,1-2.686,57.9h.008ZM882.07,1019.9l-3.36,2.24-9.366-1.874-6.077-2.023a2.027,2.027,0,0,0-1.153-.045l-7.683,1.92L851.063,1019l2.5-4.992h6.988a2.079,2.079,0,0,0,.924-.217l7.149-3.575A58.062,58.062,0,0,1,882.07,1019.9Zm-62.75-11.615,4.959,3.306a2.072,2.072,0,0,0,.808.318l10.013,1.67-.977,2.924-5.217,1.741a2.069,2.069,0,0,0-1.118.9l-5.934,9.889-9.532,5.72-14.05,2.006a2.066,2.066,0,0,0-1.777,2.043v6.2a2.061,2.061,0,0,0,.606,1.461l3.527,3.527v3.55l-8.6-5.731-3.118-9.354A58.188,58.188,0,0,1,819.32,1008.289Zm-5.882,67.746-9.339-1.87-3.471-6.924v-4.855l7.7-7.7,2.849,5.7a2.067,2.067,0,0,0,1.85,1.142h13.294l5.6,9.329a2.067,2.067,0,0,0,1.771,1h5.744l-1.446,7.246-7.823,7.823a2.063,2.063,0,0,0-.608,1.461v5.165l-7.439,5.579a2.063,2.063,0,0,0-.826,1.653v7.463l-2.57-.852-3.629-9.075v-20.266A2.066,2.066,0,0,0,813.437,1076.035Zm-26.818-31.4,1.717,5.149a2.063,2.063,0,0,0,.812,1.066l10.3,6.866-2.349,2.352a2.061,2.061,0,0,0-.606,1.461v6.2a2.08,2.08,0,0,0,.217.924l4.132,8.265a2.065,2.065,0,0,0,1.446,1.1l8.678,1.734v18.97a2.074,2.074,0,0,0,.147.767l4.132,10.331a2.069,2.069,0,0,0,1.267,1.192l6.2,2.067a2.005,2.005,0,0,0,.642.108,2.068,2.068,0,0,0,2.067-2.067v-9.3l7.439-5.579a2.066,2.066,0,0,0,.826-1.653v-5.343l7.66-7.66a2.077,2.077,0,0,0,.564-1.056l2.067-10.331a2.068,2.068,0,0,0-1.622-2.432,2.046,2.046,0,0,0-.4-.039h-7.1l-5.6-9.329a2.066,2.066,0,0,0-1.771-1H814.3l-3.55-7.122a2.062,2.062,0,0,0-1.519-1.116,2.026,2.026,0,0,0-1.791.578l-2.682,2.672v-3.277a2.061,2.061,0,0,0-.605-1.461l-3.527-3.527v-3.552l12.691-1.812a2.05,2.05,0,0,0,.771-.275l10.331-6.2a2.062,2.062,0,0,0,.707-.707l5.807-9.676,5.473-1.827a2.045,2.045,0,0,0,1.306-1.306l2.067-6.2a2.065,2.065,0,0,0-1.314-2.609,2.148,2.148,0,0,0-.306-.076l-11.96-1.994-2.1-1.4a57.7,57.7,0,0,1,39.739,1.477l-3.775,1.885h-7.777a2.064,2.064,0,0,0-1.86,1.142l-4.132,8.265a2.066,2.066,0,0,0,.927,2.771,2.212,2.212,0,0,0,.269.111l6.2,2.067a2.033,2.033,0,0,0,1.153.045l7.682-1.92,5.629,1.874a1.548,1.548,0,0,0,.248.066l10.331,2.066a2.049,2.049,0,0,0,1.552-.306l4.7-3.136a58.4,58.4,0,0,1,6.215,8.3l-10.167,3.388-11.006-1.835-3.637-5.455a2.068,2.068,0,0,0-1.708-.92h-12.4a2.061,2.061,0,0,0-1.461.605l-6.2,6.2a2.061,2.061,0,0,0-.584,1.754l2.066,14.464a2.065,2.065,0,0,0,1.24,1.605l14.464,6.2a2.036,2.036,0,0,0,1.314.105l7.378-1.845,4.511,3.012v7.159a2.067,2.067,0,0,0,.207.924l8.058,16.094v7.777a2.061,2.061,0,0,0,.606,1.461l4.322,4.325a57.84,57.84,0,0,1-101.585-51.608Z" transform="translate(0)"/>
  </g>
</svg>
