<svg xmlns="http://www.w3.org/2000/svg" width="153" height="133.838" viewBox="0 0 153 133.838">
  <g id="Grupo_12817" data-name="Grupo 12817" transform="translate(-1225.577 -999.542)">
    <path id="Trazado_18305" data-name="Trazado 18305" d="M1395.489,1106.192l-12.932-5.087h-45.9l-12.931,5.087a12.517,12.517,0,0,0-7.925,12.15l1.73,43.2h84.151l1.73-43.2A12.518,12.518,0,0,0,1395.489,1106.192Z" transform="translate(-27.142 -30.556)" fill="#dbd9dc"/>
    <rect id="Rect치ngulo_3081" data-name="Rect치ngulo 3081" width="29.211" height="25.036" transform="translate(1317.862 1053.793)" fill="#b48764"/>
    <path id="Trazado_18306" data-name="Trazado 18306" d="M1367.689,1002.6a26.987,26.987,0,0,0-16.343,6.259s-8.693,0-8.693,10.432a77.947,77.947,0,0,0,2.086,16.625h47.987C1396.9,1012.966,1386.988,1001.557,1367.689,1002.6Z" transform="translate(-35.223 -0.9)" fill="#5c414b"/>
    <path id="Trazado_18307" data-name="Trazado 18307" d="M1355.171,1030.028c-7.664-9.582-3.825-18.448-3.825-18.448s-8.693,0-8.693,10.432a77.938,77.938,0,0,0,2.086,16.625h10.432Z" transform="translate(-35.223 -3.622)" fill="#503441"/>
    <path id="Trazado_18308" data-name="Trazado 18308" d="M1389.741,1043.362h-2.086l-4.092-4.946c-18.777,3.912-28.617-4.2-28.617-4.2-1.027,6.493-7.315,11.384-7.315,11.384l-3.86-2.241h0a4.106,4.106,0,0,0-.7.073,4.41,4.41,0,0,0-3.4,4.4v1.511a4.381,4.381,0,0,0,3.336,4.358,4.1,4.1,0,0,0,1.159.073,2.017,2.017,0,0,1,2.123,1.668,20.839,20.839,0,0,0,41.005.028,2.026,2.026,0,0,1,2.02-1.683h.43a4.173,4.173,0,0,0,4.173-4.173v-2.086A4.173,4.173,0,0,0,1389.741,1043.362Z" transform="translate(-34.325 -10.433)" fill="#c39772"/>
    <path id="Trazado_18309" data-name="Trazado 18309" d="M1423.907,1124.78l9.077-9.077a12.471,12.471,0,0,1,1.853,7.031l-1.73,43.2h-12.866v-32.3A12.517,12.517,0,0,1,1423.907,1124.78Z" transform="translate(-58.565 -34.947)" fill="#edebed"/>
    <path id="Trazado_18310" data-name="Trazado 18310" d="M1379.5,1113.084h-8.387l-2.1,52.064H1381.6Z" transform="translate(-43.154 -34.159)" fill="#5d5360"/>
    <path id="Trazado_18311" data-name="Trazado 18311" d="M1380.664,1124.425l-.457-11.341h-8.387l-.457,11.341Z" transform="translate(-43.86 -34.159)" fill="#4b3f4e"/>
    <g id="Grupo_12814" data-name="Grupo 12814" transform="translate(1309.517 1064.29)">
      <path id="Trazado_18312" data-name="Trazado 18312" d="M1368.587,1106.756l-16.691-14.6-6.259,6.259,9.7,14.542a4.173,4.173,0,0,0,6.422.636Z" transform="translate(-1345.637 -1092.152)" fill="#edebed"/>
      <path id="Trazado_18313" data-name="Trazado 18313" d="M1378.463,1106.756l16.691-14.6,6.259,6.259-9.695,14.542a4.173,4.173,0,0,1-6.422.636Z" transform="translate(-1355.513 -1092.152)" fill="#edebed"/>
    </g>
    <path id="Trazado_18314" data-name="Trazado 18314" d="M1370.928,1073.227a20.872,20.872,0,0,1-16.654-20.439V1037.81a23.059,23.059,0,0,1-6.643,8.873l-3.86-2.24h0a4.106,4.106,0,0,0-.7.073,4.41,4.41,0,0,0-3.4,4.4v1.511a4.382,4.382,0,0,0,3.336,4.358,4.108,4.108,0,0,0,1.159.073,2.018,2.018,0,0,1,2.123,1.668,20.785,20.785,0,0,0,24.641,16.7Z" transform="translate(-34.325 -11.513)" fill="#b48764"/>
    <path id="Trazado_18315" data-name="Trazado 18315" d="M1296.416,1123.83l-11.256-4.914h-37.576l-11.256,4.914a12.517,12.517,0,0,0-7.5,12l1.317,31.07H1302.6l1.317-31.07A12.518,12.518,0,0,0,1296.416,1123.83Z" transform="translate(-0.975 -35.914)" fill="#5d5360"/>
    <rect id="Rect치ngulo_3082" data-name="Rect치ngulo 3082" width="20.864" height="20.864" transform="translate(1254.964 1068.397)" fill="#fad7a5"/>
    <circle id="Elipse_667" data-name="Elipse 667" cx="12.518" cy="12.518" r="12.518" transform="translate(1252.878 1001.634)" fill="#deaf73"/>
    <ellipse id="Elipse_668" data-name="Elipse 668" cx="25.036" cy="23.993" rx="25.036" ry="23.993" transform="translate(1240.361 1012.065)" fill="#d59f63"/>
    <path id="Trazado_18316" data-name="Trazado 18316" d="M1263.414,1047.619c-8.346-8.346-9.593-15.541-9.4-20.056a23.423,23.423,0,0,0-7.295,16.926,23.06,23.06,0,0,0,3.587,12.357Z" transform="translate(-6.362 -8.43)" fill="#cd915a"/>
    <path id="Trazado_18317" data-name="Trazado 18317" d="M1294.649,1058.35a11.4,11.4,0,0,0-1.2-.087,4.173,4.173,0,0,1-2.95-1.222l-2.873-2.178s-14.772,3.094-28.147-5.789c-1.3,3.793-3.593,6.687-7.685,10.48l-3.957-1.291h0a4.144,4.144,0,0,0-.7.074,4.411,4.411,0,0,0-3.4,4.4v1.511a4.381,4.381,0,0,0,3.334,4.357,4.084,4.084,0,0,0,1.163.073,2.014,2.014,0,0,1,2.12,1.667,20.839,20.839,0,0,0,41,.055,2.045,2.045,0,0,1,2.131-1.714,4.2,4.2,0,0,0,1.358-.1,4.323,4.323,0,0,0,3.162-4.365c-.023-.947-.023-1.875-.023-1.875A4.356,4.356,0,0,0,1294.649,1058.35Z" transform="translate(-5.464 -14.902)" fill="#ffe1b4"/>
    <g id="Grupo_12815" data-name="Grupo 12815" transform="translate(1227.842 1090.656)">
      <path id="Trazado_18318" data-name="Trazado 18318" d="M1240.037,1139.011l-7.624-9.148a12.487,12.487,0,0,0-3.585,9.262l1.317,31.07h13.276V1148.36A14.607,14.607,0,0,0,1240.037,1139.011Z" transform="translate(-1228.817 -1129.863)" fill="#6f6571"/>
      <path id="Trazado_18319" data-name="Trazado 18319" d="M1318.743,1139.011l7.623-9.148a12.485,12.485,0,0,1,3.585,9.262l-1.317,31.07h-13.276V1148.36A14.6,14.6,0,0,1,1318.743,1139.011Z" transform="translate(-1254.853 -1129.863)" fill="#6f6571"/>
    </g>
    <path id="Trazado_18320" data-name="Trazado 18320" d="M1258.343,1067.743v-14.9a30.109,30.109,0,0,1-6.545,7.844l-3.957-1.291h0a4.071,4.071,0,0,0-.7.075,4.41,4.41,0,0,0-3.4,4.4v1.511a4.382,4.382,0,0,0,3.333,4.357,4.138,4.138,0,0,0,1.163.073,2.014,2.014,0,0,1,2.12,1.667,20.785,20.785,0,0,0,24.643,16.7A20.87,20.87,0,0,1,1258.343,1067.743Z" transform="translate(-5.464 -16.036)" fill="#fad7a5"/>
    <g id="Grupo_12816" data-name="Grupo 12816" transform="translate(1245.941 1076.471)">
      <path id="Trazado_18321" data-name="Trazado 18321" d="M1273.575,1122.155l-12.581-12.581-6.29,6.29,7.758,12.594a2.1,2.1,0,0,0,3.147.495Z" transform="translate(-1254.704 -1109.574)" fill="#6f6571"/>
      <path id="Trazado_18322" data-name="Trazado 18322" d="M1281.7,1122.155l12.581-12.581,6.29,6.29-7.758,12.594a2.1,2.1,0,0,1-3.146.495Z" transform="translate(-1262.825 -1109.574)" fill="#6f6571"/>
    </g>
    <path id="Trazado_18323" data-name="Trazado 18323" d="M1355.66,1140.43h-8.387a2.241,2.241,0,1,0,0,4.482h8.387a2.241,2.241,0,1,0,0-4.482Z" transform="translate(-35.938 -42.387)"/>
    <path id="Trazado_18324" data-name="Trazado 18324" d="M1397.473,1074.05l-12.2-4.707-6.222-6.222a2.233,2.233,0,0,0-1.441-.65v-4.951a23.114,23.114,0,0,0,5.863-11.548,6.37,6.37,0,0,0,1.572-.125,6.632,6.632,0,0,0,5.146-6.578v-1.634a6.715,6.715,0,0,0-1.974-4.767c1.979-10.764.349-19.536-4.735-25.407-4.918-5.678-12.84-8.393-22.912-7.848a30.018,30.018,0,0,0-17.214,6.35,11.8,11.8,0,0,0-4.612,1.568c-2.489,1.493-5.456,4.63-5.456,11.1a55.949,55.949,0,0,0,1.554,13.019,6.643,6.643,0,0,0-3.651,6.015v1.609a6.633,6.633,0,0,0,5.146,6.578,6.4,6.4,0,0,0,1.572.125,23.109,23.109,0,0,0,5.863,11.547v4.951a2.233,2.233,0,0,0-1.441.65l-6.222,6.222-12.2,4.707a14.806,14.806,0,0,0-3,1.569,2.241,2.241,0,1,0,2.519,3.708,10.368,10.368,0,0,1,2.091-1.095l11.327-4.369,8.66,12.991a6.423,6.423,0,0,0,8.516,2.03l-1.858,42.156a2.241,2.241,0,0,0,2.141,2.337l.1,0a2.241,2.241,0,0,0,2.237-2.142l1.725-39.129h4.653l1.725,39.129a2.242,2.242,0,0,0,2.237,2.142l.1,0a2.241,2.241,0,0,0,2.141-2.337l-1.859-42.156a6.427,6.427,0,0,0,8.516-2.03l8.66-12.991,11.326,4.369a10.316,10.316,0,0,1,4.031,2.81l-7.749,7.749a14.726,14.726,0,0,0-4.342,10.481v31.867a2.242,2.242,0,0,0,4.483,0v-31.867a10.272,10.272,0,0,1,3.028-7.311l6.8-6.8a10.334,10.334,0,0,1,.358,3.132l-1.736,42.756a2.242,2.242,0,0,0,2.149,2.331h.092a2.242,2.242,0,0,0,2.238-2.15l1.736-42.757A14.816,14.816,0,0,0,1397.473,1074.05Zm-36.786,2.355-12.436-10.882v-4.289a23.194,23.194,0,0,0,24.873,0v4.289Zm-22.933-34.914a1.944,1.944,0,0,1-.522-.036,2.173,2.173,0,0,1-1.563-2.187v-1.609a2.124,2.124,0,0,1,1.582-2.132,1.949,1.949,0,0,1,1.918.735,3.125,3.125,0,0,0,4.295.674,16.259,16.259,0,0,0,3.675-3.593,2.241,2.241,0,1,0-3.6-2.675,11.95,11.95,0,0,1-1.745,1.886,6.412,6.412,0,0,0-2.43-1.3,51.53,51.53,0,0,1-1.6-12.631c0-3.433,1.059-5.845,3.145-7.168a7.267,7.267,0,0,1,3.351-1.075,2.263,2.263,0,0,0,1.547-.619,25.25,25.25,0,0,1,15-5.674c8.637-.466,15.3,1.714,19.282,6.306,4.008,4.629,5.344,11.735,3.9,20.63a9.692,9.692,0,0,0-1.912.133l-2.106-5.057a2.243,2.243,0,0,0-2.636-1.307c-.208.055-20.906,5.3-29.584-5.5a2.241,2.241,0,0,0-3.495,2.807c8.862,11.033,26.447,8.633,32.3,7.463l1.628,3.91a3.683,3.683,0,0,0,4.257,2.183,4.847,4.847,0,0,1,1.677-.123,2.114,2.114,0,0,1,1.589,2.1v1.635a2.173,2.173,0,0,1-1.562,2.187,1.946,1.946,0,0,1-.521.036,4.366,4.366,0,0,0-4.539,3.557,18.7,18.7,0,0,1-36.788,0A4.362,4.362,0,0,0,1337.754,1041.491Zm12.908,43.737a1.926,1.926,0,0,1-1.432-.86l-8.724-13.087,3.508-3.508,13.394,11.72-5.173,5.173A1.926,1.926,0,0,1,1350.663,1085.227Zm7.9,2.4.136-3.081,1.992-1.993,1.993,1.993.135,3.08Zm13.586-3.259a1.952,1.952,0,0,1-3,.3l-5.173-5.173,13.394-11.719,3.508,3.508Z" transform="translate(-28.384 -0.001)"/>
    <path id="Trazado_18325" data-name="Trazado 18325" d="M1296.652,1085.8l-10.944-4.776-5.982-5.983a2.229,2.229,0,0,0-1.44-.649v-3.526a23.148,23.148,0,0,0,10.056-15.07,6.455,6.455,0,0,0,1.769-.168,6.671,6.671,0,0,0,4.949-6.535v-1.634a6.681,6.681,0,0,0-2.872-5.511,25.353,25.353,0,0,0,.775-6.209,26.131,26.131,0,0,0-12.585-22.159c-.081-7.749-6.7-14.031-14.818-14.031s-14.738,6.282-14.818,14.031a26.132,26.132,0,0,0-12.584,22.159,25.341,25.341,0,0,0,.77,6.191,6.7,6.7,0,0,0-2.867,5.554v1.609a6.671,6.671,0,0,0,4.949,6.535,6.455,6.455,0,0,0,1.769.168,23.149,23.149,0,0,0,10.057,15.07v3.526a2.229,2.229,0,0,0-1.44.649l-5.983,5.983-10.943,4.776a14.916,14.916,0,0,0-8.879,14.212l1.324,31.225a2.241,2.241,0,0,0,2.237,2.146l.1,0a2.241,2.241,0,0,0,2.144-2.334l-1.323-31.226a10.322,10.322,0,0,1,1.421-5.645l5.883,7.059a12.459,12.459,0,0,1,2.883,7.962v21.944a2.241,2.241,0,1,0,4.482,0v-21.944a16.95,16.95,0,0,0-3.922-10.831l-6.254-7.5a10.169,10.169,0,0,1,1.7-.954l9.537-4.163,6.74,10.94a4.338,4.338,0,0,0,6.51,1.025l4.271-3.645v37.078a2.241,2.241,0,1,0,4.482,0V1094.06l4.271,3.644a4.334,4.334,0,0,0,2.814,1.039,4.413,4.413,0,0,0,.676-.053,4.334,4.334,0,0,0,3.02-2.01l6.74-10.94,9.537,4.163a10.169,10.169,0,0,1,1.7.954l-6.254,7.5a16.949,16.949,0,0,0-3.922,10.831v21.945a2.241,2.241,0,1,0,4.482,0v-21.945a12.464,12.464,0,0,1,2.883-7.962l5.883-7.058a10.317,10.317,0,0,1,1.421,5.644l-1.323,31.226a2.242,2.242,0,0,0,2.144,2.334l.1,0a2.242,2.242,0,0,0,2.238-2.147l1.323-31.225A14.916,14.916,0,0,0,1296.652,1085.8Zm-31.091-81.77a10.268,10.268,0,0,1,9.98,7.163,28.421,28.421,0,0,0-19.961,0A10.268,10.268,0,0,1,1265.561,1004.025Zm-18.395,50.842a4.365,4.365,0,0,0-4.538-3.557,1.959,1.959,0,0,1-.586-.05,2.19,2.19,0,0,1-1.5-2.173v-1.609a2.124,2.124,0,0,1,1.581-2.132,1.947,1.947,0,0,1,1.918.734,3.126,3.126,0,0,0,4.3.675,16.256,16.256,0,0,0,3.627-3.529,2.241,2.241,0,1,0-3.585-2.691,11.883,11.883,0,0,1-1.709,1.839,6.42,6.42,0,0,0-3.382-1.489,20.881,20.881,0,0,1-.649-5.151c0-12.06,10.282-21.872,22.921-21.872s22.92,9.812,22.92,21.872a20.877,20.877,0,0,1-.646,5.142,10.253,10.253,0,0,0-1.744.287l-1.685-1.386a4.3,4.3,0,0,0-2.99-.98c-3.294.194-20.166.64-28.822-9.719a2.241,2.241,0,1,0-3.44,2.873c4.269,5.109,10.531,8.564,18.61,10.268a54.835,54.835,0,0,0,13.84,1.056l2.629,2.162a2.235,2.235,0,0,0,2.548.207,4.946,4.946,0,0,1,2.209-.294,2.114,2.114,0,0,1,1.59,2.1v1.634a2.189,2.189,0,0,1-1.5,2.173,1.935,1.935,0,0,1-.586.05,4.368,4.368,0,0,0-4.538,3.557,18.7,18.7,0,0,1-36.789,0Zm18.395,19.8a23.135,23.135,0,0,0,8.243-1.516v4.637l-8.243,8.243-8.243-8.243v-4.637A23.133,23.133,0,0,0,1265.561,1074.668Zm-9.294,19.517-6.74-10.942,3.453-3.453,9.281,9.281Zm18.587,0-5.993-5.114,9.281-9.281,3.453,3.453Z"/>
    <path id="Trazado_18326" data-name="Trazado 18326" d="M1267.1,1154.569h-6.29a2.241,2.241,0,0,0,0,4.482h6.29a2.241,2.241,0,1,0,0-4.482Z" transform="translate(-9.925 -46.64)"/>
  </g>
</svg>
