<svg xmlns="http://www.w3.org/2000/svg" width="124" height="130.688" viewBox="0 0 124 130.688">
  <g id="Grupo_12972" data-name="Grupo 12972" transform="translate(-3683.377 -2184.271)">
    <path id="Trazado_18630" data-name="Trazado 18630" d="M3805.3,2446.531H3690.869v7.368s.718,4.594,5.312,4.594H3805.3s5.027-1.194,5.027-5.981v-5.981Z" transform="translate(-4.937 -172.831)" fill="#faf7f8"/>
    <path id="Trazado_18631" data-name="Trazado 18631" d="M3703.686,2363.021v26.769h3.454l20.991-26.769a15.537,15.537,0,0,0-7.342-2.332C3717.028,2360.69,3710.133,2365.979,3703.686,2363.021Z" transform="translate(-13.384 -116.261)" fill="#ffface"/>
    <path id="Trazado_18632" data-name="Trazado 18632" d="M3946.34,2394.467h27.314v-26.94h-8.2Z" transform="translate(-173.294 -120.767)" fill="#fff586"/>
    <g id="Grupo_12970" data-name="Grupo 12970" transform="translate(3683.377 2184.271)">
      <path id="Trazado_18633" data-name="Trazado 18633" d="M3746.407,2184.271a14.37,14.37,0,0,1,6.566,8.415c1.083,3.187-.978,6.966-4.255,8.517-1.61.762-1.672.9-1.2,2.863.31.022.641.056.973.067,2.644.086,4.032,1.514,4.04,4.192.011,3.658.007,7.317.009,10.975,0,.4,0,.806,0,1.455.442-.4.684-.618.92-.839a3.9,3.9,0,0,1,5.706,0c.945.906,1.807,1.9,2.8,2.954,1.04-1.066,1.905-1.991,2.813-2.874a3.911,3.911,0,0,1,5.8-.066c.927.873,1.8,1.8,2.991,3,.84-.959,1.6-1.917,2.451-2.781,1.96-1.985,4.172-1.979,6.156-.026.874.86,1.72,1.748,2.674,2.72.934-.976,1.765-1.886,2.64-2.752,1.92-1.9,4.12-1.89,6.073,0,.58.563,1.131,1.156,1.719,1.709,3.115,2.932,3.523,6.418,2.13,10.281-.056.153-.107.308-.194.558a8.748,8.748,0,0,1,5.525,2.376,8.344,8.344,0,0,1,.3,11.728,2.555,2.555,0,0,0-.748,1.483c-.046,7.657-.031,15.314-.027,22.972,0,.164.036.328.076.676.8,0,1.588-.006,2.379,0,1.975.017,2.626.649,2.642,2.58q.017,2.105.007,4.211c-.033,5.149-3.407,8.534-8.578,8.547-8.125.02-16.25,0-24.375,0-4.85,0-9.7-.027-14.548.026a2.965,2.965,0,0,0-1.781.688c-1.625,1.434-3.193,2.939-4.7,4.5a2.654,2.654,0,0,0-.678,1.646c-.063,3.232,0,6.466-.051,9.7a1.424,1.424,0,0,0,1.144,1.64c4.31,1.436,8.6,2.931,12.879,4.452a2.918,2.918,0,0,1,1.635,1.08,4.011,4.011,0,0,1,.281,2.488,2.212,2.212,0,0,1-2.4,1.516q-4.339,0-8.678,0H3726c-.3,0-.6,0-.893,0-1.659-.021-2.7-.759-2.927-2.084-.242-1.379.51-2.443,2.137-3.009,3.409-1.187,6.822-2.361,10.228-3.557,1.235-.434,2.885-.59,3.554-1.473.625-.826.224-2.445.235-3.716.021-2.382.052-4.766-.014-7.146a2.492,2.492,0,0,0-.659-1.529c-1.484-1.521-3.007-3.013-4.612-4.4a3.367,3.367,0,0,0-2.005-.774c-6.636-.06-13.272-.04-19.909-.045a10.157,10.157,0,0,1-1.274-.036,1.754,1.754,0,0,1-1.646-1.8,1.726,1.726,0,0,1,1.414-1.869,7.985,7.985,0,0,1,1.771-.126q43.2,0,86.4.006c.51,0,1.022.012,1.531-.012a4.179,4.179,0,0,0,4.192-4.116c.063-1.1.01-2.207.01-3.476-.5-.026-.941-.069-1.387-.07-2.425-.008-4.85.012-7.274-.011a1.964,1.964,0,0,1-2.2-1.94,2.017,2.017,0,0,1,2.17-1.877c.595-.025,1.191,0,1.787,0h1.726v-22.412c-1.479-.118-2.942-.262-4.41-.329a1.173,1.173,0,0,0-.81.455q-8.457,10.957-16.88,21.939c-.022.028-.017.077-.052.25.359.033.708.092,1.057.093,2.765.008,5.53,0,8.3.01a5.253,5.253,0,0,1,1.387.129,1.737,1.737,0,0,1,1.355,2.023,1.706,1.706,0,0,1-1.654,1.642,17.319,17.319,0,0,1-1.785.029h-97.491a30.4,30.4,0,0,0,.038,4.305,3.96,3.96,0,0,0,4.186,3.353c3.1.05,6.211.016,9.316.022a7.332,7.332,0,0,1,1.272.051,1.764,1.764,0,0,1,1.642,1.93,1.674,1.674,0,0,1-1.753,1.8c-3.955.022-7.923.163-11.861-.107-3.711-.254-6.578-3.687-6.768-7.629-.086-1.783-.052-3.573-.016-5.359.03-1.463.749-2.141,2.248-2.191.886-.03,1.775-.006,2.845-.006,0-1.731,0-3.373,0-5.015a13.251,13.251,0,0,1,.028-1.53,1.884,1.884,0,0,1,1.958-1.785,1.809,1.809,0,0,1,1.826,1.891c.046,1.062.016,2.127.017,3.19,0,1.018,0,2.036,0,3.343.487-.247.906-.325,1.1-.578,6.19-8,12.358-16.017,18.623-24.153a12.805,12.805,0,0,0-7.668-.594,7.792,7.792,0,0,0-1.348.383c-3.388,1.39-6.781,2.744-10.7,2.229,0,2.255,0,4.328,0,6.4,0,.51.017,1.022-.011,1.531a1.869,1.869,0,0,1-1.89,1.971,1.888,1.888,0,0,1-1.917-1.967c-.059-1.4-.019-2.807-.02-4.211,0-.851-.039-1.7.008-2.552a6.35,6.35,0,0,0-1.412-4.615c-3.853-4.974-.612-12.259,5.627-13.073.243-.032.485-.069.4-.057a30.093,30.093,0,0,1-.315-5.825,10.686,10.686,0,0,1,1.908-4.187,17.221,17.221,0,0,1,2.747-2.833,3.865,3.865,0,0,1,5.513-.028c.988.93,1.875,1.967,2.992,3.153.991-1.079,1.815-2.047,2.713-2.939a3.91,3.91,0,0,1,5.884-.05c.913.882,1.767,1.826,2.721,2.817,1-1,1.887-1.9,2.794-2.775a3.916,3.916,0,0,1,5.888-.035c.913.876,1.752,1.829,2.738,2.865.908-.936,1.663-1.733,2.438-2.51,2.192-2.2,4.2-2.237,6.438-.148.145.135.3.255.642.54,0-2.249,0-4.27,0-6.292,0-1.957-.01-3.914,0-5.871.017-3.047,1.261-4.326,4.3-4.448.248-.01.494-.048.717-.071.484-1.956.424-2.094-1.194-2.859a7.381,7.381,0,0,1-3.56-10.283,36.7,36.7,0,0,1,3.87-5.35,7.693,7.693,0,0,1,1.99-1.3Zm-.95,52.265h-12.374q-19.518,0-39.036,0a4.536,4.536,0,0,0-4.766,4.564,4.4,4.4,0,0,0,4.9,4.371,20.987,20.987,0,0,0,5.754-1.422,18.473,18.473,0,0,1,13.671-.421,20.066,20.066,0,0,0,3.83.892c2.962.438,5.73-.49,8.46-1.439a18.6,18.6,0,0,1,13.453.26,15.523,15.523,0,0,0,12.031.01,15.266,15.266,0,0,1,7.837-1.338,63.31,63.31,0,0,1,8.162,1.879,14.731,14.731,0,0,0,9.387-.131,18.963,18.963,0,0,1,14.63.513,16.618,16.618,0,0,0,5.669,1.193,4.354,4.354,0,0,0,4.232-5.6c-.577-2.178-2.274-3.332-4.942-3.333Q3770.907,2236.53,3745.456,2236.536Zm24.165,11.922c-2.655-.761-5.2-1.545-7.774-2.2a30.572,30.572,0,0,0-3.521-.473,2.122,2.122,0,0,0-2.12,1.036q-7.928,10.394-15.93,20.731c-1.052,1.366-2.1,2.735-3.2,4.165a2.31,2.31,0,0,0,.49.154c4.465.008,8.931.029,13.4-.021a1.854,1.854,0,0,0,1.195-.729c3.088-3.953,6.139-7.936,9.2-11.911C3764.1,2255.643,3766.842,2252.073,3769.621,2248.459Zm-13.168,23.416c4.687,0,9.058-.027,13.43.022a2.227,2.227,0,0,0,2-1.006q7.118-9.315,14.3-18.585c1.131-1.468,2.255-2.942,3.457-4.51a12.687,12.687,0,0,0-7.656-1.339c-2.077.368-4.082,1.127-6.151,1.56a3.189,3.189,0,0,0-2.044,1.31c-3.814,5-7.663,9.968-11.5,14.948C3760.406,2266.722,3758.526,2269.174,3756.452,2271.874Zm-23.937-25.869-.189-.394c-1.445.291-2.924.471-4.33.894-3.708,1.115-7.374,2.357-11.354,1.869-.357-.044-.888.4-1.162.753q-8.4,10.84-16.741,21.718c-.212.275-.381.583-.676,1.039,4.621,0,9-.023,13.378.019a2.108,2.108,0,0,0,1.9-.954c4.436-5.813,8.912-11.6,13.373-17.39Q3729.619,2249.786,3732.515,2246.005Zm17.98,1.878a1.6,1.6,0,0,0-.458-.051,18.587,18.587,0,0,1-11.979-.9,1.357,1.357,0,0,0-1.875.571q-8.907,11.645-17.871,23.246c-.241.314-.449.653-.781,1.139,4.609,0,8.984-.028,13.359.023a2.231,2.231,0,0,0,2-1.016q8.444-11.036,16.937-22.035C3750.055,2248.562,3750.249,2248.244,3750.5,2247.883Zm-12.241,39.419c.865.952,1.659,1.954,2.587,2.809a3.905,3.905,0,0,1,1.354,3.141c-.045,3.485-.015,6.971-.015,10.457,0,4.04,0,4.038-3.875,5.377-1.731.6-3.459,1.2-5.188,1.806l.064.19h24.8c-2.3-.972-4.648-1.778-6.986-2.6-1.665-.589-2.134-1.24-2.143-3.032-.019-4.123,0-8.247-.026-12.37a3.531,3.531,0,0,1,1.208-2.814c.985-.9,1.888-1.888,2.947-2.96Zm-26.576-64.571a29.235,29.235,0,0,0-2.977,2.828c-1.847,2.292-.821,6.063,1.776,6.916a3.783,3.783,0,0,0,4.195-1.325,4.98,4.98,0,0,0,.014-5.5A36.437,36.437,0,0,0,3711.678,2222.732Zm22.766-.274c-.822.835-1.534,1.613-2.3,2.329a4.856,4.856,0,0,0-1.314,5.016,3.743,3.743,0,0,0,6.487,1.525,4.925,4.925,0,0,0-.137-6.1C3736.354,2224.319,3735.456,2223.479,3734.444,2222.458Zm21.778.012c-.879.917-1.712,1.761-2.516,2.63a5.106,5.106,0,0,0-.764,5.456,3.759,3.759,0,0,0,6.262.75,4.986,4.986,0,0,0-.047-5.908C3758.3,2224.411,3757.311,2223.546,3756.222,2222.47Zm22.819-.076c-.862.92-1.592,1.741-2.368,2.517a4.827,4.827,0,0,0-1.071,5.3,3.738,3.738,0,0,0,6.4,1.088,4.97,4.97,0,0,0-.122-6.006C3781.043,2224.343,3780.11,2223.478,3779.041,2222.394Zm-78.828.1a39.619,39.619,0,0,0-2.992,3.167c-1.738,2.279-.64,6.034,1.905,6.829a3.787,3.787,0,0,0,4.262-1.5,5.079,5.079,0,0,0-.227-5.522C3702.277,2224.446,3701.262,2223.541,3700.212,2222.493Zm90.306.07c-.963.941-1.919,1.79-2.773,2.731a5.074,5.074,0,0,0-.47,5.506,3.762,3.762,0,0,0,6.167.46,5,5,0,0,0-.147-5.929C3792.455,2224.379,3791.5,2223.531,3790.519,2222.563Zm-67.565-.084c-.848.89-1.676,1.742-2.487,2.611a5.276,5.276,0,0,0-.71,5.595,3.756,3.756,0,0,0,6.225.582,5.054,5.054,0,0,0-.137-5.93C3724.993,2224.392,3724.037,2223.542,3722.953,2222.479Zm44.76.06c-.922.907-1.795,1.716-2.609,2.58a5.263,5.263,0,0,0-.739,5.485,3.763,3.763,0,0,0,6.292.635,5.047,5.047,0,0,0-.179-5.928C3769.628,2224.364,3768.684,2223.5,3767.713,2222.538Zm-22.05-34.617a15.013,15.013,0,0,0-4.122,5.507,3.471,3.471,0,0,0,1.818,3.99c.23-1.356-.127-3.187,1.978-3.226,2.179-.04,1.851,1.841,2.074,3.25,1.848-1.183,2.488-2.922,1.533-4.616S3746.8,2189.6,3745.664,2187.921Zm-3.592,36.781c2.2-1.271,4.181-2.4,6.141-3.562a.985.985,0,0,0,.463-.658c.039-1.744.021-3.49.021-5.421-2.2,1.269-4.184,2.393-6.14,3.56a1.1,1.1,0,0,0-.465.781C3742.05,2221.088,3742.071,2222.775,3742.071,2224.7Zm6.586.646c-2.136,1.228-4.086,2.328-6.005,3.478a1.287,1.287,0,0,0-.55.869c-.07.956-.026,1.921-.026,2.916h6.581Zm-6.541-10.93c1.727-.994,3.265-1.878,4.8-2.764,2.056-1.187,2.056-1.188,1.638-3.6h-6.439Z" transform="translate(-3683.377 -2184.271)"/>
    </g>
    <path id="Trazado_18634" data-name="Trazado 18634" d="M3756.862,2337.537h-12.374q-19.518,0-39.036,0a4.536,4.536,0,0,0-4.766,4.564,4.395,4.395,0,0,0,4.9,4.371,20.978,20.978,0,0,0,5.754-1.421,18.473,18.473,0,0,1,13.671-.421,20.048,20.048,0,0,0,3.83.893c2.962.438,5.73-.49,8.46-1.439a18.6,18.6,0,0,1,13.453.26,15.523,15.523,0,0,0,12.031.01,15.268,15.268,0,0,1,7.837-1.338,63.27,63.27,0,0,1,8.162,1.879,14.733,14.733,0,0,0,9.387-.131,18.963,18.963,0,0,1,14.63.513,16.618,16.618,0,0,0,5.669,1.193,4.354,4.354,0,0,0,4.232-5.6c-.577-2.178-2.274-3.332-4.942-3.333Q3782.313,2337.531,3756.862,2337.537Z" transform="translate(-11.406 -101.001)" fill="#fcaa57"/>
    <path id="Trazado_18635" data-name="Trazado 18635" d="M3873.4,2367.3c-2.655-.761-5.2-1.545-7.774-2.2a30.626,30.626,0,0,0-3.521-.473,2.122,2.122,0,0,0-2.12,1.036q-7.928,10.394-15.93,20.731c-1.052,1.366-2.1,2.735-3.2,4.165a2.316,2.316,0,0,0,.49.155c4.465.008,8.931.029,13.4-.021a1.855,1.855,0,0,0,1.195-.729c3.088-3.954,6.139-7.936,9.2-11.912C3867.879,2374.479,3870.622,2370.91,3873.4,2367.3Z" transform="translate(-103.78 -118.837)" fill="#fff586"/>
    <path id="Trazado_18636" data-name="Trazado 18636" d="M3897.678,2391.758c4.687,0,9.058-.027,13.43.022a2.227,2.227,0,0,0,2-1.006q7.118-9.315,14.3-18.585c1.131-1.468,2.255-2.942,3.457-4.51a12.687,12.687,0,0,0-7.656-1.339c-2.077.368-4.082,1.127-6.151,1.56a3.189,3.189,0,0,0-2.044,1.31c-3.814,5-7.663,9.968-11.5,14.948C3901.631,2386.605,3899.752,2389.057,3897.678,2391.758Z" transform="translate(-141.226 -119.883)" fill="#ffface"/>
    <path id="Trazado_18637" data-name="Trazado 18637" d="M3760.9,2364.552l-.188-.395c-1.446.291-2.924.471-4.33.894-3.708,1.115-7.374,2.357-11.354,1.869-.357-.043-.889.4-1.162.753q-8.4,10.84-16.741,21.718c-.211.275-.381.583-.675,1.039,4.621,0,9-.023,13.377.02a2.107,2.107,0,0,0,1.9-.954c4.436-5.813,8.912-11.6,13.374-17.39Q3758,2368.332,3760.9,2364.552Z" transform="translate(-28.384 -118.546)" fill="#fff586"/>
    <path id="Trazado_18638" data-name="Trazado 18638" d="M3816.5,2368.65a1.6,1.6,0,0,0-.458-.051,18.586,18.586,0,0,1-11.979-.9,1.357,1.357,0,0,0-1.875.571q-8.907,11.645-17.871,23.247c-.241.313-.449.653-.781,1.139,4.609,0,8.985-.028,13.359.023a2.231,2.231,0,0,0,2-1.016q8.444-11.036,16.937-22.035C3816.061,2369.329,3816.255,2369.011,3816.5,2368.65Z" transform="translate(-66.006 -120.767)" fill="#ffface"/>
    <path id="Trazado_18639" data-name="Trazado 18639" d="M3834.381,2486.421c.865.952,1.659,1.954,2.587,2.809a3.906,3.906,0,0,1,1.354,3.141c-.045,3.485-.015,6.971-.015,10.457,0,4.04,0,4.038-3.875,5.377-1.731.6-3.459,1.2-5.188,1.806l.063.19h24.8c-2.3-.972-4.648-1.778-6.987-2.605-1.664-.589-2.134-1.24-2.143-3.032-.019-4.123,0-8.247-.026-12.37a3.532,3.532,0,0,1,1.208-2.814c.985-.9,1.888-1.888,2.947-2.96Z" transform="translate(-96.127 -199.119)" fill="#faf7f8"/>
    <path id="Trazado_18640" data-name="Trazado 18640" d="M3758.8,2297.061a29.208,29.208,0,0,0-2.977,2.828c-1.847,2.292-.821,6.063,1.776,6.916a3.784,3.784,0,0,0,4.2-1.325,4.981,4.981,0,0,0,.013-5.5A36.28,36.28,0,0,0,3758.8,2297.061Z" transform="translate(-47.125 -74.329)" fill="#fa7d7d"/>
    <path id="Trazado_18641" data-name="Trazado 18641" d="M3825.769,2296.257c-.822.835-1.535,1.613-2.3,2.329a4.855,4.855,0,0,0-1.314,5.016,3.743,3.743,0,0,0,6.487,1.525,4.925,4.925,0,0,0-.138-6.1C3827.679,2298.119,3826.78,2297.279,3825.769,2296.257Z" transform="translate(-91.324 -73.8)" fill="#fa7d7d"/>
    <path id="Trazado_18642" data-name="Trazado 18642" d="M3889.759,2296.293c-.879.917-1.712,1.761-2.516,2.63a5.106,5.106,0,0,0-.764,5.456,3.758,3.758,0,0,0,6.262.75,4.986,4.986,0,0,0-.047-5.908C3891.842,2298.234,3890.849,2297.369,3889.759,2296.293Z" transform="translate(-133.538 -73.823)" fill="#fa7d7d"/>
    <path id="Trazado_18643" data-name="Trazado 18643" d="M3956.6,2296.071c-.862.92-1.592,1.741-2.368,2.516a4.826,4.826,0,0,0-1.07,5.3,3.738,3.738,0,0,0,6.4,1.089,4.971,4.971,0,0,0-.122-6.006C3958.6,2298.02,3957.671,2297.154,3956.6,2296.071Z" transform="translate(-177.561 -73.677)" fill="#fa7d7d"/>
    <path id="Trazado_18644" data-name="Trazado 18644" d="M3725.335,2296.361a39.714,39.714,0,0,0-2.992,3.167c-1.738,2.279-.64,6.033,1.906,6.829a3.788,3.788,0,0,0,4.262-1.5,5.08,5.08,0,0,0-.227-5.522C3727.4,2298.314,3726.384,2297.409,3725.335,2296.361Z" transform="translate(-25.123 -73.868)" fill="#fa7d7d"/>
    <path id="Trazado_18645" data-name="Trazado 18645" d="M3990.159,2296.566c-.963.941-1.919,1.79-2.773,2.731a5.075,5.075,0,0,0-.47,5.506,3.762,3.762,0,0,0,6.167.46,5,5,0,0,0-.147-5.929C3992.1,2298.382,3991.138,2297.534,3990.159,2296.566Z" transform="translate(-199.641 -74.003)" fill="#fa7d7d"/>
    <path id="Trazado_18646" data-name="Trazado 18646" d="M3792.291,2296.318c-.848.89-1.676,1.742-2.487,2.611a5.276,5.276,0,0,0-.71,5.595,3.756,3.756,0,0,0,6.225.582,5.054,5.054,0,0,0-.137-5.93C3794.331,2298.232,3793.375,2297.382,3792.291,2296.318Z" transform="translate(-69.337 -73.84)" fill="#fa7d7d"/>
    <path id="Trazado_18647" data-name="Trazado 18647" d="M3923.344,2296.493c-.922.907-1.795,1.716-2.609,2.58a5.264,5.264,0,0,0-.739,5.485,3.763,3.763,0,0,0,6.292.635,5.048,5.048,0,0,0-.179-5.929C3925.259,2298.319,3924.315,2297.459,3923.344,2296.493Z" transform="translate(-155.631 -73.955)" fill="#fa7d7d"/>
    <path id="Trazado_18648" data-name="Trazado 18648" d="M3857.807,2194.975a15.011,15.011,0,0,0-4.122,5.507,3.47,3.47,0,0,0,1.818,3.99c.23-1.357-.127-3.187,1.978-3.226,2.179-.04,1.851,1.841,2.074,3.25,1.848-1.183,2.488-2.922,1.533-4.616S3858.944,2196.654,3857.807,2194.975Z" transform="translate(-112.144 -7.054)" fill="#fff7ab"/>
    <path id="Trazado_18649" data-name="Trazado 18649" d="M3855.494,2284.208c2.2-1.271,4.181-2.4,6.141-3.562a.984.984,0,0,0,.463-.658c.039-1.744.021-3.49.021-5.421-2.2,1.269-4.184,2.393-6.14,3.56a1.1,1.1,0,0,0-.465.781C3855.473,2280.593,3855.494,2282.281,3855.494,2284.208Z" transform="translate(-113.422 -59.506)" fill="#fff586"/>
    <path id="Trazado_18650" data-name="Trazado 18650" d="M3862.074,2304.737c-2.136,1.228-4.086,2.328-6.005,3.478a1.287,1.287,0,0,0-.549.869c-.071.956-.026,1.921-.026,2.916h6.581Z" transform="translate(-113.416 -79.388)" fill="#fff586"/>
    <path id="Trazado_18651" data-name="Trazado 18651" d="M3855.637,2260.39c1.727-.994,3.265-1.878,4.8-2.764,2.056-1.187,2.056-1.188,1.637-3.6h-6.439Z" transform="translate(-113.52 -45.971)" fill="#fff586"/>
  </g>
</svg>
