<svg xmlns="http://www.w3.org/2000/svg" width="86.561" height="86.563" viewBox="0 0 86.561 86.563">
  <g id="media-monitor-screen-Digital_Marketing" data-name="media-monitor-screen-Digital Marketing" transform="translate(-590.375 -1166.398)">
    <path id="Trazado_17802" data-name="Trazado 17802" d="M672.608,1185.154h-2.885v-1.442h1.443a4.328,4.328,0,0,0,0-8.657h-1.443v-7.213a1.4,1.4,0,0,0-.592-1.154,1.427,1.427,0,0,0-1.269-.231l-18.553,5.713h-9.883a1.442,1.442,0,0,0-1.442,1.443v1.442H635.1a1.443,1.443,0,0,0-1.443,1.443v5.771a1.443,1.443,0,0,0,1.443,1.443h2.886v1.442h-8.657V1172.17a1.443,1.443,0,0,0-1.442-1.443H599.031a1.443,1.443,0,0,0-1.443,1.443v12.984H594.7a4.341,4.341,0,0,0-4.328,4.328v46.167a4.341,4.341,0,0,0,4.328,4.328h33.182v4.328h-8.656a1.443,1.443,0,0,0-1.443,1.442v5.771a1.443,1.443,0,0,0,1.443,1.443h28.853a1.443,1.443,0,0,0,1.443-1.443v-5.771a1.443,1.443,0,0,0-1.443-1.442h-8.656v-4.328h33.182a4.341,4.341,0,0,0,4.328-4.328v-46.167A4.34,4.34,0,0,0,672.608,1185.154Zm-2.885-7.213h1.443a1.443,1.443,0,0,1,0,2.885h-1.443Zm-18.755-3.261,15.869-4.89v19.187l-15.869-4.89Zm-10.1.375h7.213v8.657h-7.213Zm4.112,11.542-1.039,7.213h-1.63V1186.6Zm-8.44-5.771v-2.885h1.443v2.885Zm-36.068-7.213h25.969v20.2H600.473Zm46.167,73.577v2.885H620.671v-2.885Zm-15.87-2.885v-4.328h5.771v4.328Zm43.281-8.656a1.443,1.443,0,0,1-1.443,1.442H594.7a1.443,1.443,0,0,1-1.443-1.442v-1.443h80.791Zm0-4.329H593.26v-41.838a1.443,1.443,0,0,1,1.443-1.442h2.885v7.213a1.443,1.443,0,0,0,1.443,1.443h28.854a1.443,1.443,0,0,0,1.442-1.443v-7.213h10.1v7.213a1.443,1.443,0,0,0,1.443,1.443H645.2a1.442,1.442,0,0,0,1.428-1.241l1.27-8.858h1.414l18.553,5.713a1.346,1.346,0,0,0,.418.058,1.465,1.465,0,0,0,1.443-1.443v-2.885h2.885a1.443,1.443,0,0,1,1.443,1.442Z"/>
    <path id="Trazado_17803" data-name="Trazado 17803" d="M597.588,1228.435H635.1a1.443,1.443,0,0,0,1.443-1.443v-23.083a1.442,1.442,0,0,0-1.443-1.442h-37.51a1.442,1.442,0,0,0-1.443,1.442v23.083A1.443,1.443,0,0,0,597.588,1228.435Zm1.443-2.885v-19.06l16.556,10.19a1.444,1.444,0,0,0,1.512,0l16.556-10.19v19.06Zm3.654-20.2H630l-13.658,8.4Z"/>
    <path id="Trazado_17804" data-name="Trazado 17804" d="M640.869,1219.779h2.885v4.328a1.443,1.443,0,0,0,1.443,1.443h24.526a1.443,1.443,0,0,0,1.443-1.443V1206.8a1.443,1.443,0,0,0-1.443-1.443H668.28v-4.328a1.443,1.443,0,0,0-1.443-1.443H640.869a1.443,1.443,0,0,0-1.443,1.443v17.312A1.443,1.443,0,0,0,640.869,1219.779Zm27.411,2.885H646.64v-14.427h21.64Zm-25.968-20.2H665.4v2.885H645.2a1.443,1.443,0,0,0-1.443,1.443v10.1h-1.442Z"/>
    <path id="Trazado_17805" data-name="Trazado 17805" d="M649.525,1211.123h2.885v2.885h-2.885Z"/>
    <path id="Trazado_17806" data-name="Trazado 17806" d="M655.3,1211.123h10.1v2.885H655.3Z"/>
    <path id="Trazado_17807" data-name="Trazado 17807" d="M649.525,1216.893H655.3v2.886h-5.771Z"/>
    <path id="Trazado_17808" data-name="Trazado 17808" d="M658.181,1216.893H665.4v2.886h-7.214Z"/>
    <path id="Trazado_17809" data-name="Trazado 17809" d="M609.814,1189.267a1.443,1.443,0,0,0,1.4.064l8.656-4.328a1.443,1.443,0,0,0,0-2.583l-8.656-4.328a1.442,1.442,0,0,0-2.087,1.291v8.657A1.438,1.438,0,0,0,609.814,1189.267Zm2.2-7.549,3.988,1.994-3.988,1.993Z"/>
  </g>
</svg>
