<svg xmlns="http://www.w3.org/2000/svg" width="124" height="110.791" viewBox="0 0 124 110.791">
  <g id="Grupo_12813" data-name="Grupo 12813" transform="translate(-1210.82 -999.542)">
    <path id="Trazado_18288" data-name="Trazado 18288" d="M1265.956,1125.283l30.09,13.511v-53.855l-25.919-13.511Z" transform="translate(-23.226 -30.282)" fill="#44c868"/>
    <path id="Trazado_18289" data-name="Trazado 18289" d="M1268.189,1114.668l27.857,42.34-30.09-13.511Z" transform="translate(-23.226 -48.497)" fill="#7ee5f2"/>
    <path id="Trazado_18290" data-name="Trazado 18290" d="M1244.055,1125.283l-30.09,13.511,9.742-53.717,24.52-13.649Z" transform="translate(-1.325 -30.282)" fill="#4ce166"/>
    <path id="Trazado_18291" data-name="Trazado 18291" d="M1219.03,1129.077l27.258-14.409-2.233,28.83-30.09,13.511Z" transform="translate(-1.325 -48.497)" fill="#a8eefc"/>
    <path id="Trazado_18292" data-name="Trazado 18292" d="M1366.9,1125.283l30.09,13.511-9.742-53.717-24.52-13.649Z" transform="translate(-63.993 -30.282)" fill="#44c868"/>
    <path id="Trazado_18293" data-name="Trazado 18293" d="M1364.867,1095.805l30.027,34.878-6.742-37.177-3.716-2.069Z" transform="translate(-64.892 -38.711)" fill="#7ee5f2"/>
    <path id="Trazado_18294" data-name="Trazado 18294" d="M1348.039,1125.283l-30.09,13.511v-53.855l25.919-13.511Z" transform="translate(-45.128 -30.282)" fill="#4ce166"/>
    <path id="Trazado_18295" data-name="Trazado 18295" d="M1222.717,1121.623l27.258-14.409.793-10.241-26.073,13.741Z" transform="translate(-5.012 -41.043)" fill="#ffdb56"/>
    <g id="Grupo_12812" data-name="Grupo 12812" transform="translate(1244.963 1046.19)">
      <path id="Trazado_18296" data-name="Trazado 18296" d="M1297.679,1100.847l-27.071-3.874-.793,10.241,27.858,42.34v-15.4l-16.623-26.2,16.63,1.991Z" transform="translate(-1269.814 -1087.233)" fill="#ffbb24"/>
      <path id="Trazado_18297" data-name="Trazado 18297" d="M1364.365,1091.047l19.568-4.368-11.743-6.537-8.516,1.991Z" transform="translate(-1309.353 -1080.143)" fill="#ffbb24"/>
    </g>
    <path id="Trazado_18298" data-name="Trazado 18298" d="M1346.1,1105.266l-1.056-13.634h0l-.624-8.047-26.457,11.623v9.1l17.282-7.521Z" transform="translate(-45.133 -35.402)" fill="#ffdb56"/>
    <path id="Trazado_18299" data-name="Trazado 18299" d="M1365.856,1111.753l32.037,38.649-3-16.539-30.027-34.878Z" transform="translate(-64.892 -41.89)" fill="#ffbb24"/>
    <path id="Trazado_18300" data-name="Trazado 18300" d="M1300.944,1002.687a23.639,23.639,0,0,0-23.639,23.64c0,19.881,23.639,38.174,23.639,38.174s23.639-18.292,23.639-38.174A23.639,23.639,0,0,0,1300.944,1002.687Zm0,33.068a9.428,9.428,0,1,1,9.428-9.428A9.428,9.428,0,0,1,1300.944,1035.755Z" transform="translate(-28.007 -1.325)" fill="#ff4a4a"/>
    <path id="Trazado_18301" data-name="Trazado 18301" d="M1315.765,1002.687a23.817,23.817,0,0,0-3.276.227,23.643,23.643,0,0,1,20.364,23.412c0,15.23-13.873,29.528-20.364,35.384,1.982,1.788,3.276,2.79,3.276,2.79s23.639-18.292,23.639-38.174A23.639,23.639,0,0,0,1315.765,1002.687Z" transform="translate(-42.828 -1.325)" fill="#e7343f"/>
    <path id="Trazado_18302" data-name="Trazado 18302" d="M1317.948,1161.224l10.37,10.74-10.37,4.656Z" transform="translate(-45.128 -68.108)" fill="#ffdb56"/>
    <path id="Trazado_18303" data-name="Trazado 18303" d="M1334.437,1109.627c.009-.012.019-.021.028-.033a1.906,1.906,0,0,0,.144-.232c.012-.023.021-.046.032-.069.028-.059.054-.119.076-.181.011-.031.02-.062.028-.094a1.757,1.757,0,0,0,.042-.172c.006-.034.012-.067.016-.1a1.849,1.849,0,0,0,.013-.187c0-.03,0-.06,0-.09a1.845,1.845,0,0,0-.027-.28l-7.265-40.057a1.82,1.82,0,1,0-3.581.649l3.071,16.937-23.681-27.507,15.928-3.555,2.358,1.313,1.024,5.647a1.82,1.82,0,0,0,3.582-.649l-1.178-6.494a1.82,1.82,0,0,0-.905-1.265h0l-24.522-13.651h0a1.8,1.8,0,0,0-.215-.1c-.023-.009-.046-.015-.07-.023-.051-.018-.1-.035-.154-.048-.03-.008-.059-.012-.089-.018-.047-.009-.094-.018-.141-.024-.032,0-.064-.005-.1-.007s-.092-.006-.138-.005l-.1,0c-.044,0-.09.007-.135.013s-.065.01-.1.017-.088.019-.131.031-.065.018-.1.029-.084.031-.126.048-.064.027-.095.042c-.014.007-.028.011-.042.018l-4.158,2.167a35.392,35.392,0,0,0,4.656-16.7,25.459,25.459,0,1,0-50.918,0,35.5,35.5,0,0,0,4.745,16.865l-4.48-2.335-.043-.019c-.03-.014-.062-.028-.093-.041s-.084-.034-.127-.049l-.1-.029c-.043-.012-.087-.022-.131-.031l-.1-.017c-.044-.006-.089-.01-.133-.013s-.067,0-.1-.005-.089,0-.134,0-.067,0-.1.008-.09.014-.135.023-.064.011-.095.019c-.05.012-.1.029-.147.046-.025.009-.052.016-.077.026a1.888,1.888,0,0,0-.214.1h0l-24.519,13.649a1.817,1.817,0,0,0-.905,1.265h0l-6.907,38.081h0a1.82,1.82,0,1,0,3.582.649l2.072-11.424,23.555-12.452-1.894,24.46-25.952,11.653.913-5.037a1.82,1.82,0,0,0-3.582-.649l-1.53,8.438a1.82,1.82,0,0,0,2.536,1.985L1242.73,1097l29.333,13.171h0l.01,0c.017.008.033.013.051.02s.054.022.082.032l.08.027.053.014.068.018c.038.009.076.015.114.021.018,0,.036.008.054.01l.037,0a1.633,1.633,0,0,0,.183.012l.023,0h.012a1.852,1.852,0,0,0,.22-.016l.027,0c.014,0,.027-.006.042-.009.057-.009.113-.022.17-.037l.047-.011h0l.015-.006a1.669,1.669,0,0,0,.209-.078L1302.911,1097h0l29.346,13.177c.028.013.057.022.086.033s.057.024.086.033.078.023.116.032c.024.006.047.014.071.019.047.01.094.017.141.023l.05.008a1.821,1.821,0,0,0,.194.01h0a1.779,1.779,0,0,0,.265-.022l.061-.01a1.763,1.763,0,0,0,.258-.065l.016-.006a1.633,1.633,0,0,0,.167-.067c.016-.008.03-.018.046-.026.046-.023.09-.05.134-.077s.088-.054.13-.085c.014-.011.03-.018.045-.03.032-.025.06-.053.09-.08s.049-.042.072-.065A1.863,1.863,0,0,0,1334.437,1109.627Zm-50.826-7.955-8.971-9.291v-22.276l15.2-6.616,9.368,7.315,1.787,23.062Zm-8.971,4.028v-8.079l5.441,5.635Zm-7.139-44.82c1.515,1.406,2.742,2.449,3.5,3.072v2.905l-14.586-1.747a1.82,1.82,0,0,0-1.753,2.783L1271,1093.645v8.79l-24.174-36.743.3-3.825.3-3.859Zm13.747-2.788,16.42-7.213,1.162,15.009-7.6-5.935a1.82,1.82,0,0,0-1.846-.234l-14.736,6.414v-1.994A85.515,85.515,0,0,0,1281.249,1058.093Zm20.991,4.668-.021-.271,26.081,30.3,1.673,9.221-27.238-32.859Zm-1.423-18.375,1.985,1.1-1.866.436Zm-41.027,24.8,11.211,1.342v16.327Zm-13.422,2.435,21.5,32.676-23.222-10.427Zm56.854,3.822,23.381,28.206-21.96-9.86Zm11.26-23.446-12.854,2.869-.407-5.263,6.31-1.475,6.951,3.87Zm-17.344-7.958.233,3-10.257,4.507q1.528-1.894,2.849-3.768Zm-24.2-40.851A21.845,21.845,0,0,1,1294.757,1025c0,16.327-17.224,31.945-21.819,35.821-4.6-3.876-21.82-19.495-21.82-35.821A21.845,21.845,0,0,1,1272.937,1003.182Zm-13.215,49.53c1.166,1.393,2.329,2.687,3.447,3.871l-15.466-2.213.8-10.337,7.544,3.933Q1257.723,1050.322,1259.722,1052.712Zm-14.9-8.328-.523,6.752-.283,3.652-21.878,11.53,1.877-10.352Zm-24.661,32.837,1.123-6.193.028-.16,22.371-11.79-.461,5.953Z"/>
    <path id="Trazado_18304" data-name="Trazado 18304" d="M1321.211,1035.346a11.261,11.261,0,0,0-11.249-11.249,1.82,1.82,0,1,0,0,3.64,7.608,7.608,0,1,1-5.427,2.276,1.82,1.82,0,0,0-2.6-2.551,11.249,11.249,0,1,0,19.272,7.883Z" transform="translate(-37.025 -10.344)"/>
  </g>
</svg>
