<svg xmlns="http://www.w3.org/2000/svg" width="124" height="111.351" viewBox="0 0 124 111.351">
  <g id="Grupo_13038" data-name="Grupo 13038" transform="translate(-874.453 -2164.597)">
    <g id="Grupo_13024" data-name="Grupo 13024" transform="translate(922.65 2243.002)">
      <path id="Trazado_19052" data-name="Trazado 19052" d="M1073.461,2488.334h26.921v21.074h-26.921Z" transform="translate(-1073.461 -2488.334)" fill="#dae7ef"/>
    </g>
    <g id="Grupo_13025" data-name="Grupo 13025" transform="translate(931.185 2243.002)">
      <path id="Trazado_19053" data-name="Trazado 19053" d="M1108.7,2488.334h18.386v21.074H1108.7Z" transform="translate(-1108.703 -2488.334)" fill="#c1d5e4"/>
    </g>
    <g id="Grupo_13026" data-name="Grupo 13026" transform="translate(876.266 2224.896)">
      <path id="Trazado_19054" data-name="Trazado 19054" d="M884.355,2413.573l-2.417,5.219v11.333a4.834,4.834,0,0,0,4.834,4.834H997.478a4.834,4.834,0,0,0,4.834-4.834v-11.333l-2.417-5.219Z" transform="translate(-881.938 -2413.573)" fill="#dae7ef"/>
    </g>
    <g id="Grupo_13027" data-name="Grupo 13027" transform="translate(876.266 2224.896)">
      <path id="Trazado_19055" data-name="Trazado 19055" d="M999.9,2413.573h-8.5v5.64a4.834,4.834,0,0,1-4.834,4.834H881.938v6.078a4.834,4.834,0,0,0,4.834,4.834H997.478a4.834,4.834,0,0,0,4.834-4.834v-11.333Z" transform="translate(-881.938 -2413.573)" fill="#c1d5e4"/>
    </g>
    <g id="Grupo_13028" data-name="Grupo 13028" transform="translate(876.266 2166.41)">
      <path id="Trazado_19056" data-name="Trazado 19056" d="M997.478,2172.083H886.772a4.834,4.834,0,0,0-4.834,4.834v58.871h120.374v-58.871A4.834,4.834,0,0,0,997.478,2172.083Z" transform="translate(-881.938 -2172.083)" fill="#61a2f9"/>
    </g>
    <g id="Grupo_13029" data-name="Grupo 13029" transform="translate(985.728 2166.41)">
      <path id="Trazado_19057" data-name="Trazado 19057" d="M1339.988,2172.083h-6.078v63.7h10.912v-58.871a4.834,4.834,0,0,0-4.834-4.834Z" transform="translate(-1333.91 -2172.083)" fill="#4a81f6"/>
    </g>
    <g id="Grupo_13030" data-name="Grupo 13030" transform="translate(929.979 2178.719)">
      <path id="Trazado_19058" data-name="Trazado 19058" d="M1120.08,2231.288,1105.9,2223.1a1.453,1.453,0,0,0-2.18,1.259v16.371a1.453,1.453,0,0,0,2.18,1.258l14.178-8.186A1.453,1.453,0,0,0,1120.08,2231.288Z" transform="translate(-1103.722 -2222.905)" fill="#2b4d66"/>
    </g>
    <g id="Grupo_13031" data-name="Grupo 13031" transform="translate(900.051 2205.386)">
      <circle id="Elipse_707" data-name="Elipse 707" cx="5.138" cy="5.138" r="5.138" transform="translate(0)" fill="#407093"/>
    </g>
    <g id="Grupo_13032" data-name="Grupo 13032" transform="translate(900.434 2205.769)">
      <path id="Trazado_19059" data-name="Trazado 19059" d="M988.432,2334.6a5.139,5.139,0,0,1-6.7,6.7,5.138,5.138,0,1,0,6.7-6.7Z" transform="translate(-981.729 -2334.599)" fill="#2b4d66"/>
    </g>
    <g id="Grupo_13033" data-name="Grupo 13033" transform="translate(932.031 2193.402)">
      <path id="Trazado_19060" data-name="Trazado 19060" d="M1162.074,2299.394a6.708,6.708,0,0,0-1.8.053.759.759,0,0,1-.841-.967,6.63,6.63,0,0,0-6.365-8.477h-.008a.765.765,0,0,1-.77-.661,6.626,6.626,0,0,0-13.171,1.465.765.765,0,0,1-.927.828,6.638,6.638,0,0,0-6.494,2.222.768.768,0,0,1-1.169,0,6.625,6.625,0,0,0-11.611,5.383l-.1,0a8.205,8.205,0,0,0,11.365,11.688,20.043,20.043,0,0,1,12.089,4.405,6.633,6.633,0,0,1,7.982-2.839,6.626,6.626,0,0,1,11.111.119,6.628,6.628,0,0,0,.707-13.218Z" transform="translate(-1112.193 -2283.533)" fill="#f6f9f9"/>
    </g>
    <g id="Grupo_13035" data-name="Grupo 13035" transform="translate(962.633 2193.402)">
      <g id="Grupo_13034" data-name="Grupo 13034" transform="translate(0 0)">
        <path id="Trazado_19061" data-name="Trazado 19061" d="M1263.713,2305.257a6.627,6.627,0,0,0-7.682-5.809.759.759,0,0,1-.841-.967,6.63,6.63,0,0,0-6.365-8.477h-.007a.764.764,0,0,1-.77-.661,6.628,6.628,0,0,0-7.256-5.776,6.514,6.514,0,0,0-2.239.648,6.632,6.632,0,0,1,3.649,5.128.764.764,0,0,0,.77.661h.008a6.63,6.63,0,0,1,6.365,8.477.758.758,0,0,0,.841.967,6.627,6.627,0,0,1,7.682,5.809,6.628,6.628,0,0,1-3.665,6.674,6.627,6.627,0,0,0,9.511-6.674Z" transform="translate(-1238.553 -2283.533)" fill="#dae7ef"/>
      </g>
    </g>
    <g id="Grupo_13036" data-name="Grupo 13036" transform="translate(932.158 2219.51)">
      <path id="Trazado_19062" data-name="Trazado 19062" d="M1165.365,2391.334h-49.746a2.9,2.9,0,0,0-2.88,3.248l5.892,48.824a2.9,2.9,0,0,0,2.88,2.553h37.962a2.9,2.9,0,0,0,2.88-2.553l5.892-48.824a2.9,2.9,0,0,0-2.879-3.248Z" transform="translate(-1112.718 -2391.334)" fill="#dd5790"/>
    </g>
    <path id="Trazado_19063" data-name="Trazado 19063" d="M1182.336,2391.334H1178.2l-5.486,45.459a2.9,2.9,0,0,1-2.88,2.553h-34.719l.49,4.06a2.9,2.9,0,0,0,2.88,2.553h37.962a2.9,2.9,0,0,0,2.88-2.553l5.892-48.824a2.9,2.9,0,0,0-2.879-3.248Z" transform="translate(-197.531 -171.824)" fill="#da387d"/>
    <ellipse id="Elipse_708" data-name="Elipse 708" cx="14.454" cy="10.361" rx="14.454" ry="10.361" transform="translate(945.644 2233.919)" fill="#f6f9f9"/>
    <g id="Grupo_13037" data-name="Grupo 13037" transform="translate(874.453 2164.597)">
      <path id="Trazado_19064" data-name="Trazado 19064" d="M1099.5,2238.315a3.256,3.256,0,0,0,1.632-.442l14.187-8.191a3.263,3.263,0,0,0,0-5.652l-14.187-8.19a3.263,3.263,0,0,0-4.895,2.826v16.381a3.276,3.276,0,0,0,3.263,3.269Zm.363-19.021,13.1,7.563-13.1,7.563Z" transform="translate(-1042.523 -2203.094)"/>
      <circle id="Elipse_709" data-name="Elipse 709" cx="2.325" cy="2.325" r="2.325" transform="translate(72.793 43.344)"/>
      <circle id="Elipse_710" data-name="Elipse 710" cx="2.325" cy="2.325" r="2.325" transform="translate(82.045 46.341) rotate(-9.208)"/>
      <path id="Trazado_19065" data-name="Trazado 19065" d="M1050.452,2164.6h-96.8a1.813,1.813,0,0,0,0,3.625h96.8a3.025,3.025,0,0,1,3.022,3.022v27.818a1.813,1.813,0,1,0,3.625,0v-27.818a6.655,6.655,0,0,0-6.647-6.647Z" transform="translate(-933.099 -2164.597)"/>
      <path id="Trazado_19066" data-name="Trazado 19066" d="M996.64,2206.743a1.813,1.813,0,0,0-1.813,1.813V2228.3h-5.986l.643-5.327a4.714,4.714,0,0,0-.793-3.225,8.438,8.438,0,0,0-6.592-12.29q-.4-.042-.8-.046a8.443,8.443,0,0,0-7.524-9.31,8.441,8.441,0,0,0-16.543.526,8.633,8.633,0,0,0-.1.925q-.254-.015-.508-.015a8.419,8.419,0,0,0-5.666,2.185,697.568,697.568,0,0,0-16.97,6.987H911.9a6.95,6.95,0,0,0-13.42,0h-5.143a1.813,1.813,0,1,0,0,3.625h5.142a6.95,6.95,0,0,0,13.42,0h19.029a8.412,8.412,0,0,0,.283,7.352,4.717,4.717,0,0,0-.832,3.286l.643,5.327H878.079v-57.058a3.025,3.025,0,0,1,3.022-3.022h4.827a1.813,1.813,0,0,0,0-3.625H881.1a6.655,6.655,0,0,0-6.647,6.647v70.2a6.655,6.655,0,0,0,6.647,6.647h39.737v14.168h-5.473a1.813,1.813,0,0,0,0,3.625h20.194l.713,5.91a4.717,4.717,0,0,0,4.68,4.149h37.962a4.717,4.717,0,0,0,4.68-4.149l2.861-23.7h5.353a6.655,6.655,0,0,0,6.647-6.647v-32.892a1.813,1.813,0,0,0-1.813-1.813Zm-57.987,4.178a1.826,1.826,0,0,0,1.89-2.118,4.814,4.814,0,0,1,8.435-3.912,2.6,2.6,0,0,0,3.948,0,4.828,4.828,0,0,1,4.72-1.615,2.6,2.6,0,0,0,3.116-2.777,4.854,4.854,0,0,1,4.29-5.259,4.793,4.793,0,0,1,5.277,4.193,2.581,2.581,0,0,0,2.573,2.252h0a4.818,4.818,0,0,1,4.624,6.158,2.587,2.587,0,0,0,2.881,3.261,4.807,4.807,0,0,1,5.206,6.668,4.693,4.693,0,0,0-.811-.076H935.059a4.683,4.683,0,0,0-.759.068,4.727,4.727,0,0,1-.446-1.716,4.815,4.815,0,0,1,4.8-5.129Zm30.9,61.4.633-18.6c.345-.209.682-.428,1.006-.661a12.124,12.124,0,0,0,4.215-5.052l-1.629,24.308Zm-23.46,0-1.629-24.308a12.125,12.125,0,0,0,4.215,5.052c.324.232.661.451,1.006.661l.633,18.6Zm13.842-19.513c-6.955,0-12.613-3.826-12.613-8.528s5.658-8.529,12.613-8.529,12.613,3.826,12.613,8.529S966.887,2252.809,959.932,2252.809Zm1.813-20.606v-10.881h5.913l-.412,12.092a20.461,20.461,0,0,0-5.5-1.211Zm-3.626,0a20.458,20.458,0,0,0-5.5,1.211l-.412-12.092h5.913V2232.2Zm-9.541-10.881.474,13.915c-.126.085-.254.169-.377.257a11.624,11.624,0,0,0-4.635,6.252l-1.369-20.424Zm4.789,34.086a20.7,20.7,0,0,0,4.753.949v15.965h-4.177Zm8.379.949a20.694,20.694,0,0,0,4.753-.949l-.576,16.914h-4.177Zm14.079-14.611a11.623,11.623,0,0,0-4.635-6.252c-.123-.088-.25-.172-.377-.257l.474-13.915h5.907Zm-70.635-27.9a3.325,3.325,0,1,1,3.325-3.325A3.329,3.329,0,0,1,905.189,2213.85Zm-27.11,27.6v-9.52H931.46l1.514,12.542H881.1A3.025,3.025,0,0,1,878.079,2241.448Zm46.384,20.815V2248.1h8.948l1.71,14.168Zm15.408,9.1-5.892-48.824a1.088,1.088,0,0,1,1.08-1.219h3.978l3.418,51h-1.5a1.088,1.088,0,0,1-1.08-.957Zm40.121,0a1.089,1.089,0,0,1-1.08.957h-1.5l3.418-51H984.8a1.088,1.088,0,0,1,1.08,1.219Zm11.813-26.9H986.89l1.514-12.542h6.423v9.52A3.025,3.025,0,0,1,991.806,2244.47Z" transform="translate(-874.453 -2164.597)"/>
    </g>
  </g>
</svg>
