<svg xmlns="http://www.w3.org/2000/svg" width="85.684" height="85.684" viewBox="0 0 85.684 85.684">
  <g id="Grupo_12692" data-name="Grupo 12692" transform="translate(-239.469 -922.783)">
    <path id="Trazado_17791" data-name="Trazado 17791" d="M305.8,987.737a4.146,4.146,0,1,0-4.146-4.146A4.151,4.151,0,0,0,305.8,987.737Zm0-5.528a1.382,1.382,0,1,1-1.382,1.382A1.383,1.383,0,0,1,305.8,982.209Z"/>
    <path id="Trazado_17792" data-name="Trazado 17792" d="M319.846,977.756a2.652,2.652,0,0,1,.566-2.906l2.01-2.012-5.865-5.865-2.013,2.012a2.666,2.666,0,0,1-2.959.541,2.632,2.632,0,0,1-1.634-2.443v-2.84h-2.834a24.472,24.472,0,0,0-1.225-6.425l15.993-15.993a11.154,11.154,0,1,0-15.773-15.775l-15.976,15.977a24.534,24.534,0,0,0-6.519-1.217,11,11,0,0,0-12.63-5.157,13.793,13.793,0,0,0-25.624,9.6,8.291,8.291,0,0,0,2.4,16.228h10.025a24.993,24.993,0,0,0-.351,4.146,18.97,18.97,0,0,0,1.47,7.631l-12.329,12.331-6.86,17.836a3.713,3.713,0,0,0,4.8,4.8l17.837-6.86,9.014-9.017a4.185,4.185,0,0,0-.11.922,4.082,4.082,0,0,1,0,5.528,4.14,4.14,0,0,0,3.1,3.994,8.418,8.418,0,0,0,15.92,0,4.14,4.14,0,0,0,3.1-3.994c0-.1-.023-.2-.03-.3l1.716,1.716,2.014-2.012a2.707,2.707,0,0,1,4.592,1.9v2.84h8.292v-2.84a2.709,2.709,0,0,1,4.594-1.9l2.012,2.012,5.865-5.865-2.01-2.012a2.674,2.674,0,0,1-.544-2.959,2.64,2.64,0,0,1,2.445-1.635h2.84v-8.292h-2.84a2.659,2.659,0,0,1-2.467-1.689Zm-20.708,4.074a41.1,41.1,0,0,0,4.322-4.714,6.844,6.844,0,0,1,2.345-.435,6.976,6.976,0,1,1-6.667,5.149Zm1.66-32.737,6.389-6.39,4.956,4.956-7.381,7.381A25.083,25.083,0,0,0,300.8,949.093Zm1.433-15.254,2.192-2.192,11.866,11.866-2.192,2.192ZM314,925.547a8.391,8.391,0,0,1,5.933,14.323l-1.689,1.689-11.866-11.866L308.066,928A8.337,8.337,0,0,1,314,925.547Zm-13.722,10.246,4.956,4.956-6.386,6.386a25.091,25.091,0,0,0-5.944-3.968Zm4.146,29.832c0,7.191-3.621,10.723-7.454,14.461-2.64,2.575-5.352,5.237-6.93,9.116a4.073,4.073,0,0,0-.818-.083h-5.528v-6.91a4.151,4.151,0,0,0-4.146-4.146h-2.764a1.382,1.382,0,1,1,0-2.764H290.6a4.146,4.146,0,0,0,0-8.292H279.547a1.383,1.383,0,0,1-1.382-1.382v-4.146h6.91a6.91,6.91,0,0,0,0-13.82c-.039,0-.075.011-.113.011a10.963,10.963,0,0,0,.113-1.393,11.091,11.091,0,0,0-.326-2.62,22.23,22.23,0,0,1,19.674,21.968Zm-30.4,27.64a1.383,1.383,0,0,1,1.382-1.382h13.82a1.382,1.382,0,1,1,0,2.764H275.4A1.383,1.383,0,0,1,274.019,993.265Zm-17.394,0,10.159-10.159a25.1,25.1,0,0,1,4.442,5.469l-9.645,9.646Zm-14.392-40.078a5.528,5.528,0,1,1,11.056,0h2.764a8.294,8.294,0,0,0-7.938-8.274,11.045,11.045,0,0,1,20.333-8.171,11.066,11.066,0,0,0-5.416,8.327,5.527,5.527,0,0,0-4.215,5.354h2.764a2.764,2.764,0,0,1,5.528,0h2.764a5.519,5.519,0,0,0-4.056-5.3,8.282,8.282,0,1,1,16.19,3.29,6.9,6.9,0,0,0-3.842,6.16h2.764a4.146,4.146,0,1,1,4.146,4.146H247.761A5.533,5.533,0,0,1,242.233,953.187Zm33.168,8.292v4.146a4.151,4.151,0,0,0,4.146,4.146H290.6a1.382,1.382,0,1,1,0,2.764h-13.82a4.146,4.146,0,0,0,0,8.292h2.764a1.384,1.384,0,0,1,1.382,1.382v6.91H275.4a4.073,4.073,0,0,0-.818.083c-1.579-3.879-4.29-6.541-6.93-9.116-3.833-3.738-7.454-7.27-7.454-14.461a22.317,22.317,0,0,1,.425-4.146Zm-10.59,19.692-10.14,10.14-4.956-4.956L260.26,975.81a31.01,31.01,0,0,0,4.551,5.361Zm-16.524,7.665L259.1,999.649l-9.154,3.521-5.18-5.18Zm-4.764,16.8a.951.951,0,0,1-1.228-1.226l1.385-3.6,3.442,3.443Zm38.788.063a5.678,5.678,0,0,1-4.87-2.764h9.74a5.678,5.678,0,0,1-4.87,2.764Zm6.91-5.528H275.4a1.382,1.382,0,1,1,0-2.764h13.82a1.382,1.382,0,1,1,0,2.764Zm33.168-15.2h-.076a5.473,5.473,0,0,0-3.857,9.312l.058.058-1.957,1.957-.058-.058a5.472,5.472,0,0,0-9.312,3.857v.076h-2.764v-.076a5.473,5.473,0,0,0-9.313-3.857l-.058.058-1.873-1.873a4.025,4.025,0,0,0,.188-1.162,4.108,4.108,0,0,0-.929-2.583,17.83,17.83,0,0,1,3.776-5.89,9.67,9.67,0,1,0,9.591-10.875c-.135,0-.267.014-.4.019a18.109,18.109,0,0,0,1.74-6.929h.043v.076a5.472,5.472,0,0,0,9.312,3.857l.058-.058,1.957,1.957-.058.058a5.472,5.472,0,0,0,3.857,9.312h.076Z"/>
  </g>
</svg>
