<svg xmlns="http://www.w3.org/2000/svg" width="127.399" height="134.709" viewBox="0 0 127.399 134.709">
  <g id="Grupo_13104" data-name="Grupo 13104" transform="translate(-785.513 -2542.257)">
    <path id="Trazado_19176" data-name="Trazado 19176" d="M830.9,2654.67l-2.245,6.735h-24.7l-4.4-15.251-.088-.623v-17.082a8.98,8.98,0,0,1,4.525-7.8l11.191-6.4,8.981,2.245,8.323,8.323a2.246,2.246,0,0,1,.658,1.588v17.031Z" transform="translate(-10.036 -51.794)" fill="#3b9298"/>
    <path id="Trazado_19177" data-name="Trazado 19177" d="M847.465,2582.257h13.471v6.735a6.736,6.736,0,0,1-6.735,6.736h0a6.736,6.736,0,0,1-6.735-6.736v-6.735Z" transform="translate(-44.565 -28.774)" fill="#f5c99d"/>
    <path id="Trazado_19178" data-name="Trazado 19178" d="M849.71,2550.257h8.981a2.245,2.245,0,0,1,2.245,2.245v6.736H847.465V2552.5A2.245,2.245,0,0,1,849.71,2550.257Z" transform="translate(-44.565 -5.755)" fill="#eebf3e"/>
    <path id="Trazado_19179" data-name="Trazado 19179" d="M844.368,2675.444l-15.336-10.954a2.254,2.254,0,0,1-.62-.672l-4.465-7.442a32.059,32.059,0,0,0-4.82-6.173h0a13.471,13.471,0,0,0-9.525-3.945h-5.646a4.49,4.49,0,0,0-4.49,4.49v7.858a2.245,2.245,0,0,0,.9,1.8l16.8,12.6a2.241,2.241,0,0,0,.58.314l22.775,8.282Z" transform="translate(-10.036 -74.813)" fill="#4fbfcb"/>
    <path id="Trazado_19180" data-name="Trazado 19180" d="M1019.833,2838.67h38.129a4.491,4.491,0,0,0,4.318-3.256l7.877-27.571a4.5,4.5,0,0,0,.173-1.234v-3.861a4.49,4.49,0,0,0-4.49-4.49h-53.884a4.49,4.49,0,0,0-4.49,4.49v3.861a4.5,4.5,0,0,0,.173,1.234l7.877,27.571A4.49,4.49,0,0,0,1019.833,2838.67Z" transform="translate(-159.662 -184.155)" fill="#4fbfcb"/>
    <circle id="Elipse_719" data-name="Elipse 719" cx="4.49" cy="4.49" r="4.49" transform="translate(856.783 2665.74)" fill="#eebf3e"/>
    <circle id="Elipse_720" data-name="Elipse 720" cx="4.49" cy="4.49" r="4.49" transform="translate(890.461 2665.74)" fill="#eebf3e"/>
    <path id="Trazado_19181" data-name="Trazado 19181" d="M1119.465,2752.219V2736.5a2.245,2.245,0,0,1,2.245-2.245h22.452a2.245,2.245,0,0,1,2.245,2.245v15.716" transform="translate(-240.23 -138.116)" fill="#cc4c4d"/>
    <path id="Trazado_19182" data-name="Trazado 19182" d="M1023.465,2734.954V2712.5a2.245,2.245,0,0,1,2.245-2.245h22.452a2.245,2.245,0,0,1,2.245,2.245v22.452Z" transform="translate(-171.172 -120.852)" fill="#eebf3e"/>
    <path id="Trazado_19183" data-name="Trazado 19183" d="M799.679,2817.924a2.231,2.231,0,0,1-.057.5l-6.043,26.188a2.245,2.245,0,0,0,2.188,2.75H797.4a3.543,3.543,0,0,0,3.225-2.077l10.175-22.384a2.249,2.249,0,0,0,.158-.489l2.194-10.972v-29.187H799.679Z" transform="translate(-5.76 -172.645)" fill="#b0a9a5"/>
    <path id="Trazado_19184" data-name="Trazado 19184" d="M815.465,2782.257v7.406a4.491,4.491,0,0,0,.984,2.8l7.887,9.859a2.245,2.245,0,0,1,.2.288l8.687,15.2a2.247,2.247,0,0,1,.27.772l4.134,26.872a2.245,2.245,0,0,0,2.219,1.9h2.719a2.245,2.245,0,0,0,2.24-2.085l2.067-28.937a2.25,2.25,0,0,0-.089-.8l-6.522-21.741a2.246,2.246,0,0,1-.095-.645v-10.9Z" transform="translate(-21.546 -172.645)" fill="#efe8e0"/>
    <path id="Trazado_19185" data-name="Trazado 19185" d="M947.955,2750.257H950.2a2.245,2.245,0,0,1,2.245,2.245v4.491a2.245,2.245,0,0,1-2.245,2.245h-2.245a4.49,4.49,0,0,1-4.49-4.49h0A4.49,4.49,0,0,1,947.955,2750.257Z" transform="translate(-113.624 -149.626)" fill="#eebf3e"/>
    <path id="Trazado_19186" data-name="Trazado 19186" d="M908.422,2612.27v-13.885a4.5,4.5,0,0,0-4.49-4.49h-4.49v-2.245a6.735,6.735,0,1,0-13.471,0v2.245h-4.49v-2.245a4.5,4.5,0,0,0-4.49-4.49H872.5v-2.245a6.735,6.735,0,0,0-13.471,0v2.245h-4.49a4.5,4.5,0,0,0-4.49,4.49v20.332l-3.5-5.837a6.757,6.757,0,0,0-5.479-3.229v-.04a4.5,4.5,0,0,0-4.49-4.49h-1.525l-9.7-6.928v-16.839a4.459,4.459,0,0,0-1.315-3.175l-6.692-6.693a8.879,8.879,0,0,0,1.272-4.533v-13.471a4.5,4.5,0,0,0-4.49-4.49h-8.981a4.5,4.5,0,0,0-4.49,4.49v13.471a8.9,8.9,0,0,0,.266,2.073l-11.474,6.556a4.5,4.5,0,0,0-2.263,3.9v20.99l4.49,16.12v35.42l-6.045,26.188a4.489,4.489,0,0,0,4.376,5.5h1.631a5.805,5.805,0,0,0,5.271-3.394l10.169-22.372a4.347,4.347,0,0,0,.32-.989l1.185-5.926,1.143,2,4.133,26.873a4.469,4.469,0,0,0,4.44,3.807h2.719a4.5,4.5,0,0,0,4.477-4.17l2.07-28.951a4.534,4.534,0,0,0-.18-1.6l-6.523-21.741v-10.532l1.279-3.836,6.377,2.318a6.713,6.713,0,0,0,5.816,3.4h2.245a4.493,4.493,0,0,0,4.486-4.452,2.249,2.249,0,0,1,1.633,1.052l3.923,6.538a6.678,6.678,0,0,0-1.061,3.6v3.861a6.836,6.836,0,0,0,.259,1.851l7.878,27.569a6.621,6.621,0,0,0,.3.8l-4.259,2.556a6.685,6.685,0,0,0-2.927,7.893l.086.26a6.726,6.726,0,0,0,6.389,4.605h1.668a6.663,6.663,0,0,0-.414,2.245,6.735,6.735,0,0,0,13.471,0,6.654,6.654,0,0,0-.414-2.245h21.034a6.661,6.661,0,0,0-.414,2.245,6.735,6.735,0,0,0,13.471,0,6.655,6.655,0,0,0-.414-2.245h4.9v-4.49H853.284a2.241,2.241,0,0,1-2.127-1.524l-.085-.261a2.26,2.26,0,0,1,.976-2.633l5.091-3.055a6.688,6.688,0,0,0,3.033.737H898.3a6.764,6.764,0,0,0,6.477-4.885l7.878-27.573a6.773,6.773,0,0,0,.259-1.848v-3.861A6.725,6.725,0,0,0,908.422,2612.27Zm-80.585-8.839-9.01-3.275,3.708-5.192,7.277,5.2A6.711,6.711,0,0,0,827.837,2603.432Zm-22.692-56.684h8.981v4.49h-8.981Zm8.981,8.981v4.49a4.49,4.49,0,0,1-8.981,0v-4.49Zm-22.452,17.019,11.358-6.49a8.815,8.815,0,0,0,11.136,1.67l6.692,6.692v13.632l-.561-.4-6.494-10.826-3.85,2.311,6.5,10.833a4.521,4.521,0,0,0,1.237,1.336l1.192.851-4.435,6.209-5.979-2.174-16.784-12.59-.011-3.376Zm13.515,65.611-2.195,10.973-10.173,22.382a1.3,1.3,0,0,1-1.184.763h-1.631l6.047-26.2a4.52,4.52,0,0,0,.112-1v-20.287l4.874,6.092,4.157,7.275Zm17.9,5.182-2.068,28.936H818.3l-4.133-26.871a4.47,4.47,0,0,0-.539-1.547l-8.693-15.215a5.054,5.054,0,0,0-.386-.564l-7.889-9.861a2.253,2.253,0,0,1-.491-1.4v-5.16h20.206v8.651a4.566,4.566,0,0,0,.189,1.292ZM817,2607.366h-21.39l-3.889-13.477-.015-4.462,14.075,10.558a4.486,4.486,0,0,0,1.158.625l10.983,3.993Zm19.579,0h-2.245a2.245,2.245,0,0,1,0-4.49h2.245Zm26.942,62.864a2.245,2.245,0,1,1-2.245-2.245A2.245,2.245,0,0,1,863.519,2670.231Zm33.677,0a2.245,2.245,0,1,1-2.245-2.245A2.245,2.245,0,0,1,897.2,2670.231Zm-6.735-78.58a2.245,2.245,0,0,1,4.49,0v2.245h-4.49Zm-4.49,6.735v4.49h4.49v-4.49h4.49v4.49h4.49v-4.49h4.49v13.471H881.48v-13.471Zm-22.452-13.471a2.245,2.245,0,0,1,4.49,0v2.245h-4.49Zm-4.49,6.736v4.49h4.49v-4.49h4.49v4.49h4.49v-4.49h4.49v20.206H854.538V2591.65Zm49.393,30.8a2.2,2.2,0,0,1-.088.617l-7.878,27.571a2.251,2.251,0,0,1-2.158,1.628H860.171a2.222,2.222,0,0,1-1.523-.633l-.669-1.115-7.844-27.448a2.233,2.233,0,0,1-.088-.621v-3.861a2.248,2.248,0,0,1,2.245-2.245h53.884a2.247,2.247,0,0,1,2.245,2.245Z"/>
  </g>
</svg>
