<svg xmlns="http://www.w3.org/2000/svg" viewBox="0 0 1120 521.42"><defs><style>.cls-1{fill:#bac2f1;}.cls-2{fill:#8299d0;}.cls-3{fill:#d7b341;}.cls-4{fill:#262e7d;}.cls-5{fill:#4a57ab;}.cls-6{fill:#d9af80;}.cls-7{fill:#1e1e33;}</style></defs><g id="Capa_2" data-name="Capa 2"><g id="Capa_1-2" data-name="Capa 1"><g id="Grupo_12778" data-name="Grupo 12778"><path id="Trazado_18055" data-name="Trazado 18055" class="cls-1" d="M92.67,148.77c.81,0,1.61,0,2.41,0l146.13-2.32a19.41,19.41,0,1,0-7.72-35,33,33,0,0,0-61.84-19,32.19,32.19,0,0,0-53.9,8.85,30,30,0,1,0-25.08,47.48Zm82.68-19,.2.23h-.34C175.26,129.89,175.3,129.81,175.35,129.74Z"/><g id="Grupo_12750" data-name="Grupo 12750"><g id="Grupo_12749" data-name="Grupo 12749"><g id="Grupo_12746" data-name="Grupo 12746"><path id="Trazado_18057" data-name="Trazado 18057" class="cls-2" d="M33.6,272.14a1.37,1.37,0,0,1-.76-2.64,10,10,0,0,0,3.33-1.78,1.37,1.37,0,0,1,1.74,2.11,13,13,0,0,1-4.22,2.28Z"/></g><g id="Grupo_12747" data-name="Grupo 12747"><path id="Trazado_18058" data-name="Trazado 18058" class="cls-2" d="M63.64,294.08a1.37,1.37,0,0,1-.75-2.63,79,79,0,0,0,7.89-3A1.37,1.37,0,0,1,71.9,291h0a85.43,85.43,0,0,1-8.16,3.09ZM49.76,297.2a.8.8,0,0,1-.15,0,79.42,79.42,0,0,1-8.71.68,1.37,1.37,0,0,1-.06-2.74,76.43,76.43,0,0,0,8.41-.66,1.37,1.37,0,0,1,.51,2.69Zm34.36-13a1.37,1.37,0,0,1-1.66-1,1.35,1.35,0,0,1,.56-1.46,77.39,77.39,0,0,0,6.7-5.11,1.37,1.37,0,1,1,1.78,2.08,79.47,79.47,0,0,1-6.94,5.3,1.34,1.34,0,0,1-.44.19ZM27,296.84a1.51,1.51,0,0,1-.56,0,71.18,71.18,0,0,1-8.52-2,1.37,1.37,0,1,1,.79-2.63,68.08,68.08,0,0,0,8.19,1.93,1.37,1.37,0,0,1,.1,2.68Zm73.75-28.16a1.36,1.36,0,0,1-1.66-1,1.39,1.39,0,0,1,.24-1.17,64,64,0,0,0,4-5.71l.75-1.24a1.37,1.37,0,1,1,2.39,1.33l0,.06q-.37.65-.78,1.29a67.92,67.92,0,0,1-4.14,5.95,1.33,1.33,0,0,1-.76.49ZM5.88,288.82a1.38,1.38,0,0,1-1.21-.28,12.46,12.46,0,0,1-4.4-6.44A8.79,8.79,0,0,1,0,280.33a1.37,1.37,0,1,1,2.74-.12,6.29,6.29,0,0,0,.18,1.23,9.72,9.72,0,0,0,3.5,5,1.38,1.38,0,0,1,.17,1.94,1.41,1.41,0,0,1-.72.45Zm110.6-39.41a56.91,56.91,0,0,1-5.79,1.13,18.35,18.35,0,0,1-1.41-3.69,27.47,27.47,0,0,0,.6-5.85,21.23,21.23,0,0,0-.14-2.25,1.37,1.37,0,1,1,2.72-.38v.06a24.05,24.05,0,0,1,.16,2.54,29.1,29.1,0,0,1-.66,6.44.94.94,0,0,1,0,.16,54.36,54.36,0,0,0,6.56-1.55,1.37,1.37,0,0,1,.79,2.62C118.35,248.92,117.41,249.18,116.48,249.41Zm-97,22.79a1.56,1.56,0,0,1-.48,0l-1.58-.17a22.37,22.37,0,0,0-6.53.36,1.37,1.37,0,0,1-.57-2.68,24.58,24.58,0,0,1,7.36-.41l1.62.17a1.37,1.37,0,0,1,.18,2.69Zm112.82-29.13a1.37,1.37,0,0,1-1.66-1,1.36,1.36,0,0,1,.66-1.53,78.48,78.48,0,0,0,7.13-4.5,1.37,1.37,0,0,1,1.59,2.24h0a81.87,81.87,0,0,1-7.39,4.65A1.22,1.22,0,0,1,132.28,243.07Zm-35.61,7.19a1.38,1.38,0,0,1-.64,0,23.34,23.34,0,0,1-8.33-3.56,1.37,1.37,0,0,1,1.58-2.25,20.57,20.57,0,0,0,7.36,3.14,1.37,1.37,0,0,1,0,2.67Zm53.82-20.86a1.37,1.37,0,0,1-1.28-2.32c1.74-1.67,3.47-3.45,5.13-5.27l.75-.84a1.37,1.37,0,1,1,2,1.83h0l-.77.85c-1.7,1.88-3.47,3.69-5.26,5.41a1.4,1.4,0,0,1-.62.34Zm-68.4,5.51a1.54,1.54,0,0,1-.3,0,1.37,1.37,0,0,1-1.41-1.33,12.76,12.76,0,0,1,.83-4.93,12.11,12.11,0,0,1,2.46-3.89,1.37,1.37,0,0,1,2,1.88,9.27,9.27,0,0,0-1.9,3,10,10,0,0,0-.65,3.86A1.38,1.38,0,0,1,82.09,234.91Zm23.44-7.66a1.35,1.35,0,0,1-1.3-.35,14.65,14.65,0,0,0-3.87-2.75,11.65,11.65,0,0,0-2.85-1,1.37,1.37,0,1,1,.53-2.69,14.35,14.35,0,0,1,3.51,1.17,17,17,0,0,1,4.6,3.27,1.35,1.35,0,0,1,0,1.93,1.34,1.34,0,0,1-.64.37Zm59.9-15.09A1.37,1.37,0,0,1,164,210c1.59-2.13,3.22-4.4,5-6.94a1.37,1.37,0,0,1,2.25,1.57c-1.78,2.56-3.43,4.85-5,7a1.43,1.43,0,0,1-.78.51Zm13-18.79a1.36,1.36,0,0,1-1.66-1,1.33,1.33,0,0,1,.18-1.08l.65-1c1.34-2,2.73-4.13,4.1-6.18a1.37,1.37,0,0,1,2.28,1.52c-1.37,2-2.76,4.14-4.09,6.17l-.65,1A1.39,1.39,0,0,1,178.39,193.37Zm12.86-18.86a1.37,1.37,0,0,1-1.66-1,1.35,1.35,0,0,1,.22-1.14c1.69-2.32,3.43-4.64,5.19-6.9a1.37,1.37,0,0,1,2.2,1.64l0,0c-1.74,2.23-3.47,4.53-5.14,6.82a1.32,1.32,0,0,1-.77.52Zm14.2-17.87a1.37,1.37,0,0,1-1.37-2.23c1.87-2.16,3.8-4.33,5.74-6.44a1.37,1.37,0,1,1,2.06,1.8l0,.06c-1.92,2.08-3.83,4.23-5.69,6.37a1.34,1.34,0,0,1-.7.44ZM221.06,140a1.37,1.37,0,0,1-1.29-2.31c2-2,4.14-4,6.24-6a1.38,1.38,0,0,1,1.94.12,1.36,1.36,0,0,1-.08,1.89c-2.08,1.93-4.16,3.91-6.18,5.9a1.35,1.35,0,0,1-.63.35ZM238,124.66a1.36,1.36,0,0,1-1.66-1,1.39,1.39,0,0,1,.45-1.38c2.2-1.83,4.46-3.66,6.7-5.43a1.37,1.37,0,0,1,1.72,2.14l0,0c-2.23,1.75-4.46,3.56-6.64,5.38a1.45,1.45,0,0,1-.54.27Zm18.1-13.91a1.37,1.37,0,0,1-1.13-2.45c2.34-1.65,4.74-3.29,7.12-4.87a1.37,1.37,0,1,1,1.52,2.28c-2.37,1.57-4.74,3.19-7.05,4.83A1.37,1.37,0,0,1,256.07,110.75Zm19.15-12.41a1.37,1.37,0,0,1-1-2.51c2.47-1.46,5-2.9,7.49-4.28a1.37,1.37,0,0,1,1.85.58A1.39,1.39,0,0,1,283,94c-2.49,1.36-5,2.8-7.42,4.24a1.66,1.66,0,0,1-.37.14Zm20.1-10.82a1.37,1.37,0,0,1-.93-2.57c2.58-1.25,5.21-2.48,7.81-3.65A1.37,1.37,0,0,1,304,82a1.39,1.39,0,0,1-.67,1.77c-2.59,1.16-5.19,2.37-7.74,3.62l-.27.1Z"/></g><g id="Grupo_12748" data-name="Grupo 12748"><path id="Trazado_18059" data-name="Trazado 18059" class="cls-2" d="M316.29,78.36a1.37,1.37,0,0,1-.82-2.61c1.33-.52,2.7-1,4-1.53a1.37,1.37,0,1,1,1,2.56h0l-4,1.52Z"/></g></g><path id="Trazado_18060" data-name="Trazado 18060" class="cls-3" d="M324.69,64.42a11.77,11.77,0,1,0,15.78-5.3A11.76,11.76,0,0,0,324.69,64.42Z"/></g><g id="Grupo_12754" data-name="Grupo 12754"><g id="Grupo_12753" data-name="Grupo 12753"><g id="Grupo_12752" data-name="Grupo 12752"><path id="Trazado_18061" data-name="Trazado 18061" class="cls-4" d="M146.86,452.51l-9.3-4.35a57.65,57.65,0,0,0-1.31-10.55l8-6.46a8.89,8.89,0,0,0,2.12-11.33l-6.25-11.05a8.89,8.89,0,0,0-10.79-4l-9.66,3.52a56.83,56.83,0,0,0-8.71-6.75l1-10.09a8.91,8.91,0,0,0-6.5-9.53l-12.23-3.38a8.92,8.92,0,0,0-10.47,4.83l-4.41,9.41a56.87,56.87,0,0,0-10.55,1.37l-6.4-8a8.89,8.89,0,0,0-11.32-2.13L39,390.33a8.93,8.93,0,0,0-4,10.82l3.55,9.76a55.36,55.36,0,0,0-6.49,8.44l-10.09-1a8.89,8.89,0,0,0-9.52,6.5L9.1,437a8.88,8.88,0,0,0,4.83,10.46l9.41,4.42a55.83,55.83,0,0,0,1.37,10.54l-7.93,6.38a8.88,8.88,0,0,0-2.13,11.33l6.27,11.05a8.86,8.86,0,0,0,10.78,4l9.77-3.56A57.12,57.12,0,0,0,49.6,498l-1.07,10.21A8.91,8.91,0,0,0,55,517.7l12.26,3.39a8.9,8.9,0,0,0,10.47-4.84l4.35-9.3a56.78,56.78,0,0,0,10.56-1.3l6.45,8a8.88,8.88,0,0,0,11.33,2.13l11-6.26a8.92,8.92,0,0,0,4-10.81L122,489a56.34,56.34,0,0,0,6.54-8.38l10.21,1.07a8.89,8.89,0,0,0,9.52-6.5L151.62,463A8.8,8.8,0,0,0,146.86,452.51Zm-36.43,5.64a31.14,31.14,0,1,1-21.71-38.31h0a31.14,31.14,0,0,1,21.71,38.3Z"/><g id="Grupo_12751" data-name="Grupo 12751"><path id="Trazado_18062" data-name="Trazado 18062" class="cls-1" d="M88.72,419.83a31.14,31.14,0,1,1-38.31,21.72A31.13,31.13,0,0,1,88.72,419.83ZM102.58,456a23,23,0,1,0-28.3,16h0A23,23,0,0,0,102.58,456Z"/><path id="Trazado_18063" data-name="Trazado 18063" class="cls-4" d="M71.88,480.75a32.06,32.06,0,1,1,39.45-22.37h0A32.1,32.1,0,0,1,71.88,480.75Zm16.59-60a30.21,30.21,0,1,0,21.06,37.17A30.2,30.2,0,0,0,88.47,420.73ZM74.05,472.9a23.92,23.92,0,1,1,29.43-16.68h0A24,24,0,0,1,74.05,472.9Zm12.26-44.32a22.06,22.06,0,1,0,15.38,27.15h0a22.11,22.11,0,0,0-15.38-27.16Z"/></g></g></g></g><g id="Grupo_12766" data-name="Grupo 12766"><g id="Grupo_12765" data-name="Grupo 12765"><g id="Grupo_12764" data-name="Grupo 12764"><g id="Grupo_12761" data-name="Grupo 12761"><path id="Trazado_18078" data-name="Trazado 18078" class="cls-1" d="M200.18,358.59V367h0a.51.51,0,0,1-.43.52l-8.44,1.4a2.67,2.67,0,0,0-2.16,2,32.47,32.47,0,0,1-3.5,8.41,2.74,2.74,0,0,0,.12,2.95l5,7a.54.54,0,0,1-.06.68l-6,6a.55.55,0,0,1-.39.16.57.57,0,0,1-.3-.1l-7-5a2.7,2.7,0,0,0-2.95-.12,32,32,0,0,1-8.41,3.49,2.67,2.67,0,0,0-2,2.17L162.24,405a.53.53,0,0,1-.52.44h-8.45a.53.53,0,0,1-.53-.44l-1.4-8.43a2.68,2.68,0,0,0-2-2.17,33.48,33.48,0,0,1-8.22-3.37,2.75,2.75,0,0,0-1.37-.36,2.62,2.62,0,0,0-1.57.5l-7,5a.67.67,0,0,1-.3.1.53.53,0,0,1-.38-.16l-6-6a.56.56,0,0,1-.06-.69l4.93-6.92a2.75,2.75,0,0,0,.13-3,31.63,31.63,0,0,1-3.54-8.39,2.72,2.72,0,0,0-2.17-2l-8.48-1.45a.51.51,0,0,1-.44-.52v-8.45a.5.5,0,0,1,.44-.52l8.36-1.41a2.69,2.69,0,0,0,2.19-2,32.07,32.07,0,0,1,3.43-8.43,2.65,2.65,0,0,0-.14-2.93l-5-7a.53.53,0,0,1,.06-.68l6-6a.46.46,0,0,1,.38-.16.47.47,0,0,1,.3.1l6.92,4.93a2.77,2.77,0,0,0,3,.13,31.57,31.57,0,0,1,8.38-3.54,2.74,2.74,0,0,0,2-2.17l1.44-8.48a.54.54,0,0,1,.53-.45h8.45a.53.53,0,0,1,.52.45l1.41,8.37a2.7,2.7,0,0,0,2,2.18,32.82,32.82,0,0,1,8.61,3.53,2.7,2.7,0,0,0,2.95-.12l6.92-5a.53.53,0,0,1,.69.06l6,6a.54.54,0,0,1,.07.68l-5,7a2.72,2.72,0,0,0-.13,2.95,31.65,31.65,0,0,1,3.5,8.41,2.67,2.67,0,0,0,2.17,2l8.43,1.42A.53.53,0,0,1,200.18,358.59Zm-21.94,4.21a20.74,20.74,0,1,0-20.74,20.74h0a20.75,20.75,0,0,0,20.72-20.73Z"/></g><g id="Grupo_12762" data-name="Grupo 12762"><path id="Trazado_18079" data-name="Trazado 18079" class="cls-1" d="M205.53,358.59V367a5.94,5.94,0,0,1-5,5.86L193.82,374a36.91,36.91,0,0,1-2.7,6.54l4,5.59a5.94,5.94,0,0,1-.64,7.64l-6,6a5.93,5.93,0,0,1-7.65.64l-5.56-4a37,37,0,0,1-6.54,2.71l-1.15,6.74a5.91,5.91,0,0,1-5.86,5h-8.47a5.93,5.93,0,0,1-5.86-5l-1.12-6.74a38.08,38.08,0,0,1-6.34-2.61l-5.64,4a5.91,5.91,0,0,1-7.63-.65l-6-6a5.91,5.91,0,0,1-.65-7.65l4-5.5a37.36,37.36,0,0,1-2.75-6.52l-6.82-1.16a5.93,5.93,0,0,1-5-5.86v-8.45a5.93,5.93,0,0,1,5-5.86l6.66-1.12a37.08,37.08,0,0,1,2.67-6.57l-4-5.64a6,6,0,0,1,.64-7.65l6-6a5.92,5.92,0,0,1,7.65-.65l5.52,4a36.71,36.71,0,0,1,6.53-2.75l1.16-6.83a5.91,5.91,0,0,1,5.86-5h8.45a5.93,5.93,0,0,1,5.86,5l1.12,6.67a37.83,37.83,0,0,1,6.79,2.78l5.58-4a5.79,5.79,0,0,1,3.43-1.1,5.86,5.86,0,0,1,4.2,1.74l6,6a5.9,5.9,0,0,1,.64,7.64l-4,5.56a37.76,37.76,0,0,1,2.72,6.54l6.74,1.14A5.87,5.87,0,0,1,205.53,358.59ZM200.17,367v-8.45a.54.54,0,0,0-.44-.53l-8.43-1.42a2.67,2.67,0,0,1-2.17-2,31.72,31.72,0,0,0-3.5-8.4,2.74,2.74,0,0,1,.13-3l5-7a.54.54,0,0,0-.07-.68l-6-6a.62.62,0,0,0-.39-.16.67.67,0,0,0-.3.1l-6.92,5a2.7,2.7,0,0,1-2.95.12,32.82,32.82,0,0,0-8.61-3.53,2.72,2.72,0,0,1-2-2.19l-1.41-8.37a.51.51,0,0,0-.52-.44h-8.46a.51.51,0,0,0-.52.44l-1.45,8.49a2.75,2.75,0,0,1-2,2.17,31.93,31.93,0,0,0-8.39,3.53,2.73,2.73,0,0,1-3-.12l-6.93-4.94a.51.51,0,0,0-.3-.1.55.55,0,0,0-.38.16l-6,6a.53.53,0,0,0-.07.68l5,7a2.67,2.67,0,0,1,.15,2.93,31.73,31.73,0,0,0-3.43,8.43,2.72,2.72,0,0,1-2.19,2l-8.37,1.41a.51.51,0,0,0-.44.52v8.45a.54.54,0,0,0,.44.53l8.48,1.44a2.74,2.74,0,0,1,2.17,2,31.9,31.9,0,0,0,3.54,8.38,2.79,2.79,0,0,1-.12,3l-4.94,6.92a.54.54,0,0,0,.06.68l6,6a.55.55,0,0,0,.38.16.54.54,0,0,0,.3-.1l7-5a2.58,2.58,0,0,1,1.56-.51,2.86,2.86,0,0,1,1.37.36,33.1,33.1,0,0,0,8.22,3.37,2.69,2.69,0,0,1,2,2.17l1.4,8.43a.52.52,0,0,0,.53.44h8.45a.51.51,0,0,0,.52-.44l1.43-8.43a2.65,2.65,0,0,1,2-2.17,31.62,31.62,0,0,0,8.41-3.49,2.72,2.72,0,0,1,2.95.12l7,5a.45.45,0,0,0,.3.1.55.55,0,0,0,.38-.16l6-6a.54.54,0,0,0,.06-.68l-4.95-7a2.72,2.72,0,0,1-.13-2.95,32,32,0,0,0,3.5-8.41,2.69,2.69,0,0,1,2.17-2l8.43-1.4a.53.53,0,0,0,.44-.52Z"/></g><g id="Grupo_12763" data-name="Grupo 12763"><path id="Trazado_18080" data-name="Trazado 18080" class="cls-1" d="M157.5,342.07a20.74,20.74,0,1,1-20.74,20.74A20.74,20.74,0,0,1,157.5,342.07Zm15.31,20.74a15.32,15.32,0,1,0-15.32,15.31h0A15.33,15.33,0,0,0,172.81,362.81Z"/><path id="Trazado_18081" data-name="Trazado 18081" class="cls-2" d="M157.5,384.15a21.35,21.35,0,1,1,21.35-21.35h0A21.38,21.38,0,0,1,157.5,384.15Zm0-41.46a20.12,20.12,0,1,0,20.11,20.12h0a20.13,20.13,0,0,0-20.11-20.12Zm0,36a15.93,15.93,0,1,1,15.93-15.93h0a15.94,15.94,0,0,1-15.93,15.92Zm0-30.62a14.7,14.7,0,1,0,14.69,14.71h0a14.72,14.72,0,0,0-14.69-14.7Z"/></g></g></g></g><path id="Trazado_18082" data-name="Trazado 18082" class="cls-5" d="M865.09,305.47V336H672.47v31.47H479.86V401.6H287.25v32.17H0v87.65H1120V306.17Z"/><g id="Grupo_12779" data-name="Grupo 12779"><g id="Grupo_12745" data-name="Grupo 12745"><ellipse id="Elipse_660" data-name="Elipse 660" class="cls-6" cx="279.71" cy="167.02" rx="11.56" ry="39.03" transform="translate(-45.47 186.82) rotate(-34.33)"/><g id="Grupo_12744" data-name="Grupo 12744"><path id="Trazado_18053" data-name="Trazado 18053" class="cls-6" d="M293.56,197.84a8.85,8.85,0,0,1-.31-12.51c.12-.13.25-.25.37-.37,15.39-14.45,39.59-33.47,39.59-33.47l4.62,4.39s-20.22,29.51-31.41,41.24C302.9,200.81,297.25,201.35,293.56,197.84Z"/></g><path id="Trazado_18054" data-name="Trazado 18054" class="cls-6" d="M332.13,152.81l5.3-10.4a2.68,2.68,0,0,1,3.45-1.25l7.07,3a2.7,2.7,0,0,1,1.62,2.82l-.54,4.09a2.67,2.67,0,0,1-2.2,2.3l-5.36,1a3.39,3.39,0,0,0-2,1.16,3.33,3.33,0,0,1-3.27,1.14l-1.3-.28Z"/></g><path id="Trazado_18064" data-name="Trazado 18064" class="cls-3" d="M241.06,250.64l1.2-3.84.29-.93,1.84-5.92.23-.77,5.63-18,.22-.75,1.69-5.39c12.14.6,21.52,7.4,27.5,13.4.5.51,1,1,1.44,1.51,1.22,1.31,2.27,2.54,3.13,3.63a34.52,34.52,0,0,0,8.43,7.65l14.63,9.41c14.61,8.07,22.18,15.84,27.73,22.71,1.91,2.36,3.83,4.71,5.91,6.92a12.28,12.28,0,0,1-16.2,18.33s-23.51-8.78-32.11-12.65l-8.05-1.62C251.37,276.12,241.06,250.64,241.06,250.64Z"/><path id="Trazado_18065" data-name="Trazado 18065" class="cls-3" d="M222.92,226.6l3.94-.79.95-.19,6.08-1.22.79-.17,18.5-3.72.77-.16,5.53-1.11c5.31,10.94,3.85,22.43,1.47,30.55-.21.69-.41,1.35-.63,2-.56,1.7-1.15,3.21-1.69,4.49A34.57,34.57,0,0,0,256,267.33l-1.22,17.35c-.07,16.7-3.25,27.07-6.61,35.24-1.15,2.81-2.29,5.62-3.23,8.51a12.28,12.28,0,0,1-23.85-5.4s-3.59-24.84-4.33-34.24L214.29,281C205.52,247.89,222.92,226.6,222.92,226.6Z"/><g id="Grupo_12755" data-name="Grupo 12755"><path id="Trazado_18066" data-name="Trazado 18066" class="cls-3" d="M320.15,286.83a8.56,8.56,0,0,1,6.84-5.6,21.73,21.73,0,0,1,13.4,2.41l.06,0a7,7,0,0,1,2.79,9.29,38.88,38.88,0,0,0-3.52,9.55,198.27,198.27,0,0,0-2.65,20.9c-2.37,26.56-3.78,64.36-3.78,64.36l-8,.49c-7.84-30.1-10.06-52.81-9.85-69.31S318.27,292.11,320.15,286.83Z"/><path id="Trazado_18067" data-name="Trazado 18067" class="cls-4" d="M353.71,390.71l-28.09,3.18-.76-6.7,6-.38,16.5.58c4.51-.08,6.1,1.39,6.32,3.32Z"/></g><g id="Grupo_12756" data-name="Grupo 12756"><path id="Trazado_18068" data-name="Trazado 18068" class="cls-3" d="M222,322.35a8.55,8.55,0,0,1,7.34-4.93,21.68,21.68,0,0,1,13.1,3.67l.06,0a7,7,0,0,1,1.9,9.52,39.13,39.13,0,0,0-4.41,9.17,198.56,198.56,0,0,0-4.61,20.55c-4.88,26.22-9.86,63.72-9.86,63.72l-8.06-.28c-4.95-30.71-5-53.52-3.23-69.93S219.59,327.42,222,322.35Z"/><path id="Trazado_18069" data-name="Trazado 18069" class="cls-4" d="M244.91,428.14,216.7,430l.56-6.75,7.61-.12,16.46,1.36a3.91,3.91,0,0,1,3.58,3.64Z"/></g><path id="Trazado_18070" data-name="Trazado 18070" class="cls-7" d="M272.8,80.2l-21.55-.81-5,35-18.36,16.09-2.54-6.23a70.75,70.75,0,0,1,.14-53.91,19.76,19.76,0,0,1,21.91-11.84L257.81,60a24.77,24.77,0,0,1,21.12,23.11,10.7,10.7,0,0,1-.05,1.7l-2,17.24a27.43,27.43,0,0,0,3.88,17.61,15,15,0,0,1-4.91,20.58c-.46.27-.92.53-1.4.76l-14,6.65-8-22.94,12.41-29Z"/><g id="Grupo_12757" data-name="Grupo 12757"><path id="Trazado_18071" data-name="Trazado 18071" class="cls-7" d="M235.46,81a19.74,19.74,0,0,1,21.91-11.84l10.38,1.52a24.86,24.86,0,0,1,8.57,2.94,24.8,24.8,0,0,0-18.53-13.4l-10.38-1.52A19.73,19.73,0,0,0,225.5,70.5a70.75,70.75,0,0,0-.14,53.91l2.55,6.22,4.61-4A70.79,70.79,0,0,1,235.46,81Z"/></g><path id="Trazado_18072" data-name="Trazado 18072" class="cls-6" d="M232.83,103.24s3.48,22.87-6.83,34.46l21.48,11.53,15.09-10.69s-7.6,2.63-5.12-35Z"/><g id="Grupo_12758" data-name="Grupo 12758"><path id="Trazado_18073" data-name="Trazado 18073" class="cls-6" d="M254.15,118.3c3.21.24,12.71.1,13.36-3,2.75-13,5.22-21.3,5.39-33a9.62,9.62,0,0,0-.62-3.64c-1.83-4.74-7.11-8.5-9-8.88C255,69,250.79,75,242.42,74.65a3.62,3.62,0,0,0-2,.34,3,3,0,0,0-1.1,1.87c-.87,3.3-.05,6.91-.38,10.33a55,55,0,0,0-.17,10.58c.64,6.85,3.28,13.39,8.95,17.73A12.42,12.42,0,0,0,254.15,118.3Z"/></g><path id="Trazado_18074" data-name="Trazado 18074" class="cls-7" d="M272.66,75.72l-11.05,0a12.74,12.74,0,0,0-12.52,10.61l-2.38,14a54.15,54.15,0,0,1-12.6,26.56,14.2,14.2,0,0,1-2.42,2.48c-.67-.06-3.67-4.1-3.25-5.07s3.81-45.66,3.81-45.66,9.84-14.76,10.74-14.9c.65-.1,12.36.94,19.06,1.56a15.22,15.22,0,0,1,8.19,3.33l6.08,4.91c.84.81-.58,3.3-1.59,2.71A4.11,4.11,0,0,0,272.66,75.72Z"/><path id="Trazado_18075" data-name="Trazado 18075" class="cls-4" d="M272,141.54a16,16,0,0,0-17.69-5.49A64.18,64.18,0,0,1,239.68,139c-14.64,1.18-21.34-6.61-29.93,1.45-12.9,12.1,1,40,8.41,54.46,2.75,5.4,4.32,19.71,3.87,32.92,0,0,38.41,10.4,61,4.27l-7.12-39.41S293.24,169.58,272,141.54Z"/><ellipse id="Elipse_661" data-name="Elipse 661" class="cls-6" cx="210.63" cy="177.77" rx="39.02" ry="11.55" transform="translate(15.84 372.76) rotate(-85.19)"/><path id="Trazado_18076" data-name="Trazado 18076" class="cls-6" d="M201.19,208.71a8.85,8.85,0,0,1,8.22-9.44,4.43,4.43,0,0,1,.52,0c21.1-.29,52.21,1.9,52.21,1.9l.33,6.32s-35.12,8.27-51.3,9.38C206.09,217.2,201.55,213.79,201.19,208.71Z"/><path id="Trazado_18083" data-name="Trazado 18083" class="cls-6" d="M261.21,201.59l10.53-5a2.69,2.69,0,0,1,3.51,1.11l3.78,6.69a2.69,2.69,0,0,1-.44,3.22l-2.91,2.92a2.7,2.7,0,0,1-3.15.49l-4.84-2.5a3.3,3.3,0,0,0-2.29-.29,3.34,3.34,0,0,1-3.29-1.09l-.86-1Z"/></g><g id="Grupo_12767" data-name="Grupo 12767"><path id="Trazado_18084" data-name="Trazado 18084" class="cls-3" d="M58.92,308l-5.29,6.22a.84.84,0,0,1-.83.28L46,313.09a.87.87,0,0,0-1,1.24l3.42,6.74a.84.84,0,0,1,0,.77l-3.15,6.45a.87.87,0,0,0,.4,1.16.81.81,0,0,0,.55.07l7.06-1.42a.85.85,0,0,1,.72.17L59.8,333a.86.86,0,0,0,1.22-.13.78.78,0,0,0,.19-.51l.27-6.63a.88.88,0,0,1,.42-.71l5.9-3.56a.87.87,0,0,0,.3-1.19.92.92,0,0,0-.38-.35l-6-2.74a.85.85,0,0,1-.5-.7l-.77-8a.87.87,0,0,0-1.53-.48Z"/><path id="Trazado_18085" data-name="Trazado 18085" class="cls-3" d="M59.16,308.54l-4.84,5.26a.87.87,0,0,1-.76.27l-7.08-1a.87.87,0,0,0-.88,1.29l3.51,6.23a.84.84,0,0,1,0,.8L46,327.82a.87.87,0,0,0,1,1.23l7-1.42a.9.9,0,0,1,.78.23l5.14,5a.87.87,0,0,0,1.22,0,.84.84,0,0,0,.24-.51l.82-7.1a.84.84,0,0,1,.46-.66l6.31-3.36a.87.87,0,0,0,.36-1.17.84.84,0,0,0-.41-.38l-6.5-3a.84.84,0,0,1-.49-.63l-1.24-7a.86.86,0,0,0-1-.7A.8.8,0,0,0,59.16,308.54Z"/></g><g id="Grupo_12768" data-name="Grupo 12768"><path id="Trazado_18086" data-name="Trazado 18086" class="cls-3" d="M597,.31l-5.28,6.22a.89.89,0,0,1-.84.29L584,5.41a.85.85,0,0,0-1,.67.87.87,0,0,0,.07.57l3.42,6.74a.84.84,0,0,1,0,.77l-3.15,6.45a.87.87,0,0,0,.95,1.23l7.06-1.43a.89.89,0,0,1,.72.18l5.78,4.69a.86.86,0,0,0,1.22-.13.78.78,0,0,0,.19-.51l.27-6.64a.85.85,0,0,1,.42-.7l5.9-3.56a.87.87,0,0,0,.3-1.19.94.94,0,0,0-.39-.35l-6-2.74a.87.87,0,0,1-.5-.71l-.76-8a.87.87,0,0,0-.94-.79A.86.86,0,0,0,597,.31Z"/><path id="Trazado_18087" data-name="Trazado 18087" class="cls-3" d="M597.21.85l-4.84,5.27a.86.86,0,0,1-.76.27l-7.08-1a.87.87,0,0,0-1,.74.84.84,0,0,0,.11.54l3.51,6.23a.86.86,0,0,1,0,.81l-3.13,6.42a.87.87,0,0,0,.4,1.16.8.8,0,0,0,.55.07L592,20a.86.86,0,0,1,.77.22l5.14,5a.86.86,0,0,0,1.23,0,.84.84,0,0,0,.24-.5l.81-7.1a.88.88,0,0,1,.46-.67L607,13.5a.87.87,0,0,0,0-1.56l-6.5-3a.88.88,0,0,1-.5-.64l-1.23-7a.88.88,0,0,0-1-.71A.86.86,0,0,0,597.21.85Z"/></g><g id="Grupo_12769" data-name="Grupo 12769"><path id="Trazado_18088" data-name="Trazado 18088" class="cls-3" d="M759.61,255.8,754.32,262a.82.82,0,0,1-.83.29l-6.84-1.41a.87.87,0,0,0-.95,1.24l3.42,6.74a.84.84,0,0,1,0,.77L746,276.09a.87.87,0,0,0,.95,1.23l7.06-1.43a.89.89,0,0,1,.72.18l5.78,4.69a.86.86,0,0,0,1.22-.13.78.78,0,0,0,.19-.51l.27-6.63a.85.85,0,0,1,.42-.71l5.9-3.56a.89.89,0,0,0,.3-1.2.92.92,0,0,0-.39-.34l-6-2.74a.87.87,0,0,1-.5-.71l-.76-8a.87.87,0,0,0-1.53-.47Z"/><path id="Trazado_18089" data-name="Trazado 18089" class="cls-3" d="M759.85,256.34,755,261.6a.87.87,0,0,1-.76.27l-7.08-1a.87.87,0,0,0-.88,1.29l3.52,6.23a.84.84,0,0,1,0,.8l-3.14,6.43a.87.87,0,0,0,.4,1.16.9.9,0,0,0,.56.07l7-1.42a.9.9,0,0,1,.78.23l5.14,5a.88.88,0,0,0,1.23,0,1,1,0,0,0,.24-.51l.81-7.1a.87.87,0,0,1,.46-.67l6.31-3.35a.86.86,0,0,0,.36-1.17.8.8,0,0,0-.41-.38l-6.5-3a.85.85,0,0,1-.49-.64l-1.24-7a.86.86,0,0,0-1-.7A.8.8,0,0,0,759.85,256.34Z"/></g><g id="Grupo_12770" data-name="Grupo 12770"><path id="Trazado_18090" data-name="Trazado 18090" class="cls-3" d="M289,173.6l-5.28,6.21a.85.85,0,0,1-.84.29l-6.83-1.41a.87.87,0,0,0-1,.67.86.86,0,0,0,.08.57l3.42,6.74a.9.9,0,0,1,0,.77l-3.15,6.45a.87.87,0,0,0,.95,1.23l7.05-1.43a.88.88,0,0,1,.72.18l5.78,4.69a.86.86,0,0,0,1.22-.13.85.85,0,0,0,.2-.51l.27-6.64a.84.84,0,0,1,.41-.7l5.9-3.56a.88.88,0,0,0,.3-1.2,1,1,0,0,0-.38-.34l-6-2.74a.87.87,0,0,1-.5-.71l-.77-8a.87.87,0,0,0-1.53-.47Z"/><path id="Trazado_18091" data-name="Trazado 18091" class="cls-3" d="M289.25,174.13l-4.84,5.27a.86.86,0,0,1-.76.27l-7.08-1a.86.86,0,0,0-.87,1.29l3.51,6.22a.86.86,0,0,1,0,.81l-3.13,6.43a.87.87,0,0,0,.95,1.23l7-1.42a.84.84,0,0,1,.77.23l5.14,5a.88.88,0,0,0,1.23,0,.9.9,0,0,0,.24-.51l.81-7.1a.92.92,0,0,1,.46-.67l6.31-3.35a.85.85,0,0,0,.36-1.17.82.82,0,0,0-.4-.38l-6.5-3a.86.86,0,0,1-.5-.64l-1.23-7a.87.87,0,0,0-1-.7A.84.84,0,0,0,289.25,174.13Z"/></g><g id="Grupo_12777" data-name="Grupo 12777"><g id="Grupo_12776" data-name="Grupo 12776"><g id="Grupo_12775" data-name="Grupo 12775"><g id="Grupo_12772" data-name="Grupo 12772"><path id="Trazado_18094" data-name="Trazado 18094" class="cls-3" d="M1072.88,412.51v12.81h0a.78.78,0,0,1-.67.79l-12.79,2.13a4.12,4.12,0,0,0-3.29,3,48.51,48.51,0,0,1-5.3,12.76,4.12,4.12,0,0,0,.19,4.47l7.52,10.6a.86.86,0,0,1-.09,1l-9.08,9.07a.79.79,0,0,1-.58.25.74.74,0,0,1-.45-.15l-10.57-7.52a4.1,4.1,0,0,0-4.47-.19,48.51,48.51,0,0,1-12.76,5.3,4,4,0,0,0-3,3.29L1015.32,483a.77.77,0,0,1-.79.66h-12.81a.8.8,0,0,1-.81-.66l-2.12-12.79a4.1,4.1,0,0,0-3-3.29,50.68,50.68,0,0,1-12.48-5.11,4.32,4.32,0,0,0-2.08-.56,4,4,0,0,0-2.37.77l-10.66,7.58a.93.93,0,0,1-.46.15.8.8,0,0,1-.57-.24l-9.08-9.07a.84.84,0,0,1-.09-1l7.49-10.5a4.19,4.19,0,0,0,.19-4.51,48.23,48.23,0,0,1-5.37-12.73,4.16,4.16,0,0,0-3.29-3l-12.87-2.19a.81.81,0,0,1-.67-.8V412.81a.78.78,0,0,1,.67-.79l12.7-2.14a4.12,4.12,0,0,0,3.32-3,48.24,48.24,0,0,1,5.2-12.79,4,4,0,0,0-.22-4.44L957.55,379a.82.82,0,0,1,.1-1l9.07-9.07a.79.79,0,0,1,.58-.25.87.87,0,0,1,.46.15l10.5,7.5a4.18,4.18,0,0,0,4.51.18,48.14,48.14,0,0,1,12.72-5.36,4.15,4.15,0,0,0,3-3.29l2.19-12.88a.8.8,0,0,1,.8-.67h12.82a.77.77,0,0,1,.79.67l2.14,12.7a4.09,4.09,0,0,0,3,3.32,49.52,49.52,0,0,1,13.07,5.36,4.1,4.1,0,0,0,4.47-.18l10.5-7.55a.94.94,0,0,1,.46-.16.85.85,0,0,1,.58.25l9.07,9.07a.82.82,0,0,1,.09,1L1051,389.3a4.14,4.14,0,0,0-.19,4.48,48,48,0,0,1,5.3,12.76,4.08,4.08,0,0,0,3.29,3l12.79,2.15A.81.81,0,0,1,1072.88,412.51Zm-33.29,6.39a31.46,31.46,0,1,0-31.46,31.45h0a31.47,31.47,0,0,0,31.45-31.45Z"/></g><g id="Grupo_12773" data-name="Grupo 12773"><path id="Trazado_18095" data-name="Trazado 18095" class="cls-3" d="M1081,412.51v12.81a9,9,0,0,1-7.52,8.89l-10.23,1.71a57.29,57.29,0,0,1-4.11,9.92l6,8.47a9,9,0,0,1-1,11.6l-9.07,9.07a9,9,0,0,1-11.6,1l-8.43-6a57.72,57.72,0,0,1-9.93,4.11l-1.74,10.23a9,9,0,0,1-8.89,7.53h-12.85a9,9,0,0,1-8.89-7.53L991.08,474a57.59,57.59,0,0,1-9.62-4l-8.55,6.1a9,9,0,0,1-11.57-1l-9.08-9.07a9,9,0,0,1-1-11.6l6-8.35a57.24,57.24,0,0,1-4.17-9.89l-10.35-1.77a9,9,0,0,1-7.52-8.89V412.81a9,9,0,0,1,7.52-8.89l10.11-1.71a55.91,55.91,0,0,1,4-10l-6.1-8.55a9,9,0,0,1,1-11.61l9.1-9.07a9,9,0,0,1,11.6-1l8.38,6a57.05,57.05,0,0,1,9.9-4.18l1.77-10.35a9,9,0,0,1,8.89-7.52h12.82a9,9,0,0,1,8.9,7.52l1.7,10.11a57.35,57.35,0,0,1,10.3,4.23l8.47-6a8.81,8.81,0,0,1,5.2-1.67,8.93,8.93,0,0,1,6.36,2.64l9.07,9.08a9,9,0,0,1,1,11.6l-6,8.44a57.29,57.29,0,0,1,4.11,9.92l10.23,1.74A8.89,8.89,0,0,1,1081,412.51Zm-8.12,12.81V412.51a.81.81,0,0,0-.68-.8l-12.79-2.16a4.08,4.08,0,0,1-3.29-3,48.31,48.31,0,0,0-5.3-12.75,4.15,4.15,0,0,1,.19-4.49l7.52-10.56a.81.81,0,0,0-.09-1l-9.07-9.08a.92.92,0,0,0-.58-.25.91.91,0,0,0-.46.16l-10.5,7.55a4.12,4.12,0,0,1-4.48.18,49.5,49.5,0,0,0-13.07-5.35,4.14,4.14,0,0,1-3-3.32l-2.13-12.7a.79.79,0,0,0-.79-.68H1001.5a.8.8,0,0,0-.8.68l-2.19,12.87a4.16,4.16,0,0,1-3,3.29,48.37,48.37,0,0,0-12.73,5.37,4.19,4.19,0,0,1-4.51-.19l-10.5-7.49a.8.8,0,0,0-1,.09l-9.06,9.08a.8.8,0,0,0-.1,1l7.58,10.66a4,4,0,0,1,.21,4.44,48.92,48.92,0,0,0-5.2,12.79,4.08,4.08,0,0,1-3.32,3L944.13,412a.78.78,0,0,0-.66.79v12.82a.81.81,0,0,0,.66.8L957,428.61a4.15,4.15,0,0,1,3.29,3,48.47,48.47,0,0,0,5.36,12.72,4.16,4.16,0,0,1-.18,4.51l-7.5,10.5a.86.86,0,0,0,.1,1l9.07,9.06a.79.79,0,0,0,.58.25,1,1,0,0,0,.46-.15L978.85,462a3.89,3.89,0,0,1,2.37-.77,4.16,4.16,0,0,1,2.07.55,50.45,50.45,0,0,0,12.48,5.11,4.12,4.12,0,0,1,3,3.3l2.13,12.79a.79.79,0,0,0,.8.66h12.82a.79.79,0,0,0,.79-.66l2.16-12.79a4,4,0,0,1,3-3.3,47.9,47.9,0,0,0,12.76-5.3,4.14,4.14,0,0,1,4.48.19l10.56,7.52a.74.74,0,0,0,.45.15.77.77,0,0,0,.59-.24l9.07-9.08a.83.83,0,0,0,.1-1l-7.52-10.6a4.1,4.1,0,0,1-.19-4.47,48.77,48.77,0,0,0,5.3-12.77,4.08,4.08,0,0,1,3.29-3l12.79-2.13a.79.79,0,0,0,.67-.79Z"/></g><g id="Grupo_12774" data-name="Grupo 12774"><path id="Trazado_18096" data-name="Trazado 18096" class="cls-4" d="M1008.14,387.44a31.46,31.46,0,1,1-31.46,31.46A31.46,31.46,0,0,1,1008.14,387.44Zm23.22,31.46a23.23,23.23,0,1,0-23.23,23.23h0a23.25,23.25,0,0,0,23.22-23.23Z"/><path id="Trazado_18097" data-name="Trazado 18097" class="cls-4" d="M1008.14,451.29a32.4,32.4,0,1,1,32.39-32.4h0A32.43,32.43,0,0,1,1008.14,451.29Zm0-62.91a30.52,30.52,0,1,0,30.51,30.52h0A30.55,30.55,0,0,0,1008.14,388.38Zm0,54.69a24.17,24.17,0,1,1,24.16-24.18h0A24.2,24.2,0,0,1,1008.14,443.07Zm0-46.47a22.3,22.3,0,1,0,22.29,22.3h0a22.33,22.33,0,0,0-22.29-22.3Z"/></g></g></g></g></g></g></g></svg>