<svg xmlns="http://www.w3.org/2000/svg" width="124" height="124" viewBox="0 0 124 124">
  <g id="Grupo_12781" data-name="Grupo 12781" transform="translate(-1186.987 -34.914)">
    <path id="Trazado_18099" data-name="Trazado 18099" d="M1306.921,96.847a59.541,59.541,0,0,1-8.059,29.947l-51.874-29.947V36.914A59.933,59.933,0,0,1,1306.921,96.847Z" transform="translate(2 0.067)" fill="#c9eeae"/>
    <path id="Trazado_18100" data-name="Trazado 18100" d="M1248.92,36.914V96.847l-51.893,29.967a59.921,59.921,0,0,1,51.893-89.9Z" transform="translate(0.067 0.067)" fill="#ffe477"/>
    <path id="Trazado_18101" data-name="Trazado 18101" d="M1196.757,124.881l51.9-29.967,51.9,29.967a59.919,59.919,0,0,1-103.8,0Z" transform="translate(0.326 2)" fill="#ffdaaa"/>
    <path id="Trazado_18102" data-name="Trazado 18102" d="M1214.987,91.447l4.133,4.133,4.133-4.133-2.067-16.533h-4.133Z" transform="translate(0.934 1.333)" fill="#d80027"/>
    <path id="Trazado_18103" data-name="Trazado 18103" d="M1225.787,74.914h-4.133l2.067,16.533-4.133,4.133-4.133-4.133,2.067-16.533h-4.133a12.4,12.4,0,0,0-12.4,12.4v16.533H1234.2l3.985-2.3V87.314A12.4,12.4,0,0,0,1225.787,74.914Z" transform="translate(0.467 1.333)" fill="#a7a9ac"/>
    <path id="Trazado_18104" data-name="Trazado 18104" d="M1247.12,147.581l4.133-4.133-2.067-16.533h-4.133l-2.067,16.533Z" transform="translate(1.867 3.067)" fill="#f1f2f2"/>
    <path id="Trazado_18105" data-name="Trazado 18105" d="M1285.219,81.679a16.58,16.58,0,0,0-3.451-2.625l-8.247,8.122-8.246-8.122a16.478,16.478,0,0,0-8.287,14.322v8.039l3.972,2.294h29.094V93.376A16.564,16.564,0,0,0,1285.219,81.679Z" transform="translate(2.333 1.471)" fill="#2488ff"/>
    <path id="Trazado_18106" data-name="Trazado 18106" d="M1253.787,126.914h-4.133l2.067,16.533-4.133,4.133-4.133-4.133,2.067-16.533h-4.133a12.4,12.4,0,0,0-12.4,12.4v11.509a59.969,59.969,0,0,0,37.2,0V139.314A12.4,12.4,0,0,0,1253.787,126.914Z" transform="translate(1.4 3.067)" fill="#5eac24"/>
    <path id="Trazado_18107" data-name="Trazado 18107" d="M1273.387,52.914a12.4,12.4,0,0,0-12.4,12.4V75.647h7.81a6.157,6.157,0,0,1-1.61-4.133V63.247h12.4v8.267a6.156,6.156,0,0,1-1.609,4.133h7.809V65.314A12.418,12.418,0,0,0,1273.387,52.914Z" transform="translate(2.467 0.6)" fill="#ff9811"/>
    <path id="Trazado_18108" data-name="Trazado 18108" d="M1255.52,115.181a8.267,8.267,0,1,1-8.267-8.267A8.267,8.267,0,0,1,1255.52,115.181Z" transform="translate(1.734 2.4)" fill="#5eac24"/>
    <path id="Trazado_18109" data-name="Trazado 18109" d="M1219.187,71.247a6.2,6.2,0,0,0,6.2-6.2V60.914h-12.4v4.133A6.2,6.2,0,0,0,1219.187,71.247Z" transform="translate(0.867 0.867)" fill="#f1f2f2"/>
    <path id="Trazado_18110" data-name="Trazado 18110" d="M1279.387,62.914h-12.4v8.267a6.2,6.2,0,1,0,12.4,0Z" transform="translate(2.667 0.933)" fill="#f1f2f2"/>
    <path id="Trazado_18111" data-name="Trazado 18111" d="M1233.151,54.92l.5-2.006h-20.667v8.267h12.146A8.267,8.267,0,0,0,1233.151,54.92Z" transform="translate(0.867 0.6)" fill="#d80027"/>
    <path id="Trazado_18112" data-name="Trazado 18112" d="M1248.987,34.914a62,62,0,1,0,62,62A62,62,0,0,0,1248.987,34.914Zm57.867,62a57.511,57.511,0,0,1-6.767,27.121l-29.07-16.788h23.437v-12.4a18.469,18.469,0,0,0-9.325-16.12l-.732-.413h5.923v-12.4a14.467,14.467,0,1,0-28.933,0v12.4h5.919l-.728.413a18.641,18.641,0,0,0-9.324,16.12V99.3l-6.2-3.582V39.1A57.928,57.928,0,0,1,1306.854,96.914Zm-39.267-35.133V72.114a8.122,8.122,0,0,0,.294,2.067h-2.361V65.914a10.333,10.333,0,0,1,20.667,0v8.267h-2.36a8.072,8.072,0,0,0,.294-2.067V61.781Zm12.4,4.133v6.2a4.133,4.133,0,1,1-8.267,0v-6.2Zm-9.544,12.4a8.116,8.116,0,0,0,10.822,0h2.136l-7.547,7.44-7.547-7.44Zm5.411,13.227,8.521-8.391a13.947,13.947,0,0,1,1.712,1.447,14.45,14.45,0,0,1,4.234,10.251v8.267h-4.133V94.847h-4.133v8.267h-12.4V94.847h-4.133v8.267h-1.652l-2.481-1.426V94.847a14.494,14.494,0,0,1,5.95-11.685Zm-64.067-38.905V65.914a8.267,8.267,0,1,0,16.533,0V63.552a10.29,10.29,0,0,0,7.7-7.531l1.143-4.574h-23.911A57.551,57.551,0,0,1,1246.921,39.1V95.726l-6.2,3.582V88.647a14.483,14.483,0,0,0-14.467-14.467h-12.4a14.484,14.484,0,0,0-14.467,14.467v18.6h27.567l-29.068,16.783A57.751,57.751,0,0,1,1211.787,52.636ZM1226,59.714H1215.92V55.581h15.914A6.189,6.189,0,0,1,1226,59.714Zm-10.079,4.133h8.267v2.067a4.133,4.133,0,0,1-8.267,0Zm18.187,39.267h-1.653V88.647h-4.133v14.467h-16.533V88.647h-4.133v14.467h-4.133V88.647a10.346,10.346,0,0,1,10.333-10.333h1.793l-1.9,15.213,6.31,6.31,6.31-6.31-1.9-15.213h1.792a10.345,10.345,0,0,1,10.333,10.333v13.039Zm-13.811-24.8,1.714,13.721-1.957,1.957-1.956-1.957,1.714-13.721Zm20.424,75.867v-11.8h-4.133v11.048q-2.094-.457-4.133-1.068v-9.98a10.346,10.346,0,0,1,10.333-10.333h1.793l-1.9,15.213,6.31,6.31,6.311-6.31-1.9-15.213h1.792a10.345,10.345,0,0,1,10.333,10.333v9.98q-2.035.62-4.133,1.068V142.381h-4.133v11.8A57.336,57.336,0,0,1,1240.72,154.182Zm8.51-22.134,1.714,13.721-1.957,1.957-1.956-1.957,1.714-13.721Zm20.424,18.9v-8.57a14.483,14.483,0,0,0-14.467-14.467h-12.4a14.484,14.484,0,0,0-14.467,14.467v8.57a58.181,58.181,0,0,1-28.357-23.347l49.024-28.3,49.022,28.313A58.162,58.162,0,0,1,1269.654,150.951Z" transform="translate(0 0)"/>
    <path id="Trazado_18113" data-name="Trazado 18113" d="M1257.654,115.247a10.333,10.333,0,1,0-10.333,10.333A10.334,10.334,0,0,0,1257.654,115.247Zm-10.333,6.2a6.2,6.2,0,1,1,6.2-6.2A6.2,6.2,0,0,1,1247.32,121.447Z" transform="translate(1.667 2.333)"/>
  </g>
</svg>
