<svg xmlns="http://www.w3.org/2000/svg" width="124.877" height="118.633" viewBox="0 0 124.877 118.633">
  <g id="filled_outline" data-name="filled outline" transform="translate(-1516.005 -34.914)">
    <path id="Trazado_18151" data-name="Trazado 18151" d="M1598.424,68.215l-11.656-6.244h-16.65l-11.337,5.668a2.083,2.083,0,0,0-1.15,1.862V82.784h8.325v18.731h24.975V82.784h8.325V69.88A2.081,2.081,0,0,0,1598.424,68.215Z" fill="#eaeae8"/>
    <path id="Trazado_18152" data-name="Trazado 18152" d="M1565.956,78.621h24.975V103.6h-24.975Z" fill="#0296e5"/>
    <path id="Trazado_18153" data-name="Trazado 18153" d="M1518.086,101.515H1638.8V126.49H1518.086Z" fill="#834b10"/>
    <path id="Trazado_18154" data-name="Trazado 18154" d="M1557.631,101.515h45.788V126.49h-45.788Z" fill="#55300b"/>
    <path id="Trazado_18155" data-name="Trazado 18155" d="M1568.037,63.011v15.61h-2.081V64.052Z" fill="#026ca2"/>
    <path id="Trazado_18156" data-name="Trazado 18156" d="M1590.931,64.2V78.621h-2.081V63.087Z" fill="#026ca2"/>
    <path id="Trazado_18157" data-name="Trazado 18157" d="M1518.086,126.49H1638.8v8.325H1518.086Z" fill="#683b0d"/>
    <path id="Trazado_18158" data-name="Trazado 18158" d="M1526.412,93.19h22.894v11.967a4.683,4.683,0,0,1-4.683,4.683h-13.529a4.683,4.683,0,0,1-4.682-4.683V93.19Z" fill="#cbcbcb"/>
    <path id="Trazado_18159" data-name="Trazado 18159" d="M1524.33,116.084v-4.163l2.082-2.081h4.162v6.244Z" fill="#eaeae8"/>
    <path id="Trazado_18160" data-name="Trazado 18160" d="M1522.249,134.815h112.389v16.651H1522.249Z" fill="#55300b"/>
    <g id="Grupo_12785" data-name="Grupo 12785">
      <path id="Trazado_18161" data-name="Trazado 18161" d="M1546.444,86.946a2.081,2.081,0,0,1-2.081-2.081,6.957,6.957,0,0,1,1.047-3.8,3.253,3.253,0,0,0,0-3.509,6.957,6.957,0,0,1-1.047-3.8,2.081,2.081,0,1,1,4.162,0,2.925,2.925,0,0,0,.513,1.755,7.4,7.4,0,0,1,0,7.591,2.925,2.925,0,0,0-.513,1.755,2.081,2.081,0,0,1-2.081,2.081Z" fill="#f7ba61"/>
      <path id="Trazado_18162" data-name="Trazado 18162" d="M1538.119,86.946a2.082,2.082,0,0,1-2.082-2.081,6.968,6.968,0,0,1,1.048-3.8,3.256,3.256,0,0,0,0-3.509,6.968,6.968,0,0,1-1.048-3.8,2.081,2.081,0,0,1,4.163,0,2.925,2.925,0,0,0,.513,1.755,7.4,7.4,0,0,1,0,7.591,2.925,2.925,0,0,0-.513,1.755,2.081,2.081,0,0,1-2.081,2.081Z" fill="#f7ba61"/>
      <path id="Trazado_18163" data-name="Trazado 18163" d="M1529.794,86.946a2.082,2.082,0,0,1-2.082-2.081,6.966,6.966,0,0,1,1.048-3.8,3.257,3.257,0,0,0,0-3.509,6.966,6.966,0,0,1-1.048-3.8,2.081,2.081,0,0,1,4.163,0,2.926,2.926,0,0,0,.513,1.755,7.4,7.4,0,0,1,0,7.591,2.926,2.926,0,0,0-.513,1.755,2.081,2.081,0,0,1-2.081,2.081Z" fill="#f7ba61"/>
    </g>
    <path id="Trazado_18164" data-name="Trazado 18164" d="M1611.744,107.759h18.731a8.325,8.325,0,0,1-8.325,8.325h-2.081a8.325,8.325,0,0,1-8.325-8.325Z" fill="#eaeae8"/>
    <path id="Trazado_18165" data-name="Trazado 18165" d="M1630.475,107.759a6.249,6.249,0,0,0-8.325-5.889l-1.041,1.206,1.041,4.683Z" fill="#02a437"/>
    <path id="Trazado_18166" data-name="Trazado 18166" d="M1578.443,47.4h0a8.325,8.325,0,0,1,8.325,8.325v6.244a8.325,8.325,0,0,1-8.325,8.325h0a8.325,8.325,0,0,1-8.325-8.325V55.727A8.325,8.325,0,0,1,1578.443,47.4Z" fill="#fdc9a6"/>
    <path id="Trazado_18167" data-name="Trazado 18167" d="M1557.631,82.784V93.19l8.325,10.406v4.163l4.162,4.162,6.244-4.162V103.6l-10.406-12.487V82.784Z" fill="#fdc9a6"/>
    <path id="Trazado_18168" data-name="Trazado 18168" d="M1599.256,82.784V97.352l-8.325,20.813h-10.406V114l2.081-6.244h4.162l4.163-14.569V82.784Z" fill="#fdc9a6"/>
    <path id="Trazado_18169" data-name="Trazado 18169" d="M1570.118,45.321h16.65V57.392h-16.65Z" fill="#eaeae8"/>
    <path id="Trazado_18170" data-name="Trazado 18170" d="M1586.768,45.321v4.162a4.152,4.152,0,0,1-2.859-1.142,6.246,6.246,0,0,1-10.932,0,4.15,4.15,0,0,1-2.859,1.142V45.321Z" fill="#cbcbcb"/>
    <path id="Trazado_18171" data-name="Trazado 18171" d="M1586.768,39.077a4.142,4.142,0,0,0-2.859,1.143,6.244,6.244,0,0,0-10.931,0,4.163,4.163,0,1,0,0,6.039,6.245,6.245,0,0,0,10.931,0,4.161,4.161,0,1,0,2.859-7.182Z" fill="#eaeae8"/>
    <path id="Trazado_18172" data-name="Trazado 18172" d="M1617.988,99.434a4.162,4.162,0,0,1,4.162,4.162v4.163h-8.325V103.6A4.162,4.162,0,0,1,1617.988,99.434Z" fill="#fd7422"/>
    <path id="Trazado_18173" data-name="Trazado 18173" d="M1530.574,113.347h14.569v2.737h-14.569Z" fill="#55300b"/>
    <path id="Trazado_18174" data-name="Trazado 18174" d="M1551.387,116.084v-4.163l-2.081-2.081h-4.163v6.244Z" fill="#eaeae8"/>
    <path id="Trazado_18175" data-name="Trazado 18175" d="M1575.206,108.53l11.562,9.635h-10.406l-7.351-5.513Z" fill="#cbcbcb"/>
    <path id="Trazado_18176" data-name="Trazado 18176" d="M1638.8,99.434h-14.152c-.047,0-.094,0-.14.007-.092,0-.184-.007-.276-.007a8.337,8.337,0,0,0-1.48.132,6.233,6.233,0,0,0-8.782-.745,6.3,6.3,0,0,0-.656.641,2.114,2.114,0,0,0-.328-.028h-12.321l.524-1.308a2.092,2.092,0,0,0,.148-.774V71.337a4.184,4.184,0,0,0-1.665-3.331l-7.492-5.619-.034-.022c-.039-.028-.081-.054-.124-.079s-.083-.052-.126-.075c-.012-.006-.022-.014-.034-.02l-3.012-1.506V49.125a6.244,6.244,0,0,0-4.125-11.787c-.1.035-.2.073-.3.113a8.323,8.323,0,0,0-11.768-.2c-.067.064-.133.13-.2.2a6.244,6.244,0,0,0-4.729,11.558c.1.041.2.08.307.116V60.684l-3.013,1.506-7.174,3.587a4.141,4.141,0,0,0-2.3,3.724V93.19a2.086,2.086,0,0,0,.456,1.3l3.955,4.943h-8.573V93.19a2.081,2.081,0,0,0-2.081-2.081h-22.894a2.081,2.081,0,0,0-2.082,2.081v6.244h-6.244a2.081,2.081,0,0,0-2.081,2.081v33.3a2.082,2.082,0,0,0,2.081,2.082h2.082v14.569a2.081,2.081,0,0,0,2.081,2.081h112.389a2.081,2.081,0,0,0,2.081-2.081V136.9h2.081a2.082,2.082,0,0,0,2.082-2.082v-33.3a2.082,2.082,0,0,0-2.082-2.081Zm-14.569,4.162a4.164,4.164,0,0,1,3.6,2.082h-3.6Zm-8.325,0a2.081,2.081,0,0,1,4.163,0v2.082h-4.163Zm6.244,6.244h5.887A6.255,6.255,0,0,1,1622.15,114h-2.081a6.254,6.254,0,0,1-5.887-4.163Zm-29.138-41.625,4.163,3.122V80.7h-4.163Zm-.08,25.547c.006-.02.007-.034.012-.052a2.032,2.032,0,0,0,.068-.52V84.865h4.163V96.952l-1.5,3.751,0,.006-6.15,15.375h-2l-4.3-3.585.886-2.659h2.662a2.082,2.082,0,0,0,2-1.509Zm-12.3,13.339-.846,2.536-1.456-1.213a2.061,2.061,0,0,0,.113-.665V103.6h7.35l-.594,2.082h-2.593A2.08,2.08,0,0,0,1580.632,107.1Zm.387,8.983h-3.963l-4.438-3.328,2.449-1.633Zm-10.9-74.926a2.072,2.072,0,0,1,1.429.572,2.081,2.081,0,0,0,2.942-.079,2.138,2.138,0,0,0,.31-.423,4.162,4.162,0,0,1,7.289,0,2.081,2.081,0,0,0,3.252.5,2.081,2.081,0,1,1,0,3.018,2.083,2.083,0,0,0-2.943.08,2.133,2.133,0,0,0-.309.423,4.162,4.162,0,0,1-7.289,0,2.083,2.083,0,0,0-3.252-.5,2.08,2.08,0,1,1-1.429-3.59Zm2.082,12.488V49.119c.086-.031.175-.057.26-.092a8.322,8.322,0,0,0,11.768.2c.067-.065.133-.131.2-.2.086.035.175.061.261.092v4.527Zm12.487,4.162v4.163a6.244,6.244,0,1,1-12.487,0V57.808Zm-16.65,7.53.481-.24a10.406,10.406,0,0,0,19.85,0l.481.24v11.2h-20.812Zm0,15.364h20.813V92.9l-1.867,6.536H1575.6l-7.566-9.08Zm-8.325-11.2,4.162-2.081V80.7h-4.162Zm0,22.959v-7.6h4.162v6.244a2.068,2.068,0,0,0,.394,1.214c.021.031.045.064.075.1l.009.011.005.006,9.924,11.91v1.333a2.08,2.08,0,0,0-1.155.344l-3.575,2.384-1.514-1.514v-3.3a2.086,2.086,0,0,0-.456-1.3Zm0,11.136h3.578l.584.73v3.433a2.085,2.085,0,0,0,.61,1.472l1.717,1.717a2.075,2.075,0,0,0,.587,2.638l8.325,6.244a2.085,2.085,0,0,0,1.249.416h14.569a2.081,2.081,0,0,0,1.932-1.308L1599,103.6h2.337v20.813h-41.625Zm-10.406,9.188V114h-2.082v-2.082h1.219Zm-20.813-17.513h18.731v9.886a2.6,2.6,0,0,1-2.6,2.6h-13.529a2.6,2.6,0,0,1-2.6-2.6Zm-2.081,17.513.862-.863h1.219V114h-2.081Zm-6.244-9.188h4.162v1.561a6.732,6.732,0,0,0,.748,3.086c-.047.04-.094.081-.138.125l-2.081,2.082a2.077,2.077,0,0,0-.61,1.471v4.163a2.081,2.081,0,0,0,2.081,2.081h6.244a2.081,2.081,0,0,0,2.081-2.081v-4.163h10.407v4.163a2.081,2.081,0,0,0,2.081,2.081h6.244a2.081,2.081,0,0,0,2.081-2.081v-4.163a2.08,2.08,0,0,0-.609-1.471l-2.082-2.082c-.044-.044-.091-.085-.138-.125a6.72,6.72,0,0,0,.748-3.086V103.6h4.162v20.813h-35.381Zm112.388,45.788H1524.33V136.9h108.226Zm4.163-16.65H1520.168v-4.162h116.551Zm0-8.325H1605.5V103.6h6.244v2.082a2.081,2.081,0,0,0-2.082,2.081,10.418,10.418,0,0,0,10.407,10.406h2.081a10.417,10.417,0,0,0,10.406-10.406,8.262,8.262,0,0,0-1.12-4.163h5.283Z"/>
    <path id="Trazado_18177" data-name="Trazado 18177" d="M1544.363,84.865a2.081,2.081,0,1,0,4.162,0,2.925,2.925,0,0,1,.513-1.755,7.4,7.4,0,0,0,0-7.591,2.925,2.925,0,0,1-.513-1.755,2.081,2.081,0,1,0-4.162,0,6.957,6.957,0,0,0,1.047,3.8,3.253,3.253,0,0,1,0,3.509,6.957,6.957,0,0,0-1.047,3.8Z"/>
    <path id="Trazado_18178" data-name="Trazado 18178" d="M1536.037,84.865a2.081,2.081,0,0,0,4.163,0,2.925,2.925,0,0,1,.513-1.755,7.4,7.4,0,0,0,0-7.591,2.925,2.925,0,0,1-.513-1.755,2.081,2.081,0,0,0-4.163,0,6.968,6.968,0,0,0,1.048,3.8,3.256,3.256,0,0,1,0,3.509,6.968,6.968,0,0,0-1.048,3.8Z"/>
    <path id="Trazado_18179" data-name="Trazado 18179" d="M1527.712,84.865a2.081,2.081,0,0,0,4.163,0,2.926,2.926,0,0,1,.513-1.755,7.4,7.4,0,0,0,0-7.591,2.926,2.926,0,0,1-.513-1.755,2.081,2.081,0,0,0-4.163,0,6.966,6.966,0,0,0,1.048,3.8,3.257,3.257,0,0,1,0,3.509,6.966,6.966,0,0,0-1.048,3.8Z"/>
  </g>
</svg>
