<svg xmlns="http://www.w3.org/2000/svg" width="127.977" height="127.979" viewBox="0 0 127.977 127.979">
  <g id="Grupo_13106" data-name="Grupo 13106" transform="translate(-1472.137 -2805.446)">
    <path id="Trazado_19187" data-name="Trazado 19187" d="M1616.137,3005.451H1626.8v25.6a4.266,4.266,0,0,1-4.266,4.266H1620.4a4.266,4.266,0,0,1-4.266-4.266Z" transform="translate(-105.607 -146.679)" fill="#f5c99d"/>
    <path id="Trazado_19188" data-name="Trazado 19188" d="M1768.137,3005.451H1778.8v25.6a4.266,4.266,0,0,1-4.266,4.266H1772.4a4.266,4.266,0,0,1-4.266-4.266Z" transform="translate(-217.081 -146.679)" fill="#f5c99d"/>
    <path id="Trazado_19189" data-name="Trazado 19189" d="M1689.732,2866.249a12.8,12.8,0,1,1-12.8-12.8A12.8,12.8,0,0,1,1689.732,2866.249Z" transform="translate(-140.809 -35.205)" fill="#f5c99d"/>
    <path id="Trazado_19190" data-name="Trazado 19190" d="M1656.137,3093.451H1686v38.393h-29.861Z" transform="translate(-134.942 -211.217)" fill="#faeed8"/>
    <path id="Trazado_19191" data-name="Trazado 19191" d="M1656.137,3237.451h14.931v6.4a4.266,4.266,0,0,1-4.266,4.266h-6.4a4.266,4.266,0,0,1-4.266-4.266Z" transform="translate(-134.942 -316.824)" fill="#fd412d"/>
    <path id="Trazado_19192" data-name="Trazado 19192" d="M1712.137,3237.451h14.931v6.4a4.266,4.266,0,0,1-4.266,4.266h-6.4a4.266,4.266,0,0,1-4.266-4.266Z" transform="translate(-176.011 -316.824)" fill="#fd412d"/>
    <path id="Trazado_19193" data-name="Trazado 19193" d="M1660.929,2949.451h-38.393a6.349,6.349,0,0,0-4.266,1.662v6.989h-2.133v6.279H1626.8v23.462h29.861v-23.462h10.665v-8.532A6.4,6.4,0,0,0,1660.929,2949.451Z" transform="translate(-105.607 -105.61)" fill="#70dda8"/>
    <path id="Trazado_19194" data-name="Trazado 19194" d="M1700.935,2955.85l-6.4,6.4-6.4-6.4v-6.4h12.8Z" transform="translate(-158.41 -105.61)" fill="#70dda8"/>
    <path id="Trazado_19195" data-name="Trazado 19195" d="M1838.53,2832.647a19.2,19.2,0,1,1-19.2-19.2A19.2,19.2,0,0,1,1838.53,2832.647Z" transform="translate(-240.549 -5.87)" fill="#faa108"/>
    <path id="Trazado_19196" data-name="Trazado 19196" d="M1480.137,2853.9h38.393v34.127h-38.393Z" transform="translate(-5.867 -35.535)" fill="#fd412d"/>
    <path id="Trazado_19197" data-name="Trazado 19197" d="M1536.137,2853.9h8.532v34.127h-8.532Z" transform="translate(-46.936 -35.535)" fill="#faa108"/>
    <path id="Trazado_19198" data-name="Trazado 19198" d="M1846,3114.249h-10.665l-12.8-12.8v12.8H1820.4a4.266,4.266,0,0,0-4.266,4.266v19.2a4.266,4.266,0,0,0,4.266,4.266H1846a4.266,4.266,0,0,0,4.266-4.266v-19.2A4.266,4.266,0,0,0,1846,3114.249Z" transform="translate(-252.283 -217.084)" fill="#70dda8"/>
    <path id="Trazado_19199" data-name="Trazado 19199" d="M1497.2,3141.451l5.442,3.927,6.625,1.071,1.07,6.625,3.927,5.441-3.927,5.442-1.07,6.625-6.625,1.071-5.442,3.927-5.441-3.927-6.625-1.071-1.072-6.625-3.927-5.442,3.927-5.441,1.072-6.625,6.625-1.071Z" transform="translate(-5.867 -246.419)" fill="#fd412d"/>
    <g id="Grupo_13105" data-name="Grupo 13105" transform="translate(1472.137 2805.446)">
      <path id="Trazado_19200" data-name="Trazado 19200" d="M1775.068,3025.179v-8.532a2.133,2.133,0,0,0-4.266,0v8.532a2.133,2.133,0,0,1-2.133,2.133h-2.133a2.133,2.133,0,0,1-2.133-2.133v-23.462h8.532a2.133,2.133,0,0,0,0-4.266H1762.27a2.133,2.133,0,0,0-2.133,2.133v25.6a6.4,6.4,0,0,0,6.4,6.4h2.133A6.4,6.4,0,0,0,1775.068,3025.179Z" transform="translate(-1683.351 -2946.259)"/>
      <path id="Trazado_19201" data-name="Trazado 19201" d="M1551.074,3040.11a2.133,2.133,0,0,0-2.133,2.133v17.064h-10.665v-25.6a2.133,2.133,0,1,0-4.266,0v25.6h-10.665v-59.723a2.133,2.133,0,1,0-4.266,0v25.6a2.133,2.133,0,0,1-2.133,2.133h-2.133a2.133,2.133,0,0,1-2.133-2.133v-21.33a2.133,2.133,0,0,0-4.266,0v17.064h-8.532a10.678,10.678,0,0,0-10.665,10.665v3.177l-4.146,2.986-6.126.987a2.134,2.134,0,0,0-1.768,1.769l-.987,6.126-3.627,5.031a2.133,2.133,0,0,0,0,2.5l3.627,5.032.987,6.126a2.133,2.133,0,0,0,1.768,1.768l6.126.987,5.031,3.626a2.132,2.132,0,0,0,2.5,0l5.031-3.626,6.126-.987a2.133,2.133,0,0,0,1.769-1.768l.987-6.126,3.626-5.032a2.132,2.132,0,0,0,0-2.5l-3.626-5.031-.987-6.126a2.134,2.134,0,0,0-1.769-1.769l-6.126-.987-4.146-2.986v-3.177a6.4,6.4,0,0,1,6.4-6.4h8.532a6.4,6.4,0,0,0,6.4,6.4h2.133a6.327,6.327,0,0,0,2.133-.393v36.653a6.4,6.4,0,0,0,6.4,6.4h6.4a6.3,6.3,0,0,1,8.532,0h6.4a6.4,6.4,0,0,0,6.4-6.4v-25.6A2.133,2.133,0,0,0,1551.074,3040.11Zm-54.62,1.766,5.1.826.825,5.1a2.1,2.1,0,0,0,.378.909l3.025,4.193-3.025,4.194a2.107,2.107,0,0,0-.378.908l-.825,5.1-5.1.826a2.108,2.108,0,0,0-.909.377l-4.193,3.024-4.193-3.024a2.1,2.1,0,0,0-.909-.377l-5.1-.826-.825-5.1a2.094,2.094,0,0,0-.378-.908l-3.025-4.194,3.025-4.193a2.089,2.089,0,0,0,.378-.909l.825-5.1,5.1-.826a2.1,2.1,0,0,0,.909-.377l4.193-3.026,4.193,3.026A2.111,2.111,0,0,0,1496.453,3041.876Zm35.424,28.095h-6.4a2.133,2.133,0,0,1-2.133-2.133v-4.266h10.665v4.266A2.133,2.133,0,0,1,1531.877,3069.971Zm17.064-2.133a2.133,2.133,0,0,1-2.133,2.133h-6.4a2.133,2.133,0,0,1-2.133-2.133v-4.266h10.665Z" transform="translate(-1472.154 -2946.259)"/>
      <path id="Trazado_19202" data-name="Trazado 19202" d="M1650.27,2875.251h6.4v4.266a2.134,2.134,0,0,0,.625,1.508l5.774,5.774v7.649a2.133,2.133,0,0,0,4.266,0V2886.8l5.774-5.774a2.134,2.134,0,0,0,.625-1.508v-4.266H1684.4a4.266,4.266,0,0,1,4.266,4.266,2.133,2.133,0,0,0,4.266,0,8.532,8.532,0,0,0-8.532-8.532h-19.2a10.665,10.665,0,1,1,10.665-10.665,2.133,2.133,0,0,0,4.266,0,14.931,14.931,0,1,0-25.359,10.665h-4.5a2.133,2.133,0,0,0,0,4.266Zm19.2,3.383-4.266,4.266-4.266-4.266v-3.383h8.532Z" transform="translate(-1601.212 -2834.724)"/>
      <path id="Trazado_19203" data-name="Trazado 19203" d="M1854.536,2850.781a2.133,2.133,0,0,1-2.133-2.133,2.133,2.133,0,0,0-4.266,0,6.4,6.4,0,0,0,4.266,6.006v2.526a2.133,2.133,0,1,0,4.266,0v-2.526a6.384,6.384,0,0,0-2.133-12.405,2.133,2.133,0,1,1,2.133-2.133,2.133,2.133,0,0,0,4.266,0,6.4,6.4,0,0,0-4.266-6.006v-2.525a2.133,2.133,0,1,0-4.266,0v2.525a6.384,6.384,0,0,0,2.133,12.405,2.133,2.133,0,1,1,0,4.266Z" transform="translate(-1747.888 -2823.051)"/>
      <path id="Trazado_19204" data-name="Trazado 19204" d="M1819.333,2896.647a2.133,2.133,0,0,0-2.133,2.133v12.8a6.4,6.4,0,0,1-6.4,6.4h-8.532a2.133,2.133,0,0,0,0,4.266h8.532a10.677,10.677,0,0,0,10.665-10.665V2900.8a21.358,21.358,0,0,0,19.2-21.221,2.133,2.133,0,0,0-4.266,0A17.082,17.082,0,0,1,1819.333,2896.647Z" transform="translate(-1712.686 -2858.253)"/>
      <path id="Trazado_19205" data-name="Trazado 19205" d="M1794.27,2828.91a2.133,2.133,0,0,0,2.133-2.133,17.043,17.043,0,0,1,29.755-11.373,2.133,2.133,0,1,0,3.173-2.849,21.308,21.308,0,0,0-37.194,14.222A2.133,2.133,0,0,0,1794.27,2828.91Z" transform="translate(-1706.819 -2805.446)"/>
      <path id="Trazado_19206" data-name="Trazado 19206" d="M1474.27,2835.461a2.133,2.133,0,0,0,2.133-2.133v-12.676h8.359l-5.758,7.2a2.134,2.134,0,1,0,3.332,2.666l4.732-5.917v17.26a2.133,2.133,0,1,0,4.266,0v-21.208h4.266v21.208a2.133,2.133,0,1,0,4.266,0V2824.6l4.734,5.917a2.134,2.134,0,0,0,3.332-2.666l-5.76-7.2h10.492a2.133,2.133,0,1,0,0-4.266h-8.041a6.4,6.4,0,0,0-.11-8.912,6.553,6.553,0,0,0-9.048,0,14.881,14.881,0,0,0-2,2.765,14.779,14.779,0,0,0-1.994-2.774,6.555,6.555,0,0,0-9.05,0,6.4,6.4,0,0,0-.111,8.92h-8.041a2.133,2.133,0,0,0-2.133,2.133v14.809A2.133,2.133,0,0,0,1474.27,2835.461Zm25.717-25.6a2.133,2.133,0,0,1,1.508,3.641,13.362,13.362,0,0,1-5.841,2.88h-.055a13.238,13.238,0,0,1,2.89-5.9A2.108,2.108,0,0,1,1499.987,2809.865Zm-14.549.625a2.134,2.134,0,0,1,3.016,0,13.242,13.242,0,0,1,2.88,5.9h-.063a13.364,13.364,0,0,1-5.841-2.88A2.134,2.134,0,0,1,1485.438,2810.49Z" transform="translate(-1472.137 -2805.598)"/>
      <path id="Trazado_19207" data-name="Trazado 19207" d="M1474.27,2960.238a2.133,2.133,0,0,0,2.133-2.133v-6.521a2.133,2.133,0,0,0-4.266,0v6.521A2.133,2.133,0,0,0,1474.27,2960.238Z" transform="translate(-1472.137 -2911.057)"/>
      <path id="Trazado_19208" data-name="Trazado 19208" d="M1922.27,3141.451a2.133,2.133,0,1,0,0,4.266,2.133,2.133,0,0,1,2.133,2.133v19.2a2.133,2.133,0,0,1-2.133,2.133,2.133,2.133,0,1,0,0,4.266,6.4,6.4,0,0,0,6.4-6.4v-19.2A6.4,6.4,0,0,0,1922.27,3141.451Z" transform="translate(-1800.691 -3051.865)"/>
      <path id="Trazado_19209" data-name="Trazado 19209" d="M1814.536,3133.979a2.133,2.133,0,0,1-2.133-2.133v-19.2a2.133,2.133,0,0,1,2.133-2.133h2.133a2.133,2.133,0,0,0,2.133-2.133v-7.649l9.157,9.157a2.133,2.133,0,0,0,3.016-3.016l-12.8-12.8a2.134,2.134,0,0,0-3.641,1.508v10.665a6.4,6.4,0,0,0-6.4,6.4v19.2a6.4,6.4,0,0,0,6.4,6.4,2.133,2.133,0,1,0,0-4.266Z" transform="translate(-1718.553 -3016.666)"/>
      <path id="Trazado_19210" data-name="Trazado 19210" d="M1842.27,3181.451a2.133,2.133,0,0,0,0,4.266h4.266a2.133,2.133,0,0,0,0-4.266Z" transform="translate(-1742.021 -3081.201)"/>
      <path id="Trazado_19211" data-name="Trazado 19211" d="M1894.536,3181.451h-4.266a2.133,2.133,0,1,0,0,4.266h4.266a2.133,2.133,0,0,0,0-4.266Z" transform="translate(-1777.223 -3081.201)"/>
      <path id="Trazado_19212" data-name="Trazado 19212" d="M1855.068,3213.45h-12.8a2.133,2.133,0,0,0,0,4.266h12.8a2.133,2.133,0,0,0,0-4.266Z" transform="translate(-1742.021 -3104.668)"/>
      <path id="Trazado_19213" data-name="Trazado 19213" d="M1520.764,3193.7a2.132,2.132,0,0,0,3.016,0l8.532-8.532a2.133,2.133,0,0,0-3.016-3.016l-8.532,8.532A2.134,2.134,0,0,0,1520.764,3193.7Z" transform="translate(-1507.342 -3081.273)"/>
      <path id="Trazado_19214" data-name="Trazado 19214" d="M1524.4,3183.584a2.133,2.133,0,1,1-2.133-2.133A2.133,2.133,0,0,1,1524.4,3183.584Z" transform="translate(-1507.339 -3081.201)"/>
      <path id="Trazado_19215" data-name="Trazado 19215" d="M1556.4,3215.584a2.133,2.133,0,1,1-2.133-2.133A2.133,2.133,0,0,1,1556.4,3215.584Z" transform="translate(-1530.807 -3104.668)"/>
      <path id="Trazado_19216" data-name="Trazado 19216" d="M1536.131,2977.839a2.133,2.133,0,1,0,0-4.266H1506.98a2.132,2.132,0,0,0-2.843,2.011v10.665a10.678,10.678,0,0,0,10.665,10.665h8.532a2.133,2.133,0,1,0,0-4.266H1514.8a6.4,6.4,0,0,1-6.4-6.4v-8.41Z" transform="translate(-1495.605 -2928.658)"/>
    </g>
  </g>
</svg>
