<svg xmlns="http://www.w3.org/2000/svg" width="124" height="124" viewBox="0 0 124 124">
  <g id="Grupo_13047" data-name="Grupo 13047" transform="translate(-1420.693 -2201.269)">
    <g id="Grupo_13045" data-name="Grupo 13045" transform="translate(1422.499 2203.166)">
      <path id="Trazado_19090" data-name="Trazado 19090" d="M1653.571,2243.291l1.323-.886h25.43l1.2.886a21,21,0,1,0-27.95,0Z" transform="translate(-1568.181 -2206.613)" fill="#3f6d8e"/>
      <g id="Grupo_13041" data-name="Grupo 13041" transform="translate(78.363 0)">
        <path id="Trazado_19091" data-name="Trazado 19091" d="M1654.6,2227.615A21.009,21.009,0,0,1,1671.573,2207a21,21,0,0,0-18,36.291l1.323-.887h5.8A20.93,20.93,0,0,1,1654.6,2227.615Z" transform="translate(-1646.544 -2206.612)" fill="#365e7d"/>
      </g>
      <path id="Trazado_19092" data-name="Trazado 19092" d="M1576.85,2334.252h-3.534a1.486,1.486,0,0,1-1.4-.983,15.172,15.172,0,0,0-.587-1.417,1.485,1.485,0,0,1,.3-1.687l2.5-2.5a1.493,1.493,0,0,0,0-2.111l-3.736-3.736a1.492,1.492,0,0,0-2.111,0l-2.5,2.5a1.486,1.486,0,0,1-1.687.3,15.089,15.089,0,0,0-1.417-.586,1.486,1.486,0,0,1-.983-1.4v-3.535a1.493,1.493,0,0,0-1.493-1.493h-5.283a1.493,1.493,0,0,0-1.493,1.493v3.535a1.487,1.487,0,0,1-.983,1.4,15.3,15.3,0,0,0-1.417.586,1.485,1.485,0,0,1-1.687-.3l-2.5-2.5a1.492,1.492,0,0,0-2.111,0l-3.735,3.736a1.493,1.493,0,0,0,0,2.111l2.5,2.5a1.487,1.487,0,0,1,.3,1.687,15.038,15.038,0,0,0-.587,1.416,1.485,1.485,0,0,1-1.4.983h-3.534a1.493,1.493,0,0,0-1.493,1.493v5.283a1.492,1.492,0,0,0,1.493,1.492h3.534a1.486,1.486,0,0,1,1.4.983,15.206,15.206,0,0,0,.587,1.417,1.486,1.486,0,0,1-.3,1.687l-2.5,2.5a1.493,1.493,0,0,0,0,2.111l3.735,3.736a1.492,1.492,0,0,0,2.111,0l2.5-2.5a1.487,1.487,0,0,1,1.688-.3,14.993,14.993,0,0,0,1.416.587,1.485,1.485,0,0,1,.983,1.4v3.534a1.493,1.493,0,0,0,1.493,1.493h5.283a1.492,1.492,0,0,0,1.493-1.493v-3.534a1.485,1.485,0,0,1,.983-1.4,15.224,15.224,0,0,0,1.417-.587,1.487,1.487,0,0,1,1.688.3l2.5,2.5a1.493,1.493,0,0,0,2.111,0l3.736-3.736a1.492,1.492,0,0,0,0-2.111l-2.5-2.5a1.486,1.486,0,0,1-.3-1.687,15.17,15.17,0,0,0,.586-1.417,1.487,1.487,0,0,1,1.4-.983h3.534a1.492,1.492,0,0,0,1.493-1.492v-5.283a1.493,1.493,0,0,0-1.493-1.492Zm-19.3,12.012a7.878,7.878,0,1,1,7.878-7.878,7.878,7.878,0,0,1-7.878,7.878Z" transform="translate(-1497.371 -2278.202)" fill="#ffe07d"/>
      <circle id="Elipse_711" data-name="Elipse 711" cx="7.064" cy="7.064" r="7.064" transform="translate(92.301 6.875)" fill="#ffdecf"/>
      <path id="Trazado_19093" data-name="Trazado 19093" d="M1694.79,2238.041a7.063,7.063,0,0,1,1.539-11.156,7.064,7.064,0,1,0,0,12.321A7.088,7.088,0,0,1,1694.79,2238.041Z" transform="translate(-1593.509 -2219.107)" fill="#ffcebe"/>
      <path id="Trazado_19094" data-name="Trazado 19094" d="M1686.212,2284.486H1674.42a8.079,8.079,0,0,0-8.079,8.079v.957a21,21,0,0,0,27.95,0v-.957A8.079,8.079,0,0,0,1686.212,2284.486Z" transform="translate(-1580.951 -2256.844)" fill="#ffaa5b"/>
      <path id="Trazado_19095" data-name="Trazado 19095" d="M1676.816,2292.323a8.081,8.081,0,0,1,6.113-7.837h-8.509a8.079,8.079,0,0,0-8.079,8.079v.957a20.926,20.926,0,0,0,10.475,5.03Z" transform="translate(-1580.951 -2256.844)" fill="#ff9838"/>
      <path id="Trazado_19096" data-name="Trazado 19096" d="M1432.808,2243.291l1.323-.886h25.43l1.2.886a21,21,0,1,0-27.95,0Z" transform="translate(-1425.781 -2206.613)" fill="#3f6d8e"/>
      <g id="Grupo_13042" data-name="Grupo 13042" transform="translate(0 0)">
        <path id="Trazado_19097" data-name="Trazado 19097" d="M1433.834,2227.615A21.008,21.008,0,0,1,1450.81,2207a21,21,0,0,0-18,36.291l1.323-.887h5.8A20.928,20.928,0,0,1,1433.834,2227.615Z" transform="translate(-1425.781 -2206.612)" fill="#365e7d"/>
      </g>
      <circle id="Elipse_712" data-name="Elipse 712" cx="7.064" cy="7.064" r="7.064" transform="translate(13.938 6.875)" fill="#ffdecf"/>
      <path id="Trazado_19098" data-name="Trazado 19098" d="M1474.027,2238.041a7.063,7.063,0,0,1,1.539-11.156,7.064,7.064,0,1,0,0,12.321A7.077,7.077,0,0,1,1474.027,2238.041Z" transform="translate(-1451.109 -2219.107)" fill="#ffcebe"/>
      <path id="Trazado_19099" data-name="Trazado 19099" d="M1465.448,2284.486h-11.792a8.079,8.079,0,0,0-8.079,8.079v.957a21,21,0,0,0,27.95,0v-.957A8.079,8.079,0,0,0,1465.448,2284.486Z" transform="translate(-1438.55 -2256.844)" fill="#dd636e"/>
      <path id="Trazado_19100" data-name="Trazado 19100" d="M1456.052,2292.323a8.082,8.082,0,0,1,6.113-7.837h-8.508a8.079,8.079,0,0,0-8.079,8.079v.957a20.927,20.927,0,0,0,10.475,5.03Z" transform="translate(-1438.55 -2256.844)" fill="#da4a54"/>
      <path id="Trazado_19101" data-name="Trazado 19101" d="M1653.571,2464.054l1.323-.886h25.43l1.2.886a21,21,0,1,0-27.95,0Z" transform="translate(-1568.181 -2349.012)" fill="#3f6d8e"/>
      <g id="Grupo_13043" data-name="Grupo 13043" transform="translate(78.363 78.363)">
        <path id="Trazado_19102" data-name="Trazado 19102" d="M1654.6,2448.377a21.009,21.009,0,0,1,16.976-20.615,21,21,0,0,0-18,36.291l1.323-.886h5.8a20.931,20.931,0,0,1-6.095-14.79Z" transform="translate(-1646.544 -2427.375)" fill="#365e7d"/>
      </g>
      <circle id="Elipse_713" data-name="Elipse 713" cx="7.064" cy="7.064" r="7.064" transform="translate(92.301 85.238)" fill="#ffdecf"/>
      <path id="Trazado_19103" data-name="Trazado 19103" d="M1694.79,2458.8a7.062,7.062,0,0,1,1.539-11.155,7.064,7.064,0,1,0,0,12.321,7.081,7.081,0,0,1-1.539-1.166Z" transform="translate(-1593.509 -2361.507)" fill="#ffcebe"/>
      <path id="Trazado_19104" data-name="Trazado 19104" d="M1686.212,2505.249H1674.42a8.079,8.079,0,0,0-8.079,8.079v.957a21,21,0,0,0,27.95,0v-.957A8.079,8.079,0,0,0,1686.212,2505.249Z" transform="translate(-1580.951 -2399.243)" fill="#90d8f9"/>
      <path id="Trazado_19105" data-name="Trazado 19105" d="M1676.816,2513.086a8.081,8.081,0,0,1,6.113-7.837h-8.509a8.079,8.079,0,0,0-8.079,8.079v.957a20.932,20.932,0,0,0,10.475,5.03Z" transform="translate(-1580.951 -2399.243)" fill="#75cef9"/>
      <path id="Trazado_19106" data-name="Trazado 19106" d="M1432.808,2464.054l1.323-.886h25.43l1.2.886a21,21,0,1,0-27.95,0Z" transform="translate(-1425.781 -2349.012)" fill="#3f6d8e"/>
      <g id="Grupo_13044" data-name="Grupo 13044" transform="translate(0 78.363)">
        <path id="Trazado_19107" data-name="Trazado 19107" d="M1433.834,2448.377a21.008,21.008,0,0,1,16.976-20.615,21,21,0,0,0-18,36.291l1.323-.886h5.8a20.929,20.929,0,0,1-6.095-14.79Z" transform="translate(-1425.781 -2427.375)" fill="#365e7d"/>
      </g>
      <circle id="Elipse_714" data-name="Elipse 714" cx="7.064" cy="7.064" r="7.064" transform="translate(13.938 85.238)" fill="#ffdecf"/>
      <path id="Trazado_19108" data-name="Trazado 19108" d="M1474.027,2458.8a7.062,7.062,0,0,1,1.539-11.155,7.064,7.064,0,1,0,0,12.321,7.07,7.07,0,0,1-1.539-1.166Z" transform="translate(-1451.109 -2361.507)" fill="#ffcebe"/>
      <path id="Trazado_19109" data-name="Trazado 19109" d="M1465.448,2505.249h-11.792a8.079,8.079,0,0,0-8.079,8.079v.957a21,21,0,0,0,27.95,0v-.957A8.08,8.08,0,0,0,1465.448,2505.249Z" transform="translate(-1438.55 -2399.243)" fill="#b3e59f"/>
      <path id="Trazado_19110" data-name="Trazado 19110" d="M1456.052,2513.086a8.082,8.082,0,0,1,6.113-7.837h-8.508a8.079,8.079,0,0,0-8.079,8.079v.957a20.933,20.933,0,0,0,10.475,5.03Z" transform="translate(-1438.55 -2399.243)" fill="#95d6a4"/>
      <path id="Trazado_19111" data-name="Trazado 19111" d="M1548.1,2338.386a20.8,20.8,0,0,1,13.576-19.5,1.492,1.492,0,0,0-1.476-1.287h-5.283a1.492,1.492,0,0,0-1.493,1.493v3.534a1.486,1.486,0,0,1-.983,1.4,15.081,15.081,0,0,0-1.417.587,1.486,1.486,0,0,1-1.687-.3l-2.5-2.5a1.493,1.493,0,0,0-2.111,0l-3.736,3.736a1.493,1.493,0,0,0,0,2.111l2.5,2.5a1.486,1.486,0,0,1,.3,1.688,15.079,15.079,0,0,0-.586,1.417,1.486,1.486,0,0,1-1.4.983h-3.534a1.492,1.492,0,0,0-1.493,1.493v5.283a1.492,1.492,0,0,0,1.493,1.492h3.534a1.486,1.486,0,0,1,1.4.984,15.074,15.074,0,0,0,.586,1.416,1.486,1.486,0,0,1-.3,1.688l-2.5,2.5a1.493,1.493,0,0,0,0,2.111l3.736,3.736a1.492,1.492,0,0,0,2.111,0l2.5-2.5a1.487,1.487,0,0,1,1.688-.3,15.034,15.034,0,0,0,1.416.587,1.485,1.485,0,0,1,.983,1.4v3.535a1.493,1.493,0,0,0,1.493,1.493h5.283a1.492,1.492,0,0,0,1.477-1.287,20.794,20.794,0,0,1-13.576-19.5Z" transform="translate(-1497.37 -2278.202)" fill="#ffd064"/>
    </g>
    <g id="Grupo_13046" data-name="Grupo 13046" transform="translate(1420.693 2201.269)">
      <path id="Trazado_19112" data-name="Trazado 19112" d="M1536.431,2348.975l3.736,3.736a3.308,3.308,0,0,0,4.68,0l2.338-2.338c.375.171.76.331,1.148.475v3.306a3.313,3.313,0,0,0,3.309,3.309h5.283a3.313,3.313,0,0,0,3.309-3.309v-3.306c.388-.145.773-.3,1.148-.475l2.338,2.338a3.314,3.314,0,0,0,4.679,0l3.736-3.736a3.313,3.313,0,0,0,0-4.68l-2.338-2.338c.172-.375.331-.76.476-1.148h3.306a3.312,3.312,0,0,0,3.309-3.309v-5.283a3.313,3.313,0,0,0-3.309-3.309h-3.306c-.144-.388-.3-.772-.476-1.148l2.339-2.338a3.313,3.313,0,0,0,0-4.679l-3.736-3.736a3.314,3.314,0,0,0-4.68,0l-2.337,2.338c-.375-.171-.76-.331-1.148-.475v-3.307a3.313,3.313,0,0,0-3.309-3.309h-5.283a3.313,3.313,0,0,0-3.309,3.309v3.307c-.389.145-.773.3-1.148.475l-2.338-2.338a3.307,3.307,0,0,0-4.68,0l-3.736,3.736a3.313,3.313,0,0,0,0,4.68l2.338,2.337c-.172.375-.331.76-.475,1.148h-3.306a3.313,3.313,0,0,0-3.309,3.309v5.283a3.313,3.313,0,0,0,3.309,3.309h3.306c.145.389.3.773.475,1.148l-2.338,2.338A3.312,3.312,0,0,0,1536.431,2348.975Zm2.091-11.8h-3.211v-4.635h3.211a3.308,3.308,0,0,0,3.113-2.19,13.332,13.332,0,0,1,.516-1.247,3.309,3.309,0,0,0-.652-3.751l-2.27-2.27,3.278-3.277,2.27,2.27a3.309,3.309,0,0,0,3.752.651c.4-.191.822-.365,1.246-.516a3.308,3.308,0,0,0,2.191-3.113v-3.211h4.635v3.211a3.308,3.308,0,0,0,2.19,3.113,13.4,13.4,0,0,1,1.247.516,3.309,3.309,0,0,0,3.751-.652l2.27-2.27,3.278,3.277-2.271,2.27a3.309,3.309,0,0,0-.651,3.751,13.468,13.468,0,0,1,.516,1.247,3.308,3.308,0,0,0,3.113,2.19h3.211v4.635h-3.211a3.308,3.308,0,0,0-3.112,2.19,13.4,13.4,0,0,1-.517,1.247,3.309,3.309,0,0,0,.652,3.751l2.27,2.271-3.278,3.277-2.271-2.271a3.309,3.309,0,0,0-3.751-.651,13.37,13.37,0,0,1-1.246.516,3.308,3.308,0,0,0-2.191,3.113v3.21h-4.635v-3.21a3.308,3.308,0,0,0-2.19-3.113,13.416,13.416,0,0,1-1.247-.517,3.309,3.309,0,0,0-3.751.652l-2.27,2.27-3.278-3.277,2.271-2.271a3.311,3.311,0,0,0,.651-3.751,13.206,13.206,0,0,1-.516-1.246,3.309,3.309,0,0,0-3.113-2.19Z" transform="translate(-1492.282 -2272.859)"/>
      <path id="Trazado_19113" data-name="Trazado 19113" d="M1577.742,2368.012a9.695,9.695,0,1,0-9.695-9.695A9.706,9.706,0,0,0,1577.742,2368.012Zm0-15.756a6.062,6.062,0,1,1-6.062,6.062A6.069,6.069,0,0,1,1577.742,2352.256Z" transform="translate(-1515.741 -2296.317)"/>
      <path id="Trazado_19114" data-name="Trazado 19114" d="M1443.512,2246.906a22.819,22.819,0,1,0-22.819-22.819A22.833,22.833,0,0,0,1443.512,2246.906Zm12.159-7.989a19.146,19.146,0,0,1-24.317,0,6.267,6.267,0,0,1,6.262-6.373h11.792a6.266,6.266,0,0,1,6.263,6.373Zm-12.159-34.015a19.173,19.173,0,0,1,15.28,30.771,9.911,9.911,0,0,0-9.385-6.761h-11.792a9.911,9.911,0,0,0-9.384,6.761,19.173,19.173,0,0,1,15.28-30.771Z" transform="translate(-1420.693 -2201.269)"/>
      <path id="Trazado_19115" data-name="Trazado 19115" d="M1664.275,2422.031a22.819,22.819,0,1,0,22.819,22.819A22.845,22.845,0,0,0,1664.275,2422.031Zm12.158,37.648a19.142,19.142,0,0,1-24.317,0,6.267,6.267,0,0,1,6.263-6.373h11.792A6.266,6.266,0,0,1,1676.433,2459.679Zm3.122-3.244a9.91,9.91,0,0,0-9.384-6.762h-11.792a9.91,9.91,0,0,0-9.384,6.762,19.186,19.186,0,1,1,30.559,0Z" transform="translate(-1563.093 -2343.668)"/>
      <path id="Trazado_19116" data-name="Trazado 19116" d="M1475.115,2235.792a8.875,8.875,0,0,0,0-12.559h0a8.88,8.88,0,1,0,0,12.559Zm-9.99-9.99a5.253,5.253,0,0,1,7.421,0h0a5.248,5.248,0,1,1-7.421,0Z" transform="translate(-1446.017 -2213.758)"/>
      <path id="Trazado_19117" data-name="Trazado 19117" d="M1462.568,2456.566a8.88,8.88,0,1,0,12.559-12.559h0a8.88,8.88,0,1,0-12.558,12.559Zm2.569-9.99a5.248,5.248,0,1,1,0,7.421A5.253,5.253,0,0,1,1465.136,2446.576Z" transform="translate(-1446.028 -2356.168)"/>
      <path id="Trazado_19118" data-name="Trazado 19118" d="M1683.331,2223.244a8.88,8.88,0,1,0,12.559,0h0a8.89,8.89,0,0,0-12.559,0Zm9.99,9.99a5.247,5.247,0,1,1,0-7.421h0A5.244,5.244,0,0,1,1693.321,2233.233Z" transform="translate(-1588.429 -2213.768)"/>
      <path id="Trazado_19119" data-name="Trazado 19119" d="M1695.89,2444.007a8.88,8.88,0,1,0,0,12.559,8.89,8.89,0,0,0,0-12.559Zm-2.569,9.99a5.248,5.248,0,1,1,0-7.421A5.253,5.253,0,0,1,1693.321,2454Z" transform="translate(-1588.429 -2356.168)"/>
      <path id="Trazado_19120" data-name="Trazado 19120" d="M1582.718,2264.068a1.817,1.817,0,0,0,0-3.633h-22.858a1.817,1.817,0,0,0,0,3.633Z" transform="translate(-1509.288 -2239.433)"/>
      <path id="Trazado_19121" data-name="Trazado 19121" d="M1559.86,2481.2a1.816,1.816,0,0,0,0,3.633h22.858a1.816,1.816,0,0,0,0-3.633Z" transform="translate(-1509.289 -2381.833)"/>
      <path id="Trazado_19122" data-name="Trazado 19122" d="M1483.493,2363.294v-22.858a1.816,1.816,0,1,0-3.633,0v22.858a1.816,1.816,0,1,0,3.633,0Z" transform="translate(-1458.858 -2289.865)"/>
      <path id="Trazado_19123" data-name="Trazado 19123" d="M1704.255,2363.294v-22.858a1.817,1.817,0,0,0-3.633,0v22.858a1.817,1.817,0,0,0,3.633,0Z" transform="translate(-1601.257 -2289.865)"/>
      <path id="Trazado_19124" data-name="Trazado 19124" d="M1683.1,2220.385a1.816,1.816,0,1,0,3.565-.7,22.818,22.818,0,1,0-.084,9.206,1.816,1.816,0,0,0-3.552-.762,18.961,18.961,0,0,1-3.48,7.534,9.91,9.91,0,0,0-9.382-6.755h-11.792a9.911,9.911,0,0,0-9.384,6.761,19.182,19.182,0,1,1,34.108-15.288Zm-24.724,12.159h11.792a6.27,6.27,0,0,1,6.262,6.263v.089a19.109,19.109,0,0,1-24.317.021A6.267,6.267,0,0,1,1658.379,2232.544Z" transform="translate(-1563.093 -2201.269)"/>
      <path id="Trazado_19125" data-name="Trazado 19125" d="M1443.512,2468.446a22.821,22.821,0,0,0,4.6-45.173,1.817,1.817,0,1,0-.729,3.559,19.175,19.175,0,0,1,11.406,30.381,9.911,9.911,0,0,0-9.384-6.762h-11.792a9.91,9.91,0,0,0-9.384,6.762,19.175,19.175,0,0,1,11.406-30.381,1.817,1.817,0,0,0-.729-3.559,22.821,22.821,0,0,0,4.6,45.173Zm-5.9-14.362h11.792a6.266,6.266,0,0,1,6.263,6.373,19.144,19.144,0,0,1-24.317,0A6.266,6.266,0,0,1,1437.616,2454.084Z" transform="translate(-1420.693 -2344.446)"/>
    </g>
  </g>
</svg>
