<svg xmlns="http://www.w3.org/2000/svg" width="930" height="271.814" viewBox="0 0 930 271.814">
  <g id="Grupo_12743" data-name="Grupo 12743" transform="translate(-1095.924 -772.429)">
    <path id="Trazado_17954" data-name="Trazado 17954" d="M1136.024,1042.538s-75.972-115.306,13.453-170.335c49.9-30.7,118.026,23.813,168.622-58.6,29.443-47.962,132.481-62.519,184.006,2.96s95.819,65.149,131.371,53.037c40.77-13.89,58.681-55.7,122.5-46.858,73.76,10.219,63.885,72.167,118.237,61.38,104.815-20.8,182.471,98.044,110.019,159.237Z" transform="translate(2.245 0)" fill="#e9f3fe"/>
    <path id="Trazado_17955" data-name="Trazado 17955" d="M2016.762,994.706H1097.772a.9.9,0,0,1-.892-.892h0a.9.9,0,0,1,.892-.892h918.991a.894.894,0,0,1,.892.892h0A.894.894,0,0,1,2016.762,994.706Z" transform="translate(0.215 49.537)" fill="#2e3552"/>
    <g id="Grupo_12732" data-name="Grupo 12732" transform="translate(1706.164 834.812)">
      <path id="Trazado_17956" data-name="Trazado 17956" d="M1655.672,856.77s-23.651,24.842-30.112,27c-10.286,3.434-18.09,5.651-22.414,7.12h0s-5.334-.618-7.085.75-2.245,2.152-1.533,2.746,7.381.173,8.618,0,4.957-.5,4.957-.5l-.141-.086a133.281,133.281,0,0,0,20.915-2.765c6.65-1.724,27.5-18.244,30.188-21.841C1666.479,859.288,1660.424,854.418,1655.672,856.77Z" transform="translate(-1594.214 -815.994)" fill="#ed975d"/>
      <path id="Trazado_17957" data-name="Trazado 17957" d="M1668.888,856.68c-1.2-.241-3.269-4.606-3.23-11.674l-.541.105-9.1,1.786s.2,2.863.2,5.561a22.916,22.916,0,0,1-.209,3.6c-1.756.065-2.942.143-2.942.143s-7.107,6.311-7.682,9.679,12.974,3.283,17.572,2.873,5.932-12.072,5.932-12.072Z" transform="translate(-1582.723 -818.506)" fill="#ffb27d"/>
      <path id="Trazado_17958" data-name="Trazado 17958" d="M1654.061,846.878s.2,2.863.2,5.561c5.092-.135,7.791-4.774,8.9-7.347Z" transform="translate(-1580.769 -818.487)" fill="#ed975d"/>
      <path id="Trazado_17959" data-name="Trazado 17959" d="M1676.616,824.536c-2.016-1.239-5.241.231-5.241.231,1.117-1.565,5.183-1.045,5.183-1.045-8.121-1.744-9.807,3.465-9.938,3.923-5.112-4.63-12.926,3.342-14.853,5.469-1.9,1.653-3.757,4.891-.868,12.09l.868,2.814,10.975.791,2.05,2.727s1.236-2.845,2.861-1.953c2.534,1.39,7.451-4.208,5.9-11.588a19.644,19.644,0,0,0-.6-2.195,4.393,4.393,0,0,0,1.684.42c1.476,0,3.712-3.76,4.016-5.025S1678.633,825.776,1676.616,824.536Z" transform="translate(-1581.816 -823.367)" fill="#2c3a64"/>
      <path id="Trazado_17960" data-name="Trazado 17960" d="M1653.4,852.36s12.046.22,12.068-7.283,1.592-12.528-6.1-12.986-9.194,2.4-9.81,4.9S1650.268,852.109,1653.4,852.36Z" transform="translate(-1581.813 -821.419)" fill="#ffb27d"/>
      <path id="Trazado_17961" data-name="Trazado 17961" d="M1662.376,842.242c5.059,1.312,7.257-.042,7.257-.042a14.332,14.332,0,0,1-4.673-8.476s-7.733-4.6-10.827-1.755c-.788-.678-2.192-1.171-4.055,1.079-2.8,3.379-.326,9.367-.326,9.367,1.146.136,1.424-3.8,2.028-5.707a9.451,9.451,0,0,1,2.633-3.5c.234.867,2.643,9.3,8.694,12.109a28.109,28.109,0,0,1-4.826-5.916A8.609,8.609,0,0,0,1662.376,842.242Z" transform="translate(-1581.964 -821.643)" fill="#2c3a64"/>
      <path id="Trazado_17962" data-name="Trazado 17962" d="M1662.488,915.812c-3.429,7.794-7.789,17.94-11.61,26.9-.787,1.841-1.55,3.632-2.278,5.342-3.843,9.021-6.7,15.788-6.7,15.788.24,21.287-29.584,47.212-29.584,47.212l-3.38-2.361s16.126-22.088,18.328-47.425a214.212,214.212,0,0,1,10.1-48c2.105-6.344,3.994-11.053,5.074-13.607a11.838,11.838,0,0,1,2.623-.539l16.529,16.155Z" transform="translate(-1590.907 -806.349)" fill="#2b478b"/>
      <path id="Trazado_17963" data-name="Trazado 17963" d="M1657.273,915.812c-3.429,7.794-7.789,17.94-11.61,26.9l-13.515-29.446c2.105-6.344,3.994-11.053,5.074-13.607a11.837,11.837,0,0,1,2.623-.539l16.53,16.155Z" transform="translate(-1585.692 -806.349)" fill="#233862"/>
      <path id="Trazado_17964" data-name="Trazado 17964" d="M1688.944,1008.524l-3.645,1.294s-13.561-38.873-19.176-44.857c-10.851-11.563-26.822-61.984-26.822-61.984l24.606-7.005c3.2,3.1,9.442,9.946,10.05,23.811.669,15.268,2.16,32.994,2.436,36.44v.009a1.2,1.2,0,0,0,.342.7C1693.538,975.625,1688.944,1008.524,1688.944,1008.524Z" transform="translate(-1584.085 -807.056)" fill="#2b478b"/>
      <path id="Trazado_17965" data-name="Trazado 17965" d="M1680.211,867.918a53.536,53.536,0,0,1-3.222,7.211s-12.01,19.377-11.609,21.239,6.5,15.414,5.168,16.272c-7.066,4.555-35.486,2.633-34.962-.909s4.465-10.329,4.686-17.992c.117-4.158-.4-9.383-.268-14.288,0-.176.01-.352.017-.528a17.982,17.982,0,0,1-3.062-3.673,11.282,11.282,0,0,1-1.952-6.815s7.894-9.73,10.935-11.906,9.457-2.383,9.457-2.383-4.944,6.311-5.054,8.5,12.991,2.956,15.035,1.533,5.842-9.554,5.842-9.554,8.189.318,9.832,3.368C1682.333,860.37,1681.468,864.377,1680.211,867.918Z" transform="translate(-1585.056 -816.452)" fill="#699dee"/>
      <path id="Trazado_17966" data-name="Trazado 17966" d="M1639.641,873.851a25.506,25.506,0,0,1,.005,3.338c0-.176.01-.351.017-.528a17.983,17.983,0,0,1-3.062-3.673,4.369,4.369,0,0,1,1.78-3.846c4.709-4.215,5.969-4.926,5.969-4.926S1639.531,871.551,1639.641,873.851Z" transform="translate(-1584.698 -814.19)" fill="#4a75cb"/>
      <path id="Trazado_17967" data-name="Trazado 17967" d="M1672.067,872.6s-12.01,19.377-11.609,21.239c-11.506-21.986,7.894-27.282,14.831-28.45A53.542,53.542,0,0,1,1672.067,872.6Z" transform="translate(-1580.133 -813.926)" fill="#4a75cb"/>
      <path id="Trazado_17968" data-name="Trazado 17968" d="M1620.717,993.734s-.213-.524-.465-1.263a10.709,10.709,0,0,1-.78-3.992,2.69,2.69,0,0,0-.235-1.653c-.251-.516-2.361,1.337-3.408.459-2.026-1.7-2.49-1.844-2.588-1.846l-.023,0s-4.437,2.818-5.6,3.868a11.609,11.609,0,0,1-5.451,2.506,1.534,1.534,0,0,0-1.007.923c-.254.66-.512,1.558-.24,1.943l10.773-.023.023-.024a2.349,2.349,0,0,1,2.052-.5c.871.111,1.5.356,2.349.488l2.536-.005C1620.84,994.342,1620.717,993.734,1620.717,993.734Z" transform="translate(-1592.733 -786.955)" fill="#233862"/>
      <path id="Trazado_17969" data-name="Trazado 17969" d="M1685.36,993.771s-.211-.524-.462-1.263a10.736,10.736,0,0,1-.773-3.995,2.669,2.669,0,0,0-.231-1.654,2.556,2.556,0,0,0-.583-.791s-1.781,2.124-2.825,1.243c-2.022-1.706-2.486-1.849-2.583-1.85l-.025,0s-4.443,2.808-5.6,3.856a11.622,11.622,0,0,1-5.457,2.492,1.535,1.535,0,0,0-1.009.922c-.255.659-.514,1.555-.244,1.942h10.773l.023-.024a2.348,2.348,0,0,1,2.054-.494c.871.114,1.5.359,2.348.494h2.536C1685.482,994.381,1685.36,993.771,1685.36,993.771Z" transform="translate(-1578.21 -786.951)" fill="#233862"/>
    </g>
    <path id="Trazado_17970" data-name="Trazado 17970" d="M1385.073,888.617l-1.489.723a1.837,1.837,0,0,1-.119-.185C1383.465,889.139,1384.977,888.646,1385.073,888.617Z" transform="translate(64.601 26.104)" fill="#ee9849"/>
    <g id="Grupo_12734" data-name="Grupo 12734" transform="translate(1384.607 827.411)">
      <path id="Trazado_17971" data-name="Trazado 17971" d="M1360.757,821.758s-4.536-3.783-9.806-3.172-11.22,2.83-11.975,13.4,3.046,15.109-2.851,19.248-4.732,8.265-3.391,12.326c0,0,2.547-6.384,5.777-5.761,0,0-4.247,5.373-3.809,9.159s4.477,7.256,6.6,8.532a5.472,5.472,0,0,1,5.3-1.506c6.928,1.506,16.1-9.409,15.184-13.944S1360.757,821.758,1360.757,821.758Z" transform="translate(-1331.648 -817.056)" fill="#9b3d38"/>
      <path id="Trazado_17972" data-name="Trazado 17972" d="M1415.59,1009.856l-4.561.283a231.275,231.275,0,0,1-8.6-25.13,95.922,95.922,0,0,1-3.544-19.378c-.249-4.94-.422-8.731-.425-8.733-.18-.22-1.234-1.25-2.86-3.029-.54-.6-1.149-1.275-1.809-2.034a119.6,119.6,0,0,1-14.179-20.293c-.006-.009-.011-.018-.017-.029a110.3,110.3,0,0,1-6.809-14.755c-.01-.027-.023-.044-.029-.061s-4.425-10.15-5.364-15.769l0-.01c-.061-.37-.105-.721-.136-1.048a7.955,7.955,0,0,1-.032-.927l.174-.084,19.835-9.652a89.919,89.919,0,0,1,9.241,15.755c.3.652.594,1.318.9,1.992q.338.744.675,1.51c.055.122.11.249.165.374,6.987,15.848,14.144,38.882,15.7,48.425.6,3.685,1,13.984,1.252,24.506C1415.5,995.624,1415.59,1009.856,1415.59,1009.856Z" transform="translate(-1323.656 -801.175)" fill="#ee9849"/>
      <path id="Trazado_17973" data-name="Trazado 17973" d="M1398.21,908.872,1395.6,953.9c-.54-.6-1.149-1.275-1.809-2.034a119.6,119.6,0,0,1-14.179-20.293c-.006-.009-.011-.018-.017-.029a122.614,122.614,0,0,1-6.809-15.242.409.409,0,0,0-.032-.07,123.157,123.157,0,0,1-5.361-15.273l0-.01c-.061-.37-.105-.721-.136-1.048a7.954,7.954,0,0,1-.032-.927l.174-.084s19.6-9.521,20.6-9.836a141.994,141.994,0,0,1,8.476,15.94c.3.651.594,1.318.9,1.992q.338.744.675,1.51C1398.1,908.621,1398.155,908.747,1398.21,908.872Z" transform="translate(-1323.656 -801.209)" fill="#e58638"/>
      <path id="Trazado_17974" data-name="Trazado 17974" d="M1391.158,961.111c-1.5,4.078-6.786,16.133-11.665,27.114-4.828,10.866-9.265,20.681-9.265,20.681l-4.507.46a203.922,203.922,0,0,1,.363-22.92c.795-10.293,2.687-21.255,6.99-26.347a.866.866,0,0,0,.047-.814l0-.01c-.6-1.811-3.02-9.234-5.468-18.616-.594-2.276-1.19-4.665-1.762-7.121-.83-3.556-1.61-7.249-2.262-10.914-.012-.062-.023-.121-.033-.179-.31-.823-.806-2.211-1.361-4.054a81.3,81.3,0,0,1-2.289-9.838c-.016-.116-.038-.233-.056-.352-1.429-8.748-.37-13.909-.37-13.909s16.365-2.148,21.6-3.95,8.438-1.449,8.438-1.449S1394.532,951.963,1391.158,961.111Z" transform="translate(-1325.472 -801.251)" fill="#ee9849"/>
      <path id="Trazado_17975" data-name="Trazado 17975" d="M1424.617,892.666c-.345-.572-3.167-3.384-9.473-4.637a8.93,8.93,0,0,1-2.295-1.424v0c-5.832-4.365-11.955-9.187-19.053-13.758-3.77-2.428-9.42-8-15.294-13.57-2.972-2.819-6.005-5.64-8.879-8.051-1.547-1.3-13.779,6.521-12.689,7.958,5.769,7.611,20.5,16.262,28.751,21.647,7.244,4.726,18.008,8.553,23.145,10.232l-.011.006s2.737.852,2.927,1a43.093,43.093,0,0,0,5.112,3.875c1.73.93,4.3.6,7.106-.266C1425.819,895.106,1425.185,893.611,1424.617,892.666Z" transform="translate(-1325.983 -809.74)" fill="#ed975d"/>
      <path id="Trazado_17976" data-name="Trazado 17976" d="M1377.342,859.632c-.653,2.661-2.578,7.529-7.956,7.954-6.894.543-10.734-15.708-3.381-18.072.964.812.912.769,2.459,2.067C1371.337,853.993,1374.37,856.813,1377.342,859.632Z" transform="translate(-1324.823 -810.093)" fill="#233862"/>
      <path id="Trazado_17977" data-name="Trazado 17977" d="M1364.419,822.83c-2.528-2.068-13.272-10.16-17.336-1.787,0,0-4.147,2.51-4.6,10.287-.463,7.935,6.538,13.689,8.961,11.843,1.554-1.183,3.551,1.732,3.551,1.732l2-4.349,9.756-2.195.463-3.068C1369.1,827.338,1366.661,824.253,1364.419,822.83Z" transform="translate(-1329.219 -817.325)" fill="#a9453d"/>
      <path id="Trazado_17978" data-name="Trazado 17978" d="M1361.438,916.1c-4.365-10.391-21.133-50.412-8.705-68.6.105-.053.211-.1.315-.146,4.659-2.051,12.683-.9,14.869.928,10.78,9,12.55,14.694,13.674,22.225,1.164,7.8,2.626,15.856,8.779,24.373a39.427,39.427,0,0,0,2.623,3.25C1400.822,906.862,1363.777,921.667,1361.438,916.1Z" transform="translate(-1327.923 -810.823)" fill="#2b478b"/>
      <path id="Trazado_17979" data-name="Trazado 17979" d="M1364.759,849.218c.425.583,3.351,2.35-3.65,2.35-5.462,0-9.421-1.917-9.2-2.245.713-1.069,1.516-3.839.251-11.18l.58.016,9.771.278s.287,3.011.753,5.816A16.691,16.691,0,0,0,1364.759,849.218Z" transform="translate(-1327.098 -812.647)" fill="#ffb27d"/>
      <path id="Trazado_17980" data-name="Trazado 17980" d="M1362.358,838.434s.286,3.011.753,5.816c-5.316.743-8.928-3.613-10.525-6.094Z" transform="translate(-1326.944 -812.644)" fill="#ed975d"/>
      <path id="Trazado_17981" data-name="Trazado 17981" d="M1364.817,844.259s-12.519,2.117-13.718-5.7-3.623-12.807,4.319-14.49,9.957,1.062,10.992,3.574S1368.043,843.507,1364.817,844.259Z" transform="translate(-1327.571 -815.925)" fill="#ffb27d"/>
      <path id="Trazado_17982" data-name="Trazado 17982" d="M1365.993,823.634c-2.294-2.053-3.68-1.32-4.4-.49-7.767-2.537-11.009,3.527-11.009,3.527a15.112,15.112,0,0,1-3.542,9.566s2.5,1.064,7.57-1.094a9.076,9.076,0,0,0,3.821-3.593,29.628,29.628,0,0,1-4.1,6.917c5.855-3.871,7.052-13.018,7.162-13.982a9.931,9.931,0,0,1,3.293,3.231c.928,1.9,1.835,5.951,3.007,5.63C1367.8,833.345,1369.439,826.716,1365.993,823.634Z" transform="translate(-1328.188 -816.205)" fill="#a9453d"/>
      <path id="Trazado_17983" data-name="Trazado 17983" d="M1389.743,892.081a56.971,56.971,0,0,1-38.724-33.362s27.746,7.53,31.227,10.287C1383.41,876.81,1383.764,883.561,1389.743,892.081Z" transform="translate(-1327.296 -808.025)" fill="#233862"/>
      <path id="Trazado_17984" data-name="Trazado 17984" d="M1378.316,970.324c-4.828,10.866-9.265,20.681-9.265,20.681l-4.507.461a203.956,203.956,0,0,1,.363-22.92C1367.312,969.779,1371.572,971.066,1378.316,970.324Z" transform="translate(-1324.294 -783.35)" fill="#ffb27d"/>
      <path id="Trazado_17985" data-name="Trazado 17985" d="M1409.131,992.876l-4.561.283a231.267,231.267,0,0,1-8.6-25.13c3.107.152,9.369,0,12.733-3.24C1409.04,978.644,1409.131,992.876,1409.131,992.876Z" transform="translate(-1317.196 -784.194)" fill="#ffb27d"/>
      <g id="Grupo_12733" data-name="Grupo 12733" transform="translate(38.069 205.362)">
        <path id="Trazado_17986" data-name="Trazado 17986" d="M1420.831,992.856a1.619,1.619,0,0,0-1.054-.981,12.227,12.227,0,0,1-5.729-2.675c-1.214-1.116-5.871-4.114-5.871-4.114l-.024-.006c-.1,0-.594.148-2.739,1.928-1.109.919-2.966-1.335-2.966-1.335a2.668,2.668,0,0,0-.623.829,2.821,2.821,0,0,0-.257,1.74,11.317,11.317,0,0,1-.85,4.2c-.271.776-.5,1.328-.5,1.328s-.134.641,2.164.948l2.672.022c.9-.133,1.559-.387,2.479-.5a2.476,2.476,0,0,1,2.159.538l.025.027,11.354.1C1421.359,994.5,1421.093,993.555,1420.831,992.856Z" transform="translate(-1354.312 -984.998)" fill="#2b478b"/>
        <path id="Trazado_17987" data-name="Trazado 17987" d="M1382.263,991.638a12.238,12.238,0,0,1-5.767-2.592c-1.23-1.1-5.929-4.028-5.929-4.028l-.025-.005c-.1,0-.592.156-2.711,1.967-1.095.933-2.984-1.293-2.984-1.293a2.654,2.654,0,0,0-.611.838,2.827,2.827,0,0,0-.233,1.744,11.314,11.314,0,0,1-.789,4.215c-.261.78-.48,1.335-.48,1.335s-.124.642,2.177.916l2.672-.016c.9-.146,1.554-.409,2.471-.534a2.475,2.475,0,0,1,2.168.507c.017.017.024.026.024.026l11.353-.066c.284-.409,0-1.353-.269-2.047A1.613,1.613,0,0,0,1382.263,991.638Z" transform="translate(-1362.733 -985.013)" fill="#2b478b"/>
      </g>
    </g>
    <g id="Grupo_12735" data-name="Grupo 12735" transform="translate(1191.557 910.996)">
      <path id="Trazado_17988" data-name="Trazado 17988" d="M1174.019,889.838l-.007-2.3,671.4-1.964.007,2.3L1226.9,889.255Z" transform="translate(-1174.013 -885.575)" fill="#233862"/>
    </g>
    <g id="man" transform="translate(1562.207 824.486)">
      <path id="Trazado_17989" data-name="Trazado 17989" d="M1495.58,882.909s-8.079-1.719-11.419.48-5.817,5.85-3.723,6.677,8.483-.928,9.6-1.6,4.45-1.617,4.833-2.034S1495.58,882.909,1495.58,882.909Z" transform="translate(-1475.993 -799.808)" fill="#ffb27d"/>
      <path id="Trazado_17990" data-name="Trazado 17990" d="M1559.934,840.234s33.791,24.295,33.791,35.18c0,5.48-8.219,20.348-27.309,22.48l-2.844-5.234s16.108-12.762,15.171-14.089-22.049-14.619-22.049-23.043A39.811,39.811,0,0,1,1559.934,840.234Z" transform="translate(-1458.687 -809.252)" fill="#e58638"/>
      <path id="Trazado_17991" data-name="Trazado 17991" d="M1495.183,983.488s-5.714,6.087-13.386,7.072c0,0-5.13.043-5.13,4.754h27.145a45.1,45.1,0,0,0,.629-6.341c.132-3.127,4.486-6.343,4.486-6.343Z" transform="translate(-1476.667 -777.26)" fill="#233862"/>
      <path id="Trazado_17992" data-name="Trazado 17992" d="M1556.277,985.812s-1.562,4.546-7.822,5.35c0,0-4.186.036-4.186,3.88h22.148a16.7,16.7,0,0,0-1.1-5.7,48.667,48.667,0,0,0-2.727-5.7Z" transform="translate(-1461.479 -777.033)" fill="#233862"/>
      <path id="Trazado_17993" data-name="Trazado 17993" d="M1577.556,913.488s-21.773,41.112-18.258,47.575c7.457,13.715,9.648,41.786,8.809,43.738a16.336,16.336,0,0,1-13.41,2.294s-20.343-42.517-19.881-56.391c.638-19.078,22.871-48.53,22.871-48.53Z" transform="translate(-1463.605 -795.337)" fill="#233862"/>
      <path id="Trazado_17994" data-name="Trazado 17994" d="M1565.861,844.383s-2.6,9.771-11.484,10.385a25.17,25.17,0,0,1-4.836-6.012c-.169-.354-.335-.694-.495-1.019-1.569-3.223-2.536-4.99-2.536-4.99l.007,0c.274-.3,9.252-10.124,9.422-9.74C1559.883,841.86,1565.861,844.383,1565.861,844.383Z" transform="translate(-1460.975 -810.879)" fill="#ffb27d"/>
      <path id="Trazado_17995" data-name="Trazado 17995" d="M1555.808,835.147c-.135,2.5-1.984,8.126-6.761,12.117-1.569-3.223-2.536-4.99-2.536-4.99l.007,0C1546.787,842.04,1555.85,834.41,1555.808,835.147Z" transform="translate(-1460.975 -810.406)" fill="#ed975d"/>
      <path id="Trazado_17996" data-name="Trazado 17996" d="M1546.039,846.19s13.908-2.96,11.932-11.593-1.512-14.83-10.476-13.3-9.93,5.212-9.971,8.254S1542.37,846.736,1546.039,846.19Z" transform="translate(-1462.995 -813.56)" fill="#ffb27d"/>
      <path id="Trazado_17997" data-name="Trazado 17997" d="M1547.284,907.213s-37.6,67.55-58.519,93.862c0,0,6.044,5.058,15.687,2.144,0,0,31.331-25.374,40.246-39.775s28.714-38.96,41.831-48.9Z" transform="translate(-1473.949 -794.204)" fill="#2b478b"/>
      <path id="Trazado_17998" data-name="Trazado 17998" d="M1585.975,893.826s-1.995,31.9-8.421,35.821c-7.385,4.509-45.014-1.691-42.632-6.016a54.648,54.648,0,0,0,4.894-12.1,78.541,78.541,0,0,0,2.192-28.06,75.293,75.293,0,0,1-.049-12.6c.639-7.8,2.548-14.691,5.593-18.4,4.628-5.646,17.3-12.239,17.3-12.239S1587.472,849.593,1585.975,893.826Z" transform="translate(-1463.603 -809.252)" fill="#ee9849"/>
      <path id="Trazado_17999" data-name="Trazado 17999" d="M1538.9,907.075a78.539,78.539,0,0,0,2.192-28.06,75.279,75.279,0,0,1-.049-12.6c2.657-4.034,6.453-6.572,11.828-6.332C1552.87,860.088,1562.562,888.5,1538.9,907.075Z" transform="translate(-1462.685 -804.795)" fill="#e58638"/>
      <path id="Trazado_18000" data-name="Trazado 18000" d="M1561.226,847.693s-21.49,20.189-33.065,28.439c0,0-36.284,12.313-37.26,13.588a8.307,8.307,0,0,0,1.417,5.12s35.742-2.876,41.992-5.2,31.113-15.894,33.206-18.728S1571.635,845.734,1561.226,847.693Z" transform="translate(-1473.471 -807.604)" fill="#ee9849"/>
      <path id="Trazado_18001" data-name="Trazado 18001" d="M1561.516,818.516c.107-.168.388-.332,1.045-.462a2.681,2.681,0,0,0-1.286-.179c-.272-.915-1-2.5-2.637-2.677a2.034,2.034,0,0,1,1.168,1.318c-2.105-1.653-6.235-2.487-17-.071-14.182,3.187-8.131,11.844-6.116,12.691s6.258-2.863,9.757-3.075,4.879,4.772,6.151,5.3.637-.637,2.121-1.591,2.016,1.7,1.8,3.5,2.3,3.785,2.3,3.785l1.863-2.725c1.863-2.725,2.492-13.237,1.18-15.273C1561.75,818.882,1561.635,818.7,1561.516,818.516Z" transform="translate(-1463.858 -814.936)" fill="#2b478b"/>
    </g>
    <g id="Grupo_12736" data-name="Grupo 12736" transform="translate(1862.826 910.769)">
      <path id="Trazado_18002" data-name="Trazado 18002" d="M1862.689,990.764a45.24,45.24,0,0,1-21.826-5.172,41.637,41.637,0,0,1-15.409-14.674,37.91,37.91,0,0,1-4.045-8.543c-7.109-18.875-16.746-34.533-28.642-46.539a95.01,95.01,0,0,0-32.586-21.691c-20.621-8.172-37.6-6.258-37.77-6.237l-.274-2.283a64.255,64.255,0,0,1,11.467.01,95,95,0,0,1,27.424,6.373,97.251,97.251,0,0,1,33.372,22.21c12.135,12.244,21.952,28.188,29.177,47.387l.029.088a36.011,36.011,0,0,0,3.852,8.09,39.317,39.317,0,0,0,14.532,13.8c10.949,5.9,24.666,5.114,41.118.211a1.644,1.644,0,0,1,2.07,1.192h0a2.092,2.092,0,0,1-1.445,2.5A75.836,75.836,0,0,1,1862.689,990.764Z" transform="translate(-1722.137 -885.391)" fill="#2b478b"/>
    </g>
    <path id="Trazado_18003" data-name="Trazado 18003" d="M1450.441,895.794a36.41,36.41,0,0,0-3.92-6.18.8.8,0,0,0,.372-.141c.47-.385,2.01-2.737,1.8-3.037s-2.1-1.661-2.866-1.24c0,0-2.782.874-1.222,4.136-1.4.5-3.675,1.661-3.566,3.838a39.074,39.074,0,0,1,0,4.9,4.26,4.26,0,0,0,3.452-3.255,32.352,32.352,0,0,0,1.115-5.2c.151.013.306.023.457.026a12.889,12.889,0,0,1-.258,5.523c-1,4,4.1,7.524,4.175,9.407C1449.972,904.574,1451.461,898.3,1450.441,895.794Z" transform="translate(77.534 25.317)" fill="#ee9849"/>
    <g id="Grupo_12739" data-name="Grupo 12739" transform="translate(1261.62 807.824)">
      <path id="Trazado_18004" data-name="Trazado 18004" d="M1328.627,979.883s5.719,4.285,14.483,2.021c0,0,7.066-1.61,8.615,1.914,0,0-10.837,5.506-13.579,7.011a32.781,32.781,0,0,0-5.749,4.311,2.842,2.842,0,0,1-4.115-.318c-.476-.585-1.023-1.283-1.62-2.094-1.67-2.263-5.563-9.578-5.563-9.578Z" transform="translate(-1211.031 -761.216)" fill="#233862"/>
      <path id="Trazado_18005" data-name="Trazado 18005" d="M1346.164,996.852s-3.483,8.031-11.522,6.554c0,0-16.4-13.547-27.658-27.621a62.5,62.5,0,0,1-8.594-13.431c-7.462-17.276-27.6-43.043-40.407-56.1l32.037-11.59s10.262,20.643,23.915,46C1323.776,958.929,1335.373,979.646,1346.164,996.852Z" transform="translate(-1225.211 -780.363)" fill="#2b478b"/>
      <path id="Trazado_18006" data-name="Trazado 18006" d="M1313.936,940.659l-6.951,35.126a62.5,62.5,0,0,1-8.594-13.431c-7.462-17.276-27.6-43.043-40.407-56.1l32.037-11.59S1300.282,915.3,1313.936,940.659Z" transform="translate(-1225.211 -780.363)" fill="#233862"/>
      <g id="Grupo_12737" data-name="Grupo 12737" transform="translate(14.846 46.747)">
        <path id="Trazado_18007" data-name="Trazado 18007" d="M1306.066,879.452l2.551,2.072s6.978-2.5,8.553,5.79c0,0,.42,3.534-1.818,3.541s-1.316-.386-4.486-.294-5.8-1.577-6.261-4.15l-1.516-2.18Z" transform="translate(-1229.923 -830.526)" fill="#9c5f33"/>
        <path id="Trazado_18008" data-name="Trazado 18008" d="M1319.2,892.874c2.035-2.126,1.871-3.7,1.871-3.7s-23.568-19.3-25.958-20.867c-1.629-1.073-18.985-16.459-27.1-25.839-4.024-4.654-9.01-2.849-14.713-1.211l-4.7,1.347c-5.671,1.627-7.146,9.558-2.494,13.414,13.105,10.855,34.908,23.064,38.987,25.631,10.127,6.369,29.948,13.939,29.948,13.939A12.552,12.552,0,0,0,1319.2,892.874Z" transform="translate(-1243.345 -839.502)" fill="#4a75cb"/>
      </g>
      <path id="Trazado_18009" data-name="Trazado 18009" d="M1284.4,984.333s-.349,6.407,7.419,7.262c0,0,4.439.023,4.452,4.1l-22.578.072a17.577,17.577,0,0,1-.814-5.169c-.122-2.705,2.623-9.779,2.623-9.779Z" transform="translate(-1221.865 -761.006)" fill="#233862"/>
      <path id="Trazado_18010" data-name="Trazado 18010" d="M1281.271,894.922s14.273,15.683,23.333,43.937c4.929,15.372-9.034,54.022-11.757,67.451,0,0-9.368.795-15.773-1.681,0,0-.487-27.736,3.259-49.114,2.1-11.964-18.791-25.587-27.919-47.2-6.209-14.707,1.345-14.457,10.627-14.811Z" transform="translate(-1226.971 -780.624)" fill="#2b478b"/>
      <path id="Trazado_18011" data-name="Trazado 18011" d="M1259.811,837.61a65.306,65.306,0,0,0-.927-9.316l-12.93-6.569c3,12.157-3.6,19.7-3.6,19.7s16.255,4.136,24.2-.348A20.825,20.825,0,0,0,1259.811,837.61Z" transform="translate(-1228.723 -796.749)" fill="#9c5f33"/>
      <path id="Trazado_18012" data-name="Trazado 18012" d="M1263.488,829.1s-11.833,8.491-17.007,1.042-10.186-11.372-2.85-17.107,10.793-3.924,13.126-1.858S1266.432,826.7,1263.488,829.1Z" transform="translate(-1229.264 -799.568)" fill="#ab7041"/>
      <path id="Trazado_18013" data-name="Trazado 18013" d="M1296.763,907.385c0,1.395-1.608,2.064-1.948,2.131-3.2.586-12.146,4.065-20.2,4.862a64.622,64.622,0,0,1-20-1.353c-.916-.185-3.068-.763-3.22-1.642-.191-.959-26.688-54.015-6.09-76.807.484-.534,4.55.429,8.269,1.31a15.256,15.256,0,0,0,9.4-.767l3.488,1.835c4.283,2.386,12.385,10.864,13.333,17.516.481,3.383,2.416,5.888,2.976,8.864.208,1.1.42,2.176.635,3.223q.634,3.082,1.305,5.871c1.211,5.031,2.49,9.363,3.745,13.105,1.337,3.972,2.648,7.277,3.818,10.041,1.519,3.585,2.8,6.263,3.6,8.314A10.261,10.261,0,0,1,1296.763,907.385Z" transform="translate(-1229.82 -793.897)" fill="#739af0"/>
      <path id="Trazado_18014" data-name="Trazado 18014" d="M1294.4,900.586c-37.4-17.622-50.357-51.461-50.357-51.461s30.389,11.211,37.884,14.129q.634,3.083,1.305,5.871c1.211,5.031,2.49,9.363,3.745,13.105,1.337,3.972,2.648,7.277,3.818,10.041C1292.31,895.856,1293.594,898.534,1294.4,900.586Z" transform="translate(-1228.344 -790.593)" fill="#4a75cb"/>
      <g id="Grupo_12738" data-name="Grupo 12738" transform="translate(10.677 48.419)">
        <path id="Trazado_18015" data-name="Trazado 18015" d="M1303.336,882.845l3.232,1.184s6.472-4.577,10.5,2.867c0,0,1.457,3.251-.85,3.958s-1.468.042-4.711,1.122-6.438.3-7.663-2.016l-2.2-1.612Z" transform="translate(-1226.077 -831.483)" fill="#ab7041"/>
        <path id="Trazado_18016" data-name="Trazado 18016" d="M1319.86,896.8c1.2-3.118,1.74-4.53,1.74-4.53s-24.422-19.908-26.911-21.615c-1.7-1.163-18.578-13.782-26.809-23.616a17.22,17.22,0,0,0-16.746-5.8l-5.126,1.075a7.625,7.625,0,0,0-3.4,13.251c13.525,11.594,36.337,25.042,40.589,27.84,10.559,6.944,33.915,16.674,33.915,16.674A6.016,6.016,0,0,0,1319.86,896.8Z" transform="translate(-1239.941 -840.868)" fill="#739af0"/>
      </g>
      <path id="Trazado_18017" data-name="Trazado 18017" d="M1259.965,806.209a19.02,19.02,0,0,0-1.379-4.878s-.742,3.075-6.363,2.651-14.53.552-17.5,6.957c-.189.408-.358.828-.507,1.257a14.823,14.823,0,0,1-.668-3.548c-1.068,2.758,0,6.207,0,6.207h0c-.016.1-.029.2-.044.3-1.24,1.048-2.283,4.31-2.283,4.31a3.909,3.909,0,0,1,2.1-1.869c-.024,4.984,2,9.857,5.544,11.307,5.188,2.121,5.146.5,10.363,3.963,0,0,1.4-1.735.446-2.9s-4.561-2.863-2.546-4.561,2.758.212,3.5-.954-2.97-4.561,1.8-7.742S1260.389,809.073,1259.965,806.209Z" transform="translate(-1231.223 -801.331)" fill="#233862"/>
    </g>
    <g id="Grupo_12740" data-name="Grupo 12740" transform="translate(1095.924 910.853)">
      <path id="Trazado_18018" data-name="Trazado 18018" d="M1112.364,985.279c-1.268-4.328-27.751-22.765-10.782-48.325,9.631-14.506,21.337-37.5,34.713-45.823,16.73-10.412,34-3.238,55.262-3.565l.006,2.3c-20.83.321-37.025-7.546-53.392,2.639-13.1,8.153-25.843,30.857-34.574,45.547-15.8,26.584,12.244,41.591,12.09,46.665C1115.617,987.047,1112.615,986.135,1112.364,985.279Z" transform="translate(-1095.923 -885.459)" fill="#233862"/>
    </g>
    <g id="Grupo_12741" data-name="Grupo 12741" transform="translate(1122.243 819.898)">
      <path id="Trazado_18019" data-name="Trazado 18019" d="M1153.056,985.62s1.605,4.668,8.031,5.494c0,0,4.3.035,4.3,3.983h-22.736a17.135,17.135,0,0,1,1.124-5.85,50.207,50.207,0,0,1,2.8-5.851Z" transform="translate(-1111.746 -772.501)" fill="#233862"/>
      <path id="Trazado_18020" data-name="Trazado 18020" d="M1174.758,968.4c-5.98,17.711-16.2,39.073-16.2,39.073a16.771,16.771,0,0,1-13.766-2.354c-.86-2,1.389-30.82,9.044-44.9,1.2-2.2-.467-8.332-3.228-15.535-5.547-14.482-15.515-33.3-15.515-33.3l20.4-11.618s22.824,30.235,23.481,49.821C1179.111,953.858,1177.326,960.789,1174.758,968.4Z" transform="translate(-1113.444 -791.291)" fill="#ee9849"/>
      <path id="Trazado_18021" data-name="Trazado 18021" d="M1210,883.655s7.043-1.288,9.7,1.156,4.8,5.648,1.3,5.818c-3.641.176-5.855-.218-6.749-.974s-3.661-1.913-3.952-2.361A17.535,17.535,0,0,1,1210,883.655Z" transform="translate(-1096.615 -794.985)" fill="#ffb27d"/>
      <path id="Trazado_18022" data-name="Trazado 18022" d="M1152.1,836.173s-34.69,26.267-34.69,36.115c0,5.626,9.776,19.21,32.685,24.051l4.031-5.69s-20.052-15.139-19.09-16.5,20.39-13.627,20.39-22.277A40.872,40.872,0,0,0,1152.1,836.173Z" transform="translate(-1117.415 -805.577)" fill="#1e3d70"/>
      <path id="Trazado_18023" data-name="Trazado 18023" d="M1217.678,983.237s5.866,6.247,13.742,7.26c0,0,5.265.044,5.265,4.88h-27.866a46.507,46.507,0,0,1-.645-6.51c-.135-3.21-4.6-6.51-4.6-6.51Z" transform="translate(-1098.059 -772.734)" fill="#233862"/>
      <path id="Trazado_18024" data-name="Trazado 18024" d="M1174.758,968.4l-24.152-23.716c-5.547-14.482-15.515-33.3-15.515-33.3l20.4-11.618s22.824,30.235,23.481,49.821C1179.111,953.858,1177.326,960.789,1174.758,968.4Z" transform="translate(-1113.444 -791.291)" fill="#e58638"/>
      <path id="Trazado_18025" data-name="Trazado 18025" d="M1142.691,840.432s2.666,10.031,11.787,10.662c0,0,3.548-3.228,4.965-6.172.175-.363.345-.713.509-1.046,1.609-3.309,2.6-5.123,2.6-5.123l-.007,0c-.281-.312-9.5-10.394-9.672-10C1148.828,837.843,1142.691,840.432,1142.691,840.432Z" transform="translate(-1111.736 -807.247)" fill="#ffb27d"/>
      <path id="Trazado_18026" data-name="Trazado 18026" d="M1151.118,830.951c.138,2.562,2.036,8.342,6.941,12.439,1.609-3.309,2.6-5.123,2.6-5.123l-.007,0C1160.379,838.028,1151.074,830.195,1151.118,830.951Z" transform="translate(-1109.843 -806.761)" fill="#ed975d"/>
      <path id="Trazado_18027" data-name="Trazado 18027" d="M1163.283,842.287s-14.279-3.038-12.25-11.9,1.553-15.223,10.754-13.657,10.193,5.351,10.236,8.474S1167.048,842.849,1163.283,842.287Z" transform="translate(-1109.907 -809.998)" fill="#ffb27d"/>
      <path id="Trazado_18028" data-name="Trazado 18028" d="M1176.527,904.933s38.6,69.346,60.076,96.358c0,0-6.2,5.191-16.1,2.2,0,0-32.163-26.047-41.315-40.83s-29.478-40-42.943-50.2Z" transform="translate(-1113.186 -790.128)" fill="#ee9849"/>
      <path id="Trazado_18029" data-name="Trazado 18029" d="M1128.045,891.189s2.049,32.746,8.645,36.776c7.581,4.628,46.21-1.738,43.766-6.176a56.074,56.074,0,0,1-5.026-12.422,80.672,80.672,0,0,1-2.25-28.805,77.217,77.217,0,0,0,.05-12.931c-.656-8.007-2.615-15.081-5.741-18.893-4.752-5.8-17.758-12.564-17.758-12.564S1126.51,845.782,1128.045,891.189Z" transform="translate(-1115.043 -805.577)" fill="#2a4e96"/>
      <path id="Trazado_18030" data-name="Trazado 18030" d="M1169.725,904.791a80.672,80.672,0,0,1-2.25-28.805,77.23,77.23,0,0,0,.05-12.931c-2.727-4.141-6.624-6.745-12.141-6.5C1155.384,856.555,1145.435,885.723,1169.725,904.791Z" transform="translate(-1109.338 -801.001)" fill="#1e3d70"/>
      <path id="Trazado_18031" data-name="Trazado 18031" d="M1158.755,843.64s20.415,22.35,31.615,31.7c0,0,36.174,15.45,37.073,16.831,0,0-.029,3.221-1.852,5.13,0,0-36.358-5.746-42.575-8.613s-30.6-18.709-32.52-21.773S1148.253,840.817,1158.755,843.64Z" transform="translate(-1110.219 -803.953)" fill="#2a4e96"/>
      <path id="Trazado_18032" data-name="Trazado 18032" d="M1151.194,833.974c-.228.029-3.395-.425-3.713-13.328a10.05,10.05,0,0,1,4.454-8.061c3.392-2.226,11.349-1.484,17.5.107s6.009,5.407,5.833,9.227c-.184,4.01,2.546,8.669,2.546,8.669-6.152.425-10.182-6.23-12.515-6.548s-4.561,2.545-5.2,3.5-1.274,1.7-3.4-.425-2.862,3.076-2.862,4.137C1153.845,831.251,1153.1,833.725,1151.194,833.974Z" transform="translate(-1110.66 -811.189)" fill="#a9453d"/>
    </g>
    <path id="Trazado_18033" data-name="Trazado 18033" d="M1421.254,891.422c-.643-.179-3.421-.076-9.767-1.1a8.926,8.926,0,0,1-2.347-1.34v0c-5.987-4.148-12.281-8.748-19.542-13.056-5.087-3.022-13.644-11.393-21.607-18.031-1.127-.942-2.241-1.848-3.335-2.7-1.2-.936-2.266-1.765-3.141-2.449a5.349,5.349,0,0,0-6.39-.144,9.967,9.967,0,0,0-4.526,7.271c-.093,1.072.528,2.34,1.668,3.739a37.751,37.751,0,0,0,5.712,5.413c7.188,5.712,17.393,11.315,23.805,15.174,7.411,4.46,18.305,7.893,23.5,9.385l-.007,0s2.765.753,2.96.89,4.4,1.64,6.159,2.507,8.078,1.6,10.128-1.272S1422.57,891.788,1421.254,891.422Z" transform="translate(57.215 17.791)" fill="#ffb27d"/>
    <path id="Trazado_18034" data-name="Trazado 18034" d="M1368.3,857.91a22.435,22.435,0,0,1-10.313,11.465,38.848,38.848,0,0,1-5.883-5.576c-1.174-1.44-1.814-2.747-1.719-3.852a10.534,10.534,0,0,1,5.226-7.867,4.912,4.912,0,0,1,5.685.265c.96.753,2.174,1.7,3.57,2.786C1365.995,856.006,1367.143,856.94,1368.3,857.91Z" transform="translate(57.168 17.72)" fill="#2b478b"/>
    <path id="Trazado_18035" data-name="Trazado 18035" d="M1625.068,883.409a22.235,22.235,0,0,1-6.864.527c-2.71-.41-6.9,2.8-7.143,3.7s.82,2.95,2.3,2.95a3.641,3.641,0,0,0,3.046-1.411c.485-.724,2.865-.118,4.18-.97S1625.068,883.409,1625.068,883.409Z" transform="translate(115.726 24.933)" fill="#ffb27d"/>
    <path id="Trazado_18036" data-name="Trazado 18036" d="M1683.19,870.21c-1.131,1.513-6.148,5.431-12.076,9.593h0c-8.177,5.741-18.09,11.944-21.946,12.944-6.649,1.724-33.747,2.655-33.747.478,0-2.022,24.882-7.867,31.53-9.345,3.038-.675,9.463-6.511,15.548-12.653,7.238-7.306,13.993-15.044,13.993-15.044C1681.243,853.828,1690.6,860.3,1683.19,870.21Z" transform="translate(116.713 18.708)" fill="#ffb27d"/>
    <path id="Trazado_18037" data-name="Trazado 18037" d="M1674.553,870.21c-1.131,1.513-6.148,5.431-12.076,9.593h0c-6.289-2.027-8.095-6.267-8.614-8.578,7.238-7.306,13.993-15.044,13.993-15.044C1672.606,853.828,1681.966,860.3,1674.553,870.21Z" transform="translate(125.349 18.708)" fill="#699dee"/>
    <path id="Trazado_18038" data-name="Trazado 18038" d="M1733.746,882.769s-7.994-1.564-11.25.66-5.641,5.861-3.562,6.643,8.349-1.053,9.439-1.738,4.361-1.667,4.731-2.083S1733.746,882.769,1733.746,882.769Z" transform="translate(139.794 24.67)" fill="#ed975d"/>
    <path id="Trazado_18039" data-name="Trazado 18039" d="M1798.006,847.217s-25.08,20.5-36.358,28.823c0,0-35.573,12.729-36.515,14a8.184,8.184,0,0,0,1.481,5.026s35.191-3.417,41.316-5.807,30.417-16.177,32.434-19S1808.237,845.114,1798.006,847.217Z" transform="translate(141.361 16.771)" fill="#1e3d70"/>
    <g id="Grupo_12742" data-name="Grupo 12742" transform="translate(1825.531 828.448)">
      <path id="Trazado_18040" data-name="Trazado 18040" d="M1709.943,983.621s-5.636,6-13.2,6.973c0,0-5.058.042-5.058,4.688h26.766a44.621,44.621,0,0,0,.62-6.253c.13-3.084,4.423-6.253,4.423-6.253Z" transform="translate(-1691.684 -781.19)" fill="#233862"/>
      <path id="Trazado_18041" data-name="Trazado 18041" d="M1809.907,917.8c-12.935,9.806-40.8,34.918-49.592,49.119a57.643,57.643,0,0,1-8.693,10.186c-12.857,12.5-32.542,25.6-32.542,25.6-9.51,2.875-15.468-2.112-15.468-2.112,14.466-18.51,29.942-37.125,43.147-52.621,18.87-22.146,33.1-37.923,33.1-37.923Z" transform="translate(-1689.004 -797.529)" fill="#2b478b"/>
      <path id="Trazado_18042" data-name="Trazado 18042" d="M1801.991,917.8c-12.935,9.806-40.8,34.918-49.592,49.119a57.642,57.642,0,0,1-8.693,10.186l-4.862-29.132c18.87-22.146,33.1-37.923,33.1-37.923Z" transform="translate(-1681.089 -797.529)" fill="#233862"/>
      <path id="Trazado_18043" data-name="Trazado 18043" d="M1766.881,984.438s-1.873,5.445-9.37,6.409c0,0-5.013.042-5.013,4.646h26.528a20.021,20.021,0,0,0-1.312-6.826,58.445,58.445,0,0,0-3.267-6.826Z" transform="translate(-1678.021 -781.4)" fill="#233862"/>
      <path id="Trazado_18044" data-name="Trazado 18044" d="M1779.01,912.469s-34.8,29.528-33.736,39.86c1.391,13.516,20.518,52.329,20.518,52.329s3.33,1.946,11.747-2.863c0,0-.677-29.654-9.552-47.283-1.841-3.657,34.927-18.807,39.123-29.167s5.209-16.19,0-16.29S1779.01,912.469,1779.01,912.469Z" transform="translate(-1679.649 -797.753)" fill="#2b478b"/>
      <path id="Trazado_18045" data-name="Trazado 18045" d="M1731.142,886.194s-9.245-3.577-12.132-2.375c-3.64,1.516-5.87,4.153-3.972,5.3a16.485,16.485,0,0,0,9.8,1.554,29.7,29.7,0,0,0,5.034-1.178C1730.312,889.156,1731.142,886.194,1731.142,886.194Z" transform="translate(-1686.592 -803.478)" fill="#ffb27d"/>
      <path id="Trazado_18046" data-name="Trazado 18046" d="M1787.983,845.466s-1.686,9.826-10.358,11.214a24.771,24.771,0,0,1-5.282-5.477c-.2-.332-.392-.653-.577-.956-1.826-3.026-2.932-4.677-2.932-4.677l.007,0c.243-.322,8.191-10.761,8.391-10.4C1781.889,843.518,1787.983,845.466,1787.983,845.466Z" transform="translate(-1674.351 -814.355)" fill="#ffb27d"/>
      <path id="Trazado_18047" data-name="Trazado 18047" d="M1777.336,837.282c.087,2.463-1.231,8.156-5.57,12.5-1.826-3.026-2.932-4.677-2.932-4.677l.007,0C1769.085,844.85,1777.312,836.555,1777.336,837.282Z" transform="translate(-1674.351 -813.887)" fill="#ed975d"/>
      <path id="Trazado_18048" data-name="Trazado 18048" d="M1767.236,849.319s13.9-1.826,12.631-10.466-.331-14.695-9.261-13.894-10.166,4.35-10.444,7.337S1763.587,849.571,1767.236,849.319Z" transform="translate(-1676.302 -816.662)" fill="#ffb27d"/>
      <path id="Trazado_18049" data-name="Trazado 18049" d="M1810.908,892.579s.864,31.5-5.1,35.926c-6.854,5.08-44.356,2.318-42.4-2.138a53.078,53.078,0,0,0,3.488-11.034c.087-.418.169-.844.249-1.282a77.427,77.427,0,0,0-.327-27.751q-.2-1.145-.375-2.3a73.911,73.911,0,0,1-.788-10.068c-.062-7.718,1.2-14.653,3.864-18.57,4.048-5.952,15.907-13.549,15.907-13.549S1808.467,849.009,1810.908,892.579Z" transform="translate(-1675.587 -812.859)" fill="#2a4e96"/>
      <path id="Trazado_18050" data-name="Trazado 18050" d="M1784.042,860.424s1.865,34.768-17.718,50.727c.087-.417.169-.844.249-1.282a77.426,77.426,0,0,0-.327-27.751q-.2-1.144-.375-2.3C1771.18,869.479,1778,860.755,1784.042,860.424Z" transform="translate(-1675.017 -808.678)" fill="#1e3d70"/>
      <path id="Trazado_18051" data-name="Trazado 18051" d="M1794.779,849.091s-7.708.693-33.074,29.557c0,0-35.574,12.729-36.516,14a8.194,8.194,0,0,0,1.481,5.026s35.192-3.417,41.317-5.807,30.416-16.175,32.434-19S1805.01,846.989,1794.779,849.091Z" transform="translate(-1684.157 -811.255)" fill="#2a4e96"/>
      <path id="Trazado_18052" data-name="Trazado 18052" d="M1781.382,841.52s-1.588-.165-1.468-2.345-.06-5.008-1.787-4.371-1.727,2.05-2.5,1.272-1-4.242-6.252-4.159-7.265,2.038-9.764,1.119-2.858-4.6-2.858-4.6a4.2,4.2,0,0,0,1.846,1.626s-4.406-5.3.06-9.4,9.414-1.9,12.146-1.909c6.018-.009,9.912.11,12.115,3.929S1784.992,837.49,1781.382,841.52Z" transform="translate(-1677.087 -818.171)" fill="#2b478b"/>
    </g>
  </g>
</svg>
