<svg xmlns="http://www.w3.org/2000/svg" width="153" height="146.045" viewBox="0 0 153 146.045">
  <g id="Grupo_12844" data-name="Grupo 12844" transform="translate(-1508.617 -999.542)">
    <g id="Grupo_12819" data-name="Grupo 12819" transform="translate(1597.841 1001.926)">
      <circle id="Elipse_671" data-name="Elipse 671" cx="28.602" cy="28.602" r="28.602" fill="#fc7c54"/>
      <path id="Trazado_18333" data-name="Trazado 18333" d="M1691.66,1031.269a28.586,28.586,0,0,1-28.6,28.6v-57.2A28.586,28.586,0,0,1,1691.66,1031.269Z" transform="translate(-1634.456 -1002.667)" fill="#f35743"/>
      <circle id="Elipse_672" data-name="Elipse 672" cx="25.25" cy="25.25" r="25.25" transform="translate(3.352 3.352)" fill="#fce2c3"/>
      <path id="Trazado_18334" data-name="Trazado 18334" d="M1688.308,1032.31a25.279,25.279,0,0,1-25.25,25.25v-50.5A25.279,25.279,0,0,1,1688.308,1032.31Z" transform="translate(-1634.456 -1003.708)" fill="#fecfa0"/>
      <path id="Trazado_18335" data-name="Trazado 18335" d="M1665,1035.747a4.883,4.883,0,1,0-7.782,0,6.075,6.075,0,1,0,7.782,0Zm-5.423-2.946a1.531,1.531,0,1,1,1.531,1.531,1.533,1.533,0,0,1-1.531-1.531Zm1.531,10.329a2.723,2.723,0,1,1,2.723-2.723,2.726,2.726,0,0,1-2.723,2.723Z" transform="translate(-1632.555 -1008.654)" fill="#fc7c54"/>
      <path id="Trazado_18336" data-name="Trazado 18336" d="M1666.9,1035.747a4.879,4.879,0,0,0-3.847-7.828v3.352a1.531,1.531,0,0,1,0,3.061v3.354a2.722,2.722,0,0,1,0,5.443v3.352a6.07,6.07,0,0,0,3.847-10.734Z" transform="translate(-1634.456 -1008.654)" fill="#f35743"/>
      <path id="Trazado_18337" data-name="Trazado 18337" d="M1646.89,1028.063h-3.252a1.676,1.676,0,0,0,0,3.352h1.575v13.535a1.676,1.676,0,0,0,3.352,0v-15.211A1.677,1.677,0,0,0,1646.89,1028.063Z" transform="translate(-1629.455 -1008.688)" fill="#fc7c54"/>
      <path id="Trazado_18338" data-name="Trazado 18338" d="M1683.4,1031.827h-2.235V1029.6a1.676,1.676,0,1,0-3.352,0v2.232h-2.234a1.676,1.676,0,1,0,0,3.352h2.234v2.239a1.676,1.676,0,1,0,3.352,0v-2.239h2.235a1.676,1.676,0,1,0,0-3.352Z" transform="translate(-1637.027 -1008.654)" fill="#f35743"/>
    </g>
    <g id="Grupo_12828" data-name="Grupo 12828" transform="translate(1508.617 1003.019)">
      <path id="Trazado_18339" data-name="Trazado 18339" d="M1654.662,1094.509H1515.572a6.976,6.976,0,0,1-6.955-6.955v-76.5a6.976,6.976,0,0,1,6.955-6.955h139.091a6.975,6.975,0,0,1,6.955,6.955v76.5A6.977,6.977,0,0,1,1654.662,1094.509Z" transform="translate(-1508.617 -1004.1)" fill="#0e9347"/>
      <path id="Trazado_18340" data-name="Trazado 18340" d="M1660.076,1086.141a23.271,23.271,0,0,0-19.473,10.084,25.935,25.935,0,0,0-11.823-3.13,24.329,24.329,0,0,0-23.993,20.864h72.675a7.073,7.073,0,0,0,6.954-5.912A24.769,24.769,0,0,0,1660.076,1086.141Z" transform="translate(-1531.417 -1023.55)" fill="#0d8944"/>
      <path id="Trazado_18341" data-name="Trazado 18341" d="M1642.915,1089.716H1531.642a13.95,13.95,0,0,0-13.909-13.909v-48.682a13.95,13.95,0,0,0,13.909-13.909h111.273a13.95,13.95,0,0,0,13.909,13.909v48.682A13.95,13.95,0,0,0,1642.915,1089.716Z" transform="translate(-1510.778 -1006.261)" fill="#3bb54a"/>
      <g id="Grupo_12824" data-name="Grupo 12824" transform="translate(27.818 9.427)">
        <g id="Grupo_12820" data-name="Grupo 12820" transform="translate(47.638 53.164)">
          <path id="Trazado_18342" data-name="Trazado 18342" d="M1660.724,1086.141a23.272,23.272,0,0,0-19.473,10.084,25.934,25.934,0,0,0-11.823-3.13A23.886,23.886,0,0,0,1607.522,1107h56.68a13.877,13.877,0,0,1,13.561-13.909A25.133,25.133,0,0,0,1660.724,1086.141Z" transform="translate(-1607.522 -1086.141)" fill="#0e9347"/>
        </g>
        <g id="Grupo_12821" data-name="Grupo 12821" transform="translate(16.381)">
          <ellipse id="Elipse_673" data-name="Elipse 673" cx="27.818" cy="31.295" rx="27.818" ry="31.295" transform="translate(4.483 4.483)" fill="#0e9347"/>
          <path id="Trazado_18343" data-name="Trazado 18343" d="M1598.852,1088.011c-17.811,0-32.3-16.05-32.3-35.777s14.49-35.778,32.3-35.778,32.3,16.05,32.3,35.778S1616.663,1088.011,1598.852,1088.011Zm0-62.59c-12.867,0-23.336,12.028-23.336,26.813s10.469,26.813,23.336,26.813,23.336-12.028,23.336-26.813S1611.72,1025.421,1598.852,1025.421Z" transform="translate(-1566.551 -1016.456)"/>
        </g>
        <g id="Grupo_12822" data-name="Grupo 12822" transform="translate(0 28.823)">
          <circle id="Elipse_674" data-name="Elipse 674" cx="6.955" cy="6.955" r="6.955" fill="#0e9347"/>
        </g>
        <g id="Grupo_12823" data-name="Grupo 12823" transform="translate(83.454 28.823)">
          <circle id="Elipse_675" data-name="Elipse 675" cx="6.955" cy="6.955" r="6.955" fill="#0e9347"/>
        </g>
      </g>
      <path id="Trazado_18344" data-name="Trazado 18344" d="M1608.044,1053.391h-6.955a3.477,3.477,0,0,1,0-6.954h10.432a3.477,3.477,0,0,0,0-6.955h-3.477a3.477,3.477,0,0,0-6.954,0,10.432,10.432,0,1,0,0,20.864h6.955a3.477,3.477,0,0,1,0,6.955h-10.432a3.477,3.477,0,1,0,0,6.954h3.477a3.477,3.477,0,1,0,6.954,0,10.432,10.432,0,1,0,0-20.864Z" transform="translate(-1528.067 -1011.664)" fill="#89c763"/>
      <circle id="Elipse_676" data-name="Elipse 676" cx="24.341" cy="24.341" r="24.341" transform="translate(66.068 69.545)" fill="#ffca5d"/>
      <circle id="Elipse_677" data-name="Elipse 677" cx="24.341" cy="24.341" r="24.341" transform="translate(97.364 62.591)" fill="#f6b545"/>
      <path id="Trazado_18345" data-name="Trazado 18345" d="M1660.577,1086.141a24.341,24.341,0,1,0,24.341,24.341A24.191,24.191,0,0,0,1660.577,1086.141Zm0,41.727a17.386,17.386,0,1,1,17.386-17.386A17.217,17.217,0,0,1,1660.577,1127.868Z" transform="translate(-1538.873 -1023.55)" fill="#ffcb5b"/>
      <path id="Trazado_18346" data-name="Trazado 18346" d="M1668.141,1142.039h0a23.9,23.9,0,0,0,24.341-23.993h-.348a3.7,3.7,0,0,0-3.477,3.129,21.028,21.028,0,0,1-6.607,12.518,19.7,19.7,0,0,1-10.78,5.216A3.116,3.116,0,0,0,1668.141,1142.039Z" transform="translate(-1546.437 -1031.114)" fill="#f6b545"/>
      <path id="Trazado_18347" data-name="Trazado 18347" d="M1660.577,1086.595h0a23.9,23.9,0,0,0-24.341,23.993h.348a3.7,3.7,0,0,0,3.477-3.13,21.02,21.02,0,0,1,6.607-12.518,19.7,19.7,0,0,1,10.779-5.216A3.116,3.116,0,0,0,1660.577,1086.595Z" transform="translate(-1538.873 -1023.656)" fill="#ffe27a"/>
      <path id="Trazado_18348" data-name="Trazado 18348" d="M1647.786,1115.077a17.218,17.218,0,0,1,17.387-17.386,16.4,16.4,0,0,1,11.126,4.173,17.332,17.332,0,0,0-30.947,10.779,16.672,16.672,0,0,0,6.259,13.214A16.311,16.311,0,0,1,1647.786,1115.077Z" transform="translate(-1541.034 -1025.711)" fill="#f19920"/>
      <path id="Trazado_18349" data-name="Trazado 18349" d="M1681.329,1128.285a1.278,1.278,0,0,1-1.044-.348,1.681,1.681,0,0,1,0-2.434,11.6,11.6,0,0,0,3.13-8,1.739,1.739,0,1,1,3.477,0,16.052,16.052,0,0,1-3.825,10.431A3.777,3.777,0,0,1,1681.329,1128.285Z" transform="translate(-1549.192 -1030.574)" fill="#ffcb5b"/>
      <g id="Grupo_12825" data-name="Grupo 12825" transform="translate(97.711 69.546)">
        <path id="Trazado_18350" data-name="Trazado 18350" d="M1667.061,1125.236a3.284,3.284,0,0,1-3.477-3.477V1107.85a3.477,3.477,0,1,1,6.954,0v13.909A3.285,3.285,0,0,1,1667.061,1125.236Z" transform="translate(-1643.068 -1097.418)" fill="#f19920"/>
        <path id="Trazado_18351" data-name="Trazado 18351" d="M1673.551,1133.159a28.252,28.252,0,0,0-16.691-18.777,29.07,29.07,0,0,0-13.213-19.125,25.134,25.134,0,0,0-6.955,17.038,24.191,24.191,0,0,0,24.341,24.341A20.167,20.167,0,0,0,1673.551,1133.159Z" transform="translate(-1636.692 -1095.257)" fill="#f19920"/>
      </g>
      <g id="Grupo_12826" data-name="Grupo 12826" transform="translate(104.318 74.066)">
        <path id="Trazado_18352" data-name="Trazado 18352" d="M1651.611,1127.262a18.3,18.3,0,0,1-4.173-11.127,16.833,16.833,0,0,1,5.564-12.518,15.121,15.121,0,0,0-2.087-2.434,17.034,17.034,0,0,0-5.563,12.866A16.672,16.672,0,0,0,1651.611,1127.262Z" transform="translate(-1645.352 -1101.182)" fill="#e78825"/>
        <path id="Trazado_18353" data-name="Trazado 18353" d="M1663.583,1120.781v4.868a3.477,3.477,0,0,0,6.954,0v-.7A28.389,28.389,0,0,0,1663.583,1120.781Z" transform="translate(-1649.674 -1105.828)" fill="#e78825"/>
      </g>
      <path id="Trazado_18354" data-name="Trazado 18354" d="M1673.443,1133.267a22.242,22.242,0,0,0-2.782-6.607,16.825,16.825,0,0,1-10.084,3.477,17.217,17.217,0,0,1-17.386-17.386,17.039,17.039,0,0,1,5.563-12.867,21.2,21.2,0,0,0-5.563-4.172,25.137,25.137,0,0,0-6.955,17.038,24.191,24.191,0,0,0,24.341,24.341A23.314,23.314,0,0,0,1673.443,1133.267Z" transform="translate(-1538.873 -1025.819)" fill="#f6b545"/>
      <path id="Trazado_18355" data-name="Trazado 18355" d="M1679.964,1140.835a24.046,24.046,0,0,1-8.693,3.477,3.7,3.7,0,0,0-3.13,3.477h0a23.321,23.321,0,0,0,12.866-3.825Q1680.485,1142.4,1679.964,1140.835Z" transform="translate(-1546.437 -1036.517)" fill="#f19920"/>
      <path id="Trazado_18356" data-name="Trazado 18356" d="M1643.191,1095.713a25.137,25.137,0,0,0-6.955,17.038h.348a3.7,3.7,0,0,0,3.477-3.13,21.633,21.633,0,0,1,6.259-12.17A14.116,14.116,0,0,1,1643.191,1095.713Z" transform="translate(-1538.873 -1025.819)" fill="#ffcb5b"/>
      <circle id="Elipse_678" data-name="Elipse 678" cx="24.341" cy="24.341" r="24.341" transform="translate(66.068 69.545)" fill="#f6b545"/>
      <path id="Trazado_18357" data-name="Trazado 18357" d="M1622.563,1142.386a24.105,24.105,0,0,0,1.043,6.955h2.434a24.258,24.258,0,0,0,23.3-31.295H1646.9A24.191,24.191,0,0,0,1622.563,1142.386Z" transform="translate(-1535.631 -1031.114)" fill="#f19920"/>
      <path id="Trazado_18358" data-name="Trazado 18358" d="M1619.557,1095.257a24.341,24.341,0,1,0,24.34,24.341A24.191,24.191,0,0,0,1619.557,1095.257Zm0,41.727a17.386,17.386,0,1,1,17.386-17.386A17.218,17.218,0,0,1,1619.557,1136.984Z" transform="translate(-1529.148 -1025.711)" fill="#ffcb5b"/>
      <path id="Trazado_18359" data-name="Trazado 18359" d="M1627.121,1151.154h0a23.9,23.9,0,0,0,24.34-23.992h-.347a3.7,3.7,0,0,0-3.477,3.129,21.025,21.025,0,0,1-6.607,12.518,19.706,19.706,0,0,1-10.779,5.216A3.116,3.116,0,0,0,1627.121,1151.154Z" transform="translate(-1536.712 -1033.275)" fill="#f6b545"/>
      <path id="Trazado_18360" data-name="Trazado 18360" d="M1619.557,1095.711h0a23.9,23.9,0,0,0-24.341,23.993h.348a3.7,3.7,0,0,0,3.477-3.13,21.028,21.028,0,0,1,6.607-12.519,19.7,19.7,0,0,1,10.779-5.216A3.116,3.116,0,0,0,1619.557,1095.711Z" transform="translate(-1529.148 -1025.817)" fill="#ffe27a"/>
      <path id="Trazado_18361" data-name="Trazado 18361" d="M1606.766,1124.193a17.217,17.217,0,0,1,17.386-17.386,16.4,16.4,0,0,1,11.127,4.172,17.333,17.333,0,0,0-30.948,10.78,16.672,16.672,0,0,0,6.259,13.213A16.306,16.306,0,0,1,1606.766,1124.193Z" transform="translate(-1531.309 -1027.873)" fill="#f19920"/>
      <path id="Trazado_18362" data-name="Trazado 18362" d="M1640.308,1137.4a1.276,1.276,0,0,1-1.043-.348,1.682,1.682,0,0,1,0-2.434,11.6,11.6,0,0,0,3.129-8,1.739,1.739,0,0,1,3.478,0,16.059,16.059,0,0,1-3.825,10.432A3.78,3.78,0,0,1,1640.308,1137.4Z" transform="translate(-1539.467 -1032.735)" fill="#ffcb5b"/>
      <path id="Trazado_18363" data-name="Trazado 18363" d="M1626.04,1134.352a3.285,3.285,0,0,1-3.477-3.477v-13.909a3.477,3.477,0,0,1,6.954,0v13.909A3.285,3.285,0,0,1,1626.04,1134.352Z" transform="translate(-1535.631 -1030.034)" fill="#f19920"/>
      <g id="Grupo_12827" data-name="Grupo 12827" transform="translate(83.454 86.932)">
        <path id="Trazado_18364" data-name="Trazado 18364" d="M1642.036,1118.393a20.351,20.351,0,0,1,1.391,6.607,17.217,17.217,0,0,1-17.386,17.386,11.856,11.856,0,0,1-3.477-.347v.347a24.081,24.081,0,0,0,1.044,6.955h2.434a24.256,24.256,0,0,0,23.3-31.295H1646.9A23.008,23.008,0,0,0,1642.036,1118.393Z" transform="translate(-1619.085 -1118.046)" fill="#f6b545"/>
        <circle id="Elipse_679" data-name="Elipse 679" cx="24.341" cy="24.341" r="24.341" transform="translate(0 3.477)" fill="#f6b545"/>
      </g>
      <path id="Trazado_18365" data-name="Trazado 18365" d="M1642.346,1122.6a24.341,24.341,0,1,0,24.341,24.341A24.191,24.191,0,0,0,1642.346,1122.6Zm0,41.727a17.387,17.387,0,1,1,17.386-17.386A17.217,17.217,0,0,1,1642.346,1164.331Z" transform="translate(-1534.55 -1032.195)" fill="#ffcb5b"/>
      <path id="Trazado_18366" data-name="Trazado 18366" d="M1649.91,1178.5h0a23.9,23.9,0,0,0,24.341-23.993h-.348a3.7,3.7,0,0,0-3.477,3.13,21.02,21.02,0,0,1-6.607,12.518,19.706,19.706,0,0,1-10.779,5.216A3.115,3.115,0,0,0,1649.91,1178.5Z" transform="translate(-1542.114 -1039.759)" fill="#f6b545"/>
      <path id="Trazado_18367" data-name="Trazado 18367" d="M1642.346,1123.058h0a23.9,23.9,0,0,0-24.341,23.993h.348a3.7,3.7,0,0,0,3.477-3.13,21.027,21.027,0,0,1,6.607-12.518,19.7,19.7,0,0,1,10.78-5.216A3.116,3.116,0,0,0,1642.346,1123.058Z" transform="translate(-1534.55 -1032.3)" fill="#ffe27a"/>
      <path id="Trazado_18368" data-name="Trazado 18368" d="M1629.555,1151.54a17.217,17.217,0,0,1,17.386-17.386,16.4,16.4,0,0,1,11.127,4.172,17.332,17.332,0,0,0-30.947,10.78,16.671,16.671,0,0,0,6.258,13.213A16.309,16.309,0,0,1,1629.555,1151.54Z" transform="translate(-1536.712 -1034.356)" fill="#f19920"/>
      <path id="Trazado_18369" data-name="Trazado 18369" d="M1663.1,1164.748a1.277,1.277,0,0,1-1.043-.348,1.681,1.681,0,0,1,0-2.435,11.6,11.6,0,0,0,3.13-8,1.739,1.739,0,1,1,3.477,0,16.059,16.059,0,0,1-3.825,10.432A3.778,3.778,0,0,1,1663.1,1164.748Z" transform="translate(-1544.87 -1039.218)" fill="#ffcb5b"/>
      <path id="Trazado_18370" data-name="Trazado 18370" d="M1648.829,1161.7a3.285,3.285,0,0,1-3.477-3.477v-13.909a3.477,3.477,0,1,1,6.954,0v13.909A3.285,3.285,0,0,1,1648.829,1161.7Z" transform="translate(-1541.034 -1036.517)" fill="#f19920"/>
    </g>
    <g id="Grupo_12843" data-name="Grupo 12843" transform="translate(1508.618 999.542)">
      <g id="Grupo_12830" data-name="Grupo 12830">
        <g id="Grupo_12829" data-name="Grupo 12829">
          <path id="Trazado_18371" data-name="Trazado 18371" d="M1651.185,999.542H1519.05a10.246,10.246,0,0,0-10.432,10.432v76.5a10.245,10.245,0,0,0,10.432,10.431h45.2a3.477,3.477,0,0,0,0-6.954h-45.2a3.285,3.285,0,0,1-3.477-3.477v-76.5a3.285,3.285,0,0,1,3.477-3.477h132.136a3.285,3.285,0,0,1,3.477,3.477v55.636a3.477,3.477,0,0,0,6.955,0v-55.636A10.246,10.246,0,0,0,1651.185,999.542Z" transform="translate(-1508.618 -999.542)"/>
        </g>
      </g>
      <g id="Grupo_12832" data-name="Grupo 12832" transform="translate(107.876 62.591)">
        <g id="Grupo_12831" data-name="Grupo 12831">
          <path id="Trazado_18372" data-name="Trazado 18372" d="M1663.844,1081.583a26.893,26.893,0,0,0-11.822,2.782,3.424,3.424,0,1,0,2.782,6.258,20.287,20.287,0,0,1,9.041-2.086,20.7,20.7,0,0,1,17.039,32.686,3.677,3.677,0,0,0,.7,4.868,4.94,4.94,0,0,0,2.087.7,3.161,3.161,0,0,0,2.782-1.391,28.041,28.041,0,0,0,4.868-15.995A27.384,27.384,0,0,0,1663.844,1081.583Z" transform="translate(-1650.017 -1081.583)"/>
        </g>
      </g>
      <g id="Grupo_12834" data-name="Grupo 12834" transform="translate(118.227 79.978)">
        <g id="Grupo_12833" data-name="Grupo 12833">
          <path id="Trazado_18373" data-name="Trazado 18373" d="M1667.061,1104.373a3.285,3.285,0,0,0-3.477,3.477v3.477a3.477,3.477,0,1,0,6.954,0v-3.477A3.285,3.285,0,0,0,1667.061,1104.373Z" transform="translate(-1663.584 -1104.373)"/>
        </g>
      </g>
      <g id="Grupo_12836" data-name="Grupo 12836" transform="translate(62.591 69.546)">
        <g id="Grupo_12835" data-name="Grupo 12835">
          <path id="Trazado_18374" data-name="Trazado 18374" d="M1638.3,1099.045A27.786,27.786,0,1,0,1599,1138.337a3.36,3.36,0,0,0,4.868,0,3.361,3.361,0,0,0,0-4.868,20.9,20.9,0,0,1,14.6-35.815,20.222,20.222,0,0,1,14.952,6.259,3.443,3.443,0,0,0,4.869-4.868Z" transform="translate(-1590.659 -1090.699)"/>
        </g>
      </g>
      <g id="Grupo_12838" data-name="Grupo 12838" transform="translate(79.976 90.409)">
        <g id="Grupo_12837" data-name="Grupo 12837">
          <path id="Trazado_18375" data-name="Trazado 18375" d="M1641.265,1118.046a27.818,27.818,0,1,0,27.819,27.818A27.9,27.9,0,0,0,1641.265,1118.046Zm0,48.681a20.863,20.863,0,1,1,20.864-20.863A20.925,20.925,0,0,1,1641.265,1166.727Z" transform="translate(-1613.447 -1118.046)"/>
        </g>
      </g>
      <g id="Grupo_12840" data-name="Grupo 12840" transform="translate(104.317 107.796)">
        <g id="Grupo_12839" data-name="Grupo 12839">
          <path id="Trazado_18376" data-name="Trazado 18376" d="M1648.829,1140.835a3.285,3.285,0,0,0-3.477,3.477v13.909a3.477,3.477,0,0,0,6.955,0v-13.909A3.285,3.285,0,0,0,1648.829,1140.835Z" transform="translate(-1645.352 -1140.835)"/>
        </g>
      </g>
      <g id="Grupo_12842" data-name="Grupo 12842" transform="translate(86.931 86.932)">
        <g id="Grupo_12841" data-name="Grupo 12841">
          <circle id="Elipse_680" data-name="Elipse 680" cx="3.477" cy="3.477" r="3.477"/>
        </g>
      </g>
    </g>
  </g>
</svg>
