<svg xmlns="http://www.w3.org/2000/svg" width="124" height="115.739" viewBox="0 0 124 115.739">
  <g id="Grupo_12861" data-name="Grupo 12861" transform="translate(-3936.078 -1277.573)">
    <path id="Trazado_18389" data-name="Trazado 18389" d="M4007.667,1380.072H3937.4l4.134-82.666h62Z" transform="translate(0.745 11.173)" fill="#eb423f"/>
    <path id="Trazado_18390" data-name="Trazado 18390" d="M4000.368,1380.072h-16.532l-4.134-82.666h16.534Z" transform="translate(24.576 11.173)" fill="#d13330"/>
    <path id="Trazado_18391" data-name="Trazado 18391" d="M4021.519,1369.646h-16.532l-.258-3.339v0l-3.875-50.391h16.534l3.81,49.52v0Z" transform="translate(36.492 21.599)" fill="#eba72e"/>
    <path id="Trazado_18392" data-name="Trazado 18392" d="M3959.053,1328.649h-12.4v-16.534l6.2-4.134,6.2,4.134Z" transform="translate(5.958 17.131)" fill="#f7b030"/>
    <path id="Trazado_18393" data-name="Trazado 18393" d="M4022.86,1369.646h-53.733l4.132-53.733h45.467Z" transform="translate(18.619 21.599)" fill="#f7b030"/>
    <path id="Trazado_18394" data-name="Trazado 18394" d="M4055.94,1337.353a2.068,2.068,0,0,0-2.061-1.907h-29.656l-1.348-26.97a2.066,2.066,0,0,0-2.063-1.964h-14.467v-10.334a24.823,24.823,0,0,0-49.6,0v10.334h-14.466a2.066,2.066,0,0,0-2.063,1.964l-4.134,82.666a2.065,2.065,0,0,0,1.96,2.167c.034,0,.069,0,.1,0h119.867a2.066,2.066,0,0,0,2.067-2.067c0-.053,0-.106,0-.158Zm-6.194,45.219,4.4,6.607h-8.808Zm5.6.948-3.594-5.392-3.854-38.548h4.068Zm-11.6-43.94,3.875,38.736-4.537,6.8-3.5-45.54Zm-23.656-4.134h-3.89l-1.458-24.8h4.107Zm-9.49-24.8,1.46,24.8h-4.366l-1.24-24.8Zm-22.85-28.935a14.484,14.484,0,0,1,14.466,14.467v10.334h-8.267v-10.334a18.568,18.568,0,0,0-6.9-14.448C3987.273,1281.719,3987.508,1281.711,3987.745,1281.711Zm-6.2,1.4a14.483,14.483,0,0,1,8.266,13.068v10.334h-16.533v-10.334A14.484,14.484,0,0,1,3981.545,1283.11Zm-20.668,13.068a14.486,14.486,0,0,1,14.468-14.467c.236,0,.471.008.705.019a18.565,18.565,0,0,0-6.905,14.448v10.334h-8.268Zm24.953,93h-45.513l3.926-78.533h12.5v13.361l-5.28,3.519a2.068,2.068,0,0,0-.919,1.72v16.534a2.066,2.066,0,0,0,2.067,2.065h12.4a2.066,2.066,0,0,0,2.067-2.065v-16.534a2.069,2.069,0,0,0-.919-1.72l-5.281-3.519v-13.361h28.934v6.2a2.067,2.067,0,0,0,4.134,0v-6.2h8.369l1.24,24.8h-11.675a2.069,2.069,0,0,0-2.061,1.907Zm-27.02-61.583,4.134,2.755v13.362h-8.265v-13.362Zm34.982,11.983h41.639l3.815,49.6h-49.27Z" transform="translate(0)"/>
    <path id="Trazado_18395" data-name="Trazado 18395" d="M4001.113,1322.522a2.067,2.067,0,0,0-2.066,2.067v16.534a6.207,6.207,0,0,1-6.2,6.2h-4.134a6.208,6.208,0,0,1-6.2-6.2v-16.534a2.067,2.067,0,0,0-4.134,0v16.534a10.346,10.346,0,0,0,10.334,10.334h4.134a10.345,10.345,0,0,0,10.332-10.334v-16.534A2.066,2.066,0,0,0,4001.113,1322.522Z" transform="translate(23.832 25.323)"/>
  </g>
</svg>
