<svg xmlns="http://www.w3.org/2000/svg" width="124" height="141.71" viewBox="0 0 124 141.71">
  <g id="Grupo_13081" data-name="Grupo 13081" transform="translate(-1670.479 -2201.268)">
    <g id="Grupo_13059" data-name="Grupo 13059" transform="translate(1776.023 2304.613)">
      <path id="Trazado_19126" data-name="Trazado 19126" d="M1930.562,2465.036l11.3-2.037a4.312,4.312,0,0,0,3.479-5.01v-.007a4.313,4.313,0,0,0-5.01-3.479l-11.3,2.037Z" transform="translate(-1929.03 -2454.434)" fill="#ffd064"/>
    </g>
    <g id="Grupo_13060" data-name="Grupo 13060" transform="translate(1745.95 2284.811)">
      <path id="Trazado_19127" data-name="Trazado 19127" d="M1896.667,2453.521l-2.7-4.683a20.21,20.21,0,0,1-2.708-10.105v-17.7a15.109,15.109,0,0,0-30.218,0v17.7a20.21,20.21,0,0,1-2.708,10.105l-2.7,4.683a1.939,1.939,0,0,0,1.679,2.909h7.959a4.633,4.633,0,0,1,3.732,1.943,8.843,8.843,0,0,0,14.3,0,4.63,4.63,0,0,1,3.732-1.943h7.959a1.939,1.939,0,0,0,1.679-2.909Z" transform="translate(-1855.362 -2405.924)" fill="#ffe07d"/>
    </g>
    <g id="Grupo_13062" data-name="Grupo 13062" transform="translate(1763.238 2284.811)">
      <g id="Grupo_13061" data-name="Grupo 13061" transform="translate(0 0)">
        <path id="Trazado_19128" data-name="Trazado 19128" d="M1921.728,2453.521l-2.7-4.683a20.21,20.21,0,0,1-2.708-10.105v-17.7a15.105,15.105,0,0,0-18.605-14.7,15.112,15.112,0,0,1,11.613,14.7v17.7a20.213,20.213,0,0,0,2.708,10.105l2.7,4.683a1.939,1.939,0,0,1-1.679,2.909h6.992a1.939,1.939,0,0,0,1.68-2.909Z" transform="translate(-1897.711 -2405.924)" fill="#ffd064"/>
      </g>
    </g>
    <g id="Grupo_13063" data-name="Grupo 13063" transform="translate(1776.023 2304.613)">
      <path id="Trazado_19129" data-name="Trazado 19129" d="M1930.562,2465.036l11.3-2.037a4.312,4.312,0,0,0,3.479-5.01v-.007a4.313,4.313,0,0,0-5.01-3.479l-11.3,2.037Z" transform="translate(-1929.03 -2454.434)" fill="#ffd064"/>
    </g>
    <g id="Grupo_13064" data-name="Grupo 13064" transform="translate(1741.068 2304.613)">
      <path id="Trazado_19130" data-name="Trazado 19130" d="M1858.247,2465.036l-11.3-2.037a4.313,4.313,0,0,1-3.479-5.01l0-.007a4.313,4.313,0,0,1,5.01-3.479l11.3,2.037Z" transform="translate(-1843.401 -2454.434)" fill="#ffe07d"/>
    </g>
    <g id="Grupo_13065" data-name="Grupo 13065" transform="translate(1693.041 2203.346)">
      <path id="Trazado_19131" data-name="Trazado 19131" d="M1752.762,2219.443h3.215a.831.831,0,0,0,.831-.831v-11.423a.831.831,0,0,0-.831-.831h-3.215a20.031,20.031,0,0,0-20.03,20.031v2.915a.554.554,0,0,1-.554.554h-5.6a.831.831,0,0,0-.831.831v11.423a.831.831,0,0,0,.831.831h5.6a.554.554,0,0,1,.554.554v22.522a.831.831,0,0,0,.831.831h11.423a.831.831,0,0,0,.832-.831V2243.5a.554.554,0,0,1,.554-.554h5.6a.831.831,0,0,0,.831-.831v-11.423a.831.831,0,0,0-.831-.831h-5.6a.554.554,0,0,1-.554-.554v-2.916a6.944,6.944,0,0,1,6.945-6.945Z" transform="translate(-1725.749 -2206.358)" fill="#5766cb"/>
    </g>
    <g id="Grupo_13069" data-name="Grupo 13069" transform="translate(1708.226 2203.346)">
      <g id="Grupo_13066" data-name="Grupo 13066" transform="translate(0 36.585)">
        <path id="Trazado_19132" data-name="Trazado 19132" d="M1763.78,2296.535v22.523a.831.831,0,0,1-.832.831H1767a.831.831,0,0,0,.831-.831v-22.523a.554.554,0,0,1,.554-.554h-4.052a.554.554,0,0,0-.554.554Z" transform="translate(-1762.948 -2295.981)" fill="#3d4fc3"/>
      </g>
      <g id="Grupo_13067" data-name="Grupo 13067" transform="translate(6.982 23.5)">
        <path id="Trazado_19133" data-name="Trazado 19133" d="M1784.1,2263.926h-4.052a.831.831,0,0,1,.831.831v11.423a.831.831,0,0,1-.831.831h4.052a.831.831,0,0,0,.831-.831v-11.423A.831.831,0,0,0,1784.1,2263.926Z" transform="translate(-1780.053 -2263.926)" fill="#3d4fc3"/>
      </g>
      <g id="Grupo_13068" data-name="Grupo 13068" transform="translate(0.832 0)">
        <path id="Trazado_19134" data-name="Trazado 19134" d="M1779.2,2206.358h-3.215c-.224,0-.446.01-.669.017a.831.831,0,0,1,.663.814v11.423a.831.831,0,0,1-.831.831h-3.215a6.945,6.945,0,0,0-6.945,6.945v2.915a.554.554,0,0,0,.554.554h4.051a.554.554,0,0,1-.554-.554v-2.916a6.945,6.945,0,0,1,6.945-6.945h3.216a.831.831,0,0,0,.831-.831v-11.423A.831.831,0,0,0,1779.2,2206.358Z" transform="translate(-1764.985 -2206.358)" fill="#3d4fc3"/>
      </g>
    </g>
    <g id="Grupo_13070" data-name="Grupo 13070" transform="translate(1732.101 2223.614)">
      <path id="Trazado_19135" data-name="Trazado 19135" d="M1862.646,2306.757H1830.97a9.536,9.536,0,0,1-9.536-9.536v-31.676a9.536,9.536,0,0,1,9.536-9.536h31.676a9.535,9.535,0,0,1,9.536,9.536v31.676A9.535,9.535,0,0,1,1862.646,2306.757Z" transform="translate(-1821.434 -2256.009)" fill="#eaaadd"/>
    </g>
    <g id="Grupo_13071" data-name="Grupo 13071" transform="translate(1732.661 2224.175)">
      <path id="Trazado_19136" data-name="Trazado 19136" d="M1866.675,2257.382a9.519,9.519,0,0,1,.56,3.226v31.659a9.545,9.545,0,0,1-9.544,9.544h-31.659a9.539,9.539,0,0,1-3.226-.561,9.548,9.548,0,0,0,8.984,6.318h31.659a9.544,9.544,0,0,0,9.544-9.544v-31.659a9.546,9.546,0,0,0-6.318-8.984Z" transform="translate(-1822.806 -2257.382)" fill="#e490d0"/>
    </g>
    <g id="Grupo_13072" data-name="Grupo 13072" transform="translate(1672.557 2276.386)">
      <path id="Trazado_19137" data-name="Trazado 19137" d="M1727.034,2416.719a24.792,24.792,0,0,1-2.666-.145.411.411,0,0,1-.25-.7l.006-.006a24.891,24.891,0,0,0,4.263-28.744.831.831,0,0,0-1.44-.077,24.883,24.883,0,0,1-17.9,11.317.279.279,0,0,1-.311-.265,13.543,13.543,0,0,0-25.528-5.543.555.555,0,0,1-.491.3h-6.475a.554.554,0,0,0-.5.8,9.4,9.4,0,0,0,2.925,3.423.276.276,0,0,1-.043.476l-2.74,1.274a.554.554,0,0,0-.111.937,9.3,9.3,0,0,0,5.794,2.021.553.553,0,0,1,.531.425,13.57,13.57,0,0,0,7.287,8.842.839.839,0,0,1,.452.539,24.892,24.892,0,0,0,46.087,5.017.832.832,0,0,0-1.009-1.171,24.84,24.84,0,0,1-7.887,1.278Z" transform="translate(-1675.569 -2385.285)" fill="#b1e4f9"/>
    </g>
    <g id="Grupo_13074" data-name="Grupo 13074" transform="translate(1700.569 2306.492)">
      <g id="Grupo_13073" data-name="Grupo 13073" transform="translate(0 0)">
        <path id="Trazado_19138" data-name="Trazado 19138" d="M1768.13,2460.357a24.9,24.9,0,0,1-23.938,11.042,24.9,24.9,0,0,0,32.348-11.141.831.831,0,0,0-.991-1.178,24.849,24.849,0,0,1-7.42,1.278Z" transform="translate(-1744.192 -2459.036)" fill="#90d8f9"/>
      </g>
    </g>
    <g id="Grupo_13075" data-name="Grupo 13075" transform="translate(1738.991 2282.734)">
      <path id="Trazado_19139" data-name="Trazado 19139" d="M1866.056,2461.08a10.962,10.962,0,0,1-8.83-4.494,2.541,2.541,0,0,0-2.053-1.089h-7.959a4.017,4.017,0,0,1-3.478-6.025l2.7-4.684a18.156,18.156,0,0,0,2.429-9.066v-1.441l-5.3-.955a6.394,6.394,0,0,1,2.269-12.586l3.027.545v-3.263a17.187,17.187,0,0,1,34.374,0v3.263l3.027-.545a6.394,6.394,0,1,1,2.269,12.586l-5.3.955v1.441a18.159,18.159,0,0,0,2.429,9.066l2.7,4.684a4.017,4.017,0,0,1-3.479,6.025h-7.959a2.539,2.539,0,0,0-2.052,1.089,10.963,10.963,0,0,1-8.83,4.494Zm-18.6-9.739h7.719a6.74,6.74,0,0,1,5.411,2.8,6.765,6.765,0,0,0,10.944,0,6.74,6.74,0,0,1,5.411-2.8h7.719l-2.584-4.476a22.32,22.32,0,0,1-2.986-11.144v-3.177a2.077,2.077,0,0,1,1.709-2.044l7.005-1.263a2.239,2.239,0,1,0-.8-4.407l-5.473.987a2.077,2.077,0,0,1-2.446-2.045v-5.749a13.032,13.032,0,0,0-26.063,0v5.749a2.077,2.077,0,0,1-2.446,2.045l-5.473-.987a2.239,2.239,0,1,0-.794,4.407l7,1.263a2.077,2.077,0,0,1,1.709,2.044v3.177a22.32,22.32,0,0,1-2.986,11.144Z" transform="translate(-1838.313 -2400.836)"/>
    </g>
    <g id="Grupo_13076" data-name="Grupo 13076" transform="translate(1690.963 2201.268)">
      <path id="Trazado_19140" data-name="Trazado 19140" d="M1741.974,2265.917h-11.423a2.912,2.912,0,0,1-2.908-2.909v-9.46a2.078,2.078,0,1,1,4.155,0v8.214h8.93v-21.276a2.635,2.635,0,0,1,2.632-2.632h4.351v-8.931h-4.351a2.635,2.635,0,0,1-2.632-2.632v-2.916a9.032,9.032,0,0,1,9.022-9.022h1.969v-8.93h-1.968a17.973,17.973,0,0,0-17.953,17.953v2.915a2.634,2.634,0,0,1-2.631,2.632h-4.351v8.93h4.351a2.634,2.634,0,0,1,2.631,2.631v2.6a2.078,2.078,0,1,1-4.155,0v-1.076h-4.074a2.912,2.912,0,0,1-2.909-2.908v-11.424a2.912,2.912,0,0,1,2.909-2.908h4.074v-1.392a22.133,22.133,0,0,1,22.107-22.108h3.215a2.912,2.912,0,0,1,2.909,2.909V2215.6a2.912,2.912,0,0,1-2.909,2.908h-3.215a4.873,4.873,0,0,0-4.867,4.867v1.392h4.073a2.912,2.912,0,0,1,2.908,2.909V2239.1a2.912,2.912,0,0,1-2.908,2.908h-4.073v21a2.913,2.913,0,0,1-2.909,2.91Z" transform="translate(-1720.66 -2201.268)"/>
    </g>
    <g id="Grupo_13077" data-name="Grupo 13077" transform="translate(1730.023 2221.536)">
      <path id="Trazado_19141" data-name="Trazado 19141" d="M1859.625,2305.822h-31.659a11.635,11.635,0,0,1-11.622-11.622v-31.659a11.635,11.635,0,0,1,11.622-11.622h3.474a2.078,2.078,0,1,1,0,4.155h-3.474a7.476,7.476,0,0,0-7.467,7.467V2294.2a7.475,7.475,0,0,0,7.467,7.467h31.659a7.475,7.475,0,0,0,7.467-7.467v-31.659a7.475,7.475,0,0,0-7.467-7.467h-17.7a2.078,2.078,0,1,1,0-4.155h17.7a11.635,11.635,0,0,1,11.622,11.622V2294.2a11.634,11.634,0,0,1-11.622,11.622Z" transform="translate(-1816.344 -2250.919)"/>
    </g>
    <g id="Grupo_13078" data-name="Grupo 13078" transform="translate(1745.314 2236.827)">
      <path id="Trazado_19142" data-name="Trazado 19142" d="M1865.964,2312.7a12.16,12.16,0,1,1,12.16-12.16A12.174,12.174,0,0,1,1865.964,2312.7Zm0-20.164a8,8,0,1,0,8,8A8.014,8.014,0,0,0,1865.964,2292.534Z" transform="translate(-1853.804 -2288.378)"/>
    </g>
    <g id="Grupo_13079" data-name="Grupo 13079" transform="translate(1768.797 2231.792)">
      <circle id="Elipse_716" data-name="Elipse 716" cx="2.937" cy="2.937" r="2.937" transform="translate(0 0)"/>
    </g>
    <g id="Grupo_13080" data-name="Grupo 13080" transform="translate(1670.479 2274.309)">
      <path id="Trazado_19143" data-name="Trazado 19143" d="M1710.856,2429.042a27.006,27.006,0,0,1-25.88-19.376,15.58,15.58,0,0,1-7.578-8.866,11.455,11.455,0,0,1-5.926-2.417,2.632,2.632,0,0,1,.529-4.447l.323-.15a11.479,11.479,0,0,1-1.447-2.21,2.631,2.631,0,0,1,2.356-3.805h5.582a15.621,15.621,0,0,1,28.755,5.229,22.52,22.52,0,0,0,11.737-6.445,22.858,22.858,0,0,0,2.874-3.634,2.9,2.9,0,0,1,2.578-1.338,2.926,2.926,0,0,1,2.461,1.579,26.874,26.874,0,0,1,2.677,8.225,2.078,2.078,0,1,1-4.107.635,22.737,22.737,0,0,0-1.383-5.036,26.948,26.948,0,0,1-18.113,10.43,2.356,2.356,0,0,1-2.642-2.218,11.465,11.465,0,0,0-21.611-4.689,2.626,2.626,0,0,1-2.332,1.416H1676.3a7.036,7.036,0,0,0,.569.452,2.353,2.353,0,0,1-.335,4.035,7.388,7.388,0,0,0,2.023.287h.011a2.628,2.628,0,0,1,2.54,1.984,11.442,11.442,0,0,0,6.17,7.485,2.914,2.914,0,0,1,1.562,1.873,22.816,22.816,0,0,0,40.661,7.185,26.93,26.93,0,0,1-8.366.4,2.489,2.489,0,0,1-1.523-4.2l.006-.007a22.844,22.844,0,0,0,5.569-9.6,2.078,2.078,0,1,1,4,1.142,26.95,26.95,0,0,1-4.285,8.656,22.745,22.745,0,0,0,6.358-1.155,2.91,2.91,0,0,1,3.509,4.1,26.906,26.906,0,0,1-23.9,14.478Z" transform="translate(-1670.479 -2380.196)"/>
    </g>
  </g>
</svg>
