<svg xmlns="http://www.w3.org/2000/svg" width="123.097" height="152.641" viewBox="0 0 123.097 152.641">
  <g id="Grupo_13103" data-name="Grupo 13103" transform="translate(-1679.897 -2197.108)">
    <g id="Grupo_13101" data-name="Grupo 13101" transform="translate(1682.359 2199.57)">
      <g id="Grupo_13086" data-name="Grupo 13086" transform="translate(12.31 0)">
        <path id="Trazado_19156" data-name="Trazado 19156" d="M1708.476,2219.265a9.008,9.008,0,0,1-1.157-4.358,8.7,8.7,0,0,1,8.715-8.715h1.256a6.02,6.02,0,0,1,1.649-3.151,6.169,6.169,0,0,1,4.308-1.772h14.6a21.181,21.181,0,0,1,20.089,27.869l-1.231,3.693a7.4,7.4,0,0,0-5.071-2.019h-2.462v-.566a4.942,4.942,0,0,0-4.308-4.9l-10.808-1.354a5.132,5.132,0,0,1-4.53-4.8h-.025l-7.656,2.191a9.859,9.859,0,0,0-7.14,9.43h-2.462a7.432,7.432,0,0,0-4.678,1.674,8.542,8.542,0,0,1,.911-13.22Z" transform="translate(-1704.857 -2201.268)" fill="#656d78"/>
      </g>
      <g id="Grupo_13087" data-name="Grupo 13087" transform="translate(14.772 123.097)">
        <path id="Trazado_19157" data-name="Trazado 19157" d="M1733.636,2409.268h-24.62v24.619h49.239v-24.619Z" transform="translate(-1709.017 -2409.268)" fill="#969faa"/>
      </g>
      <g id="Grupo_13088" data-name="Grupo 13088" transform="translate(0 65.192)">
        <path id="Trazado_19158" data-name="Trazado 19158" d="M1698.829,2374.253h-12.31a2.469,2.469,0,0,1-2.462-2.462v-39.933a19.7,19.7,0,0,1,16.446-19.425l6.056-1.01,4.579,16.052,12.31-9.848v51.7h-24.62Z" transform="translate(-1684.057 -2311.424)" fill="#4fc1e9"/>
      </g>
      <g id="Grupo_13089" data-name="Grupo 13089" transform="translate(39.391 64.01)">
        <path id="Trazado_19159" data-name="Trazado 19159" d="M1750.617,2368.515v-51.7l12.31,9.848,4.924-17.234h17.234v19.7h-9.848v39.391Z" transform="translate(-1750.617 -2309.428)" fill="#4fc1e9"/>
      </g>
      <g id="Grupo_13090" data-name="Grupo 13090" transform="translate(39.391 64.01)">
        <path id="Trazado_19160" data-name="Trazado 19160" d="M1767.851,2309.428l-4.924,17.234-12.31-9.848,9.848-7.386Z" transform="translate(-1750.617 -2309.428)" fill="#3bafda"/>
      </g>
      <g id="Grupo_13091" data-name="Grupo 13091" transform="translate(22.502 64.01)">
        <path id="Trazado_19161" data-name="Trazado 19161" d="M1738.968,2316.814l-12.31,9.848-4.579-16.052,7.041-1.181Z" transform="translate(-1722.079 -2309.428)" fill="#3bafda"/>
      </g>
      <g id="Grupo_13092" data-name="Grupo 13092" transform="translate(4.924 128.021)">
        <path id="Trazado_19162" data-name="Trazado 19162" d="M1702.225,2417.588v14.772h-2.462a7.376,7.376,0,0,1-7.386-7.386v-7.386Z" transform="translate(-1692.377 -2417.588)" fill="#f0d0b4"/>
      </g>
      <g id="Grupo_13093" data-name="Grupo 13093" transform="translate(83.706 14.772)">
        <path id="Trazado_19163" data-name="Trazado 19163" d="M1843.026,2228.394a7.381,7.381,0,0,0-12.6,5.22v2.462l-.961.493a7.124,7.124,0,0,0-3.422,9.109,7.064,7.064,0,0,0,1.551,2.339l2.831,2.831h14.772v-17.234a7.37,7.37,0,0,0-2.167-5.22Z" transform="translate(-1825.497 -2226.228)" fill="#f0d0b4"/>
      </g>
      <g id="Grupo_13094" data-name="Grupo 13094" transform="translate(55.91 29.543)">
        <path id="Trazado_19164" data-name="Trazado 19164" d="M1786.777,2253.207a7.388,7.388,0,0,1-5.071,12.753h-3.176a17,17,0,0,0,.714-4.924v-9.848h2.462a7.4,7.4,0,0,1,5.071,2.019Z" transform="translate(-1778.53 -2251.188)" fill="#f0d0b4"/>
      </g>
      <g id="Grupo_13095" data-name="Grupo 13095" transform="translate(29.543 54.876)">
        <path id="Trazado_19165" data-name="Trazado 19165" d="M1751.383,2293.994l2.29,9.134-9.848,7.386-9.848-7.386,2.29-9.134a17.213,17.213,0,0,0,15.116,0Z" transform="translate(-1733.977 -2293.994)" fill="#f0d0b4"/>
      </g>
      <g id="Grupo_13096" data-name="Grupo 13096" transform="translate(22.157 17.922)">
        <path id="Trazado_19166" data-name="Trazado 19166" d="M1755.964,2243.173v9.848a17.216,17.216,0,0,1-9.676,15.486,17.213,17.213,0,0,1-15.116,0,17.245,17.245,0,0,1-8.962-10.562,17.017,17.017,0,0,1-.714-4.924v-9.848a9.86,9.86,0,0,1,7.14-9.429l7.656-2.191h.025a5.132,5.132,0,0,0,4.53,4.8l10.808,1.354a4.942,4.942,0,0,1,4.308,4.9Z" transform="translate(-1721.497 -2231.552)" fill="#f0d0b4"/>
      </g>
      <g id="Grupo_13097" data-name="Grupo 13097" transform="translate(12.31 29.543)">
        <path id="Trazado_19167" data-name="Trazado 19167" d="M1715.419,2265.96h-3.176a7.386,7.386,0,0,1,0-14.772h2.462v9.848A17.013,17.013,0,0,0,1715.419,2265.96Z" transform="translate(-1704.857 -2251.188)" fill="#f0d0b4"/>
      </g>
      <g id="Grupo_13098" data-name="Grupo 13098" transform="translate(88.63 39.391)">
        <path id="Trazado_19168" data-name="Trazado 19168" d="M1833.817,2267.828h14.772V2282.6h-14.772Z" transform="translate(-1833.817 -2267.828)" fill="#4fc1e9"/>
      </g>
      <g id="Grupo_13099" data-name="Grupo 13099" transform="translate(73.858 54.163)">
        <path id="Trazado_19169" data-name="Trazado 19169" d="M1853.172,2295.25v46.777a4.939,4.939,0,0,1-4.924,4.924h-34.467a4.938,4.938,0,0,1-4.924-4.924V2295.25a2.469,2.469,0,0,1,2.462-2.462h39.391A2.469,2.469,0,0,1,1853.172,2295.25Z" transform="translate(-1808.857 -2292.788)" fill="#cf9e76"/>
      </g>
      <g id="Grupo_13100" data-name="Grupo 13100" transform="translate(83.706 68.934)">
        <path id="Trazado_19170" data-name="Trazado 19170" d="M1825.5,2317.748h24.62v19.7H1825.5Z" transform="translate(-1825.497 -2317.748)" fill="#e6e9ed"/>
      </g>
    </g>
    <g id="Grupo_13102" data-name="Grupo 13102" transform="translate(1679.897 2197.108)">
      <circle id="Elipse_717" data-name="Elipse 717" cx="2.462" cy="2.462" r="2.462" transform="translate(32.005 34.467)"/>
      <circle id="Elipse_718" data-name="Elipse 718" cx="2.462" cy="2.462" r="2.462" transform="translate(46.777 34.467)"/>
      <path id="Trazado_19171" data-name="Trazado 19171" d="M1753.333,2272.847l.259-.52-4.4-2.2-.259.522a5.505,5.505,0,0,1-9.848,0l-.259-.52-4.4,2.2.259.52a10.43,10.43,0,0,0,18.656,0Z" transform="translate(-1702.152 -2226.912)"/>
      <path id="Trazado_19172" data-name="Trazado 19172" d="M1763.1,2380.148h4.924v4.924H1763.1Z" transform="translate(-1713.858 -2271.823)"/>
      <path id="Trazado_19173" data-name="Trazado 19173" d="M1763.1,2363.508h4.924v4.924H1763.1Z" transform="translate(-1713.858 -2265.031)"/>
      <path id="Trazado_19174" data-name="Trazado 19174" d="M1850.88,2313.588h-29.543v24.62h29.543Zm-4.924,19.7h-19.7v-14.771h19.7Z" transform="translate(-1737.631 -2244.654)"/>
      <path id="Trazado_19175" data-name="Trazado 19175" d="M1798.07,2251.271v-4.924a19.7,19.7,0,0,0-9.848-17.032v-7.587a9.848,9.848,0,0,0-19.7,0v.95a9.568,9.568,0,0,0-4.924,8.4,9.668,9.668,0,0,0,.229,2.038,19.6,19.6,0,0,0-5.153,13.236v4.924a4.928,4.928,0,0,0-4.924,4.924v4.924h-20.235l-1.367-5.466a19.791,19.791,0,0,0,7.842-9.305h1.45a9.858,9.858,0,0,0,9.848-9.848,9.738,9.738,0,0,0-2.007-5.892l.793-2.378a23.643,23.643,0,0,0-22.431-31.121h-14.585a8.542,8.542,0,0,0-7.74,4.975,11.068,11.068,0,0,0-10,14.811,10.92,10.92,0,0,0-1.2,13.82,9.755,9.755,0,0,0-1.917,5.785,9.858,9.858,0,0,0,9.848,9.848h1.45a19.775,19.775,0,0,0,7.842,9.305l-1.44,5.764-11.495,1.915a22.089,22.089,0,0,0-18.514,21.857v39.94a4.929,4.929,0,0,0,4.924,4.924v4.924a9.858,9.858,0,0,0,9.848,9.848v4.924h54.163v-64.011h4.924v17.234a7.4,7.4,0,0,0,7.386,7.386h34.467a7.4,7.4,0,0,0,7.386-7.386v-46.777A4.929,4.929,0,0,0,1798.07,2251.271Zm-4.924-4.924v4.924h-4.924v-15.9A14.73,14.73,0,0,1,1793.146,2246.347Zm-9.848-9.848h-11.291l-2.107-2.1c-.025-.025-.042-.054-.064-.079a14.61,14.61,0,0,1,13.462-1.878Zm-9.848,4.924h9.848v9.848h-9.848Zm-2.332-14.548,2.332-1.162v-3.986a4.924,4.924,0,1,1,9.848,0v5.571a19.44,19.44,0,0,0-14.252,1.708,4.62,4.62,0,0,1,2.073-2.132Zm-7.516,19.472a14.684,14.684,0,0,1,2.75-8.553c.025.024.042.056.067.081l2.108,2.1v11.291H1763.6Zm-27.884,19.7-3.011,10.537-6.938-5.551,6.647-4.985Zm5.726-24.62h-.17a19.882,19.882,0,0,0,.17-2.462v-7.386a4.924,4.924,0,1,1,0,9.848Zm-39.391,0a4.924,4.924,0,1,1,0-9.848v7.386a19.764,19.764,0,0,0,.17,2.462Zm.293-14.771h-.293a9.734,9.734,0,0,0-4.082.913,6,6,0,0,1,2.519-8.457l5.128-2.562-2.2-4.4L1699.7,2214a5.812,5.812,0,0,1,4.946-6.923,8.485,8.485,0,0,0,4.6,6.227l1.558.778,2.2-4.4-1.558-.778a3.625,3.625,0,0,1,1.622-6.866h14.585a18.719,18.719,0,0,1,17.76,24.639l-.241.721a9.812,9.812,0,0,0-3.723-.741h-.276a7.375,7.375,0,0,0-6.195-5.443l-10.8-1.352a2.768,2.768,0,0,1,.345-5.514h2.154v-4.924h-2.154a7.7,7.7,0,0,0-7.543,6.192l-6,1.711a12.35,12.35,0,0,0-8.634,9.331Zm4.631,12.31v-9.8a7.42,7.42,0,0,1,5.355-7.1l5.3-1.515a7.7,7.7,0,0,0,5.929,4.2l10.8,1.351a2.467,2.467,0,0,1,2.157,2.443v10.424a14.77,14.77,0,1,1-29.541,0Zm14.772,19.7a19.679,19.679,0,0,0,5.857-.889l1.207,4.825-7.063,5.3-7.063-5.3,1.206-4.825A19.61,19.61,0,0,0,1721.75,2258.656Zm-10.48,7.526,6.463,4.848-6.938,5.552-2.814-9.851Zm-26.449,19.006a17.176,17.176,0,0,1,14.4-17l3.867-.645,5,17.5,11.2-8.957v44.115h-19.7v-34.467h-4.924v39.391h-9.848Zm4.924,49.788v-4.924h4.924v9.848A4.929,4.929,0,0,1,1689.745,2334.977Zm9.848-9.848h19.7v19.7h-19.7Zm24.619,19.7v-19.7h19.7v19.7Zm19.7-64.011v39.391h-19.7V2276.09l11.2,8.959,5.428-19.006h12.916v14.771Zm54.163,22.158a2.465,2.465,0,0,1-2.462,2.462h-34.467a2.465,2.465,0,0,1-2.462-2.462v-46.777h39.391Z" transform="translate(-1679.897 -2197.108)"/>
    </g>
  </g>
</svg>
