<svg xmlns="http://www.w3.org/2000/svg" width="930" height="450.224" viewBox="0 0 930 450.224">
  <g id="Grupo_13474" data-name="Grupo 13474" transform="translate(-235 -691.508)">
    <g id="Grupo_12731" data-name="Grupo 12731" transform="translate(-59 -351.492)">
      <g id="Grupo_12730" data-name="Grupo 12730" transform="translate(294 1043)">
        <g id="Grupo_12718" data-name="Grupo 12718" transform="translate(0 156.723)">
          <rect id="Rectángulo_3070" data-name="Rectángulo 3070" width="202" height="244" rx="8.1" transform="translate(0 25.768)" fill="#f4563c"/>
          <path id="Trazado_17887" data-name="Trazado 17887" d="M-105.266-78.49h182.2a11.5,11.5,0,0,0,.879-4.417V-303.459A11.541,11.541,0,0,0,66.275-315H-112.959A11.541,11.541,0,0,0-124.5-303.459V-82.907a11.541,11.541,0,0,0,11.541,11.541h7.694Z" transform="translate(124.5 315)" fill="#ff5d10"/>
          <path id="Trazado_17888" data-name="Trazado 17888" d="M33.569-315H-47.5V-78.49H44.231a11.5,11.5,0,0,0,.879-4.417V-303.459A11.541,11.541,0,0,0,33.569-315Z" transform="translate(157.206 315)" fill="#ffd01f" opacity="0.7" style="mix-blend-mode: soft-light;isolation: isolate"/>
          <path id="Trazado_17889" data-name="Trazado 17889" d="M-103.129-315h-9.831A11.541,11.541,0,0,0-124.5-303.459v246.2a11.541,11.541,0,0,0,11.541,11.541h9.831Z" transform="translate(124.5 315)" fill="#5e3027"/>
          <path id="Trazado_17890" data-name="Trazado 17890" d="M67.856-149H-107.39a12.111,12.111,0,0,0-12.11,12.11,12.111,12.111,0,0,0,12.11,12.11H67.856Z" transform="translate(126.624 385.51)" fill="#fff"/>
        </g>
        <g id="Grupo_12719" data-name="Grupo 12719" transform="translate(187.356 0)">
          <rect id="Rectángulo_3071" data-name="Rectángulo 3071" width="202.316" height="236.51" transform="translate(0 42.743)" fill="#ff5d10"/>
          <rect id="Rectángulo_3072" data-name="Rectángulo 3072" width="202.316" height="236.51" transform="translate(88.803 10.686)" fill="#c76f38"/>
          <rect id="Rectángulo_3073" data-name="Rectángulo 3073" width="202.316" height="236.51" transform="translate(192.164)" fill="#8e8160"/>
          <rect id="Rectángulo_3074" data-name="Rectángulo 3074" width="202.316" height="236.51" transform="translate(293.122 10.686)" fill="#569388"/>
          <rect id="Rectángulo_3075" data-name="Rectángulo 3075" width="202.316" height="236.51" transform="translate(374.712 42.743)" fill="#1ea5b0"/>
        </g>
        <g id="Grupo_12723" data-name="Grupo 12723" transform="translate(30.91 209.244)">
          <g id="Grupo_12720" data-name="Grupo 12720">
            <path id="Trazado_17891" data-name="Trazado 17891" d="M-86.185-262.427H-86.4l-13.649,6.494-2.751-12.548,18.931-8.805H-70v71.544H-86.185Z" transform="translate(102.805 278.498)"/>
            <path id="Trazado_17892" data-name="Trazado 17892" d="M-67.2-217.486a39.564,39.564,0,0,0,7.266,0,28.747,28.747,0,0,0,14.088-4.4A22.238,22.238,0,0,0-36.821-235.1l-.331-.111c-3.191,3.3-7.815,5.173-14.309,5.173-12.108,0-22.344-8.475-22.344-22.343,0-13.98,11.227-25.758,26.968-25.758,18.381,0,27.078,14.089,27.078,30.82,0,14.86-4.734,25.757-12.549,32.91-6.823,6.165-16.18,9.577-27.3,10.017a57.924,57.924,0,0,1-7.6,0Zm19.813-48.432c-5.614,0-9.8,5.062-9.686,12.548,0,6.163,3.3,11.448,10.127,11.448a10.542,10.542,0,0,0,9.245-4.733,7.89,7.89,0,0,0,.88-4.183c0-7.6-2.862-15.08-10.456-15.08Z" transform="translate(115.123 278.137)"/>
            <path id="Trazado_17893" data-name="Trazado 17893" d="M-24.328-217.486a39.55,39.55,0,0,0,7.265,0,28.752,28.752,0,0,0,14.089-4.4A22.235,22.235,0,0,0,6.051-235.1l-.331-.111c-3.191,3.3-7.815,5.173-14.307,5.173-12.109,0-22.346-8.475-22.346-22.343,0-13.98,11.227-25.758,26.968-25.758,18.382,0,27.078,14.089,27.078,30.82,0,14.86-4.733,25.757-12.548,32.91-6.825,6.165-16.181,9.577-27.3,10.017a57.921,57.921,0,0,1-7.6,0Zm19.813-48.432c-5.614,0-9.8,5.062-9.687,12.548,0,6.163,3.3,11.448,10.127,11.448a10.542,10.542,0,0,0,9.245-4.733,7.89,7.89,0,0,0,.881-4.183c0-7.6-2.861-15.08-10.456-15.08Z" transform="translate(133.333 278.137)"/>
          </g>
          <g id="Grupo_12721" data-name="Grupo 12721" transform="translate(2.934 81.972)">
            <path id="Trazado_17894" data-name="Trazado 17894" d="M-100.032-208.441a8.947,8.947,0,0,0,3.892.967c1.613,0,2.465-.668,2.465-1.681,0-.967-.738-1.52-2.6-2.187-2.58-.9-4.261-2.328-4.261-4.585,0-2.649,2.211-4.676,5.874-4.676a9.513,9.513,0,0,1,3.962.784l-.784,2.832a7.38,7.38,0,0,0-3.248-.737c-1.52,0-2.257.691-2.257,1.5,0,.99.875,1.428,2.879,2.188,2.741,1.013,4.031,2.441,4.031,4.629,0,2.6-2,4.837-6.266,4.837a10.113,10.113,0,0,1-4.4-.967Z" transform="translate(100.746 220.603)"/>
            <path id="Trazado_17895" data-name="Trazado 17895" d="M-76.368-212.748c0,5.091-3.086,8.177-7.624,8.177-4.606,0-7.3-3.478-7.3-7.9,0-4.653,2.971-8.131,7.554-8.131C-78.971-220.6-76.368-217.033-76.368-212.748Zm-11.217.207c0,3.042,1.428,5.183,3.777,5.183,2.374,0,3.731-2.257,3.731-5.274,0-2.787-1.335-5.182-3.754-5.182C-86.2-217.815-87.585-215.559-87.585-212.542Z" transform="translate(104.761 220.603)"/>
            <path id="Trazado_17896" data-name="Trazado 17896" d="M-78.4-220.184a28.019,28.019,0,0,1,4.536-.322,8.574,8.574,0,0,1,4.585.876,3.378,3.378,0,0,1,1.866,3.04,3.509,3.509,0,0,1-2.557,3.317v.046a3.883,3.883,0,0,1,3.086,3.823A4.136,4.136,0,0,1-68.5-206.11c-1.127.9-3.016,1.4-6.1,1.4a27.146,27.146,0,0,1-3.8-.229Zm3.478,5.944h1.151c1.842,0,2.834-.761,2.834-1.912,0-1.175-.9-1.8-2.488-1.8a9.388,9.388,0,0,0-1.5.094Zm0,6.886a10.864,10.864,0,0,0,1.359.047c1.589,0,2.995-.623,2.995-2.234,0-1.567-1.406-2.188-3.156-2.188h-1.2Z" transform="translate(110.238 220.644)"/>
            <path id="Trazado_17897" data-name="Trazado 17897" d="M-67.832-220.184a30.914,30.914,0,0,1,4.676-.322c2.3,0,3.915.345,5.021,1.221a3.939,3.939,0,0,1,1.429,3.247,4.117,4.117,0,0,1-2.743,3.824v.07a3.914,3.914,0,0,1,2.074,2.9c.483,1.75.967,3.777,1.267,4.375H-59.7a19.851,19.851,0,0,1-1.083-3.616c-.415-1.935-1.083-2.463-2.512-2.488h-1.059v6.1h-3.478Zm3.478,6.681h1.382c1.75,0,2.787-.875,2.787-2.235,0-1.428-.967-2.141-2.58-2.164a8.8,8.8,0,0,0-1.589.115Z" transform="translate(114.727 220.644)"/>
            <path id="Trazado_17898" data-name="Trazado 17898" d="M-48.207-211.465H-53.92v3.686h6.381v2.878h-9.9v-15.524h9.582v2.879H-53.92v3.224h5.713Z" transform="translate(119.14 220.679)"/>
            <path id="Trazado_17899" data-name="Trazado 17899" d="M-87.094-196c-.068-1.865-.138-4.123-.138-6.38H-87.3c-.484,1.982-1.128,4.193-1.727,6.012l-1.889,6.058h-2.741l-1.66-5.99c-.506-1.842-1.036-4.053-1.4-6.081h-.046c-.093,2.1-.161,4.492-.276,6.427l-.276,5.9h-3.247l.989-15.524H-94.9l1.519,5.183c.484,1.774.969,3.73,1.314,5.551H-92c.439-1.8.967-3.847,1.475-5.575l1.66-5.159h4.583l.851,15.524h-3.431Z" transform="translate(100.822 226.982)"/>
            <path id="Trazado_17900" data-name="Trazado 17900" d="M-81.943-194.045l-1.106,3.984h-3.64l4.746-15.524h4.606l4.814,15.524H-76.3l-1.2-3.984Zm3.938-2.627-.967-3.293c-.276-.922-.553-2.073-.784-2.995H-79.8c-.231.922-.462,2.1-.715,2.995l-.92,3.293Z" transform="translate(106.717 226.982)"/>
            <path id="Trazado_17901" data-name="Trazado 17901" d="M-74.489-205.345a30.927,30.927,0,0,1,4.676-.322c2.3,0,3.915.345,5.021,1.221a3.939,3.939,0,0,1,1.429,3.247,4.12,4.12,0,0,1-2.741,3.824v.07a3.913,3.913,0,0,1,2.073,2.9c.483,1.75.967,3.777,1.267,4.375h-3.593a20.1,20.1,0,0,1-1.083-3.616c-.413-1.933-1.081-2.463-2.51-2.488H-71.01v6.1h-3.479Zm3.479,6.681h1.382c1.75,0,2.785-.875,2.785-2.235,0-1.428-.967-2.141-2.579-2.164a8.784,8.784,0,0,0-1.589.115Z" transform="translate(111.899 226.947)"/>
            <path id="Trazado_17902" data-name="Trazado 17902" d="M-64.1-205.586h3.478v6.863h.07c.345-.6.712-1.15,1.059-1.7l3.525-5.159h4.306l-5.135,6.611,5.413,8.913h-4.1l-3.8-6.7-1.336,1.636v5.066H-64.1Z" transform="translate(116.312 226.982)"/>
            <path id="Trazado_17903" data-name="Trazado 17903" d="M-44.135-196.626h-5.713v3.686h6.381v2.878h-9.9v-15.524h9.582v2.879h-6.06v3.224h5.713Z" transform="translate(120.869 226.982)"/>
            <path id="Trazado_17904" data-name="Trazado 17904" d="M-40.509-202.638h-4.169v-2.948h11.932v2.948h-4.239v12.576h-3.525Z" transform="translate(124.561 226.982)"/>
            <path id="Trazado_17905" data-name="Trazado 17905" d="M-30.668-205.586v15.524h-3.523v-15.524Z" transform="translate(129.016 226.982)"/>
            <path id="Trazado_17906" data-name="Trazado 17906" d="M-28.778-190.062v-15.524h4.1l3.226,5.691a44.8,44.8,0,0,1,2.533,5.32h.068a58.018,58.018,0,0,1-.3-6.5v-4.515h3.226v15.524h-3.686l-3.317-5.988a57.6,57.6,0,0,1-2.7-5.482l-.068.024c.093,2.049.138,4.237.138,6.772v4.675Z" transform="translate(131.315 226.982)"/>
            <path id="Trazado_17907" data-name="Trazado 17907" d="M-3.639-190.728a17.378,17.378,0,0,1-5.183.876c-2.834,0-4.884-.715-6.312-2.1a7.513,7.513,0,0,1-2.188-5.645c.023-5.159,3.777-8.107,8.868-8.107a10.664,10.664,0,0,1,4.308.761l-.738,2.81A8.588,8.588,0,0,0-8.5-202.8c-2.925,0-5.136,1.658-5.136,5.022,0,3.2,2,5.089,4.883,5.089a4.742,4.742,0,0,0,1.728-.229v-3.248h-2.4V-198.9h5.783Z" transform="translate(136.181 226.934)"/>
            <path id="Trazado_17908" data-name="Trazado 17908" d="M2.417-190.062v-6.356l-4.907-9.168H1.518l1.59,3.731c.483,1.128.806,1.959,1.2,2.971h.047c.345-.967.714-1.865,1.175-2.971l1.566-3.731h3.938l-5.113,9.051v6.473Z" transform="translate(142.481 226.982)"/>
            <path id="Trazado_17909" data-name="Trazado 17909" d="M-100.326-190.506a28.8,28.8,0,0,1,4.744-.322,7.451,7.451,0,0,1,4.746,1.244,4.54,4.54,0,0,1,1.658,3.593,4.965,4.965,0,0,1-1.428,3.686,7.2,7.2,0,0,1-5.045,1.636,9.181,9.181,0,0,1-1.2-.068v5.549h-3.478Zm3.478,7.05a5.431,5.431,0,0,0,1.175.091c1.865,0,3.018-.945,3.018-2.533,0-1.429-.992-2.28-2.743-2.28a5.948,5.948,0,0,0-1.45.138Z" transform="translate(100.924 233.25)"/>
            <path id="Trazado_17910" data-name="Trazado 17910" d="M-86.623-190.747v8.938c0,2.671,1.014,4.031,2.811,4.031,1.842,0,2.855-1.289,2.855-4.031v-8.937h3.5v8.707c0,4.79-2.418,7.071-6.473,7.071-3.915,0-6.219-2.164-6.219-7.117v-8.661Z" transform="translate(105.248 233.285)"/>
            <path id="Trazado_17911" data-name="Trazado 17911" d="M-78.3-190.506a28.038,28.038,0,0,1,4.538-.322,8.572,8.572,0,0,1,4.583.876,3.379,3.379,0,0,1,1.866,3.04,3.509,3.509,0,0,1-2.557,3.317v.046a3.884,3.884,0,0,1,3.087,3.823,4.136,4.136,0,0,1-1.613,3.294c-1.128.9-3.018,1.406-6.1,1.406a27.114,27.114,0,0,1-3.8-.231Zm3.478,5.944h1.151c1.844,0,2.834-.761,2.834-1.912,0-1.175-.9-1.8-2.488-1.8a9.416,9.416,0,0,0-1.5.094Zm0,6.886a10.857,10.857,0,0,0,1.359.047c1.59,0,2.995-.623,2.995-2.234,0-1.567-1.4-2.188-3.156-2.188h-1.2Z" transform="translate(110.279 233.25)"/>
            <path id="Trazado_17912" data-name="Trazado 17912" d="M-67.735-190.747h3.523v12.576h6.173v2.948h-9.7Z" transform="translate(114.768 233.285)"/>
            <path id="Trazado_17913" data-name="Trazado 17913" d="M-55.148-190.747v15.524h-3.523v-15.524Z" transform="translate(118.618 233.285)"/>
            <path id="Trazado_17914" data-name="Trazado 17914" d="M-41.643-175.585a9.911,9.911,0,0,1-3.985.691c-5.367,0-8.131-3.362-8.131-7.785,0-5.3,3.777-8.247,8.477-8.247a9.16,9.16,0,0,1,3.823.691l-.714,2.787a7.583,7.583,0,0,0-2.948-.576c-2.788,0-4.952,1.681-4.952,5.136,0,3.11,1.842,5.068,4.975,5.068a8.77,8.77,0,0,0,2.925-.506Z" transform="translate(120.704 233.209)"/>
            <path id="Trazado_17915" data-name="Trazado 17915" d="M-39.313-190.747v15.524h-3.523v-15.524Z" transform="translate(125.344 233.285)"/>
            <path id="Trazado_17916" data-name="Trazado 17916" d="M-37.423-190.506a31.425,31.425,0,0,1,4.744-.322c2.949,0,4.86.53,6.357,1.658a6.868,6.868,0,0,1,2.626,5.851,7.877,7.877,0,0,1-2.579,6.287c-1.636,1.359-4.123,2-7.164,2a30.337,30.337,0,0,1-3.985-.231Zm3.523,12.669a6.4,6.4,0,0,0,1.221.07c3.179.023,5.252-1.727,5.252-5.437.024-3.224-1.865-4.93-4.883-4.93a7.232,7.232,0,0,0-1.59.14Z" transform="translate(127.643 233.25)"/>
            <path id="Trazado_17917" data-name="Trazado 17917" d="M-21.676-179.206l-1.106,3.984H-26.42l4.744-15.524h4.606l4.814,15.524h-3.777l-1.2-3.984Zm3.939-2.627-.967-3.293c-.276-.922-.553-2.073-.784-2.995h-.046c-.231.922-.46,2.1-.715,2.995l-.92,3.293Z" transform="translate(132.317 233.285)"/>
            <path id="Trazado_17918" data-name="Trazado 17918" d="M-14.22-190.506a31.425,31.425,0,0,1,4.744-.322c2.948,0,4.86.53,6.357,1.658a6.872,6.872,0,0,1,2.626,5.851,7.873,7.873,0,0,1-2.58,6.287c-1.634,1.359-4.123,2-7.162,2a30.32,30.32,0,0,1-3.985-.231Zm3.523,12.669a6.4,6.4,0,0,0,1.221.07c3.179.023,5.252-1.727,5.252-5.437.023-3.224-1.866-4.93-4.883-4.93a7.242,7.242,0,0,0-1.59.14Z" transform="translate(137.499 233.25)"/>
          </g>
          <rect id="Rectángulo_3076" data-name="Rectángulo 3076" width="153.512" height="12.892" transform="translate(2.934 60.983)"/>
          <g id="Grupo_12722" data-name="Grupo 12722" transform="translate(32.217 63.359)">
            <path id="Trazado_17919" data-name="Trazado 17919" d="M-80.193-233.483a12.656,12.656,0,0,1,2.076-.141,3.26,3.26,0,0,1,2.079.544,1.985,1.985,0,0,1,.727,1.573,2.178,2.178,0,0,1-.625,1.616,3.151,3.151,0,0,1-2.21.715,3.649,3.649,0,0,1-.523-.031v2.432h-1.523Zm1.523,3.087a2.475,2.475,0,0,0,.513.038c.816,0,1.321-.412,1.321-1.108,0-.626-.433-1-1.2-1a2.538,2.538,0,0,0-.635.061Z" transform="translate(80.193 233.685)" fill="#fff"/>
            <path id="Trazado_17920" data-name="Trazado 17920" d="M-73.244-233.483a13.6,13.6,0,0,1,2.046-.141,3.473,3.473,0,0,1,2.2.534,1.726,1.726,0,0,1,.624,1.422,1.8,1.8,0,0,1-1.2,1.674v.031a1.713,1.713,0,0,1,.906,1.271c.212.767.423,1.654.556,1.916h-1.574a8.875,8.875,0,0,1-.473-1.584c-.182-.848-.474-1.079-1.1-1.089h-.464v2.673h-1.522Zm1.522,2.926h.606c.767,0,1.22-.385,1.22-.98,0-.626-.423-.937-1.13-.947a3.874,3.874,0,0,0-.7.05Z" transform="translate(83.145 233.685)" fill="#fff"/>
            <path id="Trazado_17921" data-name="Trazado 17921" d="M-62.167-229.665h-2.5v1.614h2.794v1.261H-66.21v-6.8h4.2v1.261h-2.653v1.413h2.5Z" transform="translate(86.132 233.7)" fill="#fff"/>
            <path id="Trazado_17922" data-name="Trazado 17922" d="M-53.823-227.081a7.612,7.612,0,0,1-2.268.382,3.788,3.788,0,0,1-2.764-.918,3.283,3.283,0,0,1-.957-2.471c.009-2.261,1.654-3.552,3.882-3.552a4.69,4.69,0,0,1,1.886.333l-.322,1.231a3.779,3.779,0,0,0-1.584-.294,2.058,2.058,0,0,0-2.25,2.2,2.043,2.043,0,0,0,2.139,2.23,2.071,2.071,0,0,0,.757-.1v-1.422h-1.049v-1.2h2.53Z" transform="translate(88.85 233.679)" fill="#fff"/>
            <path id="Trazado_17923" data-name="Trazado 17923" d="M-50.394-233.589v3.914c0,1.17.446,1.767,1.232,1.767.806,0,1.25-.566,1.25-1.767v-3.914h1.533v3.814c0,2.1-1.057,3.1-2.834,3.1-1.715,0-2.723-.947-2.723-3.117v-3.793Z" transform="translate(92.195 233.7)" fill="#fff"/>
            <path id="Trazado_17924" data-name="Trazado 17924" d="M-44.265-226.79v-6.8h1.8l1.411,2.492a19.51,19.51,0,0,1,1.11,2.331h.03a25.6,25.6,0,0,1-.131-2.845v-1.978h1.412v6.8h-1.614l-1.452-2.622a25.221,25.221,0,0,1-1.18-2.4l-.031.01c.041.9.061,1.856.061,2.966v2.047Z" transform="translate(95.454 233.7)" fill="#fff"/>
            <path id="Trazado_17925" data-name="Trazado 17925" d="M-35.078-232.3H-36.9v-1.291h5.225v1.291h-1.856v5.508h-1.542Z" transform="translate(98.58 233.7)" fill="#fff"/>
            <path id="Trazado_17926" data-name="Trazado 17926" d="M-28.608-228.535l-.484,1.745h-1.593l2.077-6.8h2.017l2.109,6.8h-1.656l-.523-1.745Zm1.725-1.15-.423-1.442c-.123-.4-.244-.909-.343-1.312h-.02c-.1.4-.2.918-.313,1.312l-.4,1.442Z" transform="translate(101.222 233.7)" fill="#fff"/>
            <path id="Trazado_17927" data-name="Trazado 17927" d="M-22.73-228.341a3.924,3.924,0,0,0,1.705.425c.707,0,1.079-.294,1.079-.737,0-.423-.322-.665-1.14-.959-1.13-.393-1.866-1.019-1.866-2.008,0-1.16.97-2.047,2.573-2.047a4.141,4.141,0,0,1,1.734.343l-.343,1.241a3.217,3.217,0,0,0-1.42-.323c-.667,0-.989.3-.989.657,0,.433.383.624,1.259.957,1.2.443,1.767,1.07,1.767,2.027,0,1.14-.878,2.119-2.744,2.119a4.448,4.448,0,0,1-1.926-.423Z" transform="translate(104.468 233.667)" fill="#fff"/>
          </g>
        </g>
        <g id="Grupo_12725" data-name="Grupo 12725" transform="translate(727.177 156.723)">
          <g id="Grupo_12724" data-name="Grupo 12724" transform="translate(0)">
            <rect id="Rectángulo_3077" data-name="Rectángulo 3077" width="202.62" height="244.335" rx="8.111" transform="translate(0 26.072)" fill="#1ea5b0"/>
            <path id="Trazado_17928" data-name="Trazado 17928" d="M405.3-78.154H587.764a11.505,11.505,0,0,0,.88-4.422V-303.442A11.558,11.558,0,0,0,577.088-315H397.6a11.559,11.559,0,0,0-11.558,11.558V-82.576A11.559,11.559,0,0,0,397.6-71.02H405.3Z" transform="translate(-385.821 315)" fill="#1ea5b0"/>
            <path id="Trazado_17929" data-name="Trazado 17929" d="M544.335-315H463.149V-78.154H555.01a11.505,11.505,0,0,0,.88-4.422V-303.442A11.558,11.558,0,0,0,544.335-315Z" transform="translate(-353.068 315)" fill="#ffd01f" opacity="0.7" style="mix-blend-mode: soft-light;isolation: isolate"/>
            <path id="Trazado_17930" data-name="Trazado 17930" d="M407.442-315H397.6a11.559,11.559,0,0,0-11.558,11.558V-56.894A11.559,11.559,0,0,0,397.6-45.337h9.845Z" transform="translate(-385.821 315)" fill="#347a91"/>
            <path id="Trazado_17931" data-name="Trazado 17931" d="M578.669-148.764H403.175a12.128,12.128,0,0,0-12.128,12.128,12.128,12.128,0,0,0,12.128,12.128H578.669Z" transform="translate(-383.694 385.61)" fill="#fff"/>
          </g>
          <path id="Trazado_17932" data-name="Trazado 17932" d="M406.948-139.325v43.206l8.939-7.449,7.449,7.449v-43.206Z" transform="translate(-376.94 389.62)" fill="#ff5d10"/>
        </g>
        <g id="Grupo_12726" data-name="Grupo 12726" transform="translate(758.669 350.303)">
          <path id="Trazado_17933" data-name="Trazado 17933" d="M425.006-166.889c-.087-2.355-.174-5.206-.174-8.057h-.088c-.611,2.5-1.425,5.293-2.181,7.591l-2.385,7.651h-3.462l-2.093-7.563c-.641-2.328-1.309-5.119-1.775-7.679h-.058c-.117,2.647-.2,5.672-.349,8.115l-.349,7.446h-4.1l1.251-19.6h5.906l1.919,6.544c.611,2.241,1.222,4.713,1.658,7.011h.087c.554-2.268,1.221-4.858,1.862-7.04l2.094-6.515h5.789l1.076,19.6H425.3Z" transform="translate(-407.989 179.193)" fill="#fff"/>
          <path id="Trazado_17934" data-name="Trazado 17934" d="M430.5-164.417l-1.4,5.032h-4.6l5.993-19.6h5.817l6.081,19.6h-4.772l-1.513-5.032Zm4.974-3.315-1.221-4.159c-.349-1.164-.7-2.619-.99-3.783H433.2c-.291,1.164-.581,2.647-.9,3.783l-1.164,4.159Z" transform="translate(-400.975 179.193)" fill="#fff"/>
          <path id="Trazado_17935" data-name="Trazado 17935" d="M438.9-178.684a38.809,38.809,0,0,1,5.9-.407c2.908,0,4.945.436,6.34,1.542a4.973,4.973,0,0,1,1.805,4.1,5.2,5.2,0,0,1-3.462,4.829v.087c1.366.553,2.123,1.861,2.617,3.666.611,2.21,1.222,4.77,1.6,5.525h-4.536a25.192,25.192,0,0,1-1.368-4.566c-.524-2.443-1.366-3.113-3.172-3.142h-1.336v7.708H438.9Zm4.392,8.435h1.744c2.211,0,3.521-1.106,3.521-2.821,0-1.8-1.222-2.706-3.258-2.734a11.033,11.033,0,0,0-2.006.145Z" transform="translate(-394.861 179.149)" fill="#fff"/>
          <path id="Trazado_17936" data-name="Trazado 17936" d="M451-178.989h4.393v8.668h.087c.436-.757.9-1.455,1.338-2.153l4.451-6.515h5.438l-6.485,8.349,6.836,11.256h-5.178l-4.8-8.463-1.687,2.064v6.4H451Z" transform="translate(-389.72 179.193)" fill="#fff"/>
          <path id="Trazado_17937" data-name="Trazado 17937" d="M475.2-167.674h-7.215v4.653h8.058v3.636H463.533v-19.6h12.1v3.636h-7.651v4.072H475.2Z" transform="translate(-384.396 179.193)" fill="#fff"/>
          <path id="Trazado_17938" data-name="Trazado 17938" d="M478.759-175.266h-5.265v-3.723h15.067v3.723h-5.353v15.882h-4.45Z" transform="translate(-380.165 179.193)" fill="#fff"/>
          <path id="Trazado_17939" data-name="Trazado 17939" d="M490.172-178.989v19.6h-4.45v-19.6Z" transform="translate(-374.971 179.193)" fill="#fff"/>
          <path id="Trazado_17940" data-name="Trazado 17940" d="M491.539-159.384v-19.6h5.178l4.072,7.185a56.779,56.779,0,0,1,3.2,6.719h.087a73.029,73.029,0,0,1-.378-8.2v-5.7h4.073v19.6h-4.656l-4.187-7.563a72.766,72.766,0,0,1-3.4-6.923l-.088.03c.117,2.589.175,5.351.175,8.551v5.9Z" transform="translate(-372.5 179.193)" fill="#fff"/>
          <path id="Trazado_17941" data-name="Trazado 17941" d="M522.269-160.224a21.97,21.97,0,0,1-6.545,1.106c-3.576,0-6.166-.9-7.969-2.647a9.488,9.488,0,0,1-2.764-7.127c.03-6.517,4.77-10.24,11.2-10.24a13.494,13.494,0,0,1,5.438.96l-.93,3.549a10.851,10.851,0,0,0-4.566-.845c-3.694,0-6.487,2.1-6.487,6.342,0,4.043,2.53,6.428,6.166,6.428a5.918,5.918,0,0,0,2.181-.291v-4.1h-3.025v-3.461h7.3Z" transform="translate(-366.787 179.132)" fill="#fff"/>
        </g>
        <g id="Grupo_12727" data-name="Grupo 12727" transform="translate(762.671 178.266)">
          <circle id="Elipse_659" data-name="Elipse 659" cx="73.853" cy="73.853" r="73.853" transform="translate(0 0)" fill="#fff"/>
          <path id="Trazado_17942" data-name="Trazado 17942" d="M463.157-299.88c-.588,0-1.171.031-1.758.044v147.616c.587.014,1.17.044,1.758.044a73.852,73.852,0,0,0,73.852-73.852A73.853,73.853,0,0,0,463.157-299.88Z" transform="translate(-389.305 299.88)" fill="#fff6d2"/>
        </g>
        <g id="Grupo_12729" data-name="Grupo 12729" transform="translate(774.716 199.135)">
          <g id="Grupo_12728" data-name="Grupo 12728">
            <path id="Trazado_17943" data-name="Trazado 17943" d="M464.187-199.449c1.775,2.679,3.545,5.337,5.3,8,1.064,1.614.973,2.4-.4,3.778-.785.791-1.573,1.581-2.355,2.375a.813.813,0,0,0-.113.178c2.258,2.258,4.43,4.589,6.8,6.7a6.147,6.147,0,0,0,2.993.962c1.923.313,3.871.484,5.81.7a4.453,4.453,0,0,1,4.071,3.1,4.419,4.419,0,0,1-1.324,4.816c-2.282,2.251-4.524,4.546-6.812,6.793a6.6,6.6,0,0,1-7.685,1.5c-2.357-.979-4.719-1.96-6.988-3.117a14.336,14.336,0,0,1-3.469-2.512c-4.944-4.848-9.814-9.771-14.711-14.668l-1.094-1.093a15.529,15.529,0,0,1-11.7,2.8,14.97,14.97,0,0,1-12.324-10.414,14.736,14.736,0,0,1,3.495-15.741c4.77-5.015,9.772-9.811,14.637-14.739A4.788,4.788,0,0,0,439.481-222q5-17.687,9.9-35.4a3.512,3.512,0,0,0-.113-2.086,6.741,6.741,0,0,1,2.257-8.191,6.616,6.616,0,0,1,8.657.779q8.064,8.006,16.076,16.063c.358.356.715.714,1.137,1.135a9.3,9.3,0,0,1,7.454-2.479,8.781,8.781,0,0,1,5.467,2.787c3.152,3.38,3.117,8.038-.181,12.432.4.4.824.824,1.244,1.244q7.839,7.835,15.678,15.671c2.639,2.644,3.012,6.05,1.014,8.976-1.792,2.624-5.152,3.432-8.464,2.076a2.169,2.169,0,0,0-1.3-.122q-16.841,4.678-33.663,9.412A2.581,2.581,0,0,0,464.187-199.449Zm-10.8-55.256c-.132.313-.2.435-.236.566-3.092,10.989-6.192,21.977-9.227,32.982a2.057,2.057,0,0,0,.58,1.613c5.123,5.192,10.3,10.328,15.436,15.511a1.7,1.7,0,0,0,1.942.49q15.873-4.494,31.765-8.926c.472-.132.932-.3,1.49-.486ZM480.6-240.193q-11.434-11.436-22.869-22.869a8.078,8.078,0,0,0-1.009-.957,2.1,2.1,0,0,0-2.914.2,2.1,2.1,0,0,0-.177,2.914,7.1,7.1,0,0,0,.862.909q22.963,22.97,45.928,45.939a6.814,6.814,0,0,0,.91.861,2.1,2.1,0,0,0,2.914-.2,2.109,2.109,0,0,0,.18-2.917,7.985,7.985,0,0,0-.957-1.009Q492.033-228.76,480.6-240.193Zm-33.074,55.246c5.5,5.5,10.874,10.888,16.278,16.252a5.6,5.6,0,0,0,1.626,1.05c2.236,1.019,4.5,1.986,6.745,2.973a2.38,2.38,0,0,0,2.911-.586c1.2-1.232,2.426-2.433,3.642-3.649,1.06-1.06,2.119-2.12,3.365-3.365-2.3-.276-4.274-.539-6.252-.745a11.737,11.737,0,0,1-7.355-3.556c-4.507-4.558-9.059-9.069-13.592-13.6l-1.071-1.07Zm3.01-9.443L434.8-210.126c-2.862,2.864-5.708,5.6-8.415,8.463a9.079,9.079,0,0,0-2.416,5.487c1.086-1.086,1.916-1.941,2.774-2.768,1.113-1.073,2.4-1.16,3.34-.255.977.938.9,2.282-.229,3.439-1.364,1.393-2.754,2.763-4.133,4.142-1.44,1.44-1.44,1.44-.084,3.23q4.439-4.441,8.863-8.859c1.221-1.217,2.573-1.324,3.535-.311.929.979.819,2.257-.356,3.441-2.616,2.64-5.253,5.256-7.878,7.887-.339.34-.651.708-.972,1.057,1.205,1.087,2.134,1.184,3.206-.087,1.254-1.486,2.717-2.8,4.108-4.165,1.16-1.14,2.486-1.232,3.439-.276s.846,2.268-.295,3.441c-.812.835-1.644,1.648-2.468,2.472l.375.529c1.637-.9,3.5-1.542,4.864-2.751C445-188.626,447.679-191.534,450.534-194.389Zm-9.361-22.041-3.046,3.048,15.645,15.645,3.048-3.048Zm15.855,21.978,6.268,6.269a10.969,10.969,0,0,0,1.275-1.316,1.184,1.184,0,0,0,.147-1.036c-1.5-2.327-3.055-4.615-4.633-6.973Zm23.687-52.064,6.22,6.219a4.48,4.48,0,0,0-.038-6.223A4.445,4.445,0,0,0,480.715-246.516Z" transform="translate(-419.252 292.153)"/>
            <path id="Trazado_17944" data-name="Trazado 17944" d="M499.69-269.906c6.782,6.956,11.478,16.671,12.831,28,.133,1.107-.016,2.186-1.091,2.6a2.771,2.771,0,0,1-2.307-.141,3.614,3.614,0,0,1-1.05-2.264,43.893,43.893,0,0,0-6.726-18.7c-7.486-11.459-18.046-18.166-31.581-20.187-.46-.07-.926-.1-1.382-.181a2.218,2.218,0,0,1-2.055-2.5,2.143,2.143,0,0,1,2.592-1.915,79.237,79.237,0,0,1,8.329,1.621C485.322-281.362,492.612-277,499.69-269.906Z" transform="translate(-399.264 285.232)"/>
            <path id="Trazado_17945" data-name="Trazado 17945" d="M489.291-265.784A35.417,35.417,0,0,1,499.517-244.7a3.672,3.672,0,0,1-.688,2.513,2.241,2.241,0,0,1-2.116.378,3.349,3.349,0,0,1-1.477-1.936c-.782-2.711-1.052-5.615-2.127-8.189-4.585-10.976-12.854-17.448-24.623-19.368-2.385-.389-3.313-1.164-3.056-2.736.241-1.472,1.411-2.035,3.663-1.708A35.691,35.691,0,0,1,489.291-265.784Z" transform="translate(-399.656 289.223)"/>
            <path id="Trazado_17946" data-name="Trazado 17946" d="M480.879-259.608a21.926,21.926,0,0,1,5.784,12.346c.224,1.694-.516,2.858-1.881,3.02-1.338.16-2.265-.7-2.54-2.344-1.435-8.586-6.865-14.031-15.42-15.464-1.727-.291-2.586-1.261-2.348-2.659.221-1.3,1.338-1.959,2.982-1.767A22.971,22.971,0,0,1,480.879-259.608Z" transform="translate(-400.06 293.186)"/>
          </g>
          <path id="Trazado_17947" data-name="Trazado 17947" d="M446.039-258.949c-.132.313-.2.435-.236.566-3.092,10.989-6.192,21.977-9.227,32.982a2.057,2.057,0,0,0,.58,1.613c5.123,5.192,10.3,10.328,15.436,15.511a1.7,1.7,0,0,0,1.942.49q15.873-4.494,31.765-8.926c.472-.133.932-.3,1.49-.486Z" transform="translate(-411.905 296.396)" fill="#fdc301"/>
          <path id="Trazado_17948" data-name="Trazado 17948" d="M470.5-241.513q-11.434-11.436-22.869-22.869a8.08,8.08,0,0,0-1.009-.957,2.1,2.1,0,0,0-2.914.2,2.1,2.1,0,0,0-.177,2.914,7.106,7.106,0,0,0,.862.909q22.964,22.97,45.928,45.938a6.82,6.82,0,0,0,.91.861,2.1,2.1,0,0,0,2.914-.2,2.109,2.109,0,0,0,.18-2.916,7.985,7.985,0,0,0-.957-1.009Q481.934-230.08,470.5-241.513Z" transform="translate(-409.153 293.473)" fill="#f90f22"/>
          <path id="Trazado_17949" data-name="Trazado 17949" d="M439.1-208.11c5.5,5.5,10.874,10.888,16.278,16.252a5.6,5.6,0,0,0,1.626,1.05c2.236,1.019,4.5,1.986,6.745,2.973a2.38,2.38,0,0,0,2.911-.586c1.2-1.232,2.426-2.433,3.642-3.649,1.06-1.06,2.119-2.12,3.365-3.365-2.3-.276-4.274-.539-6.252-.745a11.737,11.737,0,0,1-7.355-3.556c-4.507-4.558-9.059-9.069-13.592-13.6l-1.071-1.07Z" transform="translate(-410.824 315.317)" fill="#006cf4"/>
          <path id="Trazado_17950" data-name="Trazado 17950" d="M449.129-211.924,433.392-227.66c-2.862,2.864-5.708,5.6-8.415,8.463a9.079,9.079,0,0,0-2.416,5.487c1.086-1.086,1.916-1.941,2.774-2.768,1.113-1.073,2.4-1.16,3.34-.255.977.938.9,2.282-.229,3.439-1.364,1.393-2.754,2.763-4.133,4.142-1.44,1.44-1.44,1.44-.084,3.23q4.439-4.441,8.863-8.859c1.221-1.217,2.573-1.324,3.535-.311.929.979.819,2.257-.356,3.441-2.616,2.64-5.253,5.256-7.878,7.887-.339.341-.651.708-.972,1.057,1.205,1.087,2.134,1.184,3.206-.087,1.254-1.486,2.717-2.8,4.108-4.165,1.16-1.14,2.486-1.232,3.439-.276s.846,2.268-.295,3.441c-.812.835-1.644,1.648-2.468,2.472l.375.529c1.637-.9,3.5-1.542,4.864-2.751C443.59-206.16,446.273-209.068,449.129-211.924Z" transform="translate(-417.847 309.687)" fill="#004eb0"/>
          <path id="Trazado_17951" data-name="Trazado 17951" d="M435.546-232.085l-3.046,3.048,15.645,15.645,3.048-3.048Z" transform="translate(-413.625 307.807)" fill="#f90f22"/>
          <path id="Trazado_17952" data-name="Trazado 17952" d="M445.766-215.748l6.268,6.269a10.97,10.97,0,0,0,1.275-1.316,1.184,1.184,0,0,0,.147-1.036c-1.5-2.327-3.055-4.615-4.633-6.973Z" transform="translate(-407.99 313.448)" fill="#004eb0"/>
          <path id="Trazado_17953" data-name="Trazado 17953" d="M462.391-252.826l6.22,6.219a4.48,4.48,0,0,0-.038-6.223A4.445,4.445,0,0,0,462.391-252.826Z" transform="translate(-400.929 298.463)" fill="#006cf4"/>
        </g>
      </g>
    </g>
  </g>
</svg>
